<?xml version="1.0" encoding="utf-8"?>
<!-- Generator: Adobe Illustrator 23.0.5, SVG Export Plug-In . SVG Version: 6.00 Build 0)  -->
<svg version="1.1" id="Layer_1" xmlns="http://www.w3.org/2000/svg" xmlns:xlink="http://www.w3.org/1999/xlink" x="0px" y="0px"
	 viewBox="0 0 512 512" style="enable-background:new 0 0 512 512;" xml:space="preserve">
<style type="text/css">
	.st0{fill:#FE6DCB;}
	.st1{fill:#B177EA;}
	.st2{fill:#FDD800;}
	.st3{fill:#33AEF1;}
	.st4{opacity:0.6;}
	.st5{fill:#FFFFFF;}
	.st6{fill:#390075;}
	.st7{fill:#FDFFFF;stroke:#390075;stroke-width:4.8328;stroke-miterlimit:10;}
	.st8{opacity:0.2;}
	.st9{fill:none;stroke:#390075;stroke-width:3;stroke-linecap:round;stroke-linejoin:round;stroke-miterlimit:10;}
	.st10{fill:#451661;}
	.st11{fill:#FB64C0;}
</style>
<g>
	<g>
		<g>
			<g>
				<g>
					<path class="st0" d="M454,436.6c0,0.5,0,1,0,1.6H419c0-0.5,0-1,0-1.6c0-90-73-163-163-163c-90,0-163,73-163,163
						c0,0.5,0,1,0,1.6H58c0-0.5,0-1,0-1.6c0-109.4,88.7-198,198-198S454,327.2,454,436.6z"/>
				</g>
			</g>
			<g>
				<g>
					<path class="st1" d="M419,436.6c0,0.5,0,1,0,1.6h-34c0-0.5,0-1,0-1.6c0-71.2-57.7-129-129-129c-71.2,0-129,57.7-129,129
						c0,0.5,0,1,0,1.6H93c0-0.5,0-1,0-1.6c0-90,73-163,163-163C346,273.6,419,346.6,419,436.6z"/>
				</g>
			</g>
			<g>
				<g>
					<path class="st2" d="M385,436.6c0,0.5,0,1,0,1.6h-27.8c0-0.5,0-1,0-1.6c0-55.9-45.3-101.2-101.2-101.2
						c-55.9,0-101.2,45.3-101.2,101.2c0,0.5,0,1,0,1.6H127c0-0.5,0-1,0-1.6c0-71.2,57.7-129,129-129
						C327.2,307.6,385,365.3,385,436.6z"/>
				</g>
			</g>
			<g>
				<g>
					<path class="st3" d="M357.2,436.6c0,0.5,0,1,0,1.6h-31.5c0-0.5,0-1,0-1.6c0-38.5-31.2-69.7-69.7-69.7
						c-38.5,0-69.7,31.2-69.7,69.7c0,0.5,0,1,0,1.6h-31.5c0-0.5,0-1,0-1.6c0-55.9,45.3-101.2,101.2-101.2
						C311.9,335.4,357.2,380.7,357.2,436.6z"/>
				</g>
			</g>
			<g class="st4">
				<g>
					<path class="st5" d="M454,436.6c0,0.5,0,1,0,1.6h-9.8c0-104-84.3-188.2-188.2-188.2c-104,0-188.2,84.3-188.2,188.2H58
						c0-0.5,0-1,0-1.6c0-109.4,88.7-198,198-198S454,327.2,454,436.6z"/>
				</g>
			</g>
			<g class="st4">
				<g>
					<path class="st5" d="M256,273.6c-89.3,0-161.8,71.8-162.9,160.8h10.3c0-80.5,74.4-152.5,154.9-152.5
						c80.5,0,150.3,72.1,150.3,152.5h10.4C417.8,345.4,345.3,273.6,256,273.6z"/>
				</g>
			</g>
			<g class="st4">
				<g>
					<path class="st5" d="M256,307.6c-69.6,0-126.4,55.2-128.9,124.2h14.2c0-63.3,51.3-114.6,114.6-114.6s114.6,51.3,114.6,114.6
						h14.2C382.4,362.8,325.6,307.6,256,307.6z"/>
				</g>
			</g>
			<g class="st4">
				<g>
					<path class="st5" d="M256,335.4c-55.9,0-101.2,45.3-101.2,101.2c0,0.5,0,1,0,1.5h7.3c0-49.2,44.6-93.6,93.9-93.6
						c49.2,0,94.3,44.4,94.3,93.6h6.8c0-0.5,0-1,0-1.5C357.2,380.7,311.9,335.4,256,335.4z"/>
				</g>
			</g>
			<g>
				<g>
					<path class="st6" d="M454,441.3H325.7c-0.8,0-1.7-0.3-2.3-0.9c-0.6-0.6-0.9-1.4-0.9-2.3c0-0.5,0-1,0-1.5
						c0-36.7-29.9-66.6-66.6-66.6c-36.7,0-66.6,29.9-66.6,66.6c0,0.5,0,1,0,1.5c0,0.8-0.3,1.7-0.9,2.3c-0.6,0.6-1.4,1-2.3,1H58
						c-1.7,0-3.1-1.4-3.1-3.1c0-0.5,0-1.1,0-1.6c0-53.7,20.9-104.3,58.9-142.2c38-38,88.5-58.9,142.2-58.9s104.3,20.9,142.2,58.9
						c38,38,58.9,88.5,58.9,142.2c0,0.5,0,1.1,0,1.6C457.1,439.9,455.7,441.3,454,441.3z M328.9,435h122
						C450,328.3,362.9,241.7,256,241.7c-106.9,0-194,86.6-194.9,193.3h122c0.8-39.5,33.2-71.3,72.9-71.3
						C295.7,363.7,328,395.5,328.9,435z"/>
				</g>
			</g>
			<g>
				<g>
					<path class="st6" d="M419,441.3h-93.3c-0.8,0-1.7-0.3-2.3-0.9c-0.6-0.6-0.9-1.4-0.9-2.3c0-0.5,0-1,0-1.5
						c0-36.7-29.9-66.6-66.6-66.6c-36.7,0-66.6,29.9-66.6,66.6c0,0.5,0,1,0,1.5c0,0.8-0.3,1.7-0.9,2.3c-0.6,0.6-1.4,1-2.3,1H93
						c-1.7,0-3.1-1.4-3.1-3.1c0-0.5,0-1.1,0-1.6c0-91.6,74.5-166.1,166.1-166.1c91.6,0,166.1,74.5,166.1,166.1c0,0.5,0,1.1,0,1.6
						C422.1,439.9,420.7,441.3,419,441.3z M328.9,435h87C415,347.6,343.6,276.8,256,276.8c-87.6,0-159,70.8-159.8,158.3h87
						c0.8-39.5,33.2-71.3,72.9-71.3C295.7,363.7,328,395.5,328.9,435z"/>
				</g>
			</g>
			<g>
				<g>
					<path class="st6" d="M385,441.3h-59.3c-0.8,0-1.7-0.3-2.3-0.9c-0.6-0.6-0.9-1.4-0.9-2.3c0-0.5,0-1,0-1.5
						c0-36.7-29.9-66.6-66.6-66.6c-36.7,0-66.6,29.9-66.6,66.6c0,0.5,0,1,0,1.5c0,0.8-0.3,1.7-0.9,2.3c-0.6,0.6-1.4,1-2.3,1H127
						c-1.7,0-3.1-1.4-3.1-3.1c0-0.6,0-1.1,0-1.7c0-72.9,59.3-132.1,132.1-132.1s132.1,59.3,132.1,132.1c0,0.6,0,1.1,0,1.7
						C388.1,439.9,386.7,441.3,385,441.3z M328.9,435h53c-0.8-68.7-57-124.3-125.8-124.3S131,366.3,130.2,435h53
						c0.8-39.5,33.2-71.3,72.9-71.3C295.7,363.7,328,395.5,328.9,435z"/>
				</g>
			</g>
			<g>
				<g>
					<path class="st6" d="M357.2,441.3h-31.5c-0.8,0-1.7-0.3-2.3-0.9c-0.6-0.6-0.9-1.4-0.9-2.3c0-0.5,0-1,0-1.5
						c0-36.7-29.9-66.6-66.6-66.6c-36.7,0-66.6,29.9-66.6,66.6c0,0.5,0,1,0,1.5c0,0.8-0.3,1.7-0.9,2.3c-0.6,0.6-1.4,1-2.3,1h-31.5
						c-1.7,0-3.1-1.4-3.1-3.1c0-0.5,0-1.1,0-1.6c0-57.5,46.8-104.3,104.3-104.3c57.5,0,104.3,46.8,104.3,104.3c0,0.5,0,1.1,0,1.6
						C360.3,439.9,358.9,441.3,357.2,441.3z M328.9,435H354c-0.8-53.3-44.5-96.5-98-96.5c-53.5,0-97.2,43.1-98,96.5h25.2
						c0.8-39.5,33.2-71.3,72.9-71.3C295.7,363.7,328,395.5,328.9,435z"/>
				</g>
			</g>
		</g>
		<g>
			<g>
				<g>
					<g>
						<path class="st7" d="M505.7,419.7c-2.2-12.3-13.9-20.6-26.3-18.4c-4.4,0.8-8.2,2.7-11.3,5.5c-5.9-15.3-21.9-24.7-38.7-21.8
							c-4.4,0.8-8.4,2.3-12,4.5c-9-14.2-26-22.4-43.7-19.3c-20.9,3.6-35.6,21.8-35.5,42.3c-0.2,0-0.4,0-0.6,0.1
							c-18,3.1-30,20.3-26.9,38.2c2.7,15.5,15.8,26.6,30.9,27.3c8.1,12.4,23,19.5,38.5,16.8c7.8-1.4,14.6-5,19.9-10.1
							c5.8,7.5,15.4,11.6,25.3,9.8c12.6-2.2,21.5-13.1,21.7-25.4c6.3,3.7,14,5.4,21.8,4c15.2-2.7,26-15.6,26.5-30.4
							C503,438,507.3,429,505.7,419.7z"/>
					</g>
				</g>
				<g class="st8">
					<g>
						<path class="st6" d="M484.9,400.9c2.9,2.8,5,6.5,5.8,10.8c1.4,8-2.3,15.8-8.8,19.9c-0.5,12.8-9.8,24-22.9,26.3
							c-6.8,1.2-13.4-0.2-18.8-3.5c-0.2,10.7-7.9,20-18.8,21.9c-8.6,1.5-16.9-2-21.9-8.5c-4.6,4.4-10.4,7.5-17.2,8.7
							c-13.4,2.3-26.3-3.8-33.3-14.5c-13-0.6-24.4-10.2-26.7-23.6c-1.5-8.5,0.9-16.7,6-22.9c-12.6,6.4-20,20.5-17.5,35.1
							c2.7,15.5,15.8,26.6,30.9,27.3c8.1,12.4,23,19.5,38.5,16.8c7.8-1.4,14.6-5,19.9-10.1c5.8,7.5,15.4,11.6,25.3,9.8
							c12.6-2.2,21.5-13.1,21.7-25.4c6.3,3.7,14,5.4,21.8,4c15.2-2.7,26-15.6,26.5-30.4c7.5-4.8,11.8-13.8,10.2-23.1
							C503.8,409.2,495.1,401.6,484.9,400.9z"/>
					</g>
				</g>
				<g>
					<g>
						<path class="st9" d="M505.7,419.7c-2.2-12.3-13.9-20.6-26.3-18.4c-4.4,0.8-8.2,2.7-11.3,5.5c-5.9-15.3-21.9-24.7-38.7-21.8
							c-4.4,0.8-8.4,2.3-12,4.5c-9-14.2-26-22.4-43.7-19.3c-20.9,3.6-35.6,21.8-35.5,42.3c-0.2,0-0.4,0-0.6,0.1
							c-18,3.1-30,20.3-26.9,38.2c2.7,15.5,15.8,26.6,30.9,27.3c8.1,12.4,23,19.5,38.5,16.8c7.8-1.4,14.6-5,19.9-10.1
							c5.8,7.5,15.4,11.6,25.3,9.8c12.6-2.2,21.5-13.1,21.7-25.4c6.3,3.7,14,5.4,21.8,4c15.2-2.7,26-15.6,26.5-30.4
							C503,438,507.3,429,505.7,419.7z"/>
					</g>
				</g>
				<g class="st8">
					<g>
						<path class="st6" d="M438.9,438c-10,2.7-17-1.8-20.2-4.6c-7.6,11-25.3,12.5-25.3,12.5c31.1-16.4,23.4-41.8,23.4-41.8
							c5.1,9.7,6.2,17.2,4.8,22.9C427.7,436.2,438.9,438,438.9,438z"/>
					</g>
				</g>
			</g>
			<g>
				<g>
					<g>
						<path class="st7" d="M17.2,445.6c1,14.8,12.2,27.4,27.5,29.6c7.9,1.1,15.5-0.7,21.7-4.7c0.6,12.3,9.9,22.9,22.6,24.7
							c10,1.4,19.5-3,25-10.6c5.4,4.9,12.4,8.3,20.2,9.4c15.6,2.2,30.3-5.4,38-18c15.1-1.2,27.8-12.7,30-28.3
							c2.6-18.1-10-34.8-28.1-37.4c-0.2,0-0.4,0-0.6-0.1c-0.6-20.5-15.9-38.2-36.9-41.1c-17.7-2.5-34.5,6.2-43,20.7
							c-3.7-2-7.7-3.5-12.2-4.1c-16.8-2.4-32.5,7.6-37.9,23c-3.1-2.7-7-4.5-11.4-5.1c-12.4-1.8-23.9,6.9-25.7,19.3
							C4.9,432.2,9.5,441.1,17.2,445.6z"/>
					</g>
				</g>
				<g class="st8">
					<g>
						<path class="st6" d="M6.2,422.9c-1.3,9.4,3.3,18.2,10.9,22.7c1,14.8,12.2,27.4,27.5,29.5c7.9,1.1,15.5-0.7,21.7-4.7
							c0.6,12.3,9.9,22.9,22.6,24.7c10,1.4,19.4-3,25-10.6c5.4,4.9,12.4,8.3,20.2,9.4c15.6,2.2,30.3-5.4,38-18
							c15.1-1.2,27.8-12.7,30-28.3c2.1-14.7-5.8-28.5-18.6-34.5c5.2,6,7.9,14.2,6.7,22.7c-1.9,13.5-12.9,23.4-25.9,24.4
							c-6.6,10.9-19.3,17.5-32.8,15.6c-6.7-1-12.7-3.9-17.4-8.1c-4.8,6.6-13,10.4-21.6,9.2c-11-1.6-19-10.7-19.5-21.3
							c-5.4,3.4-11.9,5-18.7,4.1c-13.2-1.9-22.9-12.7-23.8-25.5c-6.6-3.9-10.6-11.5-9.5-19.6c0.6-4.3,2.6-8.1,5.4-11
							C16.2,404.5,7.7,412.3,6.2,422.9z"/>
					</g>
				</g>
				<g>
					<g>
						<path class="st9" d="M17.2,445.6c1,14.8,12.2,27.4,27.5,29.6c7.9,1.1,15.5-0.7,21.7-4.7c0.6,12.3,9.9,22.9,22.6,24.7
							c10,1.4,19.5-3,25-10.6c5.4,4.9,12.4,8.3,20.2,9.4c15.6,2.2,30.3-5.4,38-18c15.1-1.2,27.8-12.7,30-28.3
							c2.6-18.1-10-34.8-28.1-37.4c-0.2,0-0.4,0-0.6-0.1c-0.6-20.5-15.9-38.2-36.9-41.1c-17.7-2.5-34.5,6.2-43,20.7
							c-3.7-2-7.7-3.5-12.2-4.1c-16.8-2.4-32.5,7.6-37.9,23c-3.1-2.7-7-4.5-11.4-5.1c-12.4-1.8-23.9,6.9-25.7,19.3
							C4.9,432.2,9.5,441.1,17.2,445.6z"/>
					</g>
				</g>
				<g class="st8">
					<g>
						<path class="st6" d="M73.8,440.4c10.1,2.4,16.9-2.3,20-5.3c8,10.7,25.7,11.6,25.7,11.6c-31.6-15.4-24.7-41.1-24.7-41.1
							c-4.8,9.9-5.6,17.4-4.1,23.1C85,438.2,73.8,440.4,73.8,440.4z"/>
					</g>
				</g>
			</g>
		</g>
		<g>
			<g>
				<g>
					<path class="st5" d="M180.1,252.8c-14,5-27.9,14.7-41,23.8c-21.8,15.2-41.2,28.9-54.8,16.6c-18.9-17.1,13.2-45,36.4-61.5
						c11.4-8.1,20.6-13.5,20.6-13.5L180.1,252.8z"/>
				</g>
			</g>
			<g class="st8">
				<g>
					<path class="st6" d="M180.1,252.8l-38.8-34.6c0,0-9.2,5.4-20.6,13.5c-0.3,10.7,0.5,26.1,6,36.8c-21.3,13.6-45.5,23.3-49.1,7.4
						c-1.1,6.2,0.3,11.9,5.6,16.7c13.6,12.3,33-1.5,54.9-16.7l1,0.7C152.1,267.5,166,257.8,180.1,252.8z"/>
				</g>
			</g>
			<g>
				<g>
					<path class="st6" d="M96.5,301.1c-5.1,0-9.9-1.6-14.2-5.6c-5.1-4.6-7.3-10.2-6.6-16.6c2.9-27.5,61.6-62,64.1-63.5
						c1.5-0.9,3.4-0.4,4.3,1.1c0.9,1.5,0.4,3.4-1.1,4.3c-16.3,9.5-58.9,38.5-61,58.7c-0.5,4.4,1,8.1,4.6,11.3
						c11.6,10.5,29.6-2.1,50.4-16.6c13.5-9.4,27.5-19.2,42.1-24.4c1.6-0.6,3.4,0.3,4,1.9c0.6,1.6-0.3,3.4-1.9,4
						c-13.8,4.9-27.4,14.5-40.6,23.7C124.7,290.5,109.4,301.1,96.5,301.1z"/>
				</g>
			</g>
			<g>
				<g>
					<g>
						<path class="st3" d="M463.7,141.3c-0.7,3.9-1.7,7.9-3,11.9c-6.1,18.4-18.9,37.1-39.2,47.3c-6.4,3.2-13.2,5.1-20.1,5.8
							c-1.9,0.2-3.9,0.3-5.8,0.4c0.5-5.6,2.9-13.7,11.5-19.9C419.9,177.6,450.3,186.4,463.7,141.3z"/>
					</g>
					<g>
						<path class="st6" d="M395.2,207.1l0-0.5c0.5-5.8,3-14,11.7-20.2c3.6-2.6,8.5-3.8,14.1-5.1c14.6-3.5,32.7-7.8,42.3-40.2
							l0.8,0.2c-0.7,4-1.7,8-3,12c-6.9,21.1-21.3,38.5-39.4,47.6c-6.3,3.1-13.1,5.1-20.3,5.9c-1.9,0.2-3.9,0.3-5.8,0.4L395.2,207.1z
							 M461.6,148.8c-10.2,26.1-26.8,30.1-40.4,33.3c-5.5,1.3-10.3,2.5-13.8,5c-8.2,5.9-10.7,13.6-11.3,19.2c1.7,0,3.5-0.2,5.3-0.3
							c7.1-0.7,13.8-2.7,20-5.8c17.9-9,32.1-26.2,39-47.1C460.8,151.7,461.2,150.3,461.6,148.8z"/>
					</g>
				</g>
				<g class="st4">
					<g>
						<path class="st5" d="M462,140.4c-0.7,3.9-1.7,7.9-3,11.9c-7.4,12.7-18.6,29.3-28.9,33c-16.2,5.8-22.7,4.7-30.4,20.2
							c-1.9,0.2-3.9,0.3-5.8,0.4c0.5-5.6,2.9-13.7,11.5-19.9C418.2,176.7,448.6,185.5,462,140.4z"/>
					</g>
				</g>
				<g>
					<g>
						<path class="st2" d="M463.7,141.2C463.7,141.2,463.7,141.3,463.7,141.2c-13.4,45.1-43.8,36.3-56.6,45.6
							c-8.6,6.2-11,14.3-11.5,19.9c-2.9,0.1-5.7-0.1-8.5-0.4c-1.9-0.2-3.9-0.5-5.8-0.9c-0.4-9.3,1.2-23.4,12.4-31.1
							c17.6-12.1,29.4-4.4,47.5-17.2c8.3-5.8,17.8-21.9,17.9-49.5c1.1,1.5,2.1,3.2,2.9,5.1C465.1,119.9,465.7,130.1,463.7,141.2z"/>
					</g>
				</g>
				<g class="st4">
					<g>
						<path class="st5" d="M462.1,112.7c-0.4,14.3-2.6,38.5-13.4,46.5c-15.6,11.5-23.9,11.6-38.1,14.9c-12.7,2.9-21.9,14-23.4,32.3
							c-1.9-0.2-3.9-0.5-5.8-0.9c-0.4-9.3,1.2-23.4,12.4-31.1c17.6-12.1,29.4-4.4,47.5-17.2c8.3-5.8,17.8-21.9,17.9-49.5
							C460.3,109,461.3,110.7,462.1,112.7z"/>
					</g>
				</g>
				<g>
					<g>
						<path class="st1" d="M459.1,107.5c-0.1,27.6-9.6,43.7-17.9,49.5c-18.1,12.8-29.9,5.1-47.5,17.2c-11.2,7.7-12.7,21.9-12.4,31.1
							c-2.5-0.5-5-1.1-7.4-1.9c-2.7-0.9-5.3-1.9-7.8-3c-2.1-8.6-4.1-23.6,4-34.5c11.9-16,53.2-13.2,68.9-27.7
							c11.5-10.6,14.3-24.1,14.5-35.3c1.2,0.5,2.3,1.2,3.3,2.1C457.7,105.8,458.4,106.6,459.1,107.5z"/>
					</g>
					<g>
						<path class="st6" d="M381.8,205.9l-0.5-0.1c-2.6-0.5-5.1-1.2-7.5-1.9c-2.7-0.8-5.3-1.9-7.9-3l-0.2-0.1l0-0.2
							c-2-8.2-4.2-23.7,4.1-34.8c6.3-8.5,21.1-11.9,35.3-15.1c12.9-2.9,26.3-5.9,33.6-12.7c9.4-8.7,14.1-20.1,14.4-35l0-0.6l0.6,0.3
							c1.2,0.5,2.4,1.3,3.4,2.2c0.9,0.7,1.6,1.6,2.4,2.5l0.1,0.1l0,0.1c-0.1,27.4-9.4,43.8-18.1,49.9c-9.3,6.5-17,7.8-24.5,9
							c-7.4,1.2-14.5,2.3-23,8.2c-10.8,7.4-12.6,20.8-12.2,30.8L381.8,205.9z M366.5,200.2c2.5,1.1,5,2.1,7.6,2.9
							c2.2,0.7,4.5,1.3,6.8,1.8c-0.3-10.1,1.7-23.5,12.6-31c8.7-6,16.2-7.2,23.4-8.4c7.4-1.2,15-2.4,24.1-8.8
							c8.5-6,17.6-22,17.7-49.1c-0.7-0.9-1.4-1.6-2.2-2.3c-0.8-0.7-1.7-1.3-2.6-1.7c-0.4,14.6-5.4,26.3-14.7,34.9
							c-7.5,7-21,10-34,12.9c-14.1,3.2-28.7,6.5-34.8,14.7C362.5,176.9,364.5,192,366.5,200.2z"/>
					</g>
				</g>
				<g class="st4">
					<g>
						<path class="st5" d="M456,104.2c-1.5,15.9-6.9,35-17.9,43c-27.2,19.9-75.6,3.1-64.9,55.4c-2.7-0.9-5.3-1.9-7.8-3
							c-2.1-8.6-4.1-23.6,4-34.5c11.9-16,53.2-13.2,68.9-27.7c11.5-10.6,14.3-24.1,14.5-35.3C453.9,102.6,455,103.3,456,104.2z"/>
					</g>
				</g>
				<g>
					<g>
						<path class="st0" d="M453.5,103c-0.2,11.2-3.1,24.6-14.5,35.3c-15.7,14.5-57,11.7-68.9,27.7c-8,10.9-6.1,25.9-4,34.5
							c-5.5-2.5-10.5-5.7-14.8-9.5c-1.6-1.4-3.1-2.8-4.4-4.3c-0.8-12.1-0.7-36.3,18.9-46.3c25.7-13.1,69.6,9.1,83.2-38.5
							c0.9,0,2,0.2,3.1,0.5c0.4,0.1,0.8,0.3,1.2,0.4C453.3,102.9,453.4,102.9,453.5,103z"/>
					</g>
					<g>
						<path class="st6" d="M366.7,201.2l-0.8-0.4c-5.6-2.6-10.6-5.8-14.9-9.5c-1.6-1.4-3.1-2.9-4.5-4.3l-0.1-0.1l0-0.1
							c-1.5-23.8,5-39.5,19.2-46.8c8.7-4.4,19.3-4.9,30.5-5.3c21.4-0.8,43.6-1.7,52.5-32.9l0.1-0.3l0.3,0c1,0,2.1,0.2,3.2,0.5
							c0.4,0.1,0.8,0.3,1.2,0.5c0,0,0.1,0,0.2,0.1l0.3,0.2l0,0.3c-0.3,14.9-5.2,26.8-14.7,35.6c-7.5,7-21,10-34,12.9
							c-14.1,3.2-28.7,6.5-34.8,14.7c-8,10.8-5.9,26-3.9,34.1L366.7,201.2z M347.3,186.5c1.3,1.4,2.7,2.8,4.3,4.2
							c4.1,3.5,8.8,6.6,13.9,9c-1.9-8.4-3.7-23.3,4.3-34c6.3-8.5,21.1-11.9,35.3-15.1c12.9-2.9,26.3-5.9,33.6-12.7
							c9.3-8.6,14-20,14.4-34.7c-0.4-0.2-0.8-0.3-1.2-0.4c-0.9-0.3-1.8-0.5-2.6-0.5c-9.1,31.5-31.5,32.4-53.2,33.2
							c-11.1,0.4-21.5,0.8-30.1,5.2C352.1,147.8,345.8,163.2,347.3,186.5z"/>
					</g>
				</g>
				<g class="st4">
					<g>
						<path class="st5" d="M450.4,100.7c-2.2,8.1-5.3,15.8-10.7,22.1c-7.1,8.2-17.4,12.9-27.8,15.6c-10.5,2.7-21.3,3.5-32,5.2
							c-2.9,0.5-5.8,1-8.5,2c-8.9,3.3-15.3,11.5-18.5,20.4c-2.2,6.3-3.1,12.9-3.4,19.5c0,1,0.1,2.3,0.1,3.7
							c-1.6-1.4-3.1-2.8-4.4-4.3c-0.8-12.1-0.7-36.3,18.9-46.3c25.7-13.1,69.6,9.1,83.2-38.5C448.2,100.2,449.2,100.3,450.4,100.7z"
							/>
					</g>
				</g>
				<g>
					<g>
						<g>
							<path class="st6" d="M366.1,203c-0.4,0-0.7-0.1-1.1-0.2c-7.9-3.6-14.8-8.6-20.1-14.4c-0.4-0.4-0.6-1-0.7-1.6
								c-1.6-24.7,5.3-41.1,20.3-48.8c9.2-4.7,20.4-5.1,31.3-5.5c21.6-0.8,42-1.6,50.5-31.4c0.3-1.1,1.3-1.8,2.4-1.8
								c0,0,0.1,0,0.1,0c1.6,0,3.3,0.4,5.2,1.2c0.1,0,0.3,0.1,0.4,0.2c0.9,0.4,1.4,1.3,1.4,2.3c-0.3,15.5-5.5,27.9-15.3,37.1
								c-7.9,7.4-21.7,10.4-35,13.4c-13.7,3.1-27.9,6.3-33.6,13.9c-7.5,10.1-5.4,24.6-3.6,32.4c0.2,0.9-0.1,1.9-0.9,2.6
								C367.3,202.8,366.7,203,366.1,203z M349.4,185.6c3.7,3.9,8.2,7.3,13.2,10.2c-1.5-9-1.7-21.7,5.5-31.4
								c6.8-9.2,21.2-12.4,36.6-15.9c12.6-2.8,25.7-5.8,32.6-12.2c8.6-7.9,13-18.3,13.7-31.7c0,0-0.1,0-0.1,0
								c-9.9,31.2-33.6,32.2-54.6,33c-10.8,0.4-21.1,0.8-29.2,5C354.1,149.2,348.2,163.6,349.4,185.6z"/>
						</g>
					</g>
					<g>
						<g>
							<path class="st6" d="M381.4,207.9c-0.2,0-0.3,0-0.5,0c-5.5-1.1-10.8-2.8-15.8-5.1c-0.7-0.3-1.2-1-1.4-1.7
								c-2.1-8.6-4.3-24.8,4.4-36.6c6.8-9.2,21.2-12.4,36.6-15.9c12.6-2.8,25.7-5.8,32.6-12.2c8.9-8.3,13.4-19.2,13.7-33.5
								c0-0.9,0.5-1.6,1.2-2.1c0.7-0.5,1.6-0.5,2.4-0.2c2.5,1.1,4.7,2.9,6.6,5.3c0.3,0.4,0.5,1,0.5,1.6c-0.1,28.3-9.9,45.2-19,51.6
								c-9.7,6.8-17.6,8.1-25.4,9.4c-7.2,1.2-14,2.3-22.2,7.9c-10,6.9-11.6,19.5-11.3,28.9c0,0.8-0.3,1.5-0.9,2
								C382.6,207.7,382,207.9,381.4,207.9z M368.3,198.6c3.4,1.5,6.9,2.7,10.5,3.6c0.1-10.2,2.8-22.7,13.5-30
								c9.1-6.3,16.8-7.5,24.3-8.7c7.5-1.2,14.5-2.3,23.2-8.5c7.6-5.4,16.5-20.8,16.8-46.6c-0.2-0.3-0.5-0.6-0.8-0.8
								c-1.2,13.4-6.2,24.3-15.1,32.5c-7.9,7.4-21.7,10.4-35,13.4c-13.7,3.1-27.9,6.3-33.6,13.9C365,177.1,366.5,190.7,368.3,198.6z
								"/>
						</g>
					</g>
					<g>
						<g>
							<path class="st6" d="M394.5,209.3c-4.5,0-9.1-0.5-13.6-1.4c-1.2-0.2-2-1.2-2-2.4c-0.4-10.7,1.6-25.2,13.5-33.3
								c9.1-6.3,16.8-7.5,24.3-8.7c7.5-1.2,14.5-2.3,23.2-8.5c7.7-5.4,16.7-21.1,16.8-47.5c0-1.1,0.7-2.1,1.7-2.4
								c1-0.3,2.2,0,2.8,0.9c5.8,7.5,7.7,20.8,5.1,35.7c0,0.1,0,0.2-0.1,0.3c0,0,0,0,0,0.1h0c-10.1,34-30,38.7-44.5,42.2
								c-5.3,1.3-9.9,2.4-13,4.6c-7.8,5.6-10,12.9-10.5,18.1c-0.1,1.3-1.2,2.3-2.5,2.3C395.3,209.3,394.9,209.3,394.5,209.3z
								 M383.9,203.3c3.2,0.5,6.4,0.8,9.5,0.9c1-6,4-13.5,12.3-19.4c3.9-2.9,9.2-4.1,14.8-5.5c14-3.4,31.5-7.5,40.7-38.6
								c1.5-8.5,1.4-16.3-0.1-22.5c-2.2,21.9-10.5,35.4-18.4,41c-9.7,6.8-17.6,8.1-25.4,9.4c-7.2,1.2-14,2.3-22.2,7.9
								C385.9,182.7,383.8,194.1,383.9,203.3z M463.7,141.2L463.7,141.2L463.7,141.2z"/>
						</g>
					</g>
					<g>
						<g>
							<path class="st6" d="M395.6,209.3c-0.7,0-1.4-0.3-1.9-0.8c-0.5-0.5-0.7-1.2-0.7-2c0.6-6.2,3.2-15,12.6-21.8
								c3.9-2.9,9.2-4.1,14.8-5.5c14-3.4,31.5-7.5,40.8-38.7c0.4-1.3,1.7-2.1,3-1.8c1.3,0.3,2.2,1.6,1.9,2.9
								c-3.6,20.8-17,47.7-43.6,61.1C414.4,206.9,405.4,209.1,395.6,209.3C395.7,209.3,395.7,209.3,395.6,209.3z M449.3,171.5
								c-9,8.2-19.2,10.7-27.6,12.7c-5.3,1.3-9.9,2.4-13,4.6c-6.4,4.6-9,10.4-10,15.2c7.8-0.5,15.1-2.4,21.8-5.8
								C433.1,191.9,442.6,182.1,449.3,171.5z"/>
						</g>
					</g>
				</g>
				<g>
					<g>
						<path class="st6" d="M394.5,209.9c-4.5,0-9.2-0.5-13.8-1.4c-5.5-1.1-10.9-2.8-15.9-5.2c-7.9-3.6-14.9-8.7-20.3-14.5
							c-0.5-0.5-0.8-1.2-0.8-1.9c-1.6-25,5.4-41.6,20.6-49.4c9.3-4.7,20.6-5.2,31.6-5.6c21.4-0.8,41.6-1.6,50-31
							c0.4-1.3,1.6-2.3,3-2.3c0,0,0.1,0,0.1,0c1.7,0,3.4,0.4,5.4,1.2c0.1,0.1,0.3,0.1,0.4,0.2c2.6,1.2,4.9,3,6.8,5.5c0,0,0,0,0,0
							c5.9,7.6,7.8,21.2,5.2,36.2c0,0.1,0,0.1,0,0.2c-3.7,20.9-17.1,47.9-43.8,61.4c-8.3,4.2-17.5,6.4-27.3,6.5
							C395.3,209.9,394.9,209.9,394.5,209.9z M349.9,185.4c4.7,4.9,10.7,9.1,17.5,12.2c4.6,2.1,9.5,3.7,14.6,4.7
							c4.5,0.9,9.1,1.3,13.6,1.3c8.8-0.1,17.1-2.1,24.5-5.9c24.7-12.4,37.1-37.6,40.5-57c0-0.1,0-0.1,0-0.2c2.3-13.1,0.7-25-4-31.1
							l0,0c-1.3-1.7-2.8-2.9-4.4-3.6c0,0-0.1,0-0.1-0.1c-0.3-0.1-0.6-0.3-0.9-0.3c-10.1,31.1-33.9,32-55,32.8
							c-10.8,0.4-20.9,0.8-29,4.9C354.6,149.6,348.8,163.8,349.9,185.4z"/>
					</g>
				</g>
				<g>
					<g>
						<path class="st6" d="M463.7,144.4c-0.3,0-0.6,0-0.9-0.1c-1.7-0.5-2.6-2.3-2.1-3.9c0.2-0.7,0.4-1.4,0.6-2.1
							c0.5-1.7,2.2-2.7,3.9-2.2c1.7,0.5,2.7,2.2,2.2,3.9c-0.2,0.8-0.4,1.5-0.6,2.2C466.3,143.5,465.1,144.4,463.7,144.4z"/>
					</g>
				</g>
			</g>
			<g>
				<g>
					<path class="st5" d="M249.2,317.3c-70.2-0.9-99.4-33.7-109.1-67.1c-8.5-29.2-2.2-58.8,4.5-67.9c0,0,50.5,12.1,130-9.7
						c6.4-1.8,12.5-3.1,18.4-4c66.3-10.3,94.6,31.9,97,57.3C392.7,253.7,380.8,319,249.2,317.3z"/>
				</g>
				<g>
					<path class="st6" d="M254.1,317.8c-1.6,0-3.3,0-4.9,0c-32.3-0.4-58.4-7.6-77.5-21.4c-15.7-11.3-26.4-26.8-32-45.9
						c-8.3-28.6-2.6-58.5,4.6-68.2l0.2-0.2l0.3,0.1c0.5,0.1,51.3,11.8,129.8-9.7c6.3-1.7,12.5-3.1,18.4-4c36.5-5.7,59.4,5,72.2,14.9
						c16.9,13.1,24.2,30.7,25.3,42.8c0.9,9.5,1,34.1-18.6,55.4C349.6,305.5,310,317.8,254.1,317.8z M144.8,182.9
						c-7,9.8-12.5,39.2-4.3,67.3c8.7,29.9,34.7,65.8,108.7,66.8c58.2,0.7,99.2-11.4,122-36.1c19.4-21,19.3-45.3,18.4-54.7
						c-1.2-11.9-8.3-29.2-25-42.2c-12.6-9.8-35.3-20.3-71.5-14.7c-5.9,0.9-12,2.2-18.3,4C199,193.9,149,183.8,144.8,182.9z"/>
				</g>
			</g>
			<g class="st8">
				<g>
					<path class="st6" d="M387.5,231.5c-7.7,30.2-38.5,67.9-138.8,66.6c-40.7-0.5-67.5-11.7-84.9-27.6c-7.9-7.2-3.7-20.4,7-21.7
						c4.1-0.5,8.3-1.2,12.4-2c55.5-10.6,98.3-42.6,109.7-78.1c-5.8,0.9-11.9,2.2-18.4,4c-79.5,21.8-130,9.7-130,9.7
						c-3.8,5.2-7.5,17-8.4,31.6c-0.6-5.4-0.8-10.7-0.7-15.7c-8.3,37.5,0.9,117.3,110.9,118.7C369.6,318.6,387.9,261.5,387.5,231.5z"
						/>
				</g>
			</g>
			<g>
				<g>
					<path class="st6" d="M254.1,320.5c-1.6,0-3.3,0-5,0c-65.9-0.8-94-29.6-106-53.6c-17.1-34.4-9.8-74.5-1.1-86.3
						c0.7-1,2-1.5,3.3-1.2l0,0c0.5,0.1,50.7,11.7,128.4-9.6c45.4-12.4,73.8-2,89.6,8.9c19.9,13.7,28.5,33.4,29.8,47.2
						c1,9.9,1,35.4-19.3,57.5C351,308,310.8,320.5,254.1,320.5z M146.1,185.9c-7.2,12.4-12.3,48,2.8,78.1
						c16,32.2,50.8,49.5,100.4,50.2c57.4,0.7,97.7-11.1,119.9-35.3c18.6-20.2,18.6-43.5,17.7-52.6c-1.1-11.8-8.9-30.1-27.1-42.6
						c-14.7-10.2-41.3-19.8-84.4-8C204.3,195.3,156.7,188,146.1,185.9z M144.6,182.4L144.6,182.4L144.6,182.4z"/>
				</g>
			</g>
			<g>
				<g>
					<path class="st5" d="M212.3,283.6c-0.7,0.3-1.4,0.5-2.1,0.8c0,0,0,0,0,0c-36.8,14.4-72.4,58.8-93.6,39.6
						c-5.3-4.8-6.7-10.5-5.6-16.7l0,0c4.9-26.6,57.9-60.9,57.9-60.9L212.3,283.6z"/>
				</g>
			</g>
			<g class="st8">
				<g>
					<path class="st10" d="M210.2,284.5c-36.8,14.4-72.4,58.8-93.6,39.6c-5.3-4.8-6.7-10.5-5.6-16.7c4.1,18.2,35.3,2.8,58.1-13.6
						C191.5,277.7,209.6,284.2,210.2,284.5z"/>
				</g>
				<g>
					<path class="st6" d="M128.8,329.3c-4.6,0-8.7-1.5-12.5-4.9c-5.1-4.6-7-10.3-5.7-17.1l0.4-2l0.5,2c0.8,3.5,2.7,5.9,5.7,7.1
						c10.9,4.2,33.9-8.1,51.7-20.9c22.7-16.3,40.7-9.7,41.5-9.4l1,0.4l-1,0.4c-13.4,5.2-26.5,14.4-39.1,23.2
						C155.2,319.2,140.8,329.3,128.8,329.3z M111.1,309.4c-0.5,5.6,1.4,10.5,5.7,14.4c13.2,12,32-1.2,53.8-16.4
						c12.3-8.6,25.1-17.5,38.2-22.8c-4.3-1.2-20.4-4.1-39.5,9.7c-18,12.9-41.3,25.2-52.5,21C114.1,314.1,112.2,312.2,111.1,309.4z"
						/>
				</g>
			</g>
			<g>
				<g>
					<path class="st6" d="M169.4,247.3c-2.8,3.8-6.1,6.6-9.5,9.4c-3.4,2.8-7,5.4-10.4,8c-3.5,2.7-6.8,5.5-10.1,8.5
						c-3.2,2.9-6.4,6-9.4,9.1c-3,3.2-5.8,6.4-8.3,9.9c-2.5,3.4-4.7,7.1-6.2,10.8c-1.5,3.8-2.2,7.7-1.4,11.2c0.4,1.7,1.2,3.4,2.3,4.8
						c0.3,0.4,0.6,0.7,0.9,1.1c0.3,0.4,0.6,0.7,1,1l0.5,0.5l0.6,0.4l1.1,0.9c3.1,2.1,6.7,3,10.5,2.4c3.9-0.4,7.8-1.8,11.6-3.7
						c7.7-3.7,15-8.7,22.2-13.7c7.3-5,14.5-10.2,22.2-15l2.9-1.8l2.9-1.7c2-1.1,3.9-2.4,5.9-3.5c2-1.1,4.1-2.1,6.3-2.7
						c2.2-0.7,4.6-1,7.1-0.7c0.6,0.1,1.1,0.7,1,1.3c0,0.2-0.1,0.4-0.3,0.6l0,0.1c-0.8,1-1.7,1.7-2.6,2.4c-0.9,0.7-1.8,1.3-2.7,1.9
						c-0.9,0.5-1.9,1.1-2.8,1.6c-0.5,0.3-1,0.5-1.4,0.7c-0.5,0.3-1,0.5-1.4,0.7c-2,0.9-3.9,1.9-5.8,3l-2.8,1.7l-2.8,1.7
						c-7.4,4.7-14.6,9.8-21.9,14.9c-7.3,5.1-14.8,10.2-23.1,14.2c-4.2,2-8.7,3.7-13.7,4.2c-1.2,0.2-2.5,0.1-3.8,0.2
						c-0.6,0-1.3-0.1-1.9-0.2l-1-0.1c-0.3-0.1-0.6-0.2-1-0.2c-0.6-0.2-1.3-0.3-1.9-0.5l-1.8-0.7c-0.3-0.1-0.6-0.2-0.9-0.4l-0.8-0.5
						c-0.6-0.3-1.1-0.7-1.7-1l-1.5-1.2l-0.8-0.6l-0.7-0.7c-0.5-0.4-0.9-0.9-1.3-1.4c-0.4-0.5-0.8-1-1.2-1.5
						c-1.5-2.1-2.7-4.6-3.3-7.2c-0.6-2.6-0.6-5.2-0.3-7.8c0.3-2.5,1.1-4.9,1.9-7.1c1.8-4.5,4.3-8.5,7-12.2c2.7-3.7,5.7-7.2,8.8-10.5
						c3.1-3.3,6.4-6.5,9.7-9.5c3.3-3,6.8-5.9,10.2-8.9c3.4-2.9,6.9-5.8,10.7-8.2c1.9-1.3,3.8-2.5,5.8-3.5c2-1,4.1-1.9,6.5-2.4
						c0.6-0.1,1.2,0.2,1.3,0.8C169.7,246.8,169.6,247.1,169.4,247.3L169.4,247.3z"/>
				</g>
			</g>
			<g>
				<g>
					<path class="st5" d="M419.4,297.5c-12.9,7.4-28.2-6.4-35.5-12.3c-7.3-5.9-23.7,6.1-44.3-13.3c-8-7.5-11.8-16.8-13.5-25.6
						c-3-16.1,1.3-30.7,1.3-30.7l41.6-22c45.7,17.1,61,58.6,59.2,84.1C427.4,287.4,424.3,294.7,419.4,297.5z"/>
				</g>
			</g>
			<g class="st8">
				<g>
					<path class="st6" d="M419.4,297.5c-12.9,7.4-28.2-6.4-35.5-12.3c-7.3-5.9-23.7,6.1-44.3-13.3c-8-7.5-11.8-16.8-13.5-25.6
						c0,0,0,0,0,0s-3.6-15,1.7-27.5c0,0,12.1,51.8,57.9,41.3c0,0,22.1,32.4,42.4,17.6C427.4,287.4,424.3,294.7,419.4,297.5z"/>
				</g>
			</g>
			<g>
				<g>
					<path class="st6" d="M326.3,240c2,5.1,3.5,9.9,5.5,14.5c2,4.5,4.4,8.9,7.6,12.6c0.8,1,1.7,1.8,2.5,2.7c0.9,0.9,1.9,1.7,2.8,2.5
						c1.9,1.6,4,3,6.2,4.2c4.3,2.4,9,3.7,14,4c2.5,0.2,5,0.1,7.6,0c1.3-0.1,2.7-0.1,4.1-0.1c1.4,0,3,0.1,4.7,0.4
						c0.4,0.1,0.9,0.2,1.3,0.3c0.4,0.2,0.9,0.3,1.3,0.5c0.4,0.2,0.9,0.4,1.3,0.7l0.6,0.4c0.1,0.1,0.2,0.1,0.2,0.2l0.2,0.2l3.1,2.5
						c2,1.7,4.1,3.2,6.2,4.7c4.2,2.9,8.7,5.3,13.2,6c2.2,0.4,4.4,0.3,6.5-0.3c1-0.3,2-0.8,2.9-1.3c0.8-0.5,1.5-1.2,2.2-2
						c1.3-1.6,2.4-3.8,3.1-6.1c0.7-2.3,1.2-4.7,1.5-7.2c0.6-5,0.4-10.1-0.4-15.2c-1.5-10.1-5-20-10.1-28.9
						c-5.1-8.9-11.8-16.9-19.8-23.5c-2-1.6-4-3.2-6.2-4.6c-2.1-1.4-4.4-2.7-6.7-3.9c-2.3-1.2-4.5-2.5-6.7-3.8
						c-2.2-1.4-4.4-2.8-6.5-4.9l0,0c-0.4-0.4-0.4-1.2,0-1.6c0.2-0.2,0.5-0.3,0.8-0.3c2.9-0.1,5.7,0.4,8.3,1.3
						c2.6,0.9,5.1,2.1,7.5,3.5c4.7,2.9,9.2,6,13.5,9.5c8.5,7,15.8,15.6,21.2,25.2c5.5,9.6,9.3,20.2,10.8,31.2
						c0.8,5.5,1,11.1,0.4,16.8c-0.3,2.8-0.9,5.6-1.8,8.4c-0.9,2.8-2.2,5.6-4.2,8.1c-1,1.2-2.2,2.4-3.7,3.3c-1.4,0.9-2.8,1.5-4.4,2
						c-3.1,1-6.3,1-9.4,0.5c-3-0.5-5.8-1.5-8.4-2.8c-2.6-1.2-5-2.7-7.3-4.3c-2.3-1.6-4.5-3.3-6.6-5l-3.1-2.5l-0.2-0.2
						c-0.1-0.1-0.1-0.1-0.2-0.1l-0.2-0.2c-0.1-0.1-0.3-0.2-0.5-0.3c-0.2-0.1-0.4-0.1-0.6-0.2c-0.2-0.1-0.4-0.1-0.7-0.2
						c-1.9-0.4-4.5-0.3-7.2-0.1c-2.7,0.1-5.5,0.2-8.3,0c-5.7-0.3-11.5-2-16.5-4.8c-2.5-1.4-4.9-3-7.1-4.8c-0.5-0.5-1.1-0.9-1.6-1.3
						l-1.6-1.4c-1-1-2.1-2-3-3c-1.9-2.1-3.7-4.4-5.2-6.8c-1.5-2.5-2.7-5.1-3.6-7.8c-1.9-5.4-2.6-11.1-1.5-16.7
						c0.1-0.6,0.7-1,1.3-0.8C325.8,239.4,326.1,239.7,326.3,240L326.3,240z"/>
				</g>
			</g>
			<g>
				<g>
					<path class="st5" d="M294.7,128.6c9.4,47.5-36.1,86.5-99.3,99c-63.2,12.5-120.1-6.1-129.6-53.7
						c-9.4-47.5,32.2-105.9,95.4-118.5C224.5,43,285.3,81.1,294.7,128.6z"/>
				</g>
			</g>
			<g class="st8">
				<g>
					<path class="st6" d="M196.5,227.3c-63.2,12.5-120.1-6.1-129.6-53.7c-0.1-0.3-0.1-0.6-0.2-0.9c17.6,36,68.6,49.3,124.4,38.2
						c63.1-12.5,108.6-51.4,99.3-98.8c2.4,5.2,4.2,10.6,5.3,16.1C305.2,175.8,259.7,214.7,196.5,227.3z"/>
				</g>
			</g>
			<g>
				<g>
					<path class="st6" d="M158.2,234.6c-18,0-34.7-2.8-48.9-8.3c-25.7-10-41.8-27.8-46.6-51.7c-4.8-24.1,2.9-51.4,21.1-74.9
						c18.9-24.4,46.2-41.2,76.8-47.3c30.6-6.1,62.2-1,89,14.4c25.8,14.7,43.3,37.1,48.1,61.2c4.7,23.8-3.3,46.5-23.3,65.5
						c-18.5,17.6-46.3,30.8-78.4,37.2C183.1,233.3,170.4,234.6,158.2,234.6z M186,56.2c-8,0-16.1,0.8-24.1,2.4
						c-63.7,12.6-101.6,71-93,114.8c6.9,34.6,41.5,55,88.8,55c11.7,0,24.1-1.2,37-3.8c65.6-13,105.4-52.2,96.8-95.3
						c-4.4-22.4-20.8-43.1-45-57C228.1,61.7,207.2,56.2,186,56.2z"/>
				</g>
			</g>
			<g>
				<g>
					<path class="st6" d="M158.2,234.6c-18,0-34.7-2.8-48.9-8.3c-25.7-10-41.8-27.8-46.6-51.7c-4.8-24.1,2.9-51.4,21.1-74.9
						c18.9-24.4,46.2-41.2,76.8-47.3c30.6-6.1,62.2-1,89,14.4c25.8,14.7,43.3,37.1,48.1,61.2c4.7,23.8-3.3,46.5-23.3,65.5
						c-18.5,17.6-46.3,30.8-78.4,37.2C183.1,233.3,170.4,234.6,158.2,234.6z M186,56.2c-8,0-16.1,0.8-24.1,2.4
						c-63.7,12.6-101.6,71-93,114.8c6.9,34.6,41.5,55,88.8,55c11.7,0,24.1-1.2,37-3.8c65.6-13,105.4-52.2,96.8-95.3
						c-4.4-22.4-20.8-43.1-45-57C228.1,61.7,207.2,56.2,186,56.2z"/>
				</g>
			</g>
			<g>
				<g>
					<path class="st0" d="M176.3,88.5c-1.8,0.7-3.8,1.3-6.2,1.7c-12.2,2-17.9-3.7-19.3-8.2C154.5,84,164.5,88.6,176.3,88.5z"/>
				</g>
			</g>
			<g>
				<g>
					<path class="st6" d="M176.1,91.7c-12.4,0-22.9-4.8-26.8-6.9c-0.7-0.4-1.2-1-1.5-1.7c-0.1-0.3-0.2-0.5-0.2-0.8l0-0.1
						c-0.8-3.5-1.4-8.2-1.8-13.9c-0.1-1.2,0.6-2.3,1.6-2.9c1-0.6,2.3-0.5,3.3,0.2c0.1,0.1,15.1,10.2,34.6,7.3
						c0.9-0.1,1.8,0.1,2.4,0.7c0.7,0.6,1.1,1.4,1.2,2.3c0.3,4.8-2.2,11.2-10,15c-0.5,0.3-1,0.5-1.5,0.7c-0.4,0.1-0.7,0.2-1.1,0.2
						C176.3,91.7,176.2,91.7,176.1,91.7z M176.3,88.5L176.3,88.5L176.3,88.5z M153.4,79.9c4.1,2,12.5,5.4,22.3,5.5
						c0.2-0.1,0.3-0.1,0.5-0.2c0,0,0,0,0,0c3.1-1.5,4.9-3.6,5.8-5.7c-12.9,0.9-23.5-2.9-29.5-5.8C152.8,76.1,153.1,78.2,153.4,79.9z
						"/>
				</g>
			</g>
			<g>
				<g>
					<path class="st3" d="M181.1,85.7c-1,0.8-2.2,1.6-3.6,2.3c-0.4,0.2-0.8,0.4-1.2,0.6c-11.9,0.1-21.9-4.5-25.6-6.5
						c-0.1-0.2-0.1-0.4-0.2-0.6c-0.8-3.3-1.4-7.9-1.7-13.3c0,0,12.7,8.8,30.6,8.4c2-0.1,4.1-0.2,6.3-0.5
						C186,78.8,184.8,82.6,181.1,85.7z"/>
				</g>
				<g>
					<path class="st6" d="M176.1,88.9c-11.8,0-21.8-4.6-25.5-6.5l-0.1-0.1l-0.1-0.1c-0.1-0.2-0.1-0.4-0.2-0.5l0-0.1
						c-0.8-3.3-1.4-7.9-1.7-13.4l0-0.9l0.7,0.5c0.1,0.1,12.9,8.7,30.4,8.3c2.2-0.1,4.2-0.2,6.2-0.5l0.5-0.1l0,0.5
						c0.2,3.6-1.6,7.4-4.8,10.1c-1,0.9-2.3,1.7-3.6,2.3c-0.5,0.2-0.9,0.4-1.3,0.6l-0.2,0C176.3,88.9,176.2,88.9,176.1,88.9z
						 M151.1,81.7c3.8,2,13.5,6.4,25,6.4c0.1,0,0.1,0,0.2,0c0.4-0.1,0.7-0.3,1.1-0.5c1.3-0.6,2.5-1.4,3.5-2.2l0,0
						c4-3.4,4.5-7.3,4.5-8.9c-1.9,0.3-3.8,0.4-5.9,0.5c-15.4,0.4-27.2-6.2-30.1-8c0.3,5.1,0.9,9.4,1.6,12.4l0,0.1
						C151,81.5,151.1,81.6,151.1,81.7z"/>
				</g>
			</g>
			<g class="st4">
				<g>
					<path class="st5" d="M181.1,85.7c-0.4-3.2-1-6.3-1.6-9.2c2-0.1,4.1-0.2,6.3-0.5C186,78.8,184.8,82.6,181.1,85.7z"/>
				</g>
			</g>
			<g>
				<g>
					<path class="st2" d="M185.8,75.9c-2.2,0.3-4.3,0.5-6.3,0.5c-17.9,0.5-30.6-8.4-30.6-8.4c-0.3-5.4-0.3-11.5,0-17.5
						c0,0,8.1,8.5,27,11.8c2.3,0.4,4.9,0.7,7.5,1c1.3,4.8,2.2,9.1,2.4,12.3C185.8,75.7,185.8,75.8,185.8,75.9z"/>
				</g>
			</g>
			<g class="st4">
				<g>
					<path class="st5" d="M185.8,75.9c-2.2,0.3-4.3,0.5-6.3,0.5c-1-5-2.3-9.7-3.7-14.1c2.3,0.4,4.9,0.7,7.5,1
						c1.3,4.8,2.2,9.1,2.4,12.3C185.8,75.7,185.8,75.8,185.8,75.9z"/>
				</g>
			</g>
			<g>
				<g>
					<path class="st1" d="M183.4,63.4c-2.7-0.2-5.2-0.6-7.5-1c-18.8-3.3-27-11.8-27-11.8c0.3-6.5,1-12.8,2.2-18.1
						c0,0,6.7,7.7,17.4,11.6c2.8,1,5.9,1.8,9.2,2.1C180,52.1,181.9,58,183.4,63.4z"/>
				</g>
				<g>
					<path class="st6" d="M183.9,63.8l-0.6,0c-2.6-0.2-5.1-0.5-7.6-1C157,59.5,148.6,51,148.6,50.9l-0.1-0.1l0-0.2
						c0.3-6.9,1.1-13.2,2.2-18.1l0.2-0.8l0.5,0.6c0.1,0.1,6.8,7.7,17.3,11.5c3,1.1,6.1,1.8,9.1,2.1l0.3,0l0.1,0.2
						c2.2,5.7,4.2,11.6,5.6,17.1L183.9,63.8z M149.3,50.5c1.1,1.1,9.4,8.5,26.6,11.5c2.2,0.4,4.6,0.7,6.9,0.9
						c-1.4-5.2-3.2-10.8-5.3-16.2c-3-0.3-6.1-1-9.1-2.1c-9-3.3-15.2-9.2-17.1-11.1C150.3,38.2,149.6,44,149.3,50.5z"/>
				</g>
			</g>
			<g class="st4">
				<g>
					<path class="st5" d="M183.4,63.4c-2.7-0.2-5.2-0.6-7.5-1c-2.2-6.8-4.7-12.9-7.3-18.2c2.8,1,5.9,1.8,9.2,2.1
						C180,52.1,181.9,58,183.4,63.4z"/>
				</g>
			</g>
			<g>
				<g>
					<path class="st0" d="M177.8,45.8c-3.3-0.3-6.4-1.1-9.2-2.1c-10.7-3.9-17.4-11.6-17.4-11.6c1-4.3,2.2-7.9,3.9-10.1
						c1.1-1.5,2.3-2.4,3.6-2.6C164.7,18.4,172.2,31.5,177.8,45.8z"/>
				</g>
			</g>
			<g class="st4">
				<g>
					<path class="st5" d="M178.6,46.3c-3.3-0.3-6.4-1.1-9.2-2.1c-4.8-9.9-10-17.2-13.6-21.8c1.1-1.5,2.3-2.4,3.6-2.6
						C165.5,18.8,173,31.9,178.6,46.3z"/>
				</g>
			</g>
			<g>
				<g>
					<g>
						<path class="st6" d="M177.8,48.8c-0.1,0-0.2,0-0.2,0c-16.8-1.5-27.9-14.1-28.4-14.6c-0.5-0.6-0.7-1.4-0.6-2.2
							c2-9.2,5.2-14,9.6-14.7c8.5-1.4,16.7,14.5,21.9,28.1c0.3,0.8,0.2,1.8-0.3,2.5C179.3,48.5,178.6,48.8,177.8,48.8z M153.9,31.8
							c2.4,2.4,9.8,9,19.8,11.3C167,27.3,161.4,22,159,22.3C157.6,22.6,155.5,25.2,153.9,31.8z"/>
					</g>
				</g>
				<g>
					<g>
						<path class="st6" d="M183.4,65.9c-0.1,0-0.1,0-0.2,0c-24.9-2.1-35.7-13-36.1-13.5c-0.5-0.5-0.7-1.2-0.7-1.9
							c0.3-7,1.1-13.4,2.3-18.5c0.2-0.9,0.9-1.7,1.9-1.9c0.9-0.2,1.9,0.1,2.5,0.8c0.1,0.1,10.3,11.5,25,12.9c1,0.1,1.8,0.7,2.1,1.6
							c2.3,5.8,4.2,11.8,5.7,17.3c0.2,0.8,0,1.7-0.5,2.3C184.8,65.6,184.1,65.9,183.4,65.9z M151.5,49.6c2.5,2.1,11.5,8.7,28.4,10.9
							c-1.1-3.8-2.5-7.8-4-11.8c-10.7-1.4-18.8-7.2-23.2-11C152.1,41.2,151.7,45.2,151.5,49.6z"/>
					</g>
				</g>
				<g>
					<g>
						<path class="st6" d="M178.1,79c-17.6,0-30-8.4-30.6-8.8c-0.6-0.4-1-1.2-1.1-1.9c-0.3-5.6-0.3-11.8,0-17.8
							c0.1-1,0.7-1.9,1.7-2.3c1-0.4,2-0.1,2.7,0.6c0.1,0.1,10,10,32.9,12c1.1,0.1,2,0.8,2.2,1.9c1.3,5.1,2.2,9.4,2.5,12.7
							c0,0.2,0,0.4,0,0.5c0,1.3-0.9,2.3-2.2,2.5C183.4,78.8,180.7,79,178.1,79z M185.8,75.9L185.8,75.9L185.8,75.9z M151.4,66.6
							c3.5,2.1,15.9,8.6,31.6,7c-0.3-2.3-0.9-5-1.6-8c-15.4-1.6-25.1-6.6-30.1-10C151.2,59.5,151.2,63.1,151.4,66.6z"/>
					</g>
				</g>
				<g>
					<g>
						<path class="st6" d="M176.1,91.1c-12.3,0-22.6-4.7-26.5-6.8c-0.6-0.3-1-0.8-1.2-1.4c-0.1-0.2-0.2-0.5-0.2-0.7l0-0.1
							c-0.8-3.4-1.4-8.2-1.7-13.8c-0.1-1,0.4-1.9,1.3-2.4c0.8-0.5,1.9-0.4,2.7,0.1c0.1,0.1,15.3,10.3,35.1,7.4
							c0.7-0.1,1.4,0.1,2,0.5c0.6,0.5,0.9,1.1,0.9,1.8c0.3,4.6-2.1,10.8-9.6,14.5c-0.5,0.3-1,0.5-1.5,0.7c-0.3,0.1-0.6,0.2-0.9,0.2
							C176.3,91.1,176.2,91.1,176.1,91.1z M176.3,88.5L176.3,88.5L176.3,88.5z M152.9,80.3c4.1,2,12.8,5.6,22.9,5.7
							c0.2-0.1,0.4-0.2,0.6-0.3c0,0,0,0,0,0c3.8-1.9,5.7-4.5,6.5-6.9c-13.9,1.2-25.2-3.1-31.1-6.1C152.1,75.7,152.5,78.3,152.9,80.3
							z"/>
					</g>
				</g>
				<g>
					<g>
						<path class="st6" d="M165.3,93.2c-9.9,0-15.3-5.3-16.9-10.4c-0.3-1,0-2.1,0.8-2.7c0.8-0.7,1.9-0.8,2.8-0.3
							c3.6,1.9,13,6.2,24.2,6.2c0.1,0,0.2,0,0.2,0c1.2,0,2.3,0.9,2.5,2c0.2,1.2-0.4,2.4-1.5,2.9c-2,0.9-4.3,1.5-6.8,1.9
							C168.6,93.1,166.9,93.2,165.3,93.2z"/>
					</g>
				</g>
			</g>
			<g>
				<g>
					<path class="st6" d="M165.5,93.8c-9.8,0-15.8-5.1-17.7-10.8c-0.1-0.2-0.2-0.5-0.2-0.7l0-0.1c-0.5-2.1-0.9-4.6-1.2-7.6
						c-0.2-1.5-0.3-3.2-0.4-4.9l0-0.3c0-0.4,0-0.7-0.1-1.1c-0.3-5.7-0.3-11.8,0-17.8c0.3-7.1,1.1-13.5,2.3-18.6
						c2.1-9.4,5.4-14.4,10.1-15.2c9-1.5,17.2,14.7,22.6,28.4c2.3,5.8,4.2,11.8,5.7,17.4c1.4,5.1,2.2,9.5,2.5,12.8c0,0.2,0,0.4,0,0.5
						c0,0,0,0,0,0c0,0.2,0,0.4,0,0.7c0,0.1,0,0.2,0,0.3c0,0.2,0,0.4,0,0.6c0,0.1,0,0.3,0,0.4c0,0.2,0,0.4-0.1,0.6
						c0,0.2,0,0.2-0.1,0.3c-0.1,0.3-0.1,0.6-0.2,0.9c0,0.1,0,0.1-0.1,0.2c-0.1,0.2-0.1,0.5-0.2,0.7l-0.1,0.2c0,0,0,0.1,0,0.1
						c-0.1,0.2-0.1,0.4-0.2,0.6l-0.1,0.3c-0.1,0.2-0.2,0.5-0.3,0.8c0,0.1-0.1,0.1-0.1,0.2c-0.1,0.3-0.3,0.6-0.5,0.9
						c0,0-0.1,0.1-0.1,0.1c-0.2,0.3-0.3,0.5-0.5,0.8l-0.1,0.2c0,0,0,0,0,0c-0.2,0.3-0.4,0.5-0.6,0.8l-0.1,0.2
						c-0.5,0.6-1.1,1.2-1.7,1.8c0,0-0.1,0.1-0.1,0.1l-0.1,0.1c-0.1,0.1-0.2,0.2-0.4,0.3c-0.1,0.1-0.2,0.1-0.2,0.2l-0.4,0.3
						c-0.3,0.2-0.5,0.4-0.8,0.6c-0.1,0.1-0.2,0.2-0.4,0.2c-0.3,0.2-0.5,0.3-0.8,0.5l-0.1,0.1c-0.1,0.1-0.2,0.1-0.3,0.2
						c-0.3,0.2-0.6,0.3-1,0.5c-0.1,0.1-0.2,0.1-0.3,0.2c-0.5,0.3-1,0.5-1.5,0.7c-2,0.8-4.4,1.5-6.9,1.9
						C168.8,93.7,167.1,93.8,165.5,93.8z M159.3,22.9c-0.1,0-0.1,0-0.2,0c-1,0.2-3.2,2.5-5,10.3c-1.1,4.8-1.8,10.8-2.1,17.5
						c-0.3,5.8-0.3,11.7,0,17.1c0,0.4,0,0.7,0.1,1l0,0.3c0.1,1.6,0.2,3.2,0.4,4.7c0.3,2.7,0.7,5,1.1,6.7l0,0c0,0.1,0,0.2,0.1,0.3
						c0,0,0,0.1,0,0.1c1.2,3.8,6.1,7.7,15.8,6.1c2-0.3,3.9-0.9,5.5-1.5c0.4-0.1,0.7-0.3,1.1-0.5l0.2-0.1c0.3-0.1,0.5-0.3,0.7-0.4
						l0.3-0.2c0.2-0.1,0.4-0.2,0.6-0.3l0.2-0.1c0.2-0.2,0.4-0.3,0.6-0.4l0.4-0.3c0.1-0.1,0.2-0.1,0.2-0.2l0.1-0.1
						c0,0,0.1-0.1,0.1-0.1c0.4-0.4,0.8-0.8,1.1-1.1c0,0,0.1-0.1,0.1-0.1c0.1-0.2,0.2-0.3,0.3-0.5c0,0,0,0,0,0l0.1-0.1
						c0.1-0.2,0.2-0.3,0.3-0.5c0,0,0-0.1,0.1-0.1c0.1-0.2,0.2-0.4,0.3-0.6l0.1-0.1c0.1-0.1,0.1-0.3,0.2-0.4l0.1-0.1
						c0.1-0.2,0.1-0.3,0.2-0.4l0.1-0.2c0-0.1,0.1-0.2,0.1-0.4c0,0,0-0.1,0-0.1c0-0.2,0.1-0.3,0.1-0.5c0,0,0-0.2,0-0.2
						c0-0.1,0-0.2,0-0.3l0-0.2c0-0.1,0-0.2,0-0.3l0-0.2c0-0.1,0-0.2,0-0.3c0,0,0-0.1,0-0.2c0,0,0-0.1,0-0.1
						c-0.3-2.9-1.1-7.1-2.3-11.8c-1.4-5.3-3.3-11.1-5.5-16.7C167.8,29.4,161.7,22.9,159.3,22.9z M183.6,83L183.6,83L183.6,83z
						 M182.7,75.9C182.7,75.9,182.7,75.9,182.7,75.9C182.7,75.9,182.7,75.9,182.7,75.9z"/>
				</g>
			</g>
			<g>
				<g>
					<path class="st5" d="M210.7,71.7c0,0,1.8-41.7,18.2-44.1s37.5,52.3,38.7,66.1C267.7,93.7,242.8,99.2,210.7,71.7z"/>
				</g>
			</g>
			<g>
				<g>
					<path class="st6" d="M209.7,71.7c-1.5-2.9-1.6-5.7-1.5-8.5c0.1-2.8,0.6-5.5,1.3-8.3c0.6-2.7,1.2-5.5,2-8.2
						c0.7-2.7,1.6-5.4,2.8-8.1c1.1-2.7,2.5-5.3,4.4-7.8c1.9-2.4,4.6-4.8,8-5.9l1.3-0.3c0.2,0,0.4-0.1,0.7-0.1l0.7-0.1
						c0.5-0.1,1,0,1.4,0c0.5,0.1,1,0.1,1.4,0.2c1.8,0.3,3.4,1.1,4.8,1.9c2.8,1.7,4.9,3.8,6.9,6c3.8,4.4,6.8,9.2,9.6,14
						c2.7,4.9,5.1,9.9,7.3,14.9c2.2,5.1,4.2,10.2,6,15.5c0.4,1.3,0.9,2.6,1.3,4c0.4,1.3,0.9,2.6,1.4,4c0.4,1.3,0.7,2.7,0.7,4.2
						c0,1.5-0.3,3-1.3,4.6c-0.4,0.6-1.2,0.8-1.9,0.4c-0.1,0-0.1-0.1-0.1-0.1l-0.1-0.1c-1.3-1.2-2-2.3-2.6-3.5
						c-0.5-1.2-0.9-2.4-1.2-3.7c-0.3-1.3-0.5-2.6-0.9-3.9c-0.4-1.3-0.8-2.5-1.2-3.8c-1.7-5.1-3.6-10.1-5.8-15
						c-2.1-4.9-4.5-9.7-7.1-14.4c-2.6-4.6-5.5-9.1-8.8-12.9c-1.7-1.9-3.5-3.6-5.4-4.7c-0.9-0.6-1.9-0.9-2.7-1.1
						c-0.2-0.1-0.4,0-0.6-0.1c-0.2,0-0.4,0-0.6,0l-0.3,0l-0.3,0.1c-0.2,0.1-0.5,0.1-0.7,0.1c-1.8,0.6-3.5,1.9-4.9,3.7
						c-1.4,1.8-2.6,4-3.6,6.4c-1,2.3-1.8,4.8-2.5,7.3c-0.7,2.5-1.3,5.1-1.6,7.7c-0.4,2.6-0.6,5.3-1.2,7.9c-0.5,2.6-1.2,5.2-2.9,7.8
						l0,0c-0.4,0.5-1.1,0.7-1.7,0.3C209.9,72,209.8,71.9,209.7,71.7z"/>
				</g>
			</g>
			<g>
				<g>
					<g>
						<path class="st0" d="M224.4,66.1c0,0-0.6-20.4,6.5-21c7.1-0.7,18.2,26.9,19.2,33.7C250.1,78.7,239.4,80.6,224.4,66.1z"/>
					</g>
					<g>
						<path class="st6" d="M248.7,79.2c-3.4,0-12.7-1.3-24.6-12.9l-0.1-0.1l0-0.2c0-0.8-0.5-20.8,6.9-21.5
							c7.6-0.7,18.7,27.5,19.6,34.1l0.1,0.4l-0.4,0.1C250.1,79.2,249.6,79.2,248.7,79.2z M224.9,65.9c12.9,12.5,22.7,12.6,24.8,12.5
							c-1.4-7.6-11.9-32.9-18.4-32.9c-0.1,0-0.2,0-0.2,0C224.7,46.1,224.8,63.9,224.9,65.9z"/>
					</g>
				</g>
				<g>
					<g>
						<path class="st6" d="M248.9,81.9c-3.9,0-14.1-1.4-26.7-13.6c-0.6-0.6-0.9-1.3-1-2.2c-0.2-5.5,0-23.4,9.4-24.3
							c3-0.3,7.7,1.1,15,15.8c3.6,7.4,7,16.4,7.6,20.6c0.2,1.7-0.9,3.3-2.6,3.5C250.5,81.8,249.9,81.9,248.9,81.9z M227.6,64.7
							c8.1,7.6,14.7,10,18.5,10.7c-1.2-3.8-3.3-9.2-5.7-14.2c-5-10.3-8.4-12.9-9.2-13C229.5,48.3,227.5,55.9,227.6,64.7z"/>
					</g>
				</g>
			</g>
			<g>
				<g>
					<path class="st5" d="M122.8,86.1c0,0-14.9-38.9-31.3-36.1s-19,61.5-15.7,74.9C75.8,125,101.2,122.2,122.8,86.1z"/>
				</g>
			</g>
			<g>
				<g>
					<path class="st6" d="M121.9,86.4c-2.5-1.9-3.9-4.1-5.2-6.5c-1.3-2.3-2.4-4.7-3.6-7.1c-1.2-2.4-2.5-4.6-4-6.8
						c-1.5-2.2-3-4.3-4.7-6.2c-1.7-1.9-3.5-3.6-5.4-4.9c-1.9-1.3-4-2-5.8-2c-0.2,0-0.5,0.1-0.7,0.1l-0.3,0l-0.3,0.1
						c-0.2,0-0.4,0.1-0.6,0.2c-0.2,0.1-0.4,0.2-0.6,0.3c-0.8,0.4-1.5,1.1-2.2,1.9c-1.4,1.7-2.6,3.9-3.6,6.2c-2,4.7-3.2,9.8-4.2,15
						c-1,5.2-1.7,10.5-2.1,15.9c-0.5,5.3-0.7,10.7-0.7,16c0,1.3,0,2.7,0,4c0,1.3,0.2,2.6,0.4,4c0.2,1.3,0.2,2.6,0,3.9
						c-0.2,1.3-0.5,2.6-1.4,4.1l-0.1,0.1c-0.4,0.6-1.2,0.9-1.8,0.5c-0.1,0-0.1-0.1-0.2-0.1c-1.5-1.1-2.2-2.5-2.7-3.9
						c-0.4-1.4-0.6-2.8-0.7-4.2c0-1.4,0.1-2.8,0-4.2c0-1.4,0-2.8,0-4.2c0-5.5,0.3-11.1,0.7-16.6c0.5-5.5,1.2-11,2.2-16.5
						c1.1-5.5,2.4-10.9,4.6-16.3c1.1-2.7,2.5-5.4,4.6-7.8c1.1-1.2,2.3-2.4,4-3.3c0.4-0.2,0.8-0.4,1.3-0.6c0.5-0.2,0.9-0.3,1.4-0.4
						l0.7-0.2c0.2,0,0.4-0.1,0.7-0.1l1.3-0.1c3.6,0,6.9,1.3,9.4,3c2.6,1.7,4.7,3.8,6.7,6c1.9,2.2,3.6,4.5,5.2,6.8
						c1.6,2.4,3,4.8,4.5,7.2c1.5,2.4,2.8,4.8,3.8,7.4c1,2.6,1.8,5.3,1.3,8.5c-0.1,0.7-0.7,1.1-1.4,1
						C122.2,86.7,122.1,86.6,121.9,86.4L121.9,86.4z"/>
				</g>
			</g>
			<g>
				<g>
					<g>
						<path class="st0" d="M108.7,85.5c0,0-6.7-19.8-14.3-18.2c-7.6,1.6-9.2,31.5-7.7,38.3C86.7,105.6,98.5,104,108.7,85.5z"/>
					</g>
					<g>
						<path class="st6" d="M86.3,106.1l-0.1-0.4C85,99.5,86.1,77,91,69.5c1-1.5,2.1-2.4,3.3-2.6c7.9-1.6,14.5,17.7,14.8,18.5
							l0.1,0.2l-0.1,0.2c-10.3,18.6-21.9,20.3-22.4,20.3L86.3,106.1z M95.3,67.6c-0.3,0-0.5,0-0.8,0.1c-1,0.2-1.9,1-2.8,2.3
							c-4.7,7.2-5.9,28.5-4.7,35.1c2.1-0.5,12.3-3.5,21.3-19.7C107.6,83.6,101.8,67.6,95.3,67.6z"/>
					</g>
				</g>
				<g>
					<g>
						<path class="st6" d="M86.7,108.7c-1.5,0-2.8-1-3.1-2.5c-1.4-6.5-0.4-29.7,5.2-38.2c1.4-2.1,3.1-3.4,5-3.8
							c9.8-2,16.7,16.5,17.9,20.3c0.3,0.8,0.2,1.8-0.2,2.5c-10.9,19.7-23.9,21.6-24.4,21.7C86.9,108.7,86.8,108.7,86.7,108.7z
							 M95.3,70.3c-0.1,0-0.2,0-0.3,0c-0.6,0.1-3.2,3-4.8,14.6c-0.8,5.9-1,12.2-0.9,16.4c3.7-1.7,10-6,15.9-16.2
							C102.6,77.8,98,70.3,95.3,70.3z"/>
					</g>
				</g>
			</g>
			<g>
				<g>
					<path class="st6" d="M94,153.5c-4.3-1.2-8.6-2.1-12.9-2.9c-4.3-0.7-8.6-1.3-12.9-1.5c-4.3-0.3-8.6-0.4-13-0.2
						c-2.2,0-4.3,0.2-6.5,0.3c-1.1,0-2.2,0.2-3.3,0.3c-1.1,0.1-2.2,0.2-3.4,0.2c1-0.5,2.1-0.9,3.1-1.3c1-0.4,2.1-0.8,3.2-1.1
						c2.2-0.6,4.3-1.2,6.6-1.5c4.5-0.8,9-0.9,13.5-0.7c4.5,0.3,9,1.1,13.3,2.5C86.1,149,90.4,150.8,94,153.5z"/>
				</g>
			</g>
			<g>
				<g>
					<path class="st6" d="M94.7,164.7c-4.5,0-8.8,0.2-13.2,0.6c-4.3,0.4-8.6,1-12.8,1.9c-4.2,0.9-8.4,1.9-12.6,3.2
						c-2.1,0.6-4.1,1.4-6.2,2.1c-1.1,0.3-2.1,0.8-3.1,1.1c-1,0.4-2.1,0.8-3.2,1.1c0.9-0.7,1.8-1.4,2.7-2.1c0.9-0.7,1.8-1.4,2.8-1.9
						c1.9-1.1,3.9-2.3,6-3.2c4.1-2,8.5-3.3,12.9-4.2c4.4-0.9,9-1.3,13.5-1.1C85.9,162.5,90.4,163.1,94.7,164.7z"/>
				</g>
			</g>
			<g>
				<g>
					<path class="st6" d="M98.3,178.8c-4.4,1-8.6,2.2-12.7,3.5c-4.1,1.4-8.2,2.9-12.1,4.7c-3.9,1.8-7.8,3.7-11.5,5.9
						c-1.9,1-3.7,2.2-5.6,3.4c-1,0.5-1.8,1.2-2.8,1.8c-0.9,0.6-1.9,1.2-2.8,1.8c0.7-0.9,1.4-1.8,2.1-2.6c0.7-0.9,1.5-1.7,2.3-2.5
						c1.6-1.5,3.3-3.1,5.1-4.4c3.6-2.8,7.5-5.1,11.6-6.9c4.1-1.9,8.5-3.2,12.9-4.1C89.3,178.5,93.8,178.1,98.3,178.8z"/>
				</g>
			</g>
			<g>
				<g>
					<path class="st6" d="M267.1,118.4c2.6-3.7,6-6.8,9.6-9.5c3.6-2.7,7.6-5,11.8-6.7c4.2-1.7,8.5-3.1,13-3.8
						c2.2-0.5,4.5-0.6,6.7-0.7c1.1-0.1,2.3,0,3.4,0c1.1,0,2.2,0.1,3.4,0.2c-1.1,0.3-2.2,0.6-3.2,0.9c-1.1,0.3-2.2,0.5-3.2,0.8
						c-2.1,0.6-4.2,1.1-6.3,1.8c-4.2,1.2-8.2,2.8-12.2,4.4c-4,1.6-7.9,3.6-11.7,5.7C274.5,113.5,270.8,115.8,267.1,118.4z"/>
				</g>
			</g>
			<g>
				<g>
					<path class="st6" d="M270.1,129.2c3.5-2.9,7.5-5,11.7-6.6c4.2-1.6,8.6-2.8,13.1-3.4c4.5-0.6,9.1-0.8,13.6-0.3
						c2.3,0.1,4.5,0.6,6.7,1.1c1.1,0.2,2.2,0.6,3.3,0.9c1.1,0.3,2.1,0.7,3.2,1.1c-1.1,0-2.3,0-3.4,0c-1.1,0-2.2-0.1-3.3-0.1
						c-2.2,0-4.4,0-6.6,0.1c-4.3,0.1-8.6,0.5-12.9,1.1c-4.3,0.5-8.5,1.4-12.7,2.4C278.6,126.5,274.4,127.8,270.1,129.2z"/>
				</g>
			</g>
			<g>
				<g>
					<path class="st6" d="M271.3,143.7c4-2.1,8.5-3.2,12.9-3.9c4.5-0.6,9-0.8,13.6-0.4c4.5,0.4,9,1.3,13.3,2.8
						c2.2,0.6,4.2,1.6,6.3,2.5c1,0.5,2,1,3,1.6c1,0.6,1.9,1.1,2.9,1.8c-1.1-0.2-2.2-0.5-3.3-0.8c-1.1-0.3-2.1-0.6-3.2-0.8
						c-2.2-0.5-4.3-1-6.4-1.4c-4.3-0.9-8.5-1.4-12.8-1.8c-4.3-0.4-8.6-0.5-13-0.5C280.1,142.9,275.7,143.2,271.3,143.7z"/>
				</g>
			</g>
			<g>
				<g class="st8">
					<g>
						<path class="st6" d="M219.3,162.9c-3.7,7.5-8.8,10.7-13.8,11.6c-9.9,1.8-19.8-5.2-19.8-5.2c-5.3,8.1-10.6,11.9-15.5,13.3
							c-8.1,2.3-14.8-1.8-17.6-4c20.4-1.3,27.4-13.8,27.4-13.8l8.9-2.1C200.7,173.9,218.8,163.2,219.3,162.9z"/>
					</g>
				</g>
				<g>
					<g>
						<path class="st6" d="M205.5,174.5c-0.4,4.7-1.4,10.3-3.3,14.9c-2.1,5.2-5.1,9.5-9.3,10.5c-4.2,1-8.8-1.4-13.1-5.2
							c-3.8-3.4-7.3-8-9.7-12.1c4.9-1.4,10.2-5.2,15.5-13.3C185.7,169.3,195.6,176.3,205.5,174.5z"/>
					</g>
				</g>
				<g>
					<g>
						<path class="st11" d="M202.2,189.5c-2.1,5.2-5.1,9.5-9.3,10.5c-4.2,1-8.8-1.4-13.1-5.2c0.6-4.7,4.2-8.9,9.4-10.1
							C194.4,183.4,199.6,185.5,202.2,189.5z"/>
					</g>
					<g>
						<path class="st6" d="M191,200.5c-3.4,0-7.3-1.9-11.4-5.5l-0.1-0.1l0-0.2c0.6-5,4.5-9.2,9.7-10.4c5.2-1.2,10.5,0.8,13.3,5
							l0.1,0.2l-0.1,0.2c-2.4,6.1-5.7,9.8-9.5,10.7C192.4,200.4,191.7,200.5,191,200.5z M180.3,194.6c3.3,2.9,8.1,6.1,12.6,5
							c4.5-1.1,7.3-6,8.9-10c-2.6-3.9-7.6-5.7-12.4-4.5C184.6,186.1,181,189.9,180.3,194.6z"/>
					</g>
				</g>
				<g>
					<g>
						<g>
							<path class="st6" d="M172.7,157.4c1.4-3.1,15.7-7,18.9-4.5c3.2,2.5-2.1,11.9-6.9,13.1C180,167.1,171.2,160.8,172.7,157.4z"/>
						</g>
					</g>
					<g>
						<g>
							<path class="st6" d="M183.5,169.2c-4.3,0-9.3-2.9-12-6.1c-2.7-3.2-2.2-5.7-1.6-7l0,0c1.5-3.4,7.6-5.3,11.1-6.2
								c4.2-1,9.7-1.8,12.6,0.5c1.1,0.9,2.8,2.9,1.9,7c-1,4.7-5.3,10.4-10,11.5C184.9,169.1,184.2,169.2,183.5,169.2z M175.8,158.5
								c0.4,0.6,1.3,1.7,3,2.8c2.2,1.4,4.3,1.9,5.3,1.7c1.1-0.3,2.9-1.8,4.3-4.2c0.9-1.7,1.2-2.9,1.2-3.5
								C187,154.6,178.2,156.7,175.8,158.5z M189.8,155.4L189.8,155.4L189.8,155.4z"/>
						</g>
					</g>
					<g>
						<g>
							
								<ellipse transform="matrix(0.9729 -0.2313 0.2313 0.9729 -30.9212 46.3817)" class="st5" cx="182.3" cy="155" rx="8.1" ry="2.1"/>
						</g>
						<g>
							<path class="st6" d="M177.5,158.2c-1.8,0-3.2-0.4-3.4-1.2c-0.2-0.8,0.5-1.6,2.1-2.5c1.4-0.8,3.4-1.5,5.5-2
								c2.1-0.5,4.2-0.8,5.8-0.7c1.8,0,2.8,0.5,3,1.2l0,0c0.4,1.6-3.6,3.5-7.7,4.4C181,158,179,158.2,177.5,158.2z M187.2,152.6
								c-1.5,0-3.3,0.2-5.3,0.7c-2.1,0.5-4,1.2-5.3,1.9c-1.5,0.8-1.8,1.4-1.8,1.6c0.1,0.6,3,1.1,7.9-0.1c4.9-1.2,7.2-2.9,7.1-3.5
								c0-0.2-0.6-0.6-2.3-0.6C187.4,152.6,187.3,152.6,187.2,152.6z"/>
						</g>
					</g>
				</g>
				<g>
					<g>
						<path class="st6" d="M165.3,186.1c-6.7,0-12-3.3-14.4-5.2c-0.1,0-0.1-0.1-0.1-0.1c-1-0.8-1.5-1.3-1.6-1.4
							c-1.1-1.1-1.1-2.9,0-4c1.1-1.1,2.9-1.1,4,0l0,0c0,0,0.3,0.3,1,0.8c0,0,0.1,0.1,0.1,0.1c2.2,1.7,8.1,5.5,15.1,3.5
							c4.9-1.4,9.6-5.5,13.9-12.1c0.4-0.6,1.1-1.1,1.9-1.2c0.8-0.1,1.5,0,2.2,0.5c0.1,0.1,9.1,6.3,17.7,4.8
							c4.9-0.9,8.9-4.3,11.8-10.1c0,0,0-0.1,0.1-0.1c0,0,0,0,0-0.1c0.2-0.5,0.5-1,0.7-1.5c0.6-1.4,2.3-2.1,3.7-1.5
							c1.4,0.6,2.1,2.3,1.5,3.7c-0.3,0.7-0.6,1.3-0.9,1.9c0,0.1-0.1,0.1-0.1,0.2c-3.7,7.4-9,11.8-15.8,13c-8,1.5-15.7-2-19.5-4.2
							c-4.7,6.5-9.9,10.6-15.5,12.2C169,185.9,167.1,186.1,165.3,186.1z"/>
					</g>
				</g>
				<g>
					<g>
						<path class="st6" d="M191,203c-4,0-8.5-2.1-13-6.2c-3.7-3.3-7.5-8-10.3-12.8c-0.4-0.8-0.5-1.7-0.2-2.5c0.3-0.8,1-1.4,1.9-1.7
							c4.9-1.4,9.6-5.5,13.9-12.1c0.4-0.6,1.1-1.1,1.9-1.2c0.8-0.1,1.5,0,2.2,0.5c0.1,0.1,9.1,6.3,17.7,4.8c0.9-0.2,1.8,0.1,2.4,0.7
							c0.7,0.6,1,1.4,0.9,2.3c-0.4,5.5-1.7,11.3-3.5,15.8c-2.7,6.9-6.6,11.1-11.2,12.2C192.8,202.9,191.9,203,191,203z M174.4,184
							c2.2,3.3,4.8,6.3,7.4,8.6c4,3.6,7.7,5.2,10.5,4.6c2.7-0.6,5.3-3.7,7.3-8.7c1.2-3.1,2.2-6.9,2.7-10.8c-0.1,0-0.1,0-0.2,0
							c-6.5,0-12.4-2.7-15.6-4.5C182.8,178.2,178.7,181.9,174.4,184z"/>
					</g>
				</g>
			</g>
			<g>
				<g>
					<path class="st6" d="M230.6,114.8c-2.1,1.3-4.2,2.7-6,4.2c-1.9,1.5-3.6,3.1-5.2,4.9c-0.8,0.9-1.5,1.8-2.2,2.7l-1,1.4
						c-0.2,0.2-0.3,0.5-0.5,0.7l-0.4,0.7c-1.2,2-2,4.1-2.7,6.3l-4.8-3c0.2-0.1,0.3-0.2,0.4-0.3c0.1-0.1,0.2-0.2,0.4-0.3
						c0.2-0.2,0.5-0.3,0.7-0.5c0.5-0.3,1-0.6,1.5-0.9c1-0.5,2-1,3-1.4c2.1-0.8,4.2-1.3,6.4-1.6c2.2-0.2,4.4-0.2,6.5,0.2
						c2.1,0.3,4.2,1,6.1,1.9c0.5,0.2,0.7,0.8,0.5,1.3c-0.2,0.4-0.6,0.6-1,0.6l-0.1,0c-1,0-1.9-0.2-2.9-0.2c-1,0-1.9-0.1-2.8,0
						c-1.9,0.1-3.7,0.4-5.4,0.9c-1.8,0.5-3.4,1.1-5.1,1.9c-0.8,0.4-1.6,0.8-2.3,1.3c-0.4,0.2-0.7,0.5-1.1,0.7
						c-0.2,0.1-0.3,0.3-0.5,0.4c-0.1,0.1-0.2,0.1-0.2,0.2l-0.2,0.1l-0.1,0.1c-1.3,1-3.1,0.9-4.1-0.4c-0.6-0.8-0.8-1.8-0.6-2.7
						c0.8-2.7,1.7-5.4,3.2-7.8c0.7-1.3,1.6-2.3,2.4-3.5c0.9-1,1.8-2.1,2.9-3c2.1-1.9,4.4-3.4,6.8-4.6c2.5-1.2,5-2.1,7.8-2.4
						c0.6-0.1,1.1,0.3,1.1,0.9C231.3,114.2,231,114.6,230.6,114.8L230.6,114.8z"/>
				</g>
			</g>
			<g>
				<g>
					<g>
						
							<ellipse transform="matrix(0.9884 -0.1517 0.1517 0.9884 -20.4149 22.4736)" class="st6" cx="137.1" cy="145" rx="12.7" ry="18"/>
					</g>
					<g>
						<path class="st6" d="M138.4,163.3c-6.6,0-12.8-6.9-14.3-16.3c-1.5-10,3-19.1,10.1-20.1c3.5-0.5,7,0.9,10,4
							c2.9,3.1,5,7.4,5.7,12.2l0,0c1.5,10-3,19.1-10.1,20.1C139.4,163.3,138.9,163.3,138.4,163.3z M135.7,127.5
							c-0.4,0-0.9,0-1.3,0.1c-6.7,1-11,9.7-9.5,19.3c1.5,9.6,8.1,16.6,14.9,15.6c6.7-1,11-9.7,9.5-19.3l0,0
							c-0.7-4.7-2.7-8.9-5.5-11.8C141.3,128.8,138.5,127.5,135.7,127.5z"/>
					</g>
				</g>
				<g>
					<g>
						
							<ellipse transform="matrix(0.9884 -0.1517 0.1517 0.9884 -19.6838 22.8103)" class="st5" cx="139.6" cy="140.4" rx="3.8" ry="6"/>
					</g>
					<g>
						<path class="st6" d="M140.2,146.8c-2.1,0-4.2-2.5-4.7-5.7c-0.3-1.7-0.1-3.3,0.5-4.6c0.6-1.4,1.5-2.2,2.7-2.4
							c1.1-0.2,2.3,0.3,3.3,1.5c0.9,1.1,1.6,2.6,1.8,4.2c0.5,3.5-0.9,6.6-3.2,7C140.5,146.8,140.3,146.8,140.2,146.8z M139.1,134.7
							c-0.1,0-0.2,0-0.3,0c-0.9,0.1-1.6,0.8-2.1,1.9c-0.5,1.2-0.7,2.7-0.4,4.2c0.5,3.1,2.4,5.4,4.3,5.1c1.9-0.3,3-3,2.6-6.1l0,0
							c-0.2-1.5-0.8-2.9-1.7-3.9C140.7,135.2,139.9,134.7,139.1,134.7z"/>
					</g>
				</g>
			</g>
		</g>
	</g>
</g>
</svg>
