<?xml version="1.0" encoding="utf-8"?>
<!-- Generator: Adobe Illustrator 23.0.5, SVG Export Plug-In . SVG Version: 6.00 Build 0)  -->
<svg version="1.1" id="Layer_1" xmlns="http://www.w3.org/2000/svg" xmlns:xlink="http://www.w3.org/1999/xlink" x="0px" y="0px"
	 viewBox="0 0 1922 916.5" style="enable-background:new 0 0 1922 916.5;" xml:space="preserve">
<style type="text/css">
	.st0{fill:url(#SVGID_1_);}
	.st1{clip-path:url(#SVGID_3_);}
	.st2{opacity:2.000000e-02;fill:#FFFFFF;enable-background:new    ;}
	.st3{opacity:0.1;fill:url(#SVGID_4_);enable-background:new    ;}
	.st4{opacity:0.1;}
	.st5{opacity:0.37;fill:url(#SVGID_5_);enable-background:new    ;}
	.st6{opacity:0.37;fill:url(#SVGID_6_);enable-background:new    ;}
	.st7{opacity:0.37;fill:url(#SVGID_7_);enable-background:new    ;}
	.st8{opacity:0.37;fill:url(#SVGID_8_);enable-background:new    ;}
	.st9{opacity:0.37;fill:url(#SVGID_9_);enable-background:new    ;}
	.st10{opacity:0.1;fill:url(#SVGID_10_);enable-background:new    ;}
	.st11{opacity:0.1;fill:url(#SVGID_11_);enable-background:new    ;}
</style>
<g transform="translate(0 .001)">
	<linearGradient id="SVGID_1_" gradientUnits="userSpaceOnUse" x1="0" y1="458.2249" x2="1922.0439" y2="458.2249">
		<stop  offset="0" style="stop-color:#171121"/>
		<stop  offset="1" style="stop-color:#352451"/>
	</linearGradient>
	<path class="st0" d="M0,703.1c0,0,172,168.7,225.4,208.8c8.5,5.8,20.1,4.4,23,4.4H1922V0H0V703.1z"/>
	<g>
		<defs>
			<path id="SVGID_2_" d="M0,703.1c0,0,172,168.7,225.4,208.8c8.5,5.8,20.1,4.4,23,4.4H1922V0H0V703.1z"/>
		</defs>
		<clipPath id="SVGID_3_">
			<use xlink:href="#SVGID_2_"  style="overflow:visible;"/>
		</clipPath>
		<g class="st1">
			<circle class="st2" cx="1797.5" cy="459.5" r="486.5"/>
			<circle class="st2" cx="1797.5" cy="459.5" r="416.5"/>
			<circle class="st2" cx="1797.5" cy="459.5" r="335.5"/>
			
				<linearGradient id="SVGID_4_" gradientUnits="userSpaceOnUse" x1="703.3459" y1="714.7023" x2="704.0329" y2="713.9683" gradientTransform="matrix(125.795 -130.139 -496.829 -480.245 266575.4375 435411.3438)">
				<stop  offset="0" style="stop-color:#6240C8"/>
				<stop  offset="1" style="stop-color:#A145FE"/>
			</linearGradient>
			<path class="st3" d="M-179.5,566.9l125.8-130.1L443.1,917l-125.8,130.1L-179.5,566.9z"/>
			<g class="st4">
				
					<linearGradient id="SVGID_5_" gradientUnits="userSpaceOnUse" x1="702.2487" y1="713.7007" x2="697.8527" y2="714.3787" gradientTransform="matrix(29.885 -30.917 -496.829 -480.245 334697 365574.8125)">
					<stop  offset="0" style="stop-color:#6240C8"/>
					<stop  offset="1" style="stop-color:#A145FE"/>
				</linearGradient>
				<path class="st5" d="M340.5,666.4L340.5,666.4c8.3-8.5,21.9-8.8,30.4-0.5l465.9,450.4c8.5,8.3,8.8,21.9,0.5,30.4l0,0
					c-8.3,8.5-21.9,8.8-30.4,0.5L341,696.8C332.4,688.6,332.2,675,340.5,666.4z"/>
				
					<linearGradient id="SVGID_6_" gradientUnits="userSpaceOnUse" x1="702.2487" y1="714.8862" x2="697.8527" y2="715.5642" gradientTransform="matrix(29.885 -30.917 -219.295 -211.975 136501.9844 173540.3125)">
					<stop  offset="0" style="stop-color:#6240C8"/>
					<stop  offset="1" style="stop-color:#A145FE"/>
				</linearGradient>
				<path class="st6" d="M304.5,176.4L304.5,176.4c8.3-8.5,21.9-8.8,30.4-0.5L523.2,358c8.5,8.3,8.8,21.9,0.5,30.4l0,0
					c-8.3,8.5-21.9,8.8-30.4,0.5L305,206.8C296.4,198.6,296.2,185,304.5,176.4z"/>
				
					<linearGradient id="SVGID_7_" gradientUnits="userSpaceOnUse" x1="702.2487" y1="714.8862" x2="697.8527" y2="715.5642" gradientTransform="matrix(29.885 -30.917 -219.295 -211.975 136726.9844 173828.3125)">
					<stop  offset="0" style="stop-color:#6240C8"/>
					<stop  offset="1" style="stop-color:#A145FE"/>
				</linearGradient>
				<path class="st7" d="M529.5,464.4L529.5,464.4c8.3-8.5,21.9-8.8,30.4-0.5L748.2,646c8.5,8.3,8.8,21.9,0.5,30.4l0,0
					c-8.3,8.5-21.9,8.8-30.4,0.5L530,494.8C521.4,486.6,521.2,473,529.5,464.4z"/>
				
					<linearGradient id="SVGID_8_" gradientUnits="userSpaceOnUse" x1="702.2487" y1="714.8862" x2="697.8527" y2="715.5642" gradientTransform="matrix(29.885 -30.917 -219.295 -211.975 136129.9844 173527.3125)">
					<stop  offset="0" style="stop-color:#6240C8"/>
					<stop  offset="1" style="stop-color:#A145FE"/>
				</linearGradient>
				<path class="st8" d="M-67.5,163.4L-67.5,163.4c8.3-8.5,21.9-8.8,30.4-0.5L151.2,345c8.5,8.3,8.8,21.9,0.5,30.4l0,0
					c-8.3,8.5-21.9,8.8-30.4,0.5L-67,193.8C-75.6,185.6-75.8,172-67.5,163.4z"/>
				
					<linearGradient id="SVGID_9_" gradientUnits="userSpaceOnUse" x1="702.2487" y1="715.2346" x2="697.8527" y2="715.9125" gradientTransform="matrix(29.885 -30.917 -188.378 -182.09 115071.2812 152811.4531)">
					<stop  offset="0" style="stop-color:#6240C8"/>
					<stop  offset="1" style="stop-color:#A145FE"/>
				</linearGradient>
				<path class="st9" d="M948.5,785.4L948.5,785.4c8.3-8.5,21.9-8.8,30.4-0.5l157.5,152.2c8.5,8.3,8.8,21.9,0.5,30.4l0,0
					c-8.3,8.5-21.9,8.8-30.4,0.5L949,815.8C940.4,807.6,940.2,794,948.5,785.4z"/>
			</g>
			
				<linearGradient id="SVGID_10_" gradientUnits="userSpaceOnUse" x1="702.2808" y1="714.9214" x2="702.2808" y2="713.9214" gradientTransform="matrix(219 0 0 -219 -153785 156458.7812)">
				<stop  offset="0" style="stop-color:#6240C8"/>
				<stop  offset="1" style="stop-color:#A145FE"/>
			</linearGradient>
			<circle class="st10" cx="14.5" cy="0.5" r="109.5"/>
			
				<linearGradient id="SVGID_11_" gradientUnits="userSpaceOnUse" x1="702.2808" y1="714.9214" x2="702.2808" y2="713.9214" gradientTransform="matrix(219 0 0 -219 -153643 156403.7812)">
				<stop  offset="0" style="stop-color:#6240C8"/>
				<stop  offset="1" style="stop-color:#A145FE"/>
			</linearGradient>
			<circle class="st11" cx="156.5" cy="-54.5" r="109.5"/>
		</g>
	</g>
</g>
</svg>
