<?xml version="1.0" encoding="utf-8"?>
<!-- Generator: Adobe Illustrator 23.0.5, SVG Export Plug-In . SVG Version: 6.00 Build 0)  -->
<svg version="1.1" id="Layer_1" xmlns="http://www.w3.org/2000/svg" xmlns:xlink="http://www.w3.org/1999/xlink" x="0px" y="0px"
	 viewBox="0 0 512 512" style="enable-background:new 0 0 512 512;" xml:space="preserve">
<style type="text/css">
	.st0{fill:#FFFFFF;}
	.st1{fill:#390176;}
	.st2{opacity:0.3;}
	.st3{fill:#37CEF7;}
	.st4{fill:#F962BB;}
	.st5{fill:#FFB531;}
	.st6{opacity:0.6;}
	.st7{fill:#D969F4;}
	.st8{opacity:0.2;}
	.st9{fill:#390075;}
	.st10{fill:#FE6DCB;}
	.st11{fill:#33AEF1;}
	.st12{fill:#FDD800;}
	.st13{fill:#B177EA;}
	.st14{fill:#FB64C0;}
	.st15{fill:#F3BA2F;}
</style>
<g>
	<g>
		<g>
			<g>
				<g>
					<path class="st0" d="M333.9,258.4l23.2,80.4c25.7,11.4,54.9,10.5,73,5.1c18.6-5.6,25.4-15.9,3.9-22.2
						c40.4-11.8,52.3-41.8,15.3-35.3c55.6-33.1,51-72,4.7-48.8c29.1-34.4,24.7-74.8,1.9-77.2c-6.4-0.7-12.7,2-17,6.8
						c-12,13.4-24.9,26-38.5,38c-13.8,12.3-28.3,23.9-43.3,35.1L333.9,258.4z"/>
				</g>
			</g>
			<g>
				<path class="st1" d="M356.4,239.3c1.4-2.4,3.2-4.5,5-6.4s3.8-3.6,5.8-5.3s4-3.3,6-5l6.2-4.8c4.1-3.2,8.1-6.5,12.1-9.9l5.9-5.1
					l5.8-5.2c7.7-7,15.2-14.2,22.4-21.7c3.6-3.7,7.1-7.5,10.6-11.4c4.2-4.6,10.1-7.7,16.5-8c1.6-0.1,3.2-0.1,4.7,0.2
					c0.8,0.1,1.6,0.2,2.3,0.4l2.3,0.7c3,1.2,5.7,3,7.9,5.3c2.2,2.3,3.8,4.9,5.1,7.6l0.9,2.1c0.3,0.7,0.5,1.4,0.7,2.1
					c0.5,1.4,0.7,2.8,1.1,4.2c1.1,5.7,1,11.4,0.3,16.9s-2.2,10.9-4.1,16.1c-3.9,10.3-9.7,19.8-16.7,28.1c-0.9,1-1.7,2.1-2.7,3.1
					l-2.8,3c-0.5,0.5-0.9,1-1.4,1.5l-1.4,1.5c-0.9,1-1.9,2-2.9,2.9s-2,1.8-3.1,2.7c-1.1,0.8-2.2,1.5-3.4,2.2c-0.6,0.3-1.2,0.7-1.8,1
					c-0.6,0.3-1.3,0.5-1.9,0.8c-1.3,0.5-2.7,0.8-4.2,1c-0.8,0.1-1.6-0.5-1.6-1.4c0-0.3,0-0.5,0.1-0.7v-0.1c1.3-2.8,3-4.7,4.7-6.6
					c0.9-0.9,1.8-1.8,2.8-2.6c0.9-0.9,1.9-1.7,2.8-2.5c0.5-0.4,1-0.8,1.5-1.2l1.4-1.2c0.9-0.8,1.9-1.7,2.8-2.6l2.6-2.7
					c0.9-0.9,1.7-1.9,2.5-2.9c6.5-7.7,11.8-16.4,15.3-25.7c1.7-4.7,3-9.5,3.7-14.3c0.6-4.8,0.7-9.8-0.2-14.4
					c-0.3-1.1-0.5-2.3-0.9-3.4c-0.2-0.5-0.3-1.1-0.5-1.6l-0.7-1.6c-1-2-2.1-3.9-3.6-5.4s-3.2-2.6-5.1-3.4c-0.5-0.1-1-0.3-1.5-0.5
					c-0.5-0.1-1-0.2-1.5-0.3c-1-0.2-2.1-0.2-3.1-0.2c-4.1,0.2-8.2,2.3-11.1,5.4c-3.5,3.9-7.1,7.8-10.8,11.6
					c-7.3,7.6-15,15-22.8,22.1l-5.9,5.3l-6,5.2l-12,10.3c-4,3.5-8,6.9-12.4,9.9c-4.3,3.1-8.8,5.8-14.2,7.4c-0.8,0.2-1.5-0.2-1.7-1
					C356.1,240,356.1,239.6,356.4,239.3L356.4,239.3z"/>
			</g>
			<g>
				<path class="st1" d="M452.3,234c5.2-2.6,10.6-4.9,16.6-6.3c3-0.7,6-1.2,9.3-1.1c1.6,0,3.3,0.2,5.1,0.6c1.7,0.4,3.5,1.1,5.1,2.3
					c1.6,1.1,3.1,2.7,4,4.6c0.9,1.8,1.4,3.8,1.5,5.6c0.2,3.7-0.6,6.9-1.7,9.9c-2.3,5.9-5.9,10.8-9.7,15.3
					c-3.9,4.5-8.1,8.5-12.6,12.2c-4.4,3.7-9.1,7.2-13.9,10.3c-4.9,3-10,5.7-15.3,7.9c-5.3,2.2-10.7,4-16.4,5.2l0,0
					c-0.7,0.1-1.4-0.3-1.6-1c-0.1-0.6,0.1-1.1,0.6-1.4c9.4-6.3,19-11.8,28.1-17.8c4.6-3,9.1-6,13.4-9.4s8.2-7.1,11.7-11.1
					s6.5-8.4,8.3-13c0.9-2.3,1.4-4.6,1.2-6.5c-0.2-2-0.8-3.3-2.1-4.2c-1.3-0.9-3.5-1.5-5.8-1.5s-4.8,0.3-7.3,0.9
					c-5,1.2-10,3.3-14.8,5.7l0,0c-2,1-4.3,0.2-5.3-1.8C449.5,237.4,450.3,235,452.3,234L452.3,234z"/>
			</g>
			<g>
				<path class="st1" d="M446.2,283.9c3.9-0.9,7.9-1.6,12.1-1.8c2.1-0.1,4.3-0.1,6.5,0.2c2.2,0.3,4.6,0.8,7.1,2.4
					c1.2,0.8,2.4,1.9,3.3,3.3s1.3,3.1,1.4,4.6s-0.2,2.9-0.6,4.2c-0.4,1.2-0.9,2.4-1.5,3.4c-1.1,2.1-2.5,3.8-4,5.4
					c-1.4,1.6-3,3-4.6,4.4c-3.2,2.7-6.6,4.9-10.1,7s-7.1,4-10.9,5.4c-7.5,2.8-15.6,4.4-23.6,3.6c-0.8-0.1-1.3-0.7-1.2-1.5
					c0-0.5,0.3-0.9,0.8-1.1l0,0c3.6-1.7,7.1-3.2,10.6-4.6s6.9-2.8,10.3-4.2c3.4-1.4,6.8-2.8,10-4.6c3.2-1.7,6.3-3.8,9-6.1
					c2.7-2.3,5.2-4.9,6.7-7.5c0.4-0.7,0.6-1.3,0.8-1.9c0.2-0.6,0.2-1.1,0.2-1.5s-0.1-0.6-0.2-0.9c-0.1-0.2-0.4-0.5-0.8-0.8
					s-1-0.5-1.6-0.7c-0.7-0.2-1.4-0.4-2.2-0.5c-1.6-0.2-3.3-0.2-5.1-0.2c-3.5,0.2-7.2,0.8-10.8,1.6l0,0c-2.1,0.5-4.3-0.9-4.7-3
					C442.7,286.5,444,284.4,446.2,283.9L446.2,283.9z"/>
			</g>
			<g>
				<path class="st1" d="M401.3,351.7c-14.8,0-31-2.6-45.8-9.2c-2-0.9-2.9-3.2-2-5.2s3.2-2.9,5.2-2c33.8,15,72.1,7.4,82.3-0.7
					c1.7-1.4,2.4-2.6,2.3-3.1c0-0.1-0.7-3-10.5-5.8c-2.1-0.6-3.3-2.8-2.7-4.9c0.6-2.1,2.8-3.3,4.9-2.7c9.8,2.9,15,6.8,16,11.9
					c0.5,2.7,0.1,6.7-5.1,10.9C438.1,347,421,351.7,401.3,351.7z"/>
			</g>
			<g class="st2">
				<path class="st1" d="M489.3,246.8L489.3,246.8c-2.4,12.2-18,27.1-39.1,39.5c-7,4.1-14.6,8-22.6,11.4l-19.7,7.6
					c-3.3,19.3,60.4-4.4,53.2-17.8c5.3,0.7,8.6,1.8,10.5,3.3c3.7,3,1.3,7.4-4.1,12l0,0c-10.9,9.3-33.7,19.5-43.3,21.3
					c0,0-10.6,2.1-18.2,2.1s-2.6,17.2,36.7,0c0.4-0.2,0.8-0.3,1.2-0.5c19.8,13.4-39.2,34.1-86.3,13.1l-23.2-80.4l23.2-18.1
					c11.7-8.8,23.1-17.7,34.1-27.1l3.8-0.5c0,0-15.4,17.9-20,40.1c-2,9.8,8.8,17.3,17.2,11.9c35.4-22.7,62.9-53.2,74.7-99.2
					c0,0,10.6,13.8,6.1,35.9c-1.3,6.6-4,13.9-8.7,21.7l0,0c-4.7,7.8-11.3,16.3-20.6,25.1l-25.6,20c-8.7,30.9,62.4-13.6,62.7-37.6
					C488.2,234.8,490.5,240.4,489.3,246.8z"/>
			</g>
		</g>
		<g>
			<path class="st3" d="M451.4,406.8c-39.8,51.4-64.4,19-86.6,1c-7.3-6-14.4-10.4-21.7-9.7c2.2-5.4,4.9-10.7,8.1-16
				c5.9-3.1,11.2-4.9,16-5.8C408.7,368.2,414.7,430.7,451.4,406.8z"/>
		</g>
		<g>
			<path class="st4" d="M450.5,442.6c-17.8,39.8-87.4,49-113,11.7c-3.2-17-2.1-33.8,3.5-50.4c0.7-2,1.4-3.9,2.2-5.9
				c7.3-0.7,14.3,3.7,21.7,9.7c22.1,18.1,46.7,50.4,86.6-1c0.3-0.2,0.6-0.4,0.9-0.6c0,0.2,0.1,0.4,0.1,0.5
				C456.2,420.5,455,432.5,450.5,442.6z"/>
		</g>
		<g>
			<path class="st5" d="M452.7,405c-0.1,0.6-0.2,1.1-0.3,1.7c-10,58.3-86.6,59.2-111.5,23v-31.3c0.7-0.2,1.5-0.3,2.2-0.4
				c29.1-2.9,55.2,77.1,108.2,8.7C451.8,406.2,452.3,405.6,452.7,405z"/>
		</g>
		<g>
			<path class="st1" d="M387.7,481.8c-20.8,0-41.4-7.7-53.5-25.2c-1.2-1.8-0.8-4.3,1-5.5s4.3-0.8,5.5,1c16.9,24.5,53.4,26.8,79,14.9
				c23.4-10.9,34.4-31.1,29.9-54.5c-5.1,2.7-9.7,3.8-14,3.8c-12.1,0-21-9.2-29.1-17.7c-13.5-14-26.2-27.2-53.5-12.9
				c-1.9,1-4.3,0.3-5.4-1.7c-1-1.9-0.3-4.3,1.7-5.4c32.6-17,49.4,0.4,62.9,14.5c12,12.5,20.7,21.5,37.7,9.9c1.1-0.7,2.4-0.9,3.6-0.5
				s2.1,1.4,2.5,2.7c4.3,15.4,3,30.2-3.8,42.7c-6,11.1-16.1,20.2-29.2,26.3C412.4,479.1,400,481.8,387.7,481.8z"/>
		</g>
		<g>
			<path class="st1" d="M393.7,458.3c-22.4,0-44.2-10-55.6-26.6c-1.1-1.6-0.7-3.7,0.9-4.8c1.6-1.1,3.7-0.7,4.8,0.9
				c12.5,18.2,40.3,27.6,64.8,21.9c16.6-3.9,28.9-14,35.3-28.5c-10.8,11.4-21.1,17.4-31.2,18.1c-0.8,0.1-1.5,0.1-2.3,0.1
				c-14.9,0-26.6-11.3-36.9-21.3c-9.7-9.4-18.1-17.5-26.8-15.4c-1.9,0.5-3.7-0.7-4.2-2.5c-0.5-1.9,0.7-3.7,2.5-4.2
				c12.5-3.1,22.6,6.7,33.3,17.1c10.3,10,20.9,20.3,33.8,19.3c11.2-0.9,23.2-10,36.7-27.9c1-1.3,2.7-1.7,4.1-1.1
				c1.5,0.6,2.3,2.1,2.1,3.7c-3.8,25.6-20.1,43.6-44.9,49.4C404.7,457.7,399.2,458.3,393.7,458.3z"/>
		</g>
		<g class="st2">
			<path class="st1" d="M450.5,442.6c-17.8,39.8-87.4,49-113,11.7c-3.2-17-2.1-33.8,3.5-50.4c0.7-2,1.4-3.9,2.2-5.9
				c2.2-5.4,4.9-10.7,8.1-16c5.9-3.1,11.2-4.9,16-5.8c-1.9,12.1-2.6,22.5-2.4,31.5C366.4,460.1,402.3,462.8,450.5,442.6z"/>
		</g>
		<g>
			<g>
				<path class="st0" d="M344.1,397.6L344.1,397.6l-5.2,49.8c-0.6,5.7-2.5,11.2-5.8,15.8c-8.8,12.1-23.6,14.9-37.2,7.3
					c-11.9-6.6-19-19.4-19.2-33.1c0-4.2,0-8.3,0.1-12c0.1,0,0.2,0,0.3,0h-0.3l0,0c-13.7,2.6-27.4,2.9-41.1,1c-2-0.3-4-0.6-6-1v-0.1
					h-0.5c0.2,0,0.3,0.1,0.5,0.1c0.1,3.8,0.2,7.8,0.1,12c-0.2,13.6-7.3,26.4-19.2,33.1c-4.8,2.7-9.7,4.1-14.5,4.2
					c-8.8,0.3-17-3.6-22.7-11.5c-3.3-4.6-5.2-10.1-5.8-15.8l-5.2-49.8l0,0c-22.9-38.1-12.3-98.6,5.7-137.7h170.1
					C356.4,299,366.9,359.5,344.1,397.6z"/>
			</g>
			<g>
				<path class="st0" d="M229.7,425.3L229.7,425.3c-0.2,0.1-0.3,0-0.5,0H229.7z"/>
			</g>
			<g>
				<path class="st0" d="M277.1,425.3c-0.1,0-0.2,0-0.3,0l0,0H277.1z"/>
			</g>
			<g>
				<path class="st0" d="M229.2,425.3h0.5v0.1C229.5,425.4,229.4,425.3,229.2,425.3z"/>
			</g>
			<g>
				<path class="st0" d="M277.1,425.3c-0.1,0-0.2,0-0.3,0l0,0H277.1z"/>
			</g>
		</g>
		<g>
			<g>
				<g>
					<path class="st0" d="M173.9,258.4l-23.2,80.4c-25.7,11.4-54.9,10.5-73,5.1c-18.6-5.6-25.4-15.9-3.9-22.2
						c-40.4-11.8-52.3-41.8-15.3-35.3c-55.6-33.1-51-72-4.7-48.8c-29.1-34.4-24.7-74.8-1.9-77.2c6.4-0.7,12.7,2,17,6.8
						c12,13.4,24.9,26,38.5,38c13.8,12.3,28.3,23.9,43.3,35.1L173.9,258.4z"/>
				</g>
			</g>
			<g>
				<path class="st1" d="M149.9,241.4c-5.4-1.5-9.9-4.3-14.2-7.4c-4.3-3-8.4-6.4-12.4-9.9l-12-10.3l-6-5.2l-5.9-5.3
					c-7.8-7.1-15.4-14.5-22.8-22.1c-3.7-3.8-7.3-7.7-10.8-11.6c-2.9-3.2-6.9-5.2-11.1-5.4c-1-0.1-2.1-0.1-3.1,0.2
					c-0.5,0.1-1,0.1-1.5,0.3s-1,0.3-1.5,0.5c-1.9,0.7-3.6,1.9-5.1,3.4s-2.6,3.4-3.6,5.4l-0.7,1.6c-0.2,0.5-0.4,1.1-0.5,1.6
					c-0.4,1.1-0.6,2.3-0.9,3.4c-0.9,4.6-0.8,9.5-0.2,14.4s1.9,9.7,3.7,14.3c3.5,9.3,8.8,18,15.3,25.7c0.8,0.9,1.6,1.9,2.5,2.9
					l2.6,2.7c0.9,0.9,1.8,1.7,2.8,2.6l1.4,1.2c0.5,0.4,1,0.8,1.5,1.2c1,0.8,1.9,1.6,2.8,2.5c1,0.8,1.9,1.7,2.8,2.6
					c1.7,1.9,3.5,3.8,4.7,6.6v0.1c0.3,0.8,0,1.7-0.8,2c-0.2,0.1-0.5,0.1-0.8,0.1c-1.5-0.1-2.9-0.5-4.2-1c-0.7-0.2-1.3-0.5-1.9-0.8
					s-1.2-0.6-1.8-1c-1.2-0.7-2.3-1.4-3.4-2.2s-2.1-1.7-3.1-2.7c-1-0.9-2-1.9-2.9-2.9l-1.4-1.5c-0.5-0.5-1-0.9-1.4-1.5l-2.8-3
					c-0.9-1-1.8-2.1-2.7-3.1c-7-8.3-12.8-17.7-16.7-28.1c-1.9-5.2-3.4-10.5-4.1-16.1c-0.7-5.5-0.8-11.2,0.3-16.9
					c0.3-1.4,0.6-2.8,1.1-4.2c0.2-0.7,0.4-1.4,0.7-2.1l0.9-2.1c1.3-2.7,2.9-5.4,5.1-7.6c2.2-2.2,4.9-4.1,7.9-5.3l2.3-0.7
					c0.8-0.2,1.6-0.3,2.3-0.4c1.6-0.3,3.2-0.3,4.7-0.2c6.4,0.4,12.3,3.4,16.5,8c3.5,3.9,7,7.7,10.6,11.4
					c7.2,7.5,14.7,14.7,22.4,21.7l5.8,5.2l5.9,5.1c4,3.4,7.9,6.8,12.1,9.9l6.2,4.8c2,1.6,4.1,3.3,6,5c2,1.7,4,3.4,5.8,5.3
					c1.8,1.9,3.6,3.9,5,6.4l0,0c0.4,0.7,0.2,1.5-0.5,1.9C150.7,241.5,150.3,241.5,149.9,241.4z"/>
			</g>
			<g>
				<path class="st1" d="M52,241.1c-4.8-2.4-9.8-4.5-14.8-5.7c-2.5-0.6-5-1-7.3-0.9c-2.3,0-4.5,0.5-5.8,1.5c-1.3,0.9-2,2.2-2.1,4.2
					c-0.1,1.9,0.4,4.3,1.2,6.5c1.8,4.6,4.8,9,8.3,13s7.4,7.8,11.7,11.1c4.2,3.4,8.8,6.4,13.4,9.4c9.2,6,18.7,11.5,28.1,17.8
					c0.6,0.4,0.8,1.2,0.4,1.9c-0.3,0.5-0.9,0.7-1.4,0.6l0,0c-5.6-1.2-11.1-3-16.4-5.2s-10.4-4.9-15.3-7.9
					c-4.9-3.1-9.5-6.5-13.9-10.3c-4.4-3.7-8.7-7.7-12.6-12.2c-3.8-4.5-7.4-9.4-9.7-15.3c-1.1-3-2-6.2-1.7-9.9
					c0.1-1.8,0.6-3.8,1.5-5.6s2.4-3.4,4-4.6c1.6-1.1,3.4-1.9,5.1-2.3c1.7-0.4,3.4-0.6,5.1-0.6c3.3-0.1,6.4,0.4,9.3,1.1
					c5.9,1.4,11.3,3.7,16.6,6.3c2,1,2.8,3.4,1.8,5.3C56.4,241.3,54,242.1,52,241.1L52,241.1L52,241.1z"/>
			</g>
			<g>
				<path class="st1" d="M59.9,291.6c-3.6-0.8-7.2-1.4-10.8-1.6c-1.8-0.1-3.5-0.1-5.1,0.2c-0.8,0.1-1.5,0.3-2.2,0.5
					s-1.2,0.5-1.6,0.7c-0.4,0.3-0.7,0.5-0.8,0.8c-0.1,0.2-0.2,0.5-0.2,0.9s0,0.9,0.2,1.5s0.5,1.2,0.8,1.9c1.5,2.7,4,5.3,6.7,7.5
					c2.7,2.3,5.8,4.3,9,6.1c3.2,1.7,6.6,3.1,10,4.6c3.4,1.4,6.9,2.8,10.3,4.2c3.5,1.4,7,2.8,10.6,4.6l0,0c0.7,0.3,1,1.2,0.6,1.8
					c-0.2,0.4-0.6,0.7-1.1,0.8c-8.1,0.8-16.1-0.7-23.6-3.6c-3.8-1.5-7.4-3.3-10.9-5.4s-6.9-4.3-10.1-7c-1.6-1.3-3.1-2.8-4.6-4.4
					c-1.4-1.6-2.8-3.4-4-5.4c-0.6-1-1.1-2.2-1.5-3.4c-0.4-1.3-0.6-2.7-0.6-4.2c0.1-1.5,0.5-3.2,1.4-4.6c0.9-1.4,2.1-2.5,3.3-3.3
					c2.4-1.5,4.8-2.1,7.1-2.4s4.4-0.3,6.5-0.2c4.2,0.2,8.2,0.9,12.1,1.8c2.1,0.5,3.5,2.6,3,4.7C64.2,290.8,62.1,292.1,59.9,291.6
					L59.9,291.6L59.9,291.6z"/>
			</g>
			<g>
				<path class="st1" d="M106.6,351.7c-19.7,0-36.9-4.7-44.8-11c-5.2-4.1-5.7-8.2-5.1-10.9c1-5.2,6.2-9.1,16-11.9
					c2.1-0.6,4.3,0.6,4.9,2.7s-0.6,4.3-2.7,4.9c-9.8,2.9-10.4,5.7-10.5,5.8c-0.1,0.6,0.6,1.7,2.3,3.1c10.2,8.1,48.5,15.8,82.3,0.7
					c2-0.9,4.3,0,5.2,2s0,4.3-2,5.2C137.5,349,121.3,351.7,106.6,351.7z"/>
			</g>
			<g class="st2">
				<path class="st1" d="M18.6,246.8L18.6,246.8c2.4,12.2,18,27.1,39.1,39.5c7,4.1,14.6,8,22.6,11.4l19.7,7.6
					c3.3,19.3-60.4-4.4-53.2-17.8c-5.3,0.7-8.6,1.8-10.5,3.3c-3.7,3-1.3,7.4,4.1,12l0,0c10.9,9.3,33.7,19.5,43.3,21.3
					c0,0,10.6,2.1,18.2,2.1s2.6,17.2-36.7,0c-0.4-0.2-0.8-0.3-1.2-0.5c-19.8,13.4,39.2,34.1,86.3,13.1l23.2-80.4l-23.2-18.1
					c-11.7-8.8-23.1-17.7-34.1-27.1l-3.8-0.5c0,0,15.4,17.9,20,40.1c2,9.8-8.8,17.3-17.2,11.9c-35.4-22.7-62.9-53.2-74.7-99.2
					c0,0-10.6,13.8-6.1,35.9c1.3,6.6,4,13.9,8.7,21.7l0,0c4.7,7.8,11.3,16.3,20.6,25.1l25.6,20c8.7,30.9-62.4-13.6-62.7-37.6
					C19.7,234.8,17.3,240.4,18.6,246.8z"/>
			</g>
		</g>
		<g class="st2">
			<g>
				<path class="st1" d="M344.1,397.6L344.1,397.6l-5.2,49.8c-0.6,5.7-2.5,11.2-5.8,15.8c-8,11.2-21.2,14.4-33.8,8.9
					c4-1.9,7.5-4.9,10.4-8.9c3.3-4.6,5.2-10.1,5.8-15.8l5.2-49.8l0,0c22.8-38.1,12.3-98.6-5.7-137.7h23.4
					C356.4,299,366.9,359.5,344.1,397.6z"/>
			</g>
		</g>
		<g class="st6">
			<g>
				<path class="st0" d="M200.7,474.1c-10.4,2-20.6-1.8-27.2-11c-3.3-4.6-5.2-10.1-5.8-15.8l-5.2-49.8l0,0
					c-22.9-38.1-12.3-98.6,5.7-137.7H179c-18,39.1-28.6,99.6-5.7,137.7l0,0l5.2,49.8c0.6,5.7,2.5,11.2,5.8,15.8
					C188.6,469.1,194.4,472.8,200.7,474.1z"/>
			</g>
			<g>
				<path class="st0" d="M316.6,474.1c-6.6,1.3-13.8,0.1-20.7-3.7c-11.9-6.6-19-19.4-19.2-33.1c0-3.6,0-7.1,0.1-10.4
					c0.7-0.1,1.4-0.1,2.2-0.2l-1-18.9l0,0c5.4,0,9.8,4.5,9.7,9.9l-0.1,7.7c-0.1,3.8-0.2,7.9-0.1,12.2c0.2,13.6,7.3,26.3,19.1,32.9
					C309.9,472.3,313.2,473.5,316.6,474.1z"/>
			</g>
		</g>
		<g>
			<ellipse class="st7" cx="253.2" cy="346.3" rx="42.5" ry="48.5"/>
		</g>
		<g>
			<path class="st1" d="M171.8,261.6c-5.6,12.1-9.8,24.8-13,37.8c-3.1,13-5,26.3-5.4,39.5c-0.2,6.6,0.1,13.3,0.9,19.8
				c0.8,6.5,2.3,12.9,4.1,19.2c1.9,6.2,4.2,12.3,7.2,18c3,5.8,6.6,11.2,10.8,16.5l0,0c0.5,0.6,0.4,1.4-0.2,1.9
				c-0.5,0.4-1.1,0.4-1.6,0.1c-5.9-3.8-11-9-15-14.9s-7.1-12.4-9.2-19.2c-2.1-6.8-3.3-13.8-4-20.7c-0.7-7-1-14-0.8-20.9
				c0.4-13.9,2.4-27.7,5.6-41.2c3.2-13.5,7.7-26.6,13.5-39.3c0.9-2,3.3-2.9,5.3-2C171.9,257.2,172.7,259.6,171.8,261.6L171.8,261.6
				L171.8,261.6z"/>
		</g>
		<g>
			<path class="st1" d="M229.1,405.7c1.7,3.6,2.7,7.4,3.4,11.1c0.7,3.8,1.1,7.6,1.3,11.4c0.1,1.9,0.1,3.8,0.2,5.7v2.9
				c0,0.5,0,1,0,1.5v1.6c-0.2,4.1-1,8.3-2.4,12.2c-1.4,3.9-3.3,7.7-5.8,11.1s-5.5,6.4-9,8.9c-3.4,2.5-7.2,4.4-11.3,5.7
				c-4.1,1.3-8.5,1.9-12.9,1.5s-8.8-1.8-12.6-4s-7.1-5.3-9.7-8.7c-2.7-3.5-4.5-7.5-5.7-11.6c-0.6-2.1-1-4.2-1.2-6.3l-0.6-5.7
				c-1.4-15-2.9-29.9-4-44.9c-0.2-2.2,1.5-4.1,3.7-4.3c2.1-0.2,4,1.4,4.2,3.4c2,14.9,3.7,29.9,5.4,44.8l0.6,5.5
				c0.2,1.6,0.6,3.2,1,4.8c0.9,3.1,2.3,6,4.2,8.5c3.8,5.1,9.4,8.5,15.6,9.1c6.2,0.6,12.7-1.5,18.1-5.3c5.4-3.8,9.6-9.2,12-15.5
				c1.2-3.1,2-6.4,2.2-9.8l0.1-1.3c0-0.4,0.1-0.8,0.1-1.3l0.1-2.8c0-1.8,0-3.7,0-5.6c0-3.7,0-7.4,0.3-11.2c0.3-3.7,0.7-7.5,1.6-11.4
				l0,0c0.1-0.4,0.5-0.6,0.9-0.5C228.8,405.3,229,405.5,229.1,405.7z"/>
		</g>
		<g>
			<path class="st1" d="M183.2,454.4c0.3,3.9,1.7,7.6,3.7,10.8c1,1.6,2.2,3.1,3.5,4.2c0.7,0.5,1.3,1.1,2,1.4l0.5,0.2
				c0.2,0.1,0.3,0.1,0.4,0.1c0.3,0.1,0.5,0,0.7,0.1l0.8,0.2c1.8,0.5,2.9,2.5,2.3,4.3c-0.5,1.8-2.5,2.9-4.3,2.3h-0.1
				c-0.8-0.3-1.6-0.5-2.2-0.9c-0.3-0.2-0.6-0.4-0.9-0.6l-0.8-0.6c-1.1-0.8-1.9-1.8-2.6-2.7c-1.4-1.9-2.4-3.9-3.2-6s-1.3-4.2-1.6-6.4
				c-0.3-2.2-0.4-4.4-0.1-6.5c0.1-0.5,0.6-0.9,1.1-0.8C182.8,453.5,183.2,453.9,183.2,454.4L183.2,454.4z"/>
		</g>
		<g>
			<path class="st1" d="M209.7,454.3c0.3,2.2,0.2,4.3-0.1,6.5s-0.9,4.3-1.6,6.4c-0.8,2.1-1.8,4.1-3.2,6c-0.7,0.9-1.5,1.9-2.6,2.7
				l-0.8,0.6c-0.3,0.2-0.6,0.4-0.9,0.6c-0.6,0.4-1.4,0.6-2.2,0.9c-1.8,0.6-3.8-0.4-4.4-2.2c-0.6-1.8,0.4-3.8,2.2-4.4h0.1l0.8-0.2
				c0.2-0.1,0.4,0,0.7-0.1c0.1,0,0.3-0.1,0.4-0.1l0.5-0.2c0.6-0.3,1.3-0.8,2-1.4c1.3-1.1,2.5-2.6,3.5-4.2c2-3.2,3.5-6.9,3.7-10.8
				l0,0c0-0.5,0.5-1,1.1-0.9C209.2,453.5,209.6,453.8,209.7,454.3z"/>
		</g>
		<g>
			<path class="st1" d="M342,258.3c5.8,12.6,10.2,25.8,13.5,39.3c3.2,13.5,5.2,27.3,5.6,41.2c0.2,7-0.1,14-0.8,20.9
				c-0.7,7-1.9,14-4,20.7c-2.1,6.8-5.2,13.3-9.2,19.2c-4.1,5.9-9.1,11.1-15,14.9c-0.6,0.4-1.5,0.2-1.9-0.4c-0.3-0.5-0.3-1.1,0.1-1.6
				l0,0c4.2-5.3,7.8-10.7,10.8-16.5s5.3-11.8,7.2-18c1.9-6.2,3.3-12.6,4.1-19.2c0.8-6.5,1.1-13.2,0.9-19.8
				c-0.4-13.3-2.3-26.6-5.4-39.5c-3.1-13-7.4-25.7-13-37.8l0,0c-0.9-2,0-4.3,2-5.3C338.7,255.4,341,256.3,342,258.3L342,258.3z"/>
		</g>
		<g>
			<path class="st1" d="M278.9,405.8c0.9,3.8,1.3,7.6,1.6,11.4c0.3,3.7,0.3,7.5,0.3,11.2c0,1.9,0,3.7,0,5.6l0.1,2.8
				c0,0.5,0,0.9,0.1,1.3l0.1,1.3c0.3,3.4,1,6.7,2.2,9.8c2.4,6.2,6.6,11.7,12,15.5s11.9,5.9,18.1,5.3s11.8-3.9,15.6-9.1
				c1.9-2.5,3.3-5.4,4.2-8.5c0.5-1.6,0.8-3.1,1-4.8l0.6-5.5c1.7-14.9,3.4-29.9,5.4-44.8c0.3-2.2,2.3-3.7,4.5-3.4
				c2.1,0.3,3.6,2.2,3.4,4.2c-1.1,15-2.5,30-4,44.9l-0.6,5.7c-0.2,2.1-0.7,4.2-1.2,6.3c-1.2,4.1-3,8.1-5.7,11.6
				c-2.6,3.5-5.9,6.5-9.7,8.7c-3.8,2.2-8.2,3.6-12.6,4s-8.8-0.2-12.9-1.5s-7.9-3.3-11.3-5.7c-3.4-2.5-6.5-5.5-9-8.9
				s-4.4-7.2-5.8-11.1s-2.2-8.1-2.4-12.2v-1.6c0-0.5,0-1,0-1.5v-2.9c0-1.9,0.1-3.8,0.2-5.7c0.1-3.8,0.5-7.6,1.3-11.4
				c0.7-3.8,1.7-7.5,3.4-11.1c0.2-0.4,0.6-0.5,1-0.4C278.7,405.4,278.8,405.6,278.9,405.8L278.9,405.8z"/>
		</g>
		<g>
			<path class="st1" d="M325.4,454.3c0.3,2.2,0.2,4.3-0.1,6.5c-0.3,2.2-0.9,4.3-1.6,6.4c-0.8,2.1-1.8,4.1-3.2,6
				c-0.7,0.9-1.5,1.9-2.6,2.7l-0.8,0.6c-0.3,0.2-0.6,0.4-0.9,0.6c-0.6,0.4-1.4,0.6-2.2,0.9c-1.8,0.6-3.8-0.4-4.4-2.2
				c-0.6-1.8,0.4-3.8,2.2-4.4h0.1l0.8-0.2c0.2-0.1,0.4,0,0.7-0.1c0.1,0,0.3-0.1,0.4-0.1l0.5-0.2c0.6-0.3,1.3-0.8,2-1.4
				c1.3-1.1,2.5-2.6,3.5-4.2c2-3.2,3.5-6.9,3.7-10.8l0,0c0-0.5,0.5-1,1.1-0.9C324.9,453.5,325.3,453.8,325.4,454.3z"/>
		</g>
		<g>
			<path class="st1" d="M298.9,454.4c0.3,3.9,1.7,7.6,3.7,10.8c1,1.6,2.2,3.1,3.5,4.2c0.7,0.5,1.3,1.1,2,1.4l0.5,0.2
				c0.1,0.1,0.3,0.1,0.4,0.1c0.3,0.1,0.5,0,0.7,0.1l0.8,0.2c1.8,0.5,2.9,2.5,2.3,4.3c-0.5,1.8-2.5,2.9-4.3,2.3h-0.1
				c-0.8-0.3-1.6-0.5-2.2-0.9c-0.3-0.2-0.6-0.4-0.9-0.6l-0.8-0.6c-1.1-0.8-1.9-1.8-2.6-2.7c-1.4-1.9-2.4-3.9-3.2-6
				c-0.8-2.1-1.3-4.2-1.6-6.4c-0.3-2.2-0.4-4.4-0.1-6.5c0.1-0.5,0.6-0.9,1.1-0.8C298.5,453.5,298.9,453.9,298.9,454.4L298.9,454.4z"
				/>
		</g>
		<g>
			<path class="st1" d="M253.2,431.1c-8.2,0-16.5-0.8-24.6-2.3c-1.9-0.4-3.1-2.2-2.8-4.1c0.4-1.9,2.2-3.1,4.1-2.8
				c15.5,3,31.2,3,46.7,0c1.9-0.4,3.7,0.9,4.1,2.8s-0.9,3.7-2.8,4.1C269.6,430.3,261.4,431.1,253.2,431.1z"/>
		</g>
		<g>
			<g>
				<g>
					<path class="st0" d="M392.7,180.9c-1.1,59.5-65.9,94.3-144.9,92.8s-142.4-38.8-141.3-98.2c1.1-59.5,66.4-118.6,145.4-117.1
						C330.9,59.8,393.8,121.4,392.7,180.9z"/>
				</g>
			</g>
			<g class="st8">
				<g>
					<path class="st9" d="M249.1,273.5c-79-1.5-142.4-38.8-141.3-98.2c0-0.4,0-0.7,0-1.1c11.7,47.8,69.3,77,139.1,78.4
						c78.9,1.5,143.6-33.2,144.9-92.5c1.5,6.9,2.3,13.8,2.1,20.7C392.9,240.1,328.2,275,249.1,273.5z"/>
				</g>
			</g>
			<g>
				<g>
					<path class="st9" d="M201.3,272.2c-21.5-4.7-40.8-12.4-56.4-22.7c-28.2-18.7-42.9-44.3-42.3-74.1c0.6-30.2,16.9-60.9,44.9-84.3
						c29.1-24.3,66.2-37.3,104.5-36.6S326.9,69.6,355,95c27,24.4,42.2,55.7,41.6,85.9c-0.6,29.8-16.2,54.9-45.1,72.5
						c-26.8,16.3-63.6,24.8-103.8,24.1C231.5,277.2,215.9,275.4,201.3,272.2z M281.3,65.7c-9.6-2.1-19.5-3.3-29.5-3.5
						c-79.7-1.5-140.4,58.6-141.5,113.3c-0.8,43.3,35.4,76.8,92.1,89.2c14,3,29.2,4.8,45.4,5.1c82,1.6,140-35,141-89
						c0.5-28-13.7-57.1-39.1-80.1C330.4,83.2,306.7,71.2,281.3,65.7z"/>
				</g>
			</g>
			<g>
				<g>
					<path class="st9" d="M201.3,272.2c-21.5-4.7-40.8-12.4-56.4-22.7c-28.2-18.7-42.9-44.3-42.3-74.1c0.6-30.2,16.9-60.9,44.9-84.3
						c29.1-24.3,66.2-37.3,104.5-36.6S326.9,69.6,355,95c27,24.4,42.2,55.7,41.6,85.9c-0.6,29.8-16.2,54.9-45.1,72.5
						c-26.8,16.3-63.6,24.8-103.8,24.1C231.5,277.2,215.9,275.4,201.3,272.2z M281.3,65.7c-9.6-2.1-19.5-3.3-29.5-3.5
						c-79.7-1.5-140.4,58.6-141.5,113.3c-0.8,43.3,35.4,76.8,92.1,89.2c14,3,29.2,4.8,45.4,5.1c82,1.6,140-35,141-89
						c0.5-28-13.7-57.1-39.1-80.1C330.4,83.2,306.7,71.2,281.3,65.7z"/>
				</g>
			</g>
			<g>
				<g>
					<path class="st10" d="M261.3,101.8c-2.3,0.4-5,0.6-7.9,0.4c-15.1-0.8-20.5-9.1-21-14.9C236.3,90.7,247,98.8,261.3,101.8z"/>
				</g>
			</g>
			<g>
				<g>
					<path class="st9" d="M260.2,105.5c-14.9-3.2-26.2-11.7-30.3-15.2c-0.7-0.6-1.2-1.5-1.3-2.4c0-0.3-0.1-0.7-0.1-1v-0.1
						c-0.1-4.4,0.4-10.3,1.5-17.2c0.2-1.5,1.3-2.7,2.7-3.1s2.9,0,3.9,1.1c0.1,0.2,15.5,16.2,39.6,17.8c1.1,0.1,2.1,0.6,2.8,1.4
						c0.7,0.8,1,1.9,0.8,3c-0.9,5.8-5.6,12.9-15.9,15.4c-0.7,0.2-1.4,0.3-2,0.4c-0.5,0.1-0.9,0.1-1.4,0
						C260.4,105.6,260.3,105.6,260.2,105.5z M261.3,101.8L261.3,101.8L261.3,101.8z M236.1,85.5c4.4,3.5,13.6,9.8,25.2,12.4
						c0.2,0,0.4-0.1,0.6-0.1l0,0c4.1-1,6.9-3.1,8.4-5.3c-15.7-2.3-27.4-9.6-33.8-14.6C236.3,80.8,236.1,83.4,236.1,85.5z"/>
				</g>
			</g>
			<g>
				<g>
					<path class="st11" d="M267.8,99.7c-1.4,0.7-3,1.4-4.9,1.8c-0.5,0.1-1.1,0.3-1.6,0.3c-14.2-3-25-11.2-29-14.5
						c0-0.3,0-0.5-0.1-0.8c-0.1-4.1,0.4-9.9,1.5-16.4c0,0,13,13.9,34.5,18c2.5,0.5,5,0.8,7.7,1C275.4,92.6,273,97,267.8,99.7z"/>
				</g>
				<g>
					<path class="st9" d="M260.9,102.3C246.7,99.2,236,91.1,232,87.7l-0.2-0.1v-0.2c0-0.2,0-0.5-0.1-0.7v-0.2
						c-0.1-4.1,0.4-9.8,1.5-16.5l0.2-1.1l0.7,0.8c0.1,0.1,13.1,13.8,34.2,17.9c2.6,0.5,5.1,0.8,7.6,1h0.6l-0.1,0.6
						c-0.7,4.4-3.9,8.5-8.4,10.9c-1.5,0.8-3.2,1.4-5,1.9c-0.6,0.2-1.2,0.3-1.7,0.4h-0.2C261.1,102.3,261,102.3,260.9,102.3z
						 M232.8,87.1c4.1,3.4,14.6,11.2,28.3,14.2c0.1,0,0.1,0,0.2,0c0.5-0.1,0.9-0.2,1.5-0.3c1.7-0.4,3.3-1,4.7-1.8l0,0
						c5.7-3,7.3-7.6,7.8-9.5c-2.4-0.2-4.7-0.5-7.2-1c-18.6-3.5-31-14.5-34.1-17.4c-1,6.2-1.4,11.4-1.3,15.3v0.2
						C232.8,86.8,232.8,87,232.8,87.1z"/>
				</g>
			</g>
			<g class="st6">
				<g>
					<path class="st0" d="M267.8,99.7c0.3-3.9,0.4-7.8,0.5-11.5c2.5,0.5,5,0.8,7.7,1C275.4,92.6,273,97,267.8,99.7z"/>
				</g>
			</g>
			<g>
				<g>
					<path class="st12" d="M275.9,89.2c-2.7-0.2-5.2-0.5-7.7-1c-21.5-4.1-34.5-18-34.5-18c1-6.6,2.6-13.9,4.5-21
						c0,0,7.5,12.3,29.2,21.2c2.7,1.1,5.6,2.2,8.8,3.1c0.3,6.1,0.2,11.5-0.3,15.4C276,89,276,89.1,275.9,89.2z"/>
				</g>
			</g>
			<g class="st6">
				<g>
					<path class="st0" d="M275.9,89.2c-2.7-0.2-5.2-0.5-7.7-1c0.1-6.3-0.2-12.2-0.7-17.8c2.7,1.1,5.6,2.2,8.8,3.1
						c0.3,6.1,0.2,11.5-0.3,15.4C276,89,276,89.1,275.9,89.2z"/>
				</g>
			</g>
			<g>
				<g>
					<path class="st13" d="M276.3,73.5c-3.2-1-6.1-2-8.8-3.1c-21.7-8.9-29.2-21.2-29.2-21.2c2.1-7.7,4.6-15.1,7.4-21.1
						c0,0,6,11,17.9,18.5c3.1,2,6.6,3.7,10.5,4.9C275.2,59.1,276,66.8,276.3,73.5z"/>
				</g>
				<g>
					<path class="st9" d="M276.8,74.2l-0.7-0.2c-3-0.9-6-2-8.8-3.1c-21.6-8.9-29.4-21.2-29.5-21.4l-0.1-0.2l0.1-0.2
						c2.2-8.2,4.8-15.5,7.4-21.2l0.4-0.9l0.5,0.9c0.1,0.1,6.1,11,17.7,18.3c3.3,2.1,6.8,3.8,10.4,4.9l0.3,0.1l0.1,0.3
						c1.2,7.4,2,15,2.3,22L276.8,74.2z M238.8,49.1c1,1.6,9,12.6,28.9,20.8c2.6,1.1,5.3,2,8,2.9c-0.3-6.6-1.1-13.8-2.2-20.8
						c-3.5-1.1-7-2.8-10.3-4.9c-9.9-6.3-15.8-15.1-17.5-17.8C243.3,34.7,240.9,41.5,238.8,49.1z"/>
				</g>
			</g>
			<g class="st6">
				<g>
					<path class="st0" d="M276.3,73.5c-3.2-1-6.1-2-8.8-3.1c-0.8-8.7-2.3-16.7-4-23.7c3.1,2,6.6,3.7,10.5,4.9
						C275.2,59.1,276,66.8,276.3,73.5z"/>
				</g>
			</g>
			<g>
				<g>
					<path class="st10" d="M274.1,51c-3.9-1.2-7.4-3-10.5-4.9c-11.9-7.5-17.9-18.5-17.9-18.5c2.3-4.9,4.7-8.9,7.3-11.1
						c1.7-1.5,3.4-2.3,5.1-2.2C265.7,14.7,271.2,32.4,274.1,51z"/>
				</g>
			</g>
			<g class="st6">
				<g>
					<path class="st0" d="M275,51.8c-3.9-1.2-7.4-3-10.5-4.9c-3.2-13.2-7.4-23.2-10.6-29.6c1.7-1.5,3.4-2.3,5.1-2.2
						C266.6,15.4,272.1,33.1,275,51.8z"/>
				</g>
			</g>
			<g>
				<g>
					<g>
						<path class="st9" d="M273.4,54.6c-0.1,0-0.2,0-0.3-0.1c-19.7-6.2-29.8-24.2-30.2-24.9c-0.5-0.9-0.5-1.9-0.1-2.8
							c4.9-10.5,9.9-15.4,15.3-15.1c10.6,0.5,16.2,21.7,19,39.4c0.2,1.1-0.2,2.2-1,2.9C275.3,54.6,274.3,54.8,273.4,54.6z M249.2,28
							c2.3,3.5,9.3,13.3,20.8,18.7c-3.9-20.7-9.3-28.5-12.2-28.7C256.1,17.8,252.9,20.5,249.2,28z"/>
					</g>
				</g>
				<g>
					<g>
						<path class="st9" d="M275.6,76.6c-0.1,0-0.2,0-0.3-0.1c-29.3-9-39.4-25-39.8-25.6c-0.4-0.7-0.6-1.6-0.4-2.4
							c2.3-8.3,4.9-15.8,7.6-21.6c0.5-1.1,1.6-1.8,2.7-1.8c1.2,0,2.3,0.6,2.8,1.6c0.1,0.2,9.3,16.5,26.6,22c1.1,0.4,2,1.3,2.1,2.5
							c1.2,7.5,2,15.2,2.3,22.3c0,1-0.4,2-1.2,2.6C277.5,76.5,276.5,76.8,275.6,76.6z M241.7,48.6c2.5,3.2,11.5,13.4,31.2,20.5
							c-0.4-4.9-0.9-10.1-1.7-15.2c-12.4-4.5-20.7-13.5-25-19.2C244.7,38.8,243.1,43.5,241.7,48.6z"/>
					</g>
				</g>
				<g>
					<g>
						<path class="st9" d="M265.9,90.9c-21.2-4.6-33.8-18-34.4-18.6c-0.7-0.7-1-1.7-0.8-2.6c1.1-6.9,2.7-14.2,4.6-21.3
							c0.3-1.2,1.3-2.1,2.6-2.3c1.2-0.2,2.5,0.4,3.1,1.5c0.1,0.1,9.4,14.7,36.3,22.9c1.3,0.4,2.1,1.5,2.2,2.8
							c0.3,6.4,0.2,11.9-0.3,15.9c0,0.2-0.1,0.4-0.1,0.6c-0.3,1.5-1.7,2.5-3.3,2.4C272.3,92.1,269,91.6,265.9,90.9z M275.9,89.2
							L275.9,89.2L275.9,89.2z M237.1,69.1c3.7,3.4,16.8,14.4,36,16.7c0.2-2.8,0.2-6.2,0.1-10c-18-5.9-28.3-14.4-33.5-19.8
							C238.7,60.4,237.8,64.8,237.1,69.1z"/>
					</g>
				</g>
				<g>
					<g>
						<path class="st9" d="M260.3,104.8c-14.7-3.2-25.9-11.6-30-15.1c-0.6-0.5-1-1.2-1.1-2c0-0.3-0.1-0.6-0.1-0.9v-0.1
							c-0.1-4.3,0.4-10.2,1.5-17c0.2-1.2,1-2.1,2.2-2.5c1.1-0.3,2.4,0,3.2,0.9c0.2,0.2,15.6,16.4,40.1,18c0.9,0.1,1.7,0.5,2.2,1.2
							s0.8,1.6,0.6,2.4c-0.9,5.5-5.4,12.4-15.3,14.8c-0.7,0.2-1.3,0.3-1.9,0.4c-0.4,0.1-0.8,0.1-1.1,0
							C260.5,104.9,260.4,104.8,260.3,104.8z M261.3,101.8L261.3,101.8L261.3,101.8z M235.4,85.8c4.4,3.5,13.9,10.1,26,12.8
							c0.3-0.1,0.5-0.1,0.8-0.2l0,0c5-1.2,8-3.9,9.5-6.5c-17-2.2-29.4-10.4-35.7-15.5C235.6,80.1,235.4,83.3,235.4,85.8z"/>
					</g>
				</g>
				<g>
					<g>
						<path class="st9" d="M246.8,104.6c-11.9-2.6-17-10.4-17.6-16.9c-0.1-1.3,0.5-2.5,1.7-3.1c1.1-0.6,2.5-0.4,3.5,0.4
							c3.8,3.2,14,10.8,27.3,13.8c0.1,0,0.2,0,0.3,0.1c1.5,0.3,2.5,1.6,2.5,3.1s-1.1,2.8-2.6,3c-2.7,0.5-5.6,0.7-8.7,0.5
							C250.9,105.3,248.7,105,246.8,104.6z"/>
					</g>
				</g>
			</g>
			<g>
				<g>
					<path class="st9" d="M246.9,105.3c-11.7-2.6-17.7-10.2-18.4-17.5c0-0.3-0.1-0.6-0.1-0.9v-0.1c-0.1-2.6,0.1-5.8,0.5-9.4
						c0.2-1.9,0.5-3.9,0.8-6l0.1-0.4c0.1-0.4,0.1-0.9,0.2-1.3c1.1-6.9,2.7-14.3,4.6-21.4c2.3-8.4,4.9-15.9,7.6-21.7
						c5-10.8,10.2-15.9,16-15.6c11.1,0.6,16.8,22.1,19.6,40c1.2,7.6,2,15.3,2.3,22.3c0.3,6.4,0.2,12-0.3,16c0,0.2-0.1,0.4-0.1,0.7
						l0,0c0,0.3-0.1,0.5-0.2,0.8c0,0.1-0.1,0.2-0.1,0.4c-0.1,0.3-0.1,0.5-0.2,0.7c0,0.2-0.1,0.3-0.1,0.4c-0.1,0.2-0.2,0.4-0.2,0.6
						c-0.1,0.2-0.1,0.3-0.2,0.4c-0.1,0.3-0.3,0.7-0.4,1c0,0.1-0.1,0.2-0.1,0.3c-0.1,0.3-0.3,0.5-0.4,0.8l-0.2,0.3l-0.1,0.1
						c-0.1,0.2-0.3,0.5-0.4,0.7l-0.2,0.4c-0.2,0.3-0.4,0.6-0.6,0.8c0,0.1-0.1,0.1-0.2,0.2c-0.2,0.3-0.5,0.6-0.8,0.9
						c0,0-0.1,0.1-0.1,0.2c-0.3,0.3-0.5,0.6-0.8,0.8l-0.2,0.2l0,0c-0.3,0.3-0.6,0.5-0.9,0.8l-0.2,0.2c-0.8,0.6-1.6,1.2-2.5,1.7
						c0,0-0.1,0.1-0.2,0.1l-0.2,0.1c-0.2,0.1-0.4,0.2-0.5,0.3c-0.1,0.1-0.2,0.1-0.3,0.2l-0.5,0.2c-0.4,0.2-0.7,0.3-1.1,0.5
						c-0.2,0.1-0.3,0.1-0.5,0.2c-0.3,0.1-0.7,0.3-1.1,0.4h-0.1c-0.1,0.1-0.3,0.1-0.4,0.1c-0.4,0.1-0.9,0.3-1.3,0.4
						c-0.1,0-0.3,0.1-0.4,0.1c-0.7,0.2-1.3,0.3-2,0.4c-2.6,0.5-5.6,0.7-8.7,0.5C250.9,106,248.8,105.7,246.9,105.3z M258,18.7
						c-0.1,0-0.2,0-0.2,0c-1.3-0.1-4.5,2.2-8.6,11.1c-2.5,5.4-5,12.5-7.1,20.5c-1.9,6.8-3.4,14-4.4,20.6c-0.1,0.4-0.1,0.8-0.2,1.3
						l-0.1,0.4c-0.3,2-0.5,3.9-0.7,5.7c-0.4,3.3-0.5,6.1-0.5,8.3l0,0c0,0.1,0,0.2,0,0.3V87c0.5,4.9,5.3,10.8,17.4,11.4
						c2.5,0.1,4.9,0,7-0.4c0.5-0.1,0.9-0.2,1.4-0.3l0.3-0.1c0.3-0.1,0.7-0.2,1-0.3l0.4-0.1c0.3-0.1,0.5-0.2,0.8-0.3l0.3-0.1
						c0.3-0.1,0.6-0.2,0.8-0.4l0.5-0.2c0.1-0.1,0.2-0.1,0.3-0.2l0.2-0.1l0.1-0.1c0.6-0.3,1.1-0.7,1.6-1.1l0.1-0.1
						c0.2-0.2,0.4-0.3,0.5-0.5l0,0L269,94c0.2-0.2,0.3-0.3,0.5-0.5l0.1-0.1c0.2-0.2,0.4-0.4,0.5-0.6l0.1-0.1
						c0.1-0.1,0.2-0.3,0.3-0.5l0.1-0.2c0.1-0.2,0.2-0.3,0.3-0.5l0.1-0.2c0.1-0.1,0.1-0.3,0.2-0.4c0,0,0.1-0.1,0.1-0.2
						c0.1-0.2,0.2-0.4,0.3-0.6l0.1-0.2c0-0.1,0.1-0.2,0.1-0.4l0.1-0.2c0-0.1,0.1-0.2,0.1-0.3l0.1-0.2c0-0.1,0.1-0.3,0.1-0.4
						s0-0.1,0-0.2v-0.1c0.4-3.6,0.5-8.8,0.3-14.7c-0.3-6.8-1.1-14.2-2.2-21.5C266.5,28.7,260.9,19.3,258,18.7z M271.4,97.1
						L271.4,97.1L271.4,97.1z M272.2,88.4L272.2,88.4L272.2,88.4z"/>
				</g>
			</g>
			<g>
				<g>
					<path class="st0" d="M306.9,90.7c0,0,13.1-49.5,33.4-48.1c20.3,1.3,31.3,72.5,29.1,89.3C369.4,131.9,338.1,131.9,306.9,90.7z"
						/>
				</g>
			</g>
			<g>
				<g>
					<path class="st9" d="M305.6,90.4c-1-3.8-0.5-7.2,0.4-10.5s2.2-6.5,3.7-9.6s2.9-6.2,4.5-9.3c1.6-3.1,3.4-6.1,5.4-9
						c2.1-2.9,4.4-5.7,7.3-8.2c2.9-2.4,6.7-4.5,11.1-5h1.6c0.3,0,0.5,0,0.8,0l0.9,0.1c0.6,0.1,1.2,0.2,1.7,0.4s1.1,0.3,1.6,0.6
						c2.1,0.9,3.8,2.2,5.3,3.5c2.9,2.8,4.9,5.8,6.7,9c3.4,6.3,5.8,12.8,7.8,19.3c2,6.5,3.6,13.2,4.9,19.8c1.3,6.7,2.4,13.4,3.1,20.1
						c0.2,1.7,0.4,3.4,0.5,5.1s0.4,3.4,0.6,5.1s0.1,3.5-0.2,5.2c-0.4,1.7-1.1,3.6-2.7,5.1c-0.7,0.6-1.7,0.6-2.3,0
						c-0.1-0.1-0.1-0.1-0.1-0.2l-0.1-0.1c-1.2-1.7-1.8-3.3-2.2-4.8c-0.3-1.6-0.5-3.2-0.5-4.8c0-1.6,0.1-3.3-0.1-4.9
						c-0.1-1.6-0.3-3.3-0.5-4.9c-0.7-6.5-1.7-13-3-19.5c-1.3-6.4-2.8-12.8-4.7-19.1c-1.9-6.2-4.2-12.3-7.2-17.8
						c-1.5-2.7-3.2-5.2-5.2-7.1c-1-0.9-2-1.6-3-2c-0.2-0.1-0.5-0.2-0.7-0.3c-0.2,0-0.5-0.1-0.7-0.1h-0.4h-0.4c-0.3,0-0.6,0-0.9,0
						c-2.3,0.2-4.7,1.4-6.8,3.2c-2.2,1.8-4.2,4.2-6,6.7s-3.4,5.3-4.9,8.1c-1.5,2.8-2.9,5.8-4,8.8c-1.1,3.1-2.1,6.1-3.5,9.1
						c-1.3,3-2.8,6-5.5,8.6l0,0c-0.6,0.6-1.5,0.5-2.1-0.1C305.8,90.8,305.7,90.6,305.6,90.4z"/>
				</g>
			</g>
			<g>
				<g>
					<g>
						<path class="st10" d="M324.8,87.5c0,0,4.6-24.6,13.3-23.5c8.7,1.1,14.8,37,14.2,45.4C352.3,109.4,338.9,108.8,324.8,87.5z"/>
					</g>
					<g>
						<path class="st9" d="M350.5,109.6c-4.1-0.9-14.8-4.8-26.1-21.9l-0.1-0.2v-0.2c0.2-1,4.8-25,13.9-23.9
							c9.3,1.1,15.2,37.9,14.6,46v0.5h-0.5C352.2,109.9,351.5,109.9,350.5,109.6z M325.4,87.4c12.2,18.3,23.9,21,26.4,21.4
							c0.4-9.5-5.7-42.6-13.5-44.3c-0.1,0-0.2,0-0.3,0C330.4,63.6,325.8,85,325.4,87.4z"/>
					</g>
				</g>
				<g>
					<g>
						<path class="st9" d="M350,112.9c-4.7-1-16.5-5.3-28.4-23.3c-0.6-0.8-0.8-1.9-0.6-2.8c1.2-6.6,6.2-28,17.6-26.6
							c3.6,0.4,9,3.3,13.9,22.9c2.4,9.8,4.1,21.5,3.7,26.7c-0.2,2.1-1.9,3.7-4,3.6C352,113.2,351.2,113.2,350,112.9z M328.9,86.7
							c7.8,11.2,15,15.8,19.4,17.6c-0.4-4.9-1.5-11.9-3.1-18.6c-3.3-13.6-6.7-17.6-7.6-17.9C335.5,67.5,331.2,76.1,328.9,86.7z"/>
					</g>
				</g>
			</g>
			<g>
				<g>
					<path class="st0" d="M197.8,84.9c0,0-7.7-50.6-28.1-51.4c-20.4-0.8-38.8,68.8-38.4,85.7C131.2,119.2,162.3,122.6,197.8,84.9z"
						/>
				</g>
			</g>
			<g>
				<g>
					<path class="st9" d="M196.5,85.1c-2.5-2.9-3.7-6-4.6-9.1c-1-3.1-1.7-6.3-2.5-9.4c-0.8-3.2-1.8-6.2-3-9.2s-2.5-5.9-4-8.6
						s-3.2-5.3-5.2-7.3c-2-2.1-4.2-3.4-6.5-3.9c-0.3,0-0.6-0.1-0.9-0.1l-0.4-0.1H169c-0.2,0-0.5,0.1-0.7,0.1
						c-0.2,0.1-0.5,0.1-0.8,0.2c-1,0.3-2.1,0.9-3.2,1.7c-2.1,1.6-4.1,4-5.9,6.5c-3.6,5.1-6.5,11-9,16.9c-2.5,6-4.7,12.2-6.7,18.5
						c-1.9,6.3-3.7,12.6-5.1,19c-0.4,1.6-0.7,3.2-1,4.8c-0.3,1.6-0.4,3.2-0.6,4.8c-0.2,1.6-0.5,3.2-1,4.7s-1.3,3-2.7,4.6l-0.1,0.1
						c-0.6,0.7-1.6,0.7-2.3,0.1c-0.1-0.1-0.1-0.1-0.2-0.2c-1.5-1.8-2-3.6-2.2-5.4s0-3.5,0.3-5.2s0.8-3.3,1.1-5s0.7-3.3,1-5
						c1.5-6.6,3.2-13.2,5.2-19.7c2-6.5,4.3-12.9,7-19.2s5.7-12.5,9.8-18.4c2.1-2.9,4.4-5.8,7.6-8.2c1.6-1.2,3.4-2.3,5.6-3
						c0.5-0.2,1.1-0.3,1.7-0.4c0.6-0.1,1.2-0.2,1.8-0.2h0.9c0.3,0,0.5,0.1,0.8,0.1l1.6,0.2c4.3,0.9,7.9,3.4,10.5,6.1
						c2.7,2.8,4.7,5.8,6.4,8.9c1.7,3.1,3.2,6.3,4.4,9.5c1.3,3.2,2.3,6.5,3.5,9.7c1.1,3.2,2.1,6.5,2.6,9.9c0.5,3.4,0.7,6.8-0.7,10.5
						c-0.3,0.8-1.1,1.1-1.9,0.9C196.9,85.5,196.7,85.3,196.5,85.1L196.5,85.1z"/>
				</g>
			</g>
			<g>
				<g>
					<g>
						<path class="st10" d="M181,80.5c0,0-2.9-25.4-12.4-25.6c-9.5-0.1-19.2,35.3-19.3,43.9C149.3,98.8,163.8,100.1,181,80.5z"/>
					</g>
					<g>
						<path class="st9" d="M148.8,99.3v-0.5c0.1-7.7,7.3-34.4,15.2-42.1c1.6-1.5,3.1-2.3,4.7-2.3c9.9,0.1,12.8,25,12.9,26v0.2
							l-0.2,0.2c-17.2,19.6-31.6,18.6-32.2,18.5H148.8z M169.6,55.6c-0.3-0.1-0.6-0.1-1-0.1c-1.2,0-2.5,0.7-3.9,2
							c-7.5,7.4-14.5,32.7-14.8,40.9c2.7,0,15.7-1,30.6-18C180.2,77.9,177.4,57.3,169.6,55.6z"/>
					</g>
				</g>
				<g>
					<g>
						<path class="st9" d="M148.5,102.6c-1.8-0.4-3-2-3-3.8c0.1-8.1,7.3-35.8,16.2-44.5c2.2-2.2,4.6-3.3,7-3.3
							c12.3,0.2,15.7,24.2,16.2,29c0.1,1.1-0.2,2.2-0.9,3c-18.3,20.8-34.3,19.7-34.9,19.6C148.8,102.7,148.7,102.6,148.5,102.6z
							 M168.9,58.8c-0.1,0-0.2,0-0.3,0c-0.8,0-4.7,2.8-9.6,16.2c-2.5,6.8-4.4,14.4-5.3,19.4c4.8-1.1,13.5-4.6,23.3-15.2
							C175.6,69.6,172.1,59.5,168.9,58.8z"/>
					</g>
				</g>
			</g>
			<g>
				<g>
					<path class="st9" d="M145.6,158.1c-4.9-2.6-9.7-4.8-14.7-6.8c-4.9-2-9.9-3.8-15-5.2s-10.2-2.7-15.5-3.6
						c-2.6-0.6-5.3-0.9-7.9-1.3c-1.3-0.3-2.7-0.3-4-0.5c-1.4-0.2-2.7-0.3-4.1-0.6c1.3-0.3,2.7-0.5,4.1-0.7s2.7-0.4,4.1-0.5
						c2.8-0.1,5.5-0.3,8.3-0.1c5.6,0.2,11.1,1.2,16.4,2.8c5.4,1.5,10.5,3.7,15.3,6.5C137.3,150.7,141.9,154,145.6,158.1z"/>
				</g>
			</g>
			<g>
				<g>
					<path class="st9" d="M143.4,171.8c-5.4-1.2-10.7-2.1-16-2.7c-5.3-0.6-10.6-1-15.9-1.1c-5.3,0-10.6,0.1-15.9,0.6
						c-2.7,0.2-5.3,0.5-8,0.8c-1.4,0.1-2.7,0.4-4,0.6c-1.3,0.2-2.7,0.4-4.1,0.5c1.2-0.6,2.5-1.2,3.7-1.8c1.3-0.6,2.5-1.1,3.8-1.6
						c2.6-0.8,5.3-1.8,8-2.3c5.4-1.3,11-1.7,16.6-1.7s11.1,0.8,16.5,2.2C133.5,166.9,138.8,168.8,143.4,171.8z"/>
				</g>
			</g>
			<g>
				<g>
					<path class="st9" d="M144.1,189.6c-5.5,0-10.8,0.3-16.2,0.9c-5.3,0.6-10.5,1.3-15.7,2.5c-5.2,1.1-10.3,2.4-15.4,4.1
						c-2.6,0.7-5.1,1.7-7.6,2.6c-1.3,0.4-2.5,1-3.8,1.4c-1.3,0.5-2.6,1-3.9,1.4c1-0.9,2.1-1.7,3.2-2.6c1.1-0.8,2.2-1.7,3.4-2.4
						c2.4-1.4,4.7-2.9,7.3-4c5-2.4,10.3-4.1,15.8-5.3c5.4-1.2,11-1.7,16.6-1.5C133.4,187,138.9,187.7,144.1,189.6z"/>
				</g>
			</g>
			<g>
				<g>
					<path class="st9" d="M362.2,161.3c4-3.8,8.9-6.6,14-8.9c5.1-2.2,10.4-4,15.9-5s11.1-1.5,16.6-1.2c2.8,0,5.5,0.5,8.3,0.9
						c1.4,0.2,2.7,0.6,4,0.9c1.3,0.4,2.7,0.7,4,1.1c-1.4,0.1-2.8,0.2-4.1,0.2c-1.4,0.1-2.7,0-4.1,0.1c-2.7,0.2-5.4,0.2-8,0.5
						c-5.3,0.4-10.6,1.2-15.8,2.1c-5.2,0.9-10.4,2.2-15.5,3.8C372.4,157.5,367.3,159.3,362.2,161.3z"/>
				</g>
			</g>
			<g>
				<g>
					<path class="st9" d="M363.1,175.2c4.9-2.6,10.3-4,15.8-4.9c5.5-0.8,11.1-1.1,16.6-0.6s11.1,1.5,16.3,3.2c2.7,0.8,5.2,1.9,7.7,3
						c1.3,0.5,2.5,1.3,3.7,1.9c1.2,0.7,2.4,1.4,3.5,2.1c-1.4-0.3-2.7-0.6-4-0.9c-1.3-0.3-2.6-0.7-4-0.9c-2.6-0.6-5.2-1.2-7.9-1.6
						c-5.2-1-10.5-1.6-15.8-2.1s-10.6-0.6-15.9-0.4C373.9,174.2,368.5,174.5,363.1,175.2z"/>
				</g>
			</g>
			<g>
				<g>
					<path class="st9" d="M360.7,192.8c5.4-1.4,11-1.6,16.5-1.3c5.5,0.4,11.1,1.4,16.4,3.1c5.3,1.7,10.5,3.9,15.2,6.8
						c2.4,1.3,4.6,3,6.9,4.7c1.1,0.8,2.1,1.8,3.1,2.7s2,1.9,3,2.9c-1.3-0.6-2.5-1.2-3.7-1.8s-2.4-1.3-3.6-1.8
						c-2.5-1.1-4.8-2.3-7.3-3.3c-4.9-2.2-9.9-3.9-14.9-5.5s-10.2-2.9-15.4-4C371.4,194.2,366.1,193.4,360.7,192.8z"/>
				</g>
			</g>
			<g>
				<g class="st8">
					<g>
						<path class="st9" d="M293.3,202.2c-6.5,8.1-13.3,10.6-19.6,10.3c-12.4-0.4-22.4-11.5-22.4-11.5c-8.4,8.3-15.9,11.5-22.1,11.9
							c-10.3,0.7-17.3-6.1-20.1-9.4c24.8,3.7,36.4-9.4,36.4-9.4l11.2-0.2C268.2,210.6,292.6,202.5,293.3,202.2z"/>
					</g>
				</g>
				<g>
					<g>
						<path class="st9" d="M273.8,212.6c-1.7,5.6-4.4,11.9-7.8,17.1c-3.8,5.7-8.6,10-13.8,10.1c-5.3,0.1-10.2-4-14.3-9.7
							c-3.7-5.1-6.7-11.5-8.5-17.1c6.2-0.4,13.7-3.6,22.1-11.9C251.4,201.1,261.4,212.1,273.8,212.6z"/>
					</g>
				</g>
				<g>
					<g>
						<path class="st14" d="M265.9,229.6c-3.8,5.7-8.6,10-13.8,10.1c-5.3,0.1-10.2-4-14.3-9.7c1.9-5.5,7.4-9.5,13.9-9.7
							C258.2,220.3,263.8,224.1,265.9,229.6z"/>
					</g>
					<g>
						<path class="st9" d="M249.6,239.9c-4.1-0.9-8.3-4.2-12.2-9.6l-0.1-0.2l0.1-0.2c2.1-5.8,7.8-9.8,14.3-10
							c6.5-0.1,12.4,3.7,14.7,9.5l0.1,0.2l-0.1,0.2c-4.5,6.7-9.4,10.2-14.2,10.3C251.3,240.2,250.4,240.1,249.6,239.9z M238.3,230
							c3.2,4.3,8.1,9.4,13.8,9.3c5.6-0.1,10.3-5.3,13.3-9.7c-2.2-5.3-7.6-8.8-13.7-8.7C245.6,221,240.3,224.6,238.3,230z"/>
					</g>
				</g>
				<g>
					<g>
						<g>
							<path class="st9" d="M238.9,183.5c2.5-3.4,20.7-4.3,23.9-0.4c3.2,3.9-5.6,13.8-11.7,13.9C245.1,197,236.2,187.2,238.9,183.5z
								"/>
						</g>
					</g>
					<g>
						<g>
							<path class="st9" d="M248.8,200.5c-5.2-1.1-10.4-5.9-12.8-10.4c-2.4-4.5-1.1-7.4-0.1-8.8l0,0c2.7-3.6,10.5-4.4,14.9-4.5
								c5.3-0.1,12.1,0.4,15,3.9c1.1,1.3,2.6,4.2,0.4,8.8c-2.5,5.3-9.1,11.1-15,11.2C250.4,200.7,249.6,200.6,248.8,200.5z
								 M242.3,185.6c0.3,0.8,1.2,2.4,2.8,4.1c2.3,2.3,4.7,3.4,5.9,3.4c1.3,0,4-1.4,6.3-4c1.6-1.7,2.2-3.2,2.3-3.9
								C256.8,183.8,245.7,184,242.3,185.6z M260,185.5L260,185.5L260,185.5z"/>
						</g>
					</g>
					<g>
						<g>
							
								<ellipse transform="matrix(0.9998 -1.864735e-02 1.864735e-02 0.9998 -3.3706 4.7122)" class="st0" cx="251" cy="183.1" rx="9.9" ry="2.6"/>
						</g>
						<g>
							<path class="st9" d="M244.4,185.7c-2.2-0.5-3.7-1.3-3.7-2.4c0-1,1.1-1.8,3.2-2.4c1.9-0.5,4.4-0.9,7.1-0.9
								c2.7-0.1,5.2,0.2,7.1,0.7c2.2,0.5,3.3,1.3,3.3,2.3l0,0c0,2-5.2,3.2-10.3,3.3C248.7,186.3,246.3,186.1,244.4,185.7z
								 M257.5,181.5c-1.8-0.4-4.1-0.6-6.5-0.5c-2.6,0-5,0.4-6.9,0.9c-2,0.6-2.5,1.2-2.5,1.4c0,0.7,3.3,2.1,9.5,2
								c6.2-0.1,9.4-1.6,9.4-2.3c0-0.2-0.5-0.8-2.6-1.3C257.8,181.6,257.6,181.6,257.5,181.5z"/>
						</g>
					</g>
				</g>
				<g>
					<g>
						<path class="st9" d="M222.6,216c-8-1.8-13.5-7.1-15.9-9.9c-0.1-0.1-0.1-0.1-0.2-0.2c-1-1.2-1.5-2-1.6-2
							c-1.1-1.6-0.6-3.8,1-4.8c1.6-1.1,3.8-0.6,4.8,1l0,0c0,0,0.3,0.5,0.9,1.2c0,0.1,0.1,0.1,0.1,0.2c2.2,2.6,8.3,8.7,17.1,8.1
							c6.3-0.4,13-4.1,19.9-10.9c0.7-0.7,1.6-1,2.5-1s1.8,0.4,2.5,1.1c0.1,0.1,9.2,10,19.9,10.3c6.1,0.2,11.8-2.8,16.7-9l0.1-0.1
							c0,0,0,0,0.1-0.1c0.4-0.5,0.8-1.1,1.2-1.6c1.1-1.6,3.3-1.9,4.9-0.8c1.6,1.1,1.9,3.3,0.8,4.9c-0.5,0.7-1,1.4-1.6,2
							c-0.1,0.1-0.1,0.1-0.2,0.2c-6.4,7.9-13.9,11.8-22.3,11.5c-9.9-0.3-18.3-6.6-22.3-10.1c-7.3,6.5-14.6,10.1-21.8,10.6
							C227,216.6,224.7,216.4,222.6,216z"/>
					</g>
				</g>
				<g>
					<g>
						<path class="st9" d="M249,242.9c-4.9-1.1-9.6-4.7-14-10.8c-3.6-5-6.9-11.5-9-18c-0.3-1-0.2-2.1,0.4-3c0.6-0.9,1.6-1.5,2.7-1.5
							c6.3-0.4,13-4.1,19.9-10.9c0.7-0.7,1.6-1,2.5-1s1.8,0.4,2.5,1.1c0.1,0.1,9.2,10,19.9,10.3c1.1,0,2.1,0.6,2.7,1.5s0.8,2,0.5,3
							c-1.9,6.5-5,13.1-8.3,18c-5,7.5-10.8,11.5-16.7,11.6C251.1,243.2,250,243.1,249,242.9z M234,215.8c1.8,4.5,4.1,8.8,6.6,12.3
							c3.9,5.4,7.9,8.3,11.4,8.2c3.4-0.1,7.3-3.1,11-8.6c2.3-3.4,4.4-7.7,6.1-12.2c-0.1,0-0.1,0-0.2,0c-7.8-1.7-14.2-6.5-17.6-9.5
							C245.5,211.1,239.7,214.4,234,215.8z"/>
					</g>
				</g>
			</g>
			<g>
				<g>
					<path class="st9" d="M319.5,147.6c-2.8,1-5.7,2.1-8.3,3.4c-2.7,1.3-5.2,2.8-7.5,4.5c-1.2,0.8-2.2,1.8-3.3,2.6l-1.5,1.5
						c-0.2,0.3-0.5,0.5-0.8,0.7l-0.7,0.8c-1.9,2-3.4,4.4-4.9,6.8l-4.9-4.9c0.2-0.1,0.4-0.2,0.6-0.3s0.3-0.2,0.5-0.2
						c0.3-0.1,0.7-0.3,1-0.4c0.7-0.2,1.3-0.4,2-0.6c1.3-0.4,2.6-0.7,4-0.9c2.7-0.4,5.4-0.5,8.1-0.2s5.3,0.9,7.8,1.9
						c2.5,0.9,4.7,2.3,6.8,3.9c0.6,0.4,0.7,1.2,0.3,1.7c-0.3,0.4-0.8,0.6-1.3,0.5h-0.1c-1.2-0.3-2.3-0.7-3.4-1s-2.3-0.6-3.4-0.7
						c-2.3-0.4-4.5-0.5-6.7-0.4s-4.4,0.4-6.6,1c-1.1,0.3-2.1,0.6-3.1,1c-0.5,0.2-1,0.4-1.5,0.6c-0.2,0.1-0.5,0.2-0.7,0.3
						c-0.1,0.1-0.2,0.1-0.3,0.2l-0.2,0.1l-0.1,0.1c-1.8,0.9-3.9,0.2-4.9-1.6c-0.6-1.1-0.5-2.3,0-3.4c1.6-3,3.4-6,5.9-8.5
						c1.1-1.3,2.5-2.4,3.8-3.5c1.4-1,2.8-2.1,4.3-2.9c3-1.7,6.1-3,9.4-3.8s6.5-1.2,9.9-0.8c0.7,0.1,1.2,0.7,1.1,1.4
						c0,0.5-0.4,0.9-0.8,1.1L319.5,147.6z"/>
				</g>
			</g>
			<g>
				<g>
					<g>
						
							<ellipse transform="matrix(6.246535e-02 -0.998 0.998 6.246535e-02 27.9573 348.3993)" class="st9" cx="199.4" cy="159.3" rx="22.1" ry="15.6"/>
					</g>
					<g>
						<path class="st9" d="M196.3,181.6c-7.9-1.7-13.6-11.7-12.8-23.3c0.8-12.4,8.6-22.1,17.4-21.5c4.3,0.3,8.2,2.9,10.9,7.4
							c2.7,4.4,4,10.2,3.6,16.1l0,0c-0.8,12.4-8.6,22.1-17.4,21.5C197.4,181.8,196.8,181.7,196.3,181.6z M202.4,137.9
							c-0.5-0.1-1.1-0.2-1.6-0.2c-8.3-0.5-15.7,8.8-16.5,20.7c-0.7,11.9,5.4,22,13.8,22.6c8.3,0.5,15.7-8.8,16.5-20.7l0,0
							c0.4-5.8-0.9-11.4-3.5-15.6C208.8,141,205.8,138.6,202.4,137.9z"/>
					</g>
				</g>
				<g>
					<g>
						
							<ellipse transform="matrix(6.246522e-02 -0.998 0.998 6.246522e-02 36.8219 348.0795)" class="st0" cx="203.7" cy="154.4" rx="7.4" ry="4.7"/>
					</g>
					<g>
						<path class="st9" d="M202.7,162.2c-2.6-0.6-4.4-4-4.1-8.1c0.1-2.1,0.8-4,1.8-5.4c1.1-1.5,2.4-2.2,3.8-2.1
							c1.4,0.1,2.7,1,3.5,2.6c0.8,1.5,1.2,3.5,1.1,5.6c-0.3,4.3-2.8,7.7-5.6,7.5C203,162.3,202.9,162.2,202.7,162.2z M204.5,147.5
							c-0.1,0-0.3,0-0.4-0.1c-1.1-0.1-2.2,0.6-3.1,1.8c-0.9,1.3-1.5,3-1.6,4.9c-0.2,3.8,1.5,7.1,3.8,7.2c2.3,0.1,4.5-2.9,4.7-6.7
							l0,0c0.1-1.9-0.2-3.7-1-5.1C206.3,148.4,205.5,147.7,204.5,147.5z"/>
					</g>
				</g>
			</g>
		</g>
		<g class="st2">
			<path class="st1" d="M229.7,425.4c0.1,3.8,0.2,7.8,0.1,12c-0.2,13.6-7.3,26.4-19.2,33.1c-4.8,2.7-9.7,4.1-14.5,4.2
				c17.4-8.9,16.6-46.7,15.3-64c-0.3-4.1,3.6-7.3,7.6-6c6.9,2.1,10.1,3.1,10.1,3.1l3.3,18.1C230.5,425.6,231.7,425.8,229.7,425.4z"
				/>
		</g>
		<g class="st2">
			<path class="st1" d="M229.2,407.7c0,0,29.5,6.2,48.3-0.4l-2.6,19.1l-42.4-0.6L229.2,407.7z"/>
		</g>
		<g>
			<circle class="st15" cx="253.2" cy="297.8" r="50"/>
			<path class="st0" d="M241.1,292.8l12.1-12.1l12.1,12.1l7.1-7.1l-19.2-19.2L234,285.8L241.1,292.8z M222,297.8l7.1-7.1l7.1,7.1
				l-7.1,7.1L222,297.8z M241.1,302.8l12.1,12.1l12.1-12.1l7.1,7.1L253.2,329L234,309.8l0,0C234,309.8,241.1,302.8,241.1,302.8z
				 M270.3,297.8l7.1-7.1l7.1,7.1l-7.1,7.1L270.3,297.8z M260.4,297.8L260.4,297.8L260.4,297.8l-7.2,7.2l-7.2-7.2l0,0l0,0l1.3-1.3
				l0.6-0.6l5.3-5.3L260.4,297.8L260.4,297.8z"/>
		</g>
		<g>
			<path class="st0" d="M343.2,333.8c-24.7,21.6-48.8,38.9-68.6,21.4c-1-1.2-2-2.3-2.8-3.5c-6.3-8.7-6.7-18.2-0.2-28.4
				c3.8-6,9.5-10.6,16-13.4c9.7-4.3,19-8.8,27.6-13.6l16.7,22.4L343.2,333.8z"/>
		</g>
		<g class="st6">
			<path class="st0" d="M277.7,357.7c-1.1-0.7-2.1-1.6-3.2-2.5c-8.8-9.7-10.5-20.3-3-31.9c3.8-6,9.5-10.6,16-13.4
				c9.7-4.3,19-8.8,27.6-13.6l0,0c3.2,4.2,1.8,10.3-2.9,12.7c-5.7,2.9-11.6,5.6-17.6,8.3c-6.5,2.9-12.2,7.5-16,13.4
				C272.3,340.4,272.4,349.4,277.7,357.7z"/>
		</g>
		<g>
			<path class="st1" d="M344,334.8c-0.6,1.9-1.5,3.4-2.4,4.8c-1,1.4-2.1,2.6-3.3,3.8c-2.4,2.4-5.1,4.4-7.8,6.3
				c-2.8,1.9-5.5,3.9-8.4,5.8c-2.8,1.9-5.8,3.6-8.9,5.2s-6.4,3-9.8,4s-7.1,1.7-10.9,1.7s-7.6-0.8-11.1-2.2c-3.5-1.4-6.7-3.5-9.4-6
				l0,0c-0.1-0.1-0.2-0.2-0.3-0.3c-2.7-2.9-5-6.3-6.7-10.2c-1.7-3.9-2.4-8.3-1.9-12.6c0.5-4.3,1.9-8.3,3.9-11.8
				c1.9-3.5,4.5-6.8,7.4-9.5c2.9-2.8,6.3-5,9.8-6.8c1.9-0.9,3.4-1.6,5.1-2.3l4.9-2.3c3.2-1.5,6.5-3,9.5-4.9c1.5-0.9,3.2-1.7,4.9-2.2
				c1.8-0.5,3.6-0.8,6-0.3l0,0c0.9,0.2,1.5,1.1,1.3,2.1c0,0.1,0,0.2-0.1,0.2c-0.8,2.2-2.1,3.7-3.6,4.9c-1.5,1.2-3.1,2.1-4.7,2.8
				c-3.4,1.4-6.7,3.1-10,4.6l-9.8,4.5c-2.9,1.5-5.6,3.3-8,5.5s-4.3,4.7-5.9,7.6c-1.6,2.8-2.6,5.8-2.9,8.7c-0.1,1.5-0.1,2.9,0.1,4.4
				s0.7,2.9,1.2,4.3c1.2,2.8,3,5.5,5.2,7.9l-0.3-0.3c4.4,3.9,9.7,6.2,15.3,6.2c5.7,0,11.5-2,17-4.8c2.8-1.4,5.5-3,8.1-4.8
				c2.7-1.7,5.3-3.6,7.7-5.7c2.5-2.1,4.9-4.2,7.6-6c1.3-0.9,2.7-1.8,4.2-2.6c1.5-0.7,3.1-1.4,5-1.7l0,0c0.9-0.1,1.6,0.4,1.8,1.3
				C344.1,334.4,344.1,334.6,344,334.8z"/>
		</g>
		<g>
			<path class="st1" d="M284.7,331.3c-1.9,1.1-3.7,2.2-5.3,3.6c-1.6,1.4-3,2.9-4.1,4.5s-1.8,3.4-2,5.1c-0.1,0.9-0.1,1.7,0,2.5
				s0.4,1.5,0.7,2.2c0.9,1.7,0.2,3.8-1.5,4.7c-1.7,0.9-3.8,0.2-4.7-1.5c-0.1-0.2-0.2-0.4-0.2-0.6v-0.1c-0.4-1.5-0.6-2.9-0.5-4.3
				s0.3-2.8,0.8-4.1c0.9-2.6,2.3-4.8,4.1-6.6c1.7-1.8,3.7-3.2,5.8-4.3c2-1.2,4.2-2,6.3-2.8c0.5-0.2,1.1,0.1,1.3,0.6
				C285.4,330.5,285.2,331,284.7,331.3L284.7,331.3z"/>
		</g>
		<g>
			<path class="st1" d="M292.8,349.8c-1.6,1.4-3.2,2.8-5,3.9c-1.8,1.2-3.9,2.2-6.2,2.7c-2.3,0.5-5,0.4-7.4-0.5s-4.5-2.5-6.2-4.1l0,0
				c-1.4-1.3-1.5-3.5-0.1-4.9c1.3-1.4,3.5-1.5,4.9-0.1c0.2,0.2,0.3,0.4,0.5,0.5c1,1.4,2.1,2.7,3.4,3.5s2.8,1.3,4.5,1.3
				s3.5-0.5,5.3-1.1c1.8-0.7,3.5-1.6,5.3-2.6l0,0c0.5-0.3,1.1-0.1,1.4,0.4C293.2,349,293.1,349.5,292.8,349.8z"/>
		</g>
		<g class="st2">
			<path class="st1" d="M343.2,333.8c-24.7,21.6-48.8,38.9-68.6,21.4c-1-1.2-2-2.3-2.8-3.5c19.2,8.1,55.1-10.4,60.1-33.1
				L343.2,333.8z"/>
		</g>
		<g>
			<path class="st0" d="M162.6,333.8c24.7,21.6,48.8,38.9,68.6,21.4c1-1.2,2-2.3,2.8-3.5c6.3-8.7,6.7-18.2,0.2-28.4
				c-3.8-6-9.5-10.6-16-13.4c-9.7-4.3-19-8.8-27.6-13.6l-16.7,22.4L162.6,333.8z"/>
		</g>
		<g class="st6">
			<path class="st0" d="M228,357.7c1.1-0.7,2.1-1.6,3.2-2.5c8.8-9.7,10.5-20.3,3-31.9c-3.8-6-9.5-10.6-16-13.4
				c-9.7-4.3-19-8.8-27.6-13.6l0,0c-3.2,4.2-1.8,10.3,2.9,12.7c5.7,2.9,11.6,5.6,17.6,8.3c6.5,2.9,12.2,7.5,16,13.4
				C233.4,340.4,233.3,349.4,228,357.7z"/>
		</g>
		<g>
			<path class="st1" d="M163.4,332.8c1.9,0.3,3.5,1,5,1.7s2.9,1.6,4.2,2.6c2.7,1.9,5.2,3.9,7.6,6c2.5,2.1,5.1,4,7.7,5.7
				c2.7,1.8,5.4,3.4,8.1,4.8c5.5,2.8,11.4,4.8,17,4.8c5.7,0,10.9-2.3,15.3-6.2l-0.3,0.3c2.2-2.4,4-5.1,5.2-7.9
				c0.6-1.4,1-2.8,1.2-4.3c0.3-1.4,0.3-2.9,0.1-4.4c-0.3-2.9-1.3-5.9-2.9-8.7c-1.6-2.9-3.5-5.4-5.9-7.6c-2.3-2.2-5.1-4.1-8-5.5
				l-9.8-4.5c-3.3-1.5-6.6-3.2-10-4.6c-1.7-0.7-3.3-1.6-4.7-2.8c-1.4-1.2-2.8-2.6-3.6-4.9c-0.3-0.9,0.1-1.9,1-2.2
				c0.1,0,0.2-0.1,0.2-0.1l0,0c2.3-0.5,4.2-0.2,6,0.3c1.7,0.5,3.4,1.3,4.9,2.2c3,1.9,6.3,3.4,9.5,4.9l4.9,2.3
				c1.6,0.8,3.2,1.4,5.1,2.3c3.6,1.8,6.9,4.1,9.8,6.8c2.9,2.7,5.5,6,7.4,9.5c2,3.5,3.4,7.5,3.9,11.8s-0.3,8.7-1.9,12.6
				c-1.7,3.9-4,7.2-6.7,10.2c-0.1,0.1-0.2,0.2-0.3,0.3l0,0c-2.7,2.4-5.9,4.5-9.4,6c-3.5,1.4-7.4,2.2-11.1,2.2
				c-3.8,0-7.4-0.7-10.9-1.7s-6.7-2.4-9.8-4s-6-3.4-8.9-5.2c-2.8-1.9-5.6-3.8-8.4-5.8c-2.8-1.9-5.4-4-7.8-6.3
				c-1.2-1.2-2.4-2.4-3.3-3.8c-1-1.4-1.9-2.9-2.4-4.8c-0.3-0.8,0.2-1.7,1-1.9C163,332.8,163.2,332.8,163.4,332.8L163.4,332.8z"/>
		</g>
		<g>
			<path class="st1" d="M221.8,329.5c2.1,0.8,4.3,1.6,6.3,2.8c2,1.2,4,2.6,5.8,4.3c1.7,1.8,3.2,4,4.1,6.6c0.5,1.3,0.7,2.7,0.8,4.1
				c0,1.4-0.1,2.9-0.5,4.3v0.1c-0.5,1.9-2.4,2.9-4.3,2.4c-1.9-0.5-2.9-2.4-2.4-4.3c0.1-0.2,0.2-0.4,0.3-0.6c0.3-0.6,0.6-1.4,0.7-2.2
				c0.1-0.8,0.2-1.6,0-2.5c-0.2-1.7-0.9-3.5-2-5.1s-2.5-3.1-4.1-4.5s-3.4-2.5-5.3-3.6l0,0c-0.5-0.3-0.6-0.9-0.3-1.4
				C220.8,329.5,221.4,329.3,221.8,329.5z"/>
		</g>
		<g>
			<path class="st1" d="M214.1,348.2c1.7,1,3.5,2,5.3,2.6c1.8,0.7,3.6,1.1,5.3,1.1s3.2-0.5,4.5-1.3s2.4-2,3.4-3.5
				c1.1-1.6,3.3-2,4.9-0.9c1.6,1.1,2,3.3,0.9,4.9c-0.1,0.2-0.3,0.4-0.5,0.5l0,0c-1.7,1.6-3.7,3.2-6.2,4.1c-2.4,0.9-5.1,1.1-7.4,0.5
				c-2.4-0.5-4.4-1.5-6.2-2.7c-1.9-1.1-3.5-2.5-5-3.9c-0.4-0.4-0.4-1-0.1-1.4C213.2,348,213.7,348,214.1,348.2L214.1,348.2z"/>
		</g>
	</g>
</g>
</svg>
