<?xml version="1.0" encoding="utf-8"?>
<!-- Generator: Adobe Illustrator 23.0.5, SVG Export Plug-In . SVG Version: 6.00 Build 0)  -->
<svg version="1.1" id="Layer_1" xmlns="http://www.w3.org/2000/svg" xmlns:xlink="http://www.w3.org/1999/xlink" x="0px" y="0px"
	 viewBox="0 0 512 512" style="enable-background:new 0 0 512 512;" xml:space="preserve">
<style type="text/css">
	.st0{fill:#B7E6ED;}
	.st1{fill:#000072;}
	.st2{fill:#7AE2F9;}
	.st3{opacity:0.3;}
	.st4{fill:#FFF3FF;}
	.st5{fill:#FFFFFF;}
	.st6{fill:#FFCC00;}
	.st7{opacity:0.6;}
	.st8{fill:#B65CE0;}
	.st9{fill:#FFFFFD;}
	.st10{opacity:0.35;}
	.st11{fill:#9DAABA;}
	.st12{opacity:0.2;}
	.st13{fill:#390075;}
	.st14{fill:#FE6DCB;}
	.st15{fill:#33AEF1;}
	.st16{fill:#FDD800;}
	.st17{fill:#B177EA;}
	.st18{fill:#FB64C0;}
	.st19{fill:#7231BC;}
	.st20{fill:#0F2675;}
	.st21{fill:#A94BE0;}
	.st22{fill:#F761F7;}
	.st23{opacity:0.5;}
	.st24{fill:#ED83E8;}
</style>
<g>
	<g>
		<g>
			<g>
				<path class="st0" d="M391.1,187c0,75.9-61.5,137.4-137.4,137.4c-57.5,0-106.8-35.4-127.3-85.5c-6.5-16-10.1-33.5-10.1-51.8
					c0-75.9,61.5-137.4,137.4-137.4c17,0,33.3,3.1,48.4,8.8C354.1,77.9,391.1,128.1,391.1,187z"/>
			</g>
			<g>
				<path class="st1" d="M253.7,324.7c-27.9,0-54.8-8.3-77.8-24c-22.4-15.3-39.7-36.7-49.9-61.8c-6.7-16.5-10.2-34-10.2-52
					c0-76,61.8-137.8,137.8-137.8c16.7,0,33,3,48.5,8.8c26,9.8,48.2,27,64.2,49.7c16.4,23.3,25.1,50.7,25.1,79.3
					C391.5,262.9,329.7,324.7,253.7,324.7z M253.7,50c-75.5,0-137,61.4-137,137c0,17.9,3.4,35.3,10.1,51.7
					c21.1,51.8,70.9,85.3,126.9,85.3c75.5,0,137-61.4,137-137c0-56.7-35.7-108.3-88.7-128.2C286.6,52.9,270.3,50,253.7,50z"/>
			</g>
		</g>
		<g>
			<circle class="st2" cx="253.7" cy="187" r="137.4"/>
		</g>
		<g class="st3">
			<circle class="st1" cx="253.7" cy="187" r="137.4"/>
		</g>
		<g>
			<path class="st2" d="M341.8,131.5c5.6,82.4-91.1,116-167,116c-17,0-33.3-3.1-48.4-8.8c-6.5-16-10.1-33.5-10.1-51.8
				c0-75.9,61.5-137.4,137.4-137.4c17,0,33.3,3.1,48.4,8.8C329.9,82.6,340.6,113.2,341.8,131.5z"/>
		</g>
		<g>
			<path class="st1" d="M253.7,326.9c-77.1,0-139.9-62.8-139.9-139.9c0-77.1,62.8-139.9,139.9-139.9S393.7,109.8,393.7,187
				C393.7,264.1,330.9,326.9,253.7,326.9z M253.7,52.1c-74.4,0-134.8,60.5-134.8,134.8s60.5,134.9,134.8,134.9
				S388.6,261.3,388.6,187S328.1,52.1,253.7,52.1z"/>
		</g>
		<g>
			<path class="st1" d="M382.1,243.5c0,12.3-57.5,22.2-128.3,22.2c-53.4,0-99.3-5.7-118.6-13.7c-1.5-0.6-2.8-1.2-4-1.9
				c-3.8-2.1-5.8-4.3-5.8-6.6c0-0.5,0.1-1,0.3-1.5c0.2-0.4,0.4-0.8,0.7-1.2c0,0,0,0,0,0c0.6-0.9,1.5-1.7,2.7-2.6
				c1.2-0.8,2.6-1.6,4.3-2.4c18.2-8.5,65.2-14.5,120.3-14.5c52.6,0,97.7,5.5,117.6,13.3c3.7,1.4,6.5,3,8.3,4.6
				c0.8,0.7,1.4,1.4,1.8,2.1c0,0,0,0,0,0C381.9,242,382.1,242.8,382.1,243.5z"/>
		</g>
		<g>
			<path class="st4" d="M316,285.6c-0.1,0.2-0.1,0.3-0.2,0.4c-1.8,4.5-5.1,8.4-9.5,10.9c-11.4,6.5-30,14.4-53.1,14.4
				c-23.1,0-41.7-7.9-53.1-14.4c-4.4-2.5-7.7-6.4-9.4-10.8c-0.2-0.4-0.3-0.9-0.5-1.3c-1-3.1-1.4-6.5-0.9-9.9
				c1.4-9.5,3.8-23.3,7.8-39.4c0.2-0.6,0.3-1.3,0.5-1.9c0.1-0.6,0.3-1.1,0.4-1.7c0.3-1,0.5-2,0.8-3c0.5-2,1.1-4,1.7-6.1
				c0.3-0.9,0.5-1.8,0.8-2.8h103.7c0.2,0.7,0.4,1.4,0.6,2.1c0.3,1,0.6,2,0.9,3.1c0.4,1.6,0.9,3.2,1.3,4.7c0.2,0.8,0.4,1.5,0.6,2.3
				c0.2,0.6,0.3,1.1,0.4,1.7c0.2,0.6,0.3,1.2,0.5,1.9c1.4,5.4,2.5,10.6,3.6,15.5c2,9.4,3.3,17.5,4.2,23.7
				C317.7,278.6,317.3,282.2,316,285.6z"/>
		</g>
		<g>
			<circle class="st5" cx="254.7" cy="282.4" r="36.3"/>
		</g>
		<g>
			<g>
				<path class="st6" d="M228.8,288.1h-17.3v-42.3c0-4.8,3.9-8.6,8.6-8.6h0c4.8,0,8.6,3.9,8.6,8.6V288.1z"/>
			</g>
			<g>
				<path class="st1" d="M229.2,288.5h-18.1v-42.7c0-5,4.1-9.1,9.1-9.1c5,0,9.1,4.1,9.1,9.1V288.5z M212,287.7h16.4v-41.9
					c0-4.5-3.7-8.2-8.2-8.2c-4.5,0-8.2,3.7-8.2,8.2V287.7z"/>
			</g>
		</g>
		<g>
			<path class="st1" d="M231.4,290.6H209v-44.8c0-6.2,5-11.2,11.2-11.2c6.2,0,11.2,5,11.2,11.2V290.6z M214.1,285.6h12.2v-39.8
				c0-3.4-2.7-6.1-6.1-6.1s-6.1,2.7-6.1,6.1V285.6z"/>
		</g>
		<g>
			<g>
				<path class="st6" d="M355.5,405.5l-21.4,31l-4.6,6.6c-2.9,4.2-7.1,7.2-12,8.6c-41.6,12-85.8,12-127.4,0
					c-2.4-0.7-4.7-1.8-6.8-3.3c-2-1.5-3.8-3.3-5.3-5.4l-4.6-6.6l-21.4-31H355.5z"/>
			</g>
			<g>
				<path class="st1" d="M253.7,461.1c-21.5,0-42.9-3-63.8-9c-2.5-0.7-4.8-1.8-6.9-3.3c-2.1-1.5-3.9-3.4-5.4-5.5l-26.4-38.3h205
					l-26.4,38.3c-2.9,4.3-7.3,7.4-12.3,8.8C296.7,458.1,275.2,461.1,253.7,461.1z M152.8,405.9l25.5,37c1.4,2,3.1,3.8,5.2,5.3
					c2,1.4,4.2,2.5,6.6,3.2c41.6,11.9,85.6,11.9,127.2,0c4.8-1.4,9-4.4,11.8-8.5l25.5-37H152.8z"/>
			</g>
		</g>
		<g class="st7">
			<path class="st5" d="M355.5,405.5l-21.4,31l-4.6,6.6c-2.9,4.2-7.1,7.2-12,8.6c-41.6,12-85.8,12-127.4,0c-2.4-0.7-4.7-1.8-6.8-3.3
				c-2-1.5-3.8-3.3-5.3-5.4l-4.6-6.6l-21.4-31h3.7l17.7,25.6l4.6,6.6c1.4,2.1,3.2,3.9,5.3,5.4c2,1.5,4.3,2.6,6.8,3.3
				c41.6,12,85.8,12,127.4,0c4.9-1.4,9.1-4.5,12-8.6l4.6-6.6l17.7-25.6H355.5z"/>
		</g>
		<g>
			<path class="st1" d="M253.7,463.2c-21.7,0-43.3-3-64.4-9.1c-5.4-1.6-10.2-5-13.4-9.6L147.2,403h213.1l-28.7,41.6
				c-3.2,4.7-8,8.1-13.4,9.6l0,0C297.1,460.2,275.4,463.2,253.7,463.2z M156.8,408l23.2,33.6c2.6,3.7,6.3,6.4,10.7,7.6
				c41.2,11.8,84.8,11.8,126,0l0,0c4.3-1.2,8.1-4,10.6-7.6l23.2-33.6H156.8z M317.4,451.7L317.4,451.7L317.4,451.7z"/>
		</g>
		<g>
			<g>
				<path class="st8" d="M351.4,423.1L351.4,423.1c-63.8,18.3-131.4,18.3-195.2,0l0,0c-7.5-2.2-14-6.8-18.4-13.2l-39.8-57.6h311.8
					l-39.8,57.6C365.4,416.3,358.8,420.9,351.4,423.1z"/>
			</g>
			<g>
				<path class="st1" d="M253.7,437.3c-32.9,0-65.8-4.6-97.7-13.8c-7.6-2.2-14.2-6.9-18.7-13.4l-40.3-58.3h313.4l-40.3,58.3
					c-4.5,6.5-11.1,11.2-18.7,13.4C319.5,432.7,286.6,437.3,253.7,437.3z M98.6,352.6l39.4,57c4.4,6.3,10.8,11,18.2,13.1
					c63.8,18.3,131.2,18.3,195,0l0,0c7.4-2.1,13.8-6.8,18.2-13.1l39.4-57H98.6z"/>
			</g>
		</g>
		<g class="st3">
			<path class="st1" d="M355.5,407.6l-21.4,31c-52.8,12.3-107.8,12.3-160.7,0l-21.4-31H355.5z"/>
		</g>
		<g>
			<g>
				<path class="st9" d="M409.6,352.2l-29,42l-10.8,15.6c-4.4,6.4-10.9,11.1-18.4,13.2c-63.8,18.3-131.4,18.3-195.2,0
					c-3.7-1.1-7.2-2.8-10.4-5c-3.1-2.2-5.9-5-8.1-8.2l-10.8-15.6l-29-42H409.6z"/>
			</g>
			<g>
				<path class="st1" d="M253.7,437.3c-32.9,0-65.8-4.6-97.7-13.8c-3.8-1.1-7.3-2.8-10.5-5.1c-3.2-2.3-5.9-5.1-8.2-8.3l-40.3-58.3
					h313.4l-40.3,58.3c-4.5,6.5-11.1,11.2-18.7,13.4C319.5,432.7,286.6,437.3,253.7,437.3z M98.6,352.6l39.4,57
					c2.2,3.1,4.8,5.9,8,8.1c3.1,2.2,6.6,3.9,10.2,5c63.8,18.3,131.2,18.3,195,0c7.4-2.1,13.8-6.8,18.2-13.1l39.4-57H98.6z"/>
			</g>
		</g>
		<g class="st10">
			<path class="st5" d="M409.6,352.2l-29,42l-10.8,15.6c-4.4,6.4-10.9,11.1-18.4,13.2c-63.8,18.3-131.4,18.3-195.2,0
				c-3.7-1.1-7.2-2.8-10.4-5c-3.1-2.2-5.9-5-8.1-8.2l-10.8-15.6l-29-42h4.2l24.9,36l10.8,15.6c2.2,3.2,5,6,8.1,8.2
				c3.1,2.2,6.6,3.9,10.4,5c63.8,18.3,131.4,18.3,195.2,0c7.5-2.2,14-6.8,18.4-13.2l10.8-15.6l24.9-36H409.6z"/>
		</g>
		<g class="st3">
			<path class="st1" d="M409.6,354l-29,42c-4,2.9-8.6,5-13.6,6.3c-74,19-152.5,19-226.4,0c-4.3-1.1-8.4-2.9-12-5.2
				c-0.6-0.4-1.1-0.7-1.6-1.1l-29-42H409.6z"/>
		</g>
		<g>
			<path class="st1" d="M253.7,439.4c-33.1,0-66.2-4.6-98.3-13.9c-8-2.3-15.1-7.4-19.8-14.2L93,349.7h321.4l-42.6,61.6
				c-4.8,6.9-11.8,11.9-19.8,14.2h0C319.9,434.8,286.8,439.4,253.7,439.4z M102.7,354.7l37.1,53.7c4.1,5.9,10.1,10.3,17.1,12.3
				c63.4,18.2,130.4,18.2,193.8,0c6.9-2,13-6.3,17.1-12.3l37.1-53.7H102.7z M351.4,423.1L351.4,423.1L351.4,423.1z"/>
		</g>
		<g>
			<path class="st1" d="M253.7,268.3c-52.4,0-99.3-5.5-119.5-13.9c-1.6-0.7-3-1.3-4.2-2c-4.7-2.6-7.1-5.6-7.1-8.8
				c0-0.8,0.2-1.6,0.5-2.4l0.1-0.2c0.3-0.5,0.5-1,0.8-1.4l0.3-0.4c0.8-1,1.9-2.1,3.2-3c1.1-0.8,2.7-0.5,3.5,0.6
				c0.8,1.1,0.5,2.7-0.6,3.5c-0.9,0.7-1.6,1.3-2.1,1.9c-0.1,0.2-0.3,0.5-0.5,0.8c-0.1,0.2-0.1,0.3-0.1,0.5c0,1.2,1.7,2.9,4.5,4.4
				c1.1,0.6,2.3,1.2,3.7,1.8c19.7,8.2,65.8,13.5,117.6,13.5c34.1,0,66.2-2.3,90.3-6.5c28-4.9,35.5-10.6,35.5-13.2
				c0-0.3-0.1-0.5-0.2-0.8l-0.1-0.2c-0.3-0.5-0.7-1-1.3-1.5c-1.1-0.9-1.2-2.5-0.3-3.6c0.9-1.1,2.5-1.2,3.6-0.3
				c0.9,0.8,1.6,1.6,2.2,2.5l0.1,0.1l0.2,0.3c0.6,1.1,0.9,2.3,0.9,3.4C384.6,261.7,306.4,268.3,253.7,268.3z"/>
		</g>
		<g>
			<path class="st1" d="M253.2,313.9c-23.6,0-42.6-8-54.4-14.7c-8.8-5-13.5-14.7-12.1-24.6c1.8-12.7,5.4-32.5,12.2-55.2
				c0.4-1.3,1.8-2.1,3.1-1.7c1.3,0.4,2.1,1.8,1.7,3.1c-6.7,22.4-10.2,42-12,54.5c-1.1,7.9,2.6,15.6,9.6,19.5
				c11.3,6.4,29.4,14.1,51.9,14.1c22.5,0,40.6-7.7,51.9-14.1c6.9-4,10.7-11.6,9.6-19.5c-1.8-12.5-5.3-32.1-12-54.5
				c-0.4-1.3,0.4-2.7,1.7-3.1c1.3-0.4,2.7,0.4,3.1,1.7c6.8,22.7,10.4,42.6,12.2,55.2c1.4,10-3.3,19.6-12.1,24.6
				C295.8,305.9,276.8,313.9,253.2,313.9z"/>
		</g>
		<g>
			<g>
				<path class="st11" d="M211.6,219.6c0,0-43.4,27.3-39.9,52.7c3.5,25.4,66.8,14.3,59.2-17.2c-2.3-9.5-29.4-7.7-37.2,1.3"/>
			</g>
			<g>
				<path class="st1" d="M194.3,286.7c-4.3,0-8.4-0.6-11.9-1.9c-6.5-2.4-10.3-6.7-11.1-12.4c-3.5-25.4,38.3-52,40.1-53.1l0.4,0.7
					c-0.4,0.3-43.2,27.4-39.7,52.3c1,6.9,6.3,10.2,10.6,11.8c12.1,4.5,30.9,0.7,40.9-8.3c4.5-4,9.3-10.8,6.9-20.6
					c-0.8-3.1-4.3-4.6-7.1-5.3c-8.8-2.1-23.9,0.4-29.3,6.8l-0.6-0.5c5.8-6.7,20.9-9.3,30.2-7c4.4,1.1,7.1,3.1,7.7,5.9
					c1.9,8.1-0.5,15.5-7.2,21.4C216.8,282.8,205,286.7,194.3,286.7z"/>
			</g>
		</g>
		<g>
			<path class="st5" d="M190.7,286.1c-6.6-0.6-12.4-2.8-15.8-6.8c-1.7-1.9-2.8-4.3-3.2-7.1c-2.1-15.1,12.4-30.9,24.5-41.2
				c0.9-0.8,1.8-1.5,2.7-2.2c5.6-4.6,10.4-7.8,12.1-8.9c0.4-0.2,0.6-0.4,0.6-0.4l-0.2,0.4l-6.9,14.3l-10.7,22.1
				c1.1-1.2,2.5-2.3,4.1-3.3c0,0,0,0,0,0c10.6-6.1,31.1-6.3,33.1,2C235.9,275.9,209.9,287.8,190.7,286.1z"/>
		</g>
		<g>
			<path class="st5" d="M190.7,286.1c-6.6-0.6-12.4-2.8-15.8-6.8c4.7-10.3,15.7-20.3,23-26.2c0,0,0,0,0,0c10.6-6.1,31.1-6.3,33.1,2
				C235.9,275.9,209.9,287.8,190.7,286.1z"/>
		</g>
		<g>
			<path class="st1" d="M212,220.3c-2.7,3.3-5.7,5.9-8.8,8.4c-3,2.6-6.2,5.1-9.2,7.7c-3,2.6-5.8,5.5-8.4,8.4c-2.6,3-5,6.1-6.9,9.4
				c-2,3.3-3.5,6.8-4.3,10.5c-0.2,0.9-0.3,1.8-0.4,2.7c-0.1,0.5,0,0.9-0.1,1.4c0,0.4-0.1,0.9,0,1.3c0.1,0.9,0.1,1.8,0.3,2.6
				c0.2,0.8,0.4,1.6,0.8,2.4c1.4,3,4.2,5.3,7.6,6.6c3.4,1.4,7.2,1.9,11,2c3.8,0.1,7.7-0.4,11.4-1.3c3.8-0.9,7.4-2.2,10.8-4
				c3.4-1.8,6.4-4.1,8.8-6.9c2.4-2.8,3.9-6.1,4.3-9.6c0.2-1.8,0.1-3.5-0.3-5.3l-0.1-0.7l-0.1-0.3l-0.1-0.2c-0.1-0.3-0.2-0.5-0.3-0.7
				c-0.3-0.5-0.8-0.9-1.5-1.3c-1.3-0.8-3-1.4-4.8-1.7c-1.8-0.3-3.7-0.5-5.6-0.5c-1.9,0-3.8,0.2-5.7,0.4c-1.9,0.3-3.7,0.8-5.5,1.4
				c-1.8,0.6-3.6,1.2-5.3,1.8l-5.3,2l-0.1,0c-0.5,0.2-1-0.1-1.2-0.5c-0.1-0.2-0.1-0.4,0-0.6c0.7-2.3,2.5-4,4.3-5.3
				c1.9-1.2,3.9-2.1,6-2.7c2.1-0.6,4.2-0.9,6.3-1.2c2.1-0.3,4.3-0.5,6.4-0.5c2.2,0,4.3,0.1,6.5,0.6c2.2,0.4,4.4,1.1,6.6,2.4
				c1.1,0.7,2.1,1.6,2.9,2.8c0.4,0.6,0.7,1.3,0.9,2l0.2,0.5l0.1,0.4l0.2,0.8c0.4,2.2,0.6,4.5,0.3,6.8c-0.2,2.3-0.9,4.5-1.8,6.6
				c-0.9,2.1-2.2,4-3.6,5.7c-2.9,3.4-6.5,6-10.3,8.1c-3.8,2-7.9,3.5-12,4.5c-4.1,1-8.4,1.5-12.7,1.4c-4.3-0.1-8.6-0.7-12.8-2.4
				c-2.1-0.8-4.1-2-5.9-3.5c-1.8-1.5-3.3-3.4-4.3-5.7c-0.5-1.1-0.9-2.3-1.1-3.4c-0.3-1.2-0.3-2.3-0.4-3.4c-0.1-0.6,0-1.1,0-1.7
				c0-0.6,0-1.1,0.1-1.7c0.2-1.1,0.2-2.2,0.5-3.3c0.9-4.3,2.7-8.4,4.9-12c4.4-7.3,10.2-13.4,16.1-19.1c3-2.9,6.1-5.6,9.5-8
				c3.4-2.4,6.9-4.6,11.1-5.7c0.5-0.1,1,0.1,1.1,0.6C212.3,219.8,212.2,220,212,220.3L212,220.3z"/>
		</g>
		<g>
			<g>
				<path class="st6" d="M276.6,288.1h17.3v-42.3c0-4.8-3.9-8.6-8.6-8.6l0,0c-4.8,0-8.6,3.9-8.6,8.6V288.1z"/>
			</g>
			<g>
				<path class="st1" d="M294.3,288.5h-18.1v-42.7c0-5,4.1-9.1,9.1-9.1c5,0,9.1,4.1,9.1,9.1V288.5z M277.1,287.7h16.4v-41.9
					c0-4.5-3.7-8.2-8.2-8.2c-4.5,0-8.2,3.7-8.2,8.2V287.7z"/>
			</g>
		</g>
		<g>
			<path class="st1" d="M296.4,290.6h-22.3v-44.8c0-6.2,5-11.2,11.2-11.2c6.2,0,11.2,5,11.2,11.2V290.6z M279.2,285.6h12.2v-39.8
				c0-3.4-2.7-6.1-6.1-6.1c-3.4,0-6.1,2.7-6.1,6.1V285.6z"/>
		</g>
		<g>
			<path class="st5" d="M333.8,272.2c-0.6,4-2.6,7.1-5.7,9.4c-3.2,2.4-7.5,3.8-12.3,4.4c-19.3,2.3-46.4-9.7-41.3-31
				c2.3-9.5,29.4-7.7,37.2,1.3l-0.5-1l-10-20.5l-7.2-14.8l-0.2-0.4c0,0,0.3,0.2,0.6,0.4c1.8,1.2,7.1,4.8,13.3,9.9
				c0.6,0.5,1.3,1.1,2,1.7C321.8,241.9,335.9,257.4,333.8,272.2z"/>
		</g>
		<g>
			<path class="st5" d="M328.1,281.6c-3.2,2.4-7.5,3.8-12.3,4.4c-19.3,2.3-46.4-9.7-41.3-31c2.3-9.5,29.4-7.7,37.2,1.3l-0.5-1
				C315.8,260.5,324.2,270.9,328.1,281.6z"/>
		</g>
		<g>
			<path class="st1" d="M294.3,218.9c4.2,1.1,7.7,3.3,11.1,5.7c3.4,2.4,6.5,5.1,9.5,8c6,5.7,11.8,11.8,16.1,19.1
				c2.2,3.6,3.9,7.7,4.9,12c0.3,1.1,0.4,2.2,0.5,3.3c0.1,0.6,0,1.1,0.1,1.7c0,0.6,0.1,1.1,0,1.7c-0.1,1.1-0.1,2.2-0.4,3.4
				c-0.3,1.2-0.6,2.3-1.1,3.4c-1,2.2-2.6,4.1-4.3,5.7c-1.8,1.5-3.8,2.7-5.9,3.5c-4.2,1.7-8.5,2.3-12.8,2.4
				c-4.3,0.1-8.6-0.4-12.7-1.4c-4.1-1-8.2-2.4-12-4.5c-3.8-2-7.4-4.6-10.3-8.1c-1.4-1.7-2.7-3.6-3.6-5.7c-0.9-2.1-1.5-4.3-1.8-6.6
				c-0.3-2.3-0.1-4.6,0.3-6.8l0.2-0.8l0.1-0.4l0.2-0.5c0.2-0.7,0.6-1.4,0.9-2c0.8-1.2,1.9-2.1,2.9-2.8c2.2-1.4,4.4-2,6.6-2.4
				c2.2-0.4,4.4-0.6,6.5-0.6c2.2,0,4.3,0.2,6.4,0.5c2.1,0.3,4.2,0.6,6.3,1.2c2.1,0.6,4.1,1.4,6,2.7c1.8,1.3,3.6,3,4.3,5.3
				c0.2,0.5-0.1,1-0.6,1.1c-0.2,0.1-0.4,0.1-0.6,0l-0.1,0l-5.3-2c-1.7-0.7-3.5-1.2-5.3-1.8c-1.8-0.6-3.6-1.1-5.5-1.4
				c-1.9-0.3-3.8-0.4-5.7-0.4c-1.9,0-3.8,0.1-5.6,0.5c-1.8,0.3-3.5,0.9-4.8,1.7c-0.6,0.4-1.1,0.9-1.5,1.3c-0.1,0.2-0.3,0.5-0.3,0.7
				l-0.1,0.2l-0.1,0.3l-0.1,0.7c-0.3,1.8-0.5,3.6-0.3,5.3c0.4,3.5,1.9,6.8,4.3,9.6c2.3,2.8,5.4,5.1,8.8,6.9c3.4,1.8,7,3.1,10.8,4
				c3.8,0.9,7.6,1.3,11.4,1.3c3.8-0.1,7.6-0.6,11-2c3.4-1.3,6.2-3.6,7.6-6.6c0.4-0.7,0.6-1.5,0.8-2.4c0.2-0.8,0.2-1.7,0.3-2.6
				c0.1-0.4,0-0.9,0-1.3c0-0.5,0-0.9-0.1-1.4c-0.1-0.9-0.2-1.8-0.4-2.7c-0.8-3.6-2.3-7.1-4.3-10.5c-2-3.3-4.4-6.5-6.9-9.4
				c-2.6-3-5.4-5.8-8.4-8.4c-3-2.6-6.1-5.1-9.2-7.7c-3.1-2.5-6.1-5.2-8.8-8.4l0,0c-0.3-0.4-0.3-0.9,0.1-1.2
				C293.8,218.8,294.1,218.8,294.3,218.9z"/>
		</g>
		<g class="st3">
			<g>
				<path class="st1" d="M177.2,216.6c0,0,0.1,0.1,0.1,0.1L177.2,216.6C177.2,216.6,177.2,216.6,177.2,216.6z"/>
			</g>
			<g>
				<path class="st1" d="M307.9,229.9c0.6,0.5,1.3,1.1,2,1.7c-0.5,0.2-0.9,0.4-1.4,0.6c-1.6,0.7-3.3,1.3-5,1.9c0,0-0.8,0.3-2.3,0.7
					c-6.6,2-26.9,7.6-47.7,7.6c-22.8,0-44.9-6.7-49.2-8c-0.5-0.2-0.8-0.2-0.8-0.2c-1.9-0.7-3.8-1.4-5.6-2.2
					c-0.6-0.3-1.2-0.5-1.8-0.8c0.9-0.8,1.8-1.5,2.7-2.2c0.5-2,1.1-4,1.7-6.1c0.3-0.9,0.5-1.8,0.8-2.8h9.5c0.4-0.2,0.6-0.4,0.6-0.4
					l-0.2,0.4h82.7l-0.2-0.4c0,0,0.3,0.2,0.6,0.4h10.5c0.2,0.7,0.4,1.4,0.6,2.1c0.3,1,0.6,2,0.9,3.1
					C307,226.8,307.5,228.3,307.9,229.9z"/>
			</g>
		</g>
		<g>
			<g>
				<g>
					<path class="st5" d="M333.9,172.8c-0.6,34.5-38.2,54.6-83.9,53.7s-82.5-22.5-81.8-56.9c0.6-34.5,38.5-68.7,84.2-67.8
						C298.1,102.6,334.5,138.3,333.9,172.8z"/>
				</g>
			</g>
			<g class="st12">
				<g>
					<path class="st13" d="M250.7,226.4c-45.8-0.9-82.5-22.5-81.8-56.9c0-0.2,0-0.4,0-0.6c6.8,27.7,40.1,44.6,80.6,45.4
						c45.7,0.9,83.2-19.2,83.9-53.6c0.9,4,1.3,8,1.2,12C334,207.1,296.5,227.3,250.7,226.4z"/>
				</g>
			</g>
			<g>
				<g>
					<path class="st13" d="M223,225.7c-12.5-2.7-23.6-7.2-32.7-13.1c-16.3-10.8-24.8-25.7-24.5-42.9c0.3-17.5,9.8-35.3,26-48.8
						c16.9-14.1,38.3-21.6,60.5-21.2c22.2,0.4,43.4,8.7,59.6,23.5c15.6,14.1,24.4,32.3,24.1,49.7c-0.3,17.3-9.4,31.8-26.1,42
						c-15.5,9.4-36.8,14.4-60.1,14C240.5,228.5,231.5,227.5,223,225.7z M269.3,106.1c-5.6-1.2-11.3-1.9-17.1-2
						c-46.2-0.9-81.3,33.9-81.9,65.6c-0.5,25.1,20.5,44.5,53.3,51.7c8.1,1.7,16.9,2.8,26.3,3c47.5,0.9,81.1-20.3,81.7-51.5
						c0.3-16.2-7.9-33.1-22.6-46.4C297.8,116.2,284.1,109.3,269.3,106.1z"/>
				</g>
			</g>
			<g>
				<g>
					<path class="st13" d="M223,225.7c-12.5-2.7-23.6-7.2-32.7-13.1c-16.3-10.8-24.8-25.7-24.5-42.9c0.3-17.5,9.8-35.3,26-48.8
						c16.9-14.1,38.3-21.6,60.5-21.2c22.2,0.4,43.4,8.7,59.6,23.5c15.6,14.1,24.4,32.3,24.1,49.7c-0.3,17.3-9.4,31.8-26.1,42
						c-15.5,9.4-36.8,14.4-60.1,14C240.5,228.5,231.5,227.5,223,225.7z M269.3,106.1c-5.6-1.2-11.3-1.9-17.1-2
						c-46.2-0.9-81.3,33.9-81.9,65.6c-0.5,25.1,20.5,44.5,53.3,51.7c8.1,1.7,16.9,2.8,26.3,3c47.5,0.9,81.1-20.3,81.7-51.5
						c0.3-16.2-7.9-33.1-22.6-46.4C297.8,116.2,284.1,109.3,269.3,106.1z"/>
				</g>
			</g>
			<g>
				<g>
					<path class="st14" d="M257.8,127c-1.3,0.2-2.9,0.3-4.6,0.2c-8.7-0.5-11.9-5.3-12.2-8.6C243.3,120.5,249.5,125.2,257.8,127z"/>
				</g>
			</g>
			<g>
				<g>
					<path class="st13" d="M257.1,129.1c-8.6-1.9-15.2-6.8-17.5-8.8c-0.4-0.3-0.7-0.9-0.8-1.4c0-0.2-0.1-0.4-0.1-0.6v-0.1
						c-0.1-2.5,0.2-6,0.9-10c0.1-0.9,0.8-1.6,1.6-1.8c0.8-0.2,1.7,0,2.3,0.6c0.1,0.1,9,9.4,22.9,10.3c0.6,0.1,1.2,0.3,1.6,0.8
						c0.4,0.5,0.6,1.1,0.5,1.7c-0.5,3.4-3.2,7.5-9.2,8.9c-0.4,0.1-0.8,0.2-1.2,0.2c-0.3,0.1-0.5,0.1-0.8,0
						C257.2,129.2,257.2,129.2,257.1,129.1z M257.8,127L257.8,127L257.8,127z M243.2,117.5c2.5,2,7.9,5.7,14.6,7.2
						c0.1,0,0.2-0.1,0.3-0.1l0,0c2.4-0.6,4-1.8,4.9-3.1c-9.1-1.3-15.9-5.6-19.6-8.5C243.3,114.8,243.2,116.3,243.2,117.5z"/>
				</g>
			</g>
			<g>
				<g>
					<path class="st15" d="M261.5,125.8c-0.8,0.4-1.7,0.8-2.8,1c-0.3,0.1-0.6,0.2-0.9,0.2c-8.2-1.7-14.5-6.5-16.8-8.4
						c0-0.2,0-0.3-0.1-0.5c-0.1-2.4,0.2-5.7,0.9-9.5c0,0,7.5,8,20,10.4c1.4,0.3,2.9,0.5,4.5,0.6
						C265.9,121.6,264.5,124.2,261.5,125.8z"/>
				</g>
				<g>
					<path class="st13" d="M257.5,127.3c-8.2-1.8-14.4-6.5-16.7-8.5l-0.1-0.1v-0.1c0-0.1,0-0.3-0.1-0.4v-0.1
						c-0.1-2.4,0.2-5.7,0.9-9.6l0.1-0.6l0.4,0.5c0.1,0.1,7.6,8,19.8,10.4c1.5,0.3,3,0.5,4.4,0.6h0.3l-0.1,0.3
						c-0.4,2.5-2.3,4.9-4.9,6.3c-0.9,0.5-1.9,0.8-2.9,1.1c-0.3,0.1-0.7,0.2-1,0.2h-0.1C257.6,127.3,257.6,127.3,257.5,127.3z
						 M241.3,118.5c2.4,2,8.5,6.5,16.4,8.2c0.1,0,0.1,0,0.1,0c0.3-0.1,0.5-0.1,0.9-0.2c1-0.2,1.9-0.6,2.7-1l0,0
						c3.3-1.7,4.2-4.4,4.5-5.5c-1.4-0.1-2.7-0.3-4.2-0.6c-10.8-2-18-8.4-19.7-10.1c-0.6,3.6-0.8,6.6-0.8,8.9v0.1
						C241.3,118.3,241.3,118.4,241.3,118.5z"/>
				</g>
			</g>
			<g class="st7">
				<g>
					<path class="st5" d="M261.5,125.8c0.2-2.3,0.2-4.5,0.3-6.7c1.4,0.3,2.9,0.5,4.5,0.6C265.9,121.6,264.5,124.2,261.5,125.8z"/>
				</g>
			</g>
			<g>
				<g>
					<path class="st16" d="M266.2,119.7c-1.6-0.1-3-0.3-4.5-0.6c-12.5-2.4-20-10.4-20-10.4c0.6-3.8,1.5-8,2.6-12.2
						c0,0,4.3,7.1,16.9,12.3c1.6,0.6,3.2,1.3,5.1,1.8c0.2,3.5,0.1,6.7-0.2,8.9C266.3,119.6,266.3,119.6,266.2,119.7z"/>
				</g>
			</g>
			<g class="st7">
				<g>
					<path class="st5" d="M266.2,119.7c-1.6-0.1-3-0.3-4.5-0.6c0.1-3.6-0.1-7.1-0.4-10.3c1.6,0.6,3.2,1.3,5.1,1.8
						c0.2,3.5,0.1,6.7-0.2,8.9C266.3,119.6,266.3,119.6,266.2,119.7z"/>
				</g>
			</g>
			<g>
				<g>
					<path class="st17" d="M266.4,110.6c-1.9-0.6-3.5-1.2-5.1-1.8c-12.6-5.2-16.9-12.3-16.9-12.3c1.2-4.5,2.7-8.7,4.3-12.2
						c0,0,3.5,6.4,10.4,10.7c1.8,1.2,3.8,2.1,6.1,2.8C265.8,102.2,266.3,106.7,266.4,110.6z"/>
				</g>
				<g>
					<path class="st13" d="M266.7,111l-0.4-0.1c-1.7-0.5-3.5-1.2-5.1-1.8c-12.5-5.2-17-12.3-17.1-12.4l-0.1-0.1l0.1-0.1
						c1.3-4.7,2.8-9,4.3-12.3l0.2-0.5l0.3,0.5c0.1,0.1,3.5,6.4,10.3,10.6c1.9,1.2,3.9,2.2,6,2.8l0.2,0.1l0.1,0.2
						c0.7,4.3,1.2,8.7,1.3,12.7L266.7,111z M244.7,96.5c0.6,0.9,5.2,7.3,16.7,12c1.5,0.6,3.1,1.2,4.6,1.7c-0.2-3.8-0.6-8-1.3-12
						c-2-0.6-4.1-1.6-6-2.8c-5.7-3.6-9.2-8.7-10.1-10.3C247.3,88.1,245.9,92.1,244.7,96.5z"/>
				</g>
			</g>
			<g class="st7">
				<g>
					<path class="st5" d="M266.4,110.6c-1.9-0.6-3.5-1.2-5.1-1.8c-0.5-5-1.3-9.7-2.3-13.7c1.8,1.2,3.8,2.1,6.1,2.8
						C265.8,102.2,266.3,106.7,266.4,110.6z"/>
				</g>
			</g>
			<g>
				<g>
					<path class="st14" d="M265.2,97.6c-2.3-0.7-4.3-1.7-6.1-2.8c-6.9-4.3-10.4-10.7-10.4-10.7c1.3-2.8,2.7-5.2,4.2-6.4
						c1-0.9,2-1.3,3-1.3C260.3,76.5,263.5,86.8,265.2,97.6z"/>
				</g>
			</g>
			<g class="st7">
				<g>
					<path class="st5" d="M265.7,98c-2.3-0.7-4.3-1.7-6.1-2.8c-1.9-7.6-4.3-13.4-6.1-17.1c1-0.9,2-1.3,3-1.3
						C260.8,76.9,264,87.2,265.7,98z"/>
				</g>
			</g>
			<g>
				<g>
					<g>
						<path class="st13" d="M264.8,99.6c-0.1,0-0.1,0-0.2-0.1c-11.4-3.6-17.3-14-17.5-14.4c-0.3-0.5-0.3-1.1-0.1-1.6
							c2.8-6.1,5.7-8.9,8.9-8.7c6.1,0.3,9.4,12.6,11,22.8c0.1,0.6-0.1,1.3-0.6,1.7C265.9,99.6,265.3,99.8,264.8,99.6z M250.8,84.2
							c1.3,2,5.4,7.7,12,10.8c-2.3-12-5.4-16.5-7.1-16.6C254.7,78.3,252.9,79.9,250.8,84.2z"/>
					</g>
				</g>
				<g>
					<g>
						<path class="st13" d="M266,112.4c-0.1,0-0.1,0-0.2-0.1c-17-5.2-22.8-14.5-23-14.8c-0.2-0.4-0.3-0.9-0.2-1.4
							c1.3-4.8,2.8-9.2,4.4-12.5c0.3-0.6,0.9-1,1.6-1c0.7,0,1.3,0.3,1.6,0.9c0.1,0.1,5.4,9.6,15.4,12.7c0.6,0.2,1.2,0.8,1.2,1.4
							c0.7,4.3,1.2,8.8,1.3,12.9c0,0.6-0.2,1.2-0.7,1.5C267.1,112.3,266.6,112.5,266,112.4z M246.4,96.2c1.4,1.9,6.7,7.8,18.1,11.9
							c-0.2-2.8-0.5-5.8-1-8.8c-7.2-2.6-12-7.8-14.5-11.1C248.1,90.5,247.2,93.2,246.4,96.2z"/>
					</g>
				</g>
				<g>
					<g>
						<path class="st13" d="M260.4,120.7c-12.3-2.7-19.6-10.4-19.9-10.8c-0.4-0.4-0.6-1-0.5-1.5c0.6-4,1.6-8.2,2.7-12.3
							c0.2-0.7,0.8-1.2,1.5-1.3c0.7-0.1,1.4,0.2,1.8,0.9c0.1,0.1,5.4,8.5,21,13.3c0.8,0.2,1.2,0.9,1.3,1.6c0.2,3.7,0.1,6.9-0.2,9.2
							c0,0.1-0.1,0.2-0.1,0.3c-0.2,0.9-1,1.4-1.9,1.4C264.1,121.4,262.2,121.1,260.4,120.7z M266.2,119.7L266.2,119.7L266.2,119.7z
							 M243.7,108c2.1,2,9.7,8.3,20.8,9.7c0.1-1.6,0.1-3.6,0.1-5.8c-10.4-3.4-16.4-8.3-19.4-11.5C244.7,103,244.1,105.5,243.7,108z"
							/>
					</g>
				</g>
				<g>
					<g>
						<path class="st13" d="M257.2,128.7c-8.5-1.9-15-6.7-17.4-8.7c-0.3-0.3-0.6-0.7-0.6-1.2c0-0.2-0.1-0.3-0.1-0.5v-0.1
							c-0.1-2.5,0.2-5.9,0.9-9.8c0.1-0.7,0.6-1.2,1.3-1.4c0.6-0.2,1.4,0,1.9,0.5c0.1,0.1,9,9.5,23.2,10.4c0.5,0.1,1,0.3,1.3,0.7
							c0.3,0.4,0.5,0.9,0.3,1.4c-0.5,3.2-3.1,7.2-8.9,8.6c-0.4,0.1-0.8,0.2-1.1,0.2c-0.2,0.1-0.5,0.1-0.6,0
							C257.3,128.8,257.2,128.7,257.2,128.7z M257.8,127L257.8,127L257.8,127z M242.8,117.7c2.5,2,8,5.8,15.1,7.4
							c0.2-0.1,0.3-0.1,0.5-0.1l0,0c2.9-0.7,4.6-2.3,5.5-3.8c-9.8-1.3-17-6-20.7-9C242.9,114.4,242.8,116.3,242.8,117.7z"/>
					</g>
				</g>
				<g>
					<g>
						<path class="st13" d="M249.4,128.6c-6.9-1.5-9.8-6-10.2-9.8c-0.1-0.8,0.3-1.4,1-1.8c0.6-0.3,1.4-0.2,2,0.2
							c2.2,1.9,8.1,6.3,15.8,8c0.1,0,0.1,0,0.2,0.1c0.9,0.2,1.4,0.9,1.4,1.8c0,0.9-0.6,1.6-1.5,1.7c-1.6,0.3-3.2,0.4-5,0.3
							C251.7,129,250.5,128.8,249.4,128.6z"/>
					</g>
				</g>
			</g>
			<g>
				<g>
					<path class="st13" d="M249.4,129c-6.8-1.5-10.3-5.9-10.7-10.1c0-0.2-0.1-0.3-0.1-0.5v-0.1c-0.1-1.5,0.1-3.4,0.3-5.4
						c0.1-1.1,0.3-2.3,0.5-3.5l0.1-0.2c0.1-0.2,0.1-0.5,0.1-0.8c0.6-4,1.6-8.3,2.7-12.4c1.3-4.9,2.8-9.2,4.4-12.6
						c2.9-6.3,5.9-9.2,9.3-9c6.4,0.3,9.7,12.8,11.4,23.2c0.7,4.4,1.2,8.9,1.3,12.9c0.2,3.7,0.1,6.9-0.2,9.3c0,0.1-0.1,0.2-0.1,0.4
						l0,0c0,0.2-0.1,0.3-0.1,0.5c0,0.1-0.1,0.1-0.1,0.2c-0.1,0.2-0.1,0.3-0.1,0.4c0,0.1-0.1,0.2-0.1,0.2c-0.1,0.1-0.1,0.2-0.1,0.3
						c-0.1,0.1-0.1,0.2-0.1,0.2c-0.1,0.2-0.2,0.4-0.2,0.6c0,0.1-0.1,0.1-0.1,0.2c-0.1,0.2-0.2,0.3-0.2,0.5l-0.1,0.2l-0.1,0.1
						c-0.1,0.1-0.2,0.3-0.2,0.4l-0.1,0.2c-0.1,0.2-0.2,0.3-0.3,0.5c0,0.1-0.1,0.1-0.1,0.1c-0.1,0.2-0.3,0.3-0.5,0.5
						c0,0-0.1,0.1-0.1,0.1c-0.2,0.2-0.3,0.3-0.5,0.5l-0.1,0.1l0,0c-0.2,0.2-0.3,0.3-0.5,0.5l-0.1,0.1c-0.5,0.3-0.9,0.7-1.4,1
						c0,0-0.1,0.1-0.1,0.1l-0.1,0.1c-0.1,0.1-0.2,0.1-0.3,0.2c-0.1,0.1-0.1,0.1-0.2,0.1l-0.3,0.1c-0.2,0.1-0.4,0.2-0.6,0.3
						c-0.1,0.1-0.2,0.1-0.3,0.1c-0.2,0.1-0.4,0.2-0.6,0.2h-0.1c-0.1,0.1-0.2,0.1-0.2,0.1c-0.2,0.1-0.5,0.2-0.8,0.2
						c-0.1,0-0.2,0.1-0.2,0.1c-0.4,0.1-0.8,0.2-1.2,0.2c-1.5,0.3-3.2,0.4-5,0.3C251.7,129.4,250.5,129.2,249.4,129z M255.8,78.8
						c-0.1,0-0.1,0-0.1,0c-0.8-0.1-2.6,1.3-5,6.4c-1.4,3.1-2.9,7.2-4.1,11.9c-1.1,3.9-2,8.1-2.5,11.9c-0.1,0.2-0.1,0.5-0.1,0.8
						l-0.1,0.2c-0.2,1.2-0.3,2.3-0.4,3.3c-0.2,1.9-0.3,3.5-0.3,4.8l0,0c0,0.1,0,0.1,0,0.2v0.1c0.3,2.8,3.1,6.3,10.1,6.6
						c1.4,0.1,2.8,0,4.1-0.2c0.3-0.1,0.5-0.1,0.8-0.2l0.2-0.1c0.2-0.1,0.4-0.1,0.6-0.2l0.2-0.1c0.2-0.1,0.3-0.1,0.5-0.2l0.2-0.1
						c0.2-0.1,0.3-0.1,0.5-0.2l0.3-0.1c0.1-0.1,0.1-0.1,0.2-0.1l0.1-0.1l0.1-0.1c0.3-0.2,0.6-0.4,0.9-0.6l0.1-0.1
						c0.1-0.1,0.2-0.2,0.3-0.3l0,0l0.1-0.1c0.1-0.1,0.2-0.2,0.3-0.3l0.1-0.1c0.1-0.1,0.2-0.2,0.3-0.3l0.1-0.1
						c0.1-0.1,0.1-0.2,0.2-0.3l0.1-0.1c0.1-0.1,0.1-0.2,0.2-0.3l0.1-0.1c0.1-0.1,0.1-0.2,0.1-0.2c0,0,0.1-0.1,0.1-0.1
						c0.1-0.1,0.1-0.2,0.2-0.3l0.1-0.1c0-0.1,0.1-0.1,0.1-0.2l0.1-0.1c0-0.1,0.1-0.1,0.1-0.2l0.1-0.1c0-0.1,0.1-0.2,0.1-0.2
						c0-0.1,0-0.1,0-0.1V119c0.2-2.1,0.3-5.1,0.2-8.5c-0.2-3.9-0.6-8.2-1.3-12.5C260.8,84.6,257.5,79.2,255.8,78.8z M263.6,124.2
						L263.6,124.2L263.6,124.2z M264.1,119.2L264.1,119.2L264.1,119.2z"/>
				</g>
			</g>
			<g>
				<g>
					<path class="st5" d="M284.2,120.5c0,0,7.6-28.7,19.3-27.9c11.8,0.8,18.1,42,16.9,51.7C320.4,144.4,302.2,144.4,284.2,120.5z"/>
				</g>
			</g>
			<g>
				<g>
					<path class="st13" d="M283.4,120.4c-0.6-2.2-0.3-4.2,0.2-6.1s1.3-3.8,2.1-5.6s1.7-3.6,2.6-5.4c0.9-1.8,2-3.5,3.1-5.2
						c1.2-1.7,2.5-3.3,4.2-4.7c1.7-1.4,3.9-2.6,6.4-2.9h0.9c0.2,0,0.3,0,0.5,0l0.5,0.1c0.3,0.1,0.7,0.1,1,0.2
						c0.3,0.1,0.6,0.2,0.9,0.3c1.2,0.5,2.2,1.3,3.1,2c1.7,1.6,2.8,3.4,3.9,5.2c2,3.6,3.4,7.4,4.5,11.2c1.2,3.8,2.1,7.6,2.8,11.5
						c0.8,3.9,1.4,7.8,1.8,11.6c0.1,1,0.2,2,0.3,3c0.1,1,0.2,2,0.3,3c0.1,1,0.1,2-0.1,3c-0.2,1-0.6,2.1-1.6,3c-0.4,0.3-1,0.3-1.3,0
						c-0.1-0.1-0.1-0.1-0.1-0.1l-0.1-0.1c-0.7-1-1-1.9-1.3-2.8c-0.2-0.9-0.3-1.9-0.3-2.8c0-0.9,0.1-1.9-0.1-2.8
						c-0.1-0.9-0.2-1.9-0.3-2.8c-0.4-3.8-1-7.5-1.7-11.3c-0.8-3.7-1.6-7.4-2.7-11.1c-1.1-3.6-2.4-7.1-4.2-10.3c-0.9-1.6-1.9-3-3-4.1
						c-0.6-0.5-1.2-0.9-1.7-1.2c-0.1-0.1-0.3-0.1-0.4-0.2c-0.1,0-0.3-0.1-0.4-0.1h-0.2H303c-0.2,0-0.3,0-0.5,0
						c-1.3,0.1-2.7,0.8-3.9,1.9c-1.3,1-2.4,2.4-3.5,3.9s-2,3.1-2.8,4.7c-0.9,1.6-1.7,3.4-2.3,5.1c-0.6,1.8-1.2,3.5-2,5.3
						c-0.8,1.7-1.6,3.5-3.2,5l0,0c-0.3,0.3-0.9,0.3-1.2-0.1C283.5,120.6,283.5,120.5,283.4,120.4z"/>
				</g>
			</g>
			<g>
				<g>
					<g>
						<path class="st14" d="M294.5,118.7c0,0,2.7-14.2,7.7-13.6c5,0.6,8.6,21.4,8.2,26.3C310.5,131.4,302.7,131,294.5,118.7z"/>
					</g>
					<g>
						<path class="st13" d="M309.4,131.5c-2.4-0.5-8.6-2.8-15.1-12.7l-0.1-0.1v-0.1c0.1-0.6,2.8-14.5,8-13.8
							c5.4,0.6,8.8,21.9,8.5,26.6v0.3h-0.3C310.4,131.7,310,131.7,309.4,131.5z M294.9,118.6c7.1,10.6,13.8,12.2,15.3,12.4
							c0.2-5.5-3.3-24.7-7.8-25.7c-0.1,0-0.1,0-0.2,0C297.8,104.8,295.1,117.2,294.9,118.6z"/>
					</g>
				</g>
				<g>
					<g>
						<path class="st13" d="M309.1,133.4c-2.7-0.6-9.6-3.1-16.4-13.5c-0.3-0.5-0.5-1.1-0.3-1.6c0.7-3.8,3.6-16.2,10.2-15.4
							c2.1,0.2,5.2,1.9,8,13.3c1.4,5.7,2.4,12.5,2.1,15.5c-0.1,1.2-1.1,2.1-2.3,2.1C310.3,133.6,309.8,133.6,309.1,133.4z
							 M296.9,118.2c4.5,6.5,8.7,9.2,11.2,10.2c-0.2-2.8-0.9-6.9-1.8-10.8c-1.9-7.9-3.9-10.2-4.4-10.4
							C300.7,107.1,298.2,112.1,296.9,118.2z"/>
					</g>
				</g>
			</g>
			<g>
				<g>
					<path class="st5" d="M221,117.2c0,0-4.5-29.3-16.3-29.8c-11.8-0.5-22.5,39.8-22.2,49.6C182.4,137,200.4,139,221,117.2z"/>
				</g>
			</g>
			<g>
				<g>
					<path class="st13" d="M220.2,117.3c-1.4-1.7-2.1-3.5-2.7-5.3c-0.6-1.8-1-3.6-1.4-5.4c-0.5-1.9-1-3.6-1.7-5.3
						c-0.7-1.7-1.4-3.4-2.3-5c-0.9-1.6-1.9-3.1-3-4.2c-1.2-1.2-2.4-2-3.8-2.3c-0.2,0-0.3-0.1-0.5-0.1l-0.2-0.1h-0.2
						c-0.1,0-0.3,0.1-0.4,0.1c-0.1,0.1-0.3,0.1-0.5,0.1c-0.6,0.2-1.2,0.5-1.9,1c-1.2,0.9-2.4,2.3-3.4,3.8c-2.1,3-3.8,6.4-5.2,9.8
						c-1.4,3.5-2.7,7.1-3.9,10.7c-1.1,3.6-2.1,7.3-3,11c-0.2,0.9-0.4,1.9-0.6,2.8c-0.2,0.9-0.2,1.9-0.3,2.8
						c-0.1,0.9-0.3,1.9-0.6,2.7c-0.3,0.9-0.8,1.7-1.6,2.7l-0.1,0.1c-0.3,0.4-0.9,0.4-1.3,0.1c-0.1-0.1-0.1-0.1-0.1-0.1
						c-0.9-1-1.2-2.1-1.3-3.1c-0.1-1,0-2,0.2-3c0.2-1,0.5-1.9,0.6-2.9c0.2-1,0.4-1.9,0.6-2.9c0.9-3.8,1.9-7.6,3-11.4
						c1.2-3.8,2.5-7.5,4.1-11.1s3.3-7.2,5.7-10.7c1.2-1.7,2.5-3.4,4.4-4.7c0.9-0.7,2-1.3,3.2-1.7c0.3-0.1,0.6-0.2,1-0.2
						c0.3-0.1,0.7-0.1,1-0.1h0.5c0.2,0,0.3,0.1,0.5,0.1l0.9,0.1c2.5,0.5,4.6,2,6.1,3.5c1.6,1.6,2.7,3.4,3.7,5.2
						c1,1.8,1.9,3.6,2.5,5.5c0.8,1.9,1.3,3.8,2,5.6c0.6,1.9,1.2,3.8,1.5,5.7c0.3,2,0.4,3.9-0.4,6.1c-0.2,0.5-0.6,0.6-1.1,0.5
						C220.5,117.5,220.3,117.4,220.2,117.3L220.2,117.3z"/>
				</g>
			</g>
			<g>
				<g>
					<g>
						<path class="st14" d="M211.3,114.6c0,0-1.7-14.7-7.2-14.8c-5.5-0.1-11.1,20.4-11.2,25.4C192.9,125.2,201.3,126,211.3,114.6z"
							/>
					</g>
					<g>
						<path class="st13" d="M192.6,125.5v-0.3c0.1-4.5,4.2-19.9,8.8-24.4c0.9-0.9,1.8-1.3,2.7-1.3c5.7,0.1,7.4,14.5,7.5,15.1v0.1
							l-0.1,0.1c-10,11.4-18.3,10.8-18.6,10.7H192.6z M204.7,100.2c-0.2-0.1-0.3-0.1-0.6-0.1c-0.7,0-1.4,0.4-2.3,1.2
							c-4.3,4.3-8.4,18.9-8.6,23.7c1.6,0,9.1-0.6,17.7-10.4C210.8,113.1,209.2,101.2,204.7,100.2z"/>
					</g>
				</g>
				<g>
					<g>
						<path class="st13" d="M192.4,127.4c-1-0.2-1.7-1.2-1.7-2.2c0.1-4.7,4.2-20.7,9.4-25.8c1.3-1.3,2.7-1.9,4.1-1.9
							c7.1,0.1,9.1,14,9.4,16.8c0.1,0.6-0.1,1.3-0.5,1.7c-10.6,12-19.9,11.4-20.2,11.4C192.6,127.5,192.5,127.4,192.4,127.4z
							 M204.2,102.1c-0.1,0-0.1,0-0.2,0c-0.5,0-2.7,1.6-5.6,9.4c-1.4,3.9-2.5,8.3-3.1,11.2c2.8-0.6,7.8-2.7,13.5-8.8
							C208.1,108.3,206.1,102.5,204.2,102.1z"/>
					</g>
				</g>
			</g>
			<g>
				<g>
					<path class="st13" d="M190.8,159.6c-2.8-1.5-5.6-2.8-8.5-3.9c-2.8-1.2-5.7-2.2-8.7-3c-3-0.8-5.9-1.6-9-2.1
						c-1.5-0.3-3.1-0.5-4.6-0.8c-0.8-0.2-1.6-0.2-2.3-0.3c-0.8-0.1-1.6-0.2-2.4-0.3c0.8-0.2,1.6-0.3,2.4-0.4
						c0.8-0.1,1.6-0.2,2.4-0.3c1.6-0.1,3.2-0.2,4.8-0.1c3.2,0.1,6.4,0.7,9.5,1.6c3.1,0.9,6.1,2.1,8.9,3.8
						C185.9,155.3,188.6,157.2,190.8,159.6z"/>
				</g>
			</g>
			<g>
				<g>
					<path class="st13" d="M189.5,167.5c-3.1-0.7-6.2-1.2-9.3-1.6s-6.1-0.6-9.2-0.6c-3.1,0-6.1,0.1-9.2,0.3
						c-1.6,0.1-3.1,0.3-4.6,0.5c-0.8,0.1-1.6,0.2-2.3,0.3c-0.8,0.1-1.6,0.2-2.4,0.3c0.7-0.3,1.4-0.7,2.1-1c0.8-0.3,1.4-0.6,2.2-0.9
						c1.5-0.5,3.1-1,4.6-1.3c3.1-0.8,6.4-1,9.6-1s6.4,0.5,9.6,1.3C183.7,164.7,186.8,165.8,189.5,167.5z"/>
				</g>
			</g>
			<g>
				<g>
					<path class="st13" d="M189.9,177.8c-3.2,0-6.3,0.2-9.4,0.5c-3.1,0.3-6.1,0.8-9.1,1.4c-3,0.6-6,1.4-8.9,2.4
						c-1.5,0.4-3,1-4.4,1.5c-0.8,0.2-1.4,0.6-2.2,0.8c-0.8,0.3-1.5,0.6-2.3,0.8c0.6-0.5,1.2-1,1.9-1.5c0.6-0.5,1.3-1,2-1.4
						c1.4-0.8,2.7-1.7,4.2-2.3c2.9-1.4,6-2.4,9.2-3.1c3.1-0.7,6.4-1,9.6-0.9C183.7,176.3,186.9,176.7,189.9,177.8z"/>
				</g>
			</g>
			<g>
				<g>
					<path class="st13" d="M316.2,161.4c2.3-2.2,5.2-3.8,8.1-5.2c3-1.3,6-2.3,9.2-2.9c3.2-0.6,6.4-0.9,9.6-0.7
						c1.6,0,3.2,0.3,4.8,0.5c0.8,0.1,1.6,0.3,2.3,0.5c0.8,0.2,1.6,0.4,2.3,0.6c-0.8,0.1-1.6,0.1-2.4,0.1c-0.8,0.1-1.6,0-2.4,0.1
						c-1.6,0.1-3.1,0.1-4.6,0.3c-3.1,0.2-6.1,0.7-9.2,1.2s-6,1.3-9,2.2C322.1,159.2,319.1,160.3,316.2,161.4z"/>
				</g>
			</g>
			<g>
				<g>
					<path class="st13" d="M316.7,169.5c2.8-1.5,6-2.3,9.2-2.8c3.2-0.5,6.4-0.6,9.6-0.3s6.4,0.9,9.4,1.9c1.6,0.5,3,1.1,4.5,1.7
						c0.8,0.3,1.4,0.8,2.1,1.1c0.7,0.4,1.4,0.8,2,1.2c-0.8-0.2-1.6-0.3-2.3-0.5c-0.8-0.2-1.5-0.4-2.3-0.5c-1.5-0.3-3-0.7-4.6-0.9
						c-3-0.6-6.1-0.9-9.2-1.2c-3.1-0.3-6.1-0.3-9.2-0.2C323,168.9,319.8,169.1,316.7,169.5z"/>
				</g>
			</g>
			<g>
				<g>
					<path class="st13" d="M315.3,179.7c3.1-0.8,6.4-0.9,9.6-0.8c3.2,0.2,6.4,0.8,9.5,1.8c3.1,1,6.1,2.3,8.8,3.9
						c1.4,0.8,2.7,1.7,4,2.7c0.6,0.5,1.2,1,1.8,1.6c0.6,0.5,1.2,1.1,1.7,1.7c-0.8-0.3-1.4-0.7-2.1-1c-0.7-0.3-1.4-0.8-2.1-1
						c-1.4-0.6-2.8-1.3-4.2-1.9c-2.8-1.3-5.7-2.3-8.6-3.2c-2.9-0.9-5.9-1.7-8.9-2.3C321.5,180.5,318.5,180,315.3,179.7z"/>
				</g>
			</g>
			<g>
				<g class="st12">
					<g>
						<path class="st13" d="M276.3,185.1c-3.8,4.7-7.7,6.1-11.4,6c-7.2-0.2-13-6.7-13-6.7c-4.9,4.8-9.2,6.7-12.8,6.9
							c-6,0.4-10-3.5-11.6-5.4c14.4,2.1,21.1-5.4,21.1-5.4l6.5-0.1C261.8,190,275.9,185.3,276.3,185.1z"/>
					</g>
				</g>
				<g>
					<g>
						<path class="st13" d="M265,191.1c-1,3.2-2.5,6.9-4.5,9.9c-2.2,3.3-5,5.8-8,5.8c-3.1,0.1-5.9-2.3-8.3-5.6
							c-2.1-3-3.9-6.7-4.9-9.9c3.6-0.2,7.9-2.1,12.8-6.9C252,184.5,257.8,190.8,265,191.1z"/>
					</g>
				</g>
				<g>
					<g>
						<path class="st18" d="M260.4,201c-2.2,3.3-5,5.8-8,5.8c-3.1,0.1-5.9-2.3-8.3-5.6c1.1-3.2,4.3-5.5,8-5.6
							C256,195.6,259.2,197.8,260.4,201z"/>
					</g>
					<g>
						<path class="st13" d="M251,206.9c-2.4-0.5-4.8-2.4-7.1-5.6l-0.1-0.1l0.1-0.1c1.2-3.4,4.5-5.7,8.3-5.8c3.8-0.1,7.2,2.1,8.5,5.5
							l0.1,0.1l-0.1,0.1c-2.6,3.9-5.4,5.9-8.2,6C252,207.1,251.4,207.1,251,206.9z M244.4,201.2c1.9,2.5,4.7,5.4,8,5.4
							c3.2-0.1,6-3.1,7.7-5.6c-1.3-3.1-4.4-5.1-7.9-5C248.7,196,245.6,198.1,244.4,201.2z"/>
					</g>
				</g>
				<g>
					<g>
						<g>
							<path class="st13" d="M244.8,174.3c1.4-2,12-2.5,13.8-0.2c1.9,2.3-3.2,8-6.8,8C248.4,182.1,243.2,176.4,244.8,174.3z"/>
						</g>
					</g>
					<g>
						<g>
							<path class="st13" d="M250.5,184.1c-3-0.6-6-3.4-7.4-6c-1.4-2.6-0.6-4.3-0.1-5.1l0,0c1.6-2.1,6.1-2.5,8.6-2.6
								c3.1-0.1,7,0.2,8.7,2.3c0.6,0.8,1.5,2.4,0.2,5.1c-1.4,3.1-5.3,6.4-8.7,6.5C251.4,184.2,251,184.2,250.5,184.1z M246.8,175.5
								c0.2,0.5,0.7,1.4,1.6,2.4c1.3,1.3,2.7,2,3.4,2c0.8,0,2.3-0.8,3.6-2.3c0.9-1,1.3-1.9,1.3-2.3
								C255.2,174.5,248.7,174.6,246.8,175.5z M257,175.4L257,175.4L257,175.4z"/>
						</g>
					</g>
					<g>
						<g>
							
								<ellipse transform="matrix(0.9998 -1.864735e-02 1.864735e-02 0.9998 -3.2018 4.7255)" class="st5" cx="251.8" cy="174.1" rx="5.7" ry="1.5"/>
						</g>
						<g>
							<path class="st13" d="M248,175.6c-1.3-0.3-2.1-0.8-2.1-1.4c0-0.6,0.6-1,1.9-1.4c1.1-0.3,2.5-0.5,4.1-0.5
								c1.6-0.1,3,0.1,4.1,0.4c1.3,0.3,1.9,0.8,1.9,1.3l0,0c0,1.2-3,1.9-6,1.9C250.5,175.9,249.1,175.8,248,175.6z M255.6,173.1
								c-1-0.2-2.4-0.3-3.8-0.3c-1.5,0-2.9,0.2-4,0.5c-1.2,0.3-1.4,0.7-1.4,0.8c0,0.4,1.9,1.2,5.5,1.2c3.6-0.1,5.4-0.9,5.4-1.3
								c0-0.1-0.3-0.5-1.5-0.8C255.7,173.2,255.6,173.2,255.6,173.1z"/>
						</g>
					</g>
				</g>
				<g>
					<g>
						<path class="st13" d="M235.3,193.1c-4.6-1-7.8-4.1-9.2-5.7c-0.1-0.1-0.1-0.1-0.1-0.1c-0.6-0.7-0.9-1.2-0.9-1.2
							c-0.6-0.9-0.3-2.2,0.6-2.8c0.9-0.6,2.2-0.3,2.8,0.6l0,0c0,0,0.2,0.3,0.5,0.7c0,0.1,0.1,0.1,0.1,0.1c1.3,1.5,4.8,5,9.9,4.7
							c3.6-0.2,7.5-2.4,11.5-6.3c0.4-0.4,0.9-0.6,1.4-0.6c0.5,0,1,0.2,1.4,0.6c0.1,0.1,5.3,5.8,11.5,6c3.5,0.1,6.8-1.6,9.7-5.2
							l0.1-0.1c0,0,0,0,0.1-0.1c0.2-0.3,0.5-0.6,0.7-0.9c0.6-0.9,1.9-1.1,2.8-0.5c0.9,0.6,1.1,1.9,0.5,2.8c-0.3,0.4-0.6,0.8-0.9,1.2
							c-0.1,0.1-0.1,0.1-0.1,0.1c-3.7,4.6-8,6.8-12.9,6.7c-5.7-0.2-10.6-3.8-12.9-5.8c-4.2,3.8-8.5,5.8-12.6,6.1
							C237.9,193.5,236.6,193.3,235.3,193.1z"/>
					</g>
				</g>
				<g>
					<g>
						<path class="st13" d="M250.6,208.7c-2.8-0.6-5.6-2.7-8.1-6.3c-2.1-2.9-4-6.7-5.2-10.4c-0.2-0.6-0.1-1.2,0.2-1.7
							c0.3-0.5,0.9-0.9,1.6-0.9c3.6-0.2,7.5-2.4,11.5-6.3c0.4-0.4,0.9-0.6,1.4-0.6c0.5,0,1,0.2,1.4,0.6c0.1,0.1,5.3,5.8,11.5,6
							c0.6,0,1.2,0.3,1.6,0.9c0.3,0.5,0.5,1.2,0.3,1.7c-1.1,3.8-2.9,7.6-4.8,10.4c-2.9,4.3-6.3,6.7-9.7,6.7
							C251.9,208.9,251.2,208.8,250.6,208.7z M241.9,193c1,2.6,2.4,5.1,3.8,7.1c2.3,3.1,4.6,4.8,6.6,4.7c2-0.1,4.2-1.8,6.4-5
							c1.3-2,2.5-4.5,3.5-7.1c-0.1,0-0.1,0-0.1,0c-4.5-1-8.2-3.8-10.2-5.5C248.6,190.3,245.3,192.2,241.9,193z"/>
					</g>
				</g>
			</g>
			<g>
				<g>
					<path class="st13" d="M291.5,153.5c-1.6,0.6-3.3,1.2-4.8,2c-1.6,0.8-3,1.6-4.3,2.6c-0.7,0.5-1.3,1-1.9,1.5l-0.9,0.9
						c-0.1,0.2-0.3,0.3-0.5,0.4l-0.4,0.5c-1.1,1.2-2,2.5-2.8,3.9l-2.8-2.8c0.1-0.1,0.2-0.1,0.3-0.2c0.1-0.1,0.2-0.1,0.3-0.1
						c0.2-0.1,0.4-0.2,0.6-0.2c0.4-0.1,0.8-0.2,1.2-0.3c0.8-0.2,1.5-0.4,2.3-0.5c1.6-0.2,3.1-0.3,4.7-0.1s3.1,0.5,4.5,1.1
						c1.4,0.5,2.7,1.3,3.9,2.3c0.3,0.2,0.4,0.7,0.2,1c-0.2,0.2-0.5,0.3-0.8,0.3h-0.1c-0.7-0.2-1.3-0.4-2-0.6c-0.6-0.2-1.3-0.3-2-0.4
						c-1.3-0.2-2.6-0.3-3.9-0.2c-1.3,0.1-2.5,0.2-3.8,0.6c-0.6,0.2-1.2,0.3-1.8,0.6c-0.3,0.1-0.6,0.2-0.9,0.3
						c-0.1,0.1-0.3,0.1-0.4,0.2c-0.1,0.1-0.1,0.1-0.2,0.1l-0.1,0.1l-0.1,0.1c-1,0.5-2.3,0.1-2.8-0.9c-0.3-0.6-0.3-1.3,0-2
						c0.9-1.7,2-3.5,3.4-4.9c0.6-0.8,1.4-1.4,2.2-2c0.8-0.6,1.6-1.2,2.5-1.7c1.7-1,3.5-1.7,5.4-2.2c1.9-0.5,3.8-0.7,5.7-0.5
						c0.4,0.1,0.7,0.4,0.6,0.8c0,0.3-0.2,0.5-0.5,0.6L291.5,153.5z"/>
				</g>
			</g>
			<g>
				<g>
					<g>
						
							<ellipse transform="matrix(6.246535e-02 -0.998 0.998 6.246535e-02 48.0927 371.7604)" class="st13" cx="221.9" cy="160.3" rx="12.8" ry="9"/>
					</g>
					<g>
						<path class="st13" d="M220.1,173.2c-4.6-1-7.9-6.8-7.4-13.5c0.5-7.2,5-12.8,10.1-12.5c2.5,0.2,4.7,1.7,6.3,4.3
							c1.6,2.5,2.3,5.9,2.1,9.3l0,0c-0.5,7.2-5,12.8-10.1,12.5C220.8,173.3,220.4,173.2,220.1,173.2z M223.6,147.9
							c-0.3-0.1-0.6-0.1-0.9-0.1c-4.8-0.3-9.1,5.1-9.6,12c-0.4,6.9,3.1,12.7,8,13.1c4.8,0.3,9.1-5.1,9.6-12l0,0c0.2-3.4-0.5-6.6-2-9
							C227.4,149.7,225.6,148.3,223.6,147.9z"/>
					</g>
				</g>
				<g>
					<g>
						
							<ellipse transform="matrix(6.246522e-02 -0.998 0.998 6.246522e-02 53.2264 371.5752)" class="st5" cx="224.4" cy="157.5" rx="4.3" ry="2.7"/>
					</g>
					<g>
						<path class="st13" d="M223.8,162c-1.5-0.3-2.5-2.3-2.4-4.7c0.1-1.2,0.5-2.3,1-3.1c0.6-0.9,1.4-1.3,2.2-1.2
							c0.8,0.1,1.6,0.6,2,1.5c0.5,0.9,0.7,2,0.6,3.2c-0.2,2.5-1.6,4.5-3.2,4.3C224,162,223.9,162,223.8,162z M224.9,153.4
							c-0.1,0-0.2,0-0.2-0.1c-0.6-0.1-1.3,0.3-1.8,1c-0.5,0.8-0.9,1.7-0.9,2.8c-0.1,2.2,0.9,4.1,2.2,4.2s2.6-1.7,2.7-3.9l0,0
							c0.1-1.1-0.1-2.1-0.6-3C225.9,154,225.4,153.6,224.9,153.4z"/>
					</g>
				</g>
			</g>
		</g>
		<g>
			<g>
				<path class="st19" d="M495.1,356.9C495.1,356.9,495.1,356.9,495.1,356.9c-20.6,24.1-121,42.3-241.7,42.3
					c-127.7,0-232.7-20.4-244.5-46.5c-3.6-5.9-3.6-25.5,0-31.4c-0.7,1.6-1.1,3.2-1.1,4.9c0,6.9,6.5,13.5,18.3,19.5
					c2.9,1.5,6.1,2.9,9.6,4.3c41,16.4,123.1,27.6,217.7,27.6c95,0,177.4-11.3,218.2-27.8c3.3-1.3,6.3-2.7,9.1-4.1
					c11.8-6,18.3-12.6,18.3-19.5c0-3.1-1.3-6.1-3.8-9.1C505.6,326.7,500.5,351.7,495.1,356.9z"/>
			</g>
			<g>
				<path class="st1" d="M253.4,399.6c-61.5,0-120.4-4.8-165.8-13.5c-45.2-8.7-73.3-20.5-79-33.3C5,346.9,5,327,8.6,321l0.7,0.4
					c-0.7,1.6-1.1,3.1-1.1,4.7c0,6.6,6.1,13,18.1,19.1c2.8,1.5,6.1,2.9,9.6,4.3c42.5,17,125.9,27.6,217.5,27.6
					c92.1,0,175.7-10.6,218.1-27.8c3.3-1.3,6.3-2.7,9-4.1c12-6.1,18.1-12.5,18.1-19.1c0-3-1.3-5.9-3.7-8.8l0.6-0.6
					c5,4.6,6.2,12.1,6.2,17.6c0.1,9.9-3.1,19.7-6.2,22.8l-0.1,0.2l-0.1,0C474,381.8,372.4,399.6,253.4,399.6z M7.5,327.1
					C6,335.3,6.6,348,9.3,352.5c5.7,12.6,33.5,24.2,78.5,32.8c45.3,8.7,104.1,13.5,165.6,13.5c119,0,220.5-17.7,241.4-42.1l0.2-0.2
					c3-3,6-12.5,5.9-22.1c0-3-0.4-6.6-1.6-9.9c0.1,0.6,0.1,1.2,0.1,1.7c0,6.9-6.2,13.6-18.5,19.9c-2.7,1.4-5.8,2.8-9.1,4.1
					C429.3,367.3,345.6,378,253.4,378c-91.7,0-175.2-10.6-217.8-27.6c-3.5-1.4-6.8-2.9-9.6-4.3C14.2,340.1,8,333.7,7.5,327.1z"/>
			</g>
		</g>
		<g class="st10">
			<path class="st5" d="M498.6,328.7c0.2,0.9,0.3,1.7,0.3,2.6c0,6.9-6.5,13.5-18.3,19.5c-2.7,1.4-5.8,2.8-9.1,4.1
				c-40.8,16.5-123.2,27.8-218.2,27.8c-94.6,0-176.7-11.2-217.7-27.6c-3.5-1.4-6.7-2.8-9.6-4.3c-11.8-6-18.3-12.6-18.3-19.5
				c0-0.9,0.1-1.7,0.3-2.6c1.4,6,7.7,11.7,18,16.9c2.9,1.5,6.1,2.9,9.6,4.3c41,16.4,123.1,27.6,217.7,27.6
				c95,0,177.4-11.3,218.2-27.8c3.3-1.3,6.3-2.7,9.1-4.1C491,340.4,497.2,334.7,498.6,328.7z"/>
		</g>
		<g class="st3">
			<g>
				<path class="st20" d="M8.9,321.4C8.9,321.4,8.8,321.4,8.9,321.4c0-0.1,0-0.1,0.1-0.2C8.9,321.3,8.9,321.4,8.9,321.4z"/>
			</g>
			<g>
				<polygon class="st1" points="9.1,322.1 8.4,321.6 8.4,321.3 8.6,321 9,321.3 9.1,321.1 9,321.3 9.3,321.4 9.3,321.5 				"/>
			</g>
		</g>
		<g class="st3">
			<path class="st1" d="M495.1,356.9C495.1,356.9,495.1,356.9,495.1,356.9c-20.6,24.1-121,42.3-241.7,42.3
				c-127.7,0-232.7-20.4-244.5-46.5c-2.2-3.7-3-12.7-2.5-20.4c0.3,4.6,1.2,8.8,2.5,11c11.8,26.1,116.7,46.5,244.5,46.5
				c120.7,0,221.1-18.2,241.7-42.3c0,0,0,0,0,0c2.6-2.5,5.1-9.4,5.8-17.1C502.2,341,498.7,353.4,495.1,356.9z"/>
		</g>
		<g>
			<path class="st21" d="M499.3,326.2c0,6.9-6.5,13.5-18.3,19.5c-2.7,1.4-5.8,2.8-9.1,4.1c-39.6,16-118.3,27.1-209.7,27.8
				c-2.8,0-5.7,0-8.5,0c-3,0-5.9,0-8.8,0c-90.8-0.7-169.1-11.7-208.9-27.6c-3.5-1.4-6.7-2.8-9.6-4.3c-11.8-6-18.3-12.6-18.3-19.5
				c0-1.6,1.1-4.9,1.1-4.9l105.3-59.1l10-5.6l3-1.7l6-3.4c0.5,0.2,1,0.4,1.5,0.7c19.3,8,65.1,13.7,118.6,13.7
				c56.2,0,104-6.3,121.3-15l1.5,0.8l4.8,2.6l1.3,0.7l11,6.1l101.7,56c0,0,0,0,0,0c0.7,0.8,1.4,1.7,1.9,2.6c0,0,0,0.1,0.1,0.1
				C498.6,321.8,499.3,324,499.3,326.2z"/>
			<path class="st1" d="M253.7,378c-3,0-5.9,0-8.8,0c-88-0.6-168.1-11.2-209-27.6c-3.5-1.4-6.8-2.9-9.6-4.3
				C14,339.8,7.8,333.1,7.8,326.2c0-1.7,1.1-4.9,1.1-5l0.1-0.2l0.1-0.1l124.6-70l0.2,0.1c0.5,0.2,1,0.4,1.5,0.6
				c19.9,8.3,66.4,13.7,118.4,13.7c54.7,0,103.4-6,121.2-14.9l0.2-0.1l18.8,10.4l101.7,56l0.1,0l0.1,0.1c0.7,0.9,1.4,1.7,1.9,2.6
				l0,0c0,0,0,0,0.1,0.1c1.3,2.2,2,4.4,2,6.7c0,6.9-6.2,13.6-18.5,19.9c-2.7,1.4-5.8,2.8-9.1,4.1c-40.8,16.5-121.2,27.2-209.8,27.8
				C259.4,378,256.6,378,253.7,378z M9.6,321.5c-0.2,0.7-1,3.2-1,4.6c0,6.6,6.1,13,18,19.1c2.8,1.4,6,2.9,9.6,4.3
				c40.9,16.3,120.8,26.9,208.7,27.5c5.8,0,11.6,0,17.3,0c88.5-0.6,168.8-11.3,209.5-27.8c3.3-1.3,6.3-2.7,9-4.1
				c12-6.1,18.1-12.5,18.1-19.1c0-2.1-0.6-4.2-1.8-6.2l-0.1-0.1c-0.5-0.8-1.1-1.6-1.8-2.5l-120.1-66.1
				c-18.1,8.9-66.7,14.9-121.3,14.9c-52.1,0-98.7-5.4-118.7-13.7c-0.5-0.2-0.9-0.4-1.3-0.6L9.6,321.5z"/>
		</g>
		<g class="st10">
			<path class="st5" d="M497.4,319.7C497.4,319.7,497.4,319.7,497.4,319.7c-0.1-0.2-0.2-0.3-0.2-0.4v0c-0.5-0.8-1-1.5-1.7-2.3
				c0,0,0,0,0,0L382.7,255l-6.1-3.4l-1.5-0.8c-17.4,8.7-65.1,15-121.3,15c-53.4,0-99.3-5.7-118.6-13.7c-0.5-0.2-1-0.4-1.5-0.7
				l-9.1,5.1L11,320.3l-1.7,0.9c0,0-1.1,3.2-1.1,4.9c0,0.2,0,0.5,0,0.7c0,0.2,0,0.4,0.1,0.6c0,0.2,0.1,0.4,0.1,0.6
				c0,0.2,0.1,0.5,0.2,0.7c0.1,0.4,0.2,0.7,0.3,1.1c1.9,5.5,8,10.8,17.6,15.8c2.9,1.5,6.1,2.9,9.6,4.3
				c39.7,15.9,118,26.9,208.9,27.6c2.9,0,5.9,0,8.8,0c2.9,0,5.7,0,8.5,0c91.4-0.7,170.1-11.8,209.7-27.8c3.3-1.3,6.3-2.7,9.1-4.1
				c9.7-5,15.9-10.3,17.7-15.9c0.1-0.1,0.1-0.3,0.1-0.4c0.1-0.2,0.1-0.4,0.2-0.7c0-0.2,0.1-0.3,0.1-0.5c0,0,0-0.1,0-0.1
				c0-0.2,0.1-0.4,0.1-0.6c0-0.2,0.1-0.5,0.1-0.7c0-0.2,0-0.4,0-0.6C499.3,324,498.6,321.8,497.4,319.7z M481,332
				c-2.7,1.4-5.8,2.8-9.1,4.1c-39.6,16-118.3,27.1-209.7,27.8c-2.8,0-5.7,0-8.5,0c-3,0-5.9,0-8.8,0c-90.8-0.7-169.1-11.7-208.9-27.6
				c-3.5-1.4-6.7-2.8-9.6-4.3c0,0-0.1,0-0.1-0.1c-5.2-2.7-5.3-10.1-0.2-13l98.5-55.3l9.1-5.1c0.5,0.2,1,0.4,1.5,0.7
				c19.3,8,65.1,13.7,118.6,13.7c56.2,0,104-6.3,121.3-15l1.5,0.8l6.1,3.4l100.9,55.6c5.1,2.8,5.1,10.1,0.1,12.9
				C482.9,331.1,481.9,331.6,481,332z"/>
		</g>
		<g>
			<path class="st1" d="M253.4,401.7c-61.7,0-120.7-4.8-166.2-13.5C54.8,382,14.6,371,6.7,353.8c-4-6.8-3.9-27.3,0.1-33.9l4.5,2.4
				c-0.6,1.3-0.9,2.6-0.9,3.8c0,5.6,5.8,11.6,16.9,17.2c2.8,1.4,5.9,2.8,9.4,4.2C79,364.5,162,375,253.4,375
				c91.9,0,175.1-10.6,217.3-27.6c3.2-1.3,6.2-2.6,8.9-4c11.1-5.6,16.9-11.6,16.9-17.2c0-2.4-1.1-4.9-3.2-7.5l3.6-3.5
				c5.6,5.1,6.8,13.2,6.9,19.1c0.1,9.5-2.7,19.9-6.5,24l-0.5,1l-0.4,0C473.2,384,371.8,401.7,253.4,401.7z M8.8,335.7
				c-0.1,6.3,0.7,12.9,2.3,15.7l0.1,0.3c10,22.1,103.3,45,242.1,45c57.8,0,113.9-4.3,158-12.1c42.9-7.6,71.8-17.9,81.6-29.1l0-0.1
				l0.2-0.2l0.7-0.8c2.2-3,4.8-11.1,4.7-19.6c-3.1,4.6-8.7,9-16.9,13.2c-2.8,1.4-5.9,2.8-9.3,4.2c-42.7,17.3-126.7,28-219.2,28
				c-92,0-175.8-10.6-218.6-27.8c-3.6-1.4-6.9-2.9-9.8-4.4C17.4,344,12,340,8.8,335.7z"/>
		</g>
		<g>
			<path class="st1" d="M253.7,380.1c-3,0-5.9,0-8.8,0c-88.2-0.7-168.6-11.3-209.8-27.7c-3.6-1.4-6.9-2.9-9.8-4.4
				c-13-6.7-19.7-14-19.7-21.7c0-2,1-5.1,1.2-5.7l0.3-0.9l0.8-0.5l125.5-70.5l1.2,0.5c0.5,0.2,0.9,0.4,1.4,0.6
				c19.7,8.2,65.8,13.5,117.6,13.5c54.4,0,102.7-5.9,120.2-14.7l1.2-0.6l8.8,4.8l112.5,61.9l0.8,0.2l0.4,0.7
				c0.7,0.8,1.3,1.7,1.9,2.6c0,0.1,0.1,0.1,0.1,0.2c1.5,2.5,2.3,5.1,2.3,7.8c0,7.8-6.6,15.1-19.7,21.7c-2.8,1.4-5.9,2.8-9.3,4.2
				c-41.1,16.6-121.8,27.3-210.6,28C259.4,380.1,256.6,380.1,253.7,380.1z M11.4,323c-0.3,1.1-0.7,2.5-0.7,3.2
				c0,5.6,5.8,11.6,16.9,17.2c2.8,1.4,5.9,2.8,9.4,4.2c40.6,16.2,120.3,26.7,207.9,27.4c5.7,0,11.6,0,17.3,0
				c88.3-0.6,168.2-11.2,208.8-27.6c3.2-1.3,6.2-2.6,8.9-4c11.1-5.6,16.9-11.6,16.9-17.2c0-1.7-0.5-3.4-1.5-5.1l-0.1-0.2
				c-0.4-0.6-0.8-1.3-1.3-1.9L375,253.6c-19.1,8.8-67.4,14.7-121.3,14.7c-52.4,0-99.3-5.5-119.5-13.9c-0.1-0.1-0.3-0.1-0.4-0.2
				L11.4,323z"/>
		</g>
		<g class="st3">
			<path class="st1" d="M393.7,261c-7.7,13.4-41.3,31.8-139.9,31.8s-128.9-17.4-139.2-30.7l10-5.6l3-1.7c23,8,70.9,13.5,126.1,13.5
				c56.5,0,105.2-5.8,127.6-14.1l1.3,0.7L393.7,261z"/>
		</g>
		<g>
			<path class="st22" d="M382.7,255c-0.3,2.8-0.6,5-0.6,5.6c0,12.3-57.5,22.2-128.3,22.2c-70.9,0-128.3-10-128.3-22.2
				c0-0.6-0.4-2.1-0.8-4.1c-0.7-3.8-1.4-9.4,1.1-14.5c-0.2,0.5-0.3,1-0.3,1.5c0,2.3,2,4.5,5.8,6.6c0.7,0.4,1.6,0.8,2.5,1.2
				c0.5,0.2,1,0.4,1.5,0.7c19.3,8,65.1,13.7,118.6,13.7c56.2,0,104-6.3,121.3-15c4.5-2.3,7-4.7,7-7.3c0-0.8-0.2-1.5-0.6-2.2
				C383.4,244,383.2,250.3,382.7,255z"/>
			<path class="st1" d="M253.7,283.2c-72.2,0-128.7-10-128.7-22.7c0-0.3-0.2-1-0.3-1.9c-0.1-0.6-0.3-1.3-0.4-2.1
				c-1.2-6-0.8-10.8,1.1-14.7l0.8,0.3c-0.2,0.4-0.3,0.9-0.3,1.3c0,2.1,1.9,4.2,5.6,6.3c0.7,0.4,1.6,0.8,2.4,1.2
				c0.5,0.2,1,0.4,1.5,0.6c19.9,8.3,66.4,13.7,118.4,13.7c54.7,0,103.4-6,121.2-14.9c4.5-2.2,6.8-4.6,6.8-6.9c0-0.7-0.2-1.4-0.6-2
				l0.7-0.5c1.6,2.2,2,6.8,1.3,14c-0.1,1.4-0.3,2.7-0.4,3.7c-0.1,0.9-0.2,1.6-0.2,1.8C382.5,273.3,325.9,283.2,253.7,283.2z
				 M125.1,244.6c-1,3.3-1,7.2-0.1,11.8c0.2,0.8,0.3,1.5,0.4,2.1c0.2,1,0.4,1.7,0.4,2.1c0,5.6,13.6,11.2,37.2,15.3
				c24.2,4.2,56.4,6.5,90.7,6.5c34.3,0,66.5-2.3,90.7-6.5c23.7-4.1,37.2-9.7,37.2-15.3c0-0.3,0.1-1,0.2-1.9c0.1-1,0.3-2.3,0.4-3.7
				l0,0c0.4-4.3,0.4-7.7,0-10.1c-0.7,2.2-3,4.3-7,6.3c-17.9,9-66.7,15-121.5,15c-52.1,0-98.7-5.4-118.7-13.7c-0.5-0.2-1-0.4-1.5-0.7
				c-0.9-0.4-1.7-0.8-2.5-1.3C127.6,248.6,125.7,246.7,125.1,244.6z"/>
		</g>
		<g class="st10">
			<path class="st5" d="M382.9,251.9c-0.2-2.2-0.6-4.2-1.5-5.4c0.4,0.7,0.6,1.5,0.6,2.2c0,2.5-2.5,5-7,7.3
				c-17.4,8.7-65.1,15-121.3,15c-53.4,0-99.3-5.7-118.6-13.7c-0.5-0.2-1-0.4-1.5-0.7c-0.9-0.4-1.7-0.8-2.5-1.2
				c-3.8-2.1-5.8-4.3-5.8-6.6c0-0.5,0.1-1,0.3-1.5c-0.9,1.9-1.4,3.8-1.6,5.7c-0.3-3.3-0.2-7.3,1.6-10.9c-0.2,0.5-0.3,1-0.3,1.5
				c0,2.3,2,4.5,5.8,6.6c0.7,0.4,1.6,0.8,2.5,1.2c0.5,0.2,1,0.4,1.5,0.7c19.3,8,65.1,13.7,118.6,13.7c56.2,0,104-6.3,121.3-15
				c4.5-2.3,7-4.7,7-7.3c0-0.8-0.2-1.5-0.6-2.2C383,243.4,383.2,247.8,382.9,251.9z"/>
		</g>
		<g class="st3">
			<path class="st1" d="M382.7,255c-0.3,2.8-0.6,5-0.6,5.6c0,12.3-57.5,22.2-128.3,22.2c-70.9,0-128.3-10-128.3-22.2
				c0-0.6-0.4-2.1-0.8-4.1c-0.5-2.7-1-6.3-0.3-10c0.1,0.7,0.2,1.4,0.3,2c0.4,2,0.8,3.5,0.8,4.1c0,12.3,57.5,22.2,128.3,22.2
				c70.9,0,128.3-10,128.3-22.2c0-0.6,0.3-2.8,0.6-5.6c0-0.4,0.1-0.9,0.1-1.4C383.2,248.5,383,252,382.7,255z"/>
		</g>
		<g>
			<path class="st1" d="M253.7,285.3c-52.6,0-130.9-6.6-130.9-24.8c0-0.2-0.2-0.9-0.3-1.4c-0.1-0.6-0.3-1.3-0.5-2.1
				c-1.3-6.4-0.8-11.7,1.3-16l4.6,2c-0.1,0.2-0.1,0.4-0.1,0.6c0,1.2,1.7,2.9,4.5,4.4c0.7,0.4,1.5,0.8,2.3,1.2
				c0.5,0.2,0.9,0.4,1.4,0.6c19.7,8.2,65.8,13.5,117.6,13.5c54.4,0,102.7-5.9,120.2-14.7c5.2-2.6,5.6-4.5,5.6-5c0-0.3-0.1-0.6-0.3-1
				l4.2-2.7c1.9,2.7,2.5,7.6,1.7,15.4l0,0c-0.1,1.5-0.3,2.8-0.4,3.8c-0.1,0.7-0.2,1.4-0.2,1.6C384.6,278.7,306.4,285.3,253.7,285.3z
				 M126.5,250c0,1.8,0.2,3.8,0.6,6c0.1,0.8,0.3,1.4,0.4,2c0.3,1.1,0.4,1.9,0.4,2.5c0,2.6,7.5,8.4,35.5,13.2
				c24.1,4.2,56.2,6.5,90.3,6.5c34.1,0,66.2-2.3,90.3-6.5c28-4.9,35.5-10.6,35.5-13.2c0-0.4,0.1-1,0.2-2.2c0.1-1,0.3-2.2,0.4-3.6
				l0,0c0.2-1.6,0.2-3,0.3-4.3c-1.2,0.9-2.6,1.8-4.3,2.6c-18.2,9.1-67.4,15.2-122.5,15.2c-52.4,0-99.3-5.5-119.5-13.9
				c-0.5-0.2-1.1-0.5-1.6-0.7c-0.9-0.4-1.8-0.9-2.7-1.3C128.6,251.6,127.5,250.8,126.5,250z"/>
		</g>
		<g class="st23">
			<path class="st5" d="M165,116.4c-15.3-1.8-32,28.1-34.5,46c-2.6,18.6-1.1,30.2,7.9,31.6c12.5,2,19.1-11.8,22.3-28.9
				C163,153.1,183.9,118.6,165,116.4z"/>
		</g>
		<g class="st23">
			<path class="st5" d="M205.7,76.4c-13.1-2.6-29.4,9.7-32.7,17.9c-3.4,8.5-2.8,14.2,4.9,15.9c10.7,2.3,17.3-3.5,21.1-11.2
				C201.7,93.5,221.9,79.5,205.7,76.4z"/>
		</g>
		<g>
			<g>
				<path class="st6" d="M276.7,321.1c3,14.6-6.5,29.6-22,29.6c-15.5,0-25-15.1-22-29.6c2.4-11.4,12-19,22-19
					S274.4,309.6,276.7,321.1z"/>
			</g>
			<g>
				<path class="st1" d="M254.7,351.1c-6.8,0-13-2.9-17.3-8.2c-4.8-5.9-6.7-14.1-5.1-21.9c2.3-11.2,11.8-19.4,22.4-19.4
					c10.7,0,20.1,8.1,22.4,19.4c1.6,7.8-0.3,16-5.1,21.9C267.7,348.2,261.6,351.1,254.7,351.1z M254.7,302.5
					c-10.3,0-19.3,7.9-21.6,18.7c-1.6,7.6,0.3,15.5,5,21.2c4.1,5.1,10.1,7.9,16.6,7.9c6.6,0,12.5-2.8,16.6-7.9
					c4.7-5.7,6.5-13.7,5-21.2C274.1,310.3,265,302.5,254.7,302.5z"/>
			</g>
		</g>
		<g class="st3">
			<path class="st1" d="M254.7,350.7c-15.2,0-24.6-14.5-22.2-28.7c1.8,10.8,10.2,19.7,22.2,19.7c12,0,20.3-9,22.2-19.7
				C279.3,336.3,269.9,350.7,254.7,350.7z"/>
		</g>
		<g class="st7">
			<path class="st5" d="M277.1,329.7c-0.1-0.7-0.2-1.4-0.4-2.1c-2.4-11.4-12-19-22-19s-19.6,7.6-22,19c-0.1,0.7-0.3,1.4-0.4,2.1
				c-0.4-2.8-0.2-5.8,0.4-8.7c2.4-11.4,12-19,22-19s19.6,7.6,22,19C277.3,324,277.4,326.9,277.1,329.7z"/>
		</g>
		<g>
			<path class="st1" d="M254.7,353.2c-7.5,0-14.2-3.2-18.9-9c-5.2-6.4-7.3-15.3-5.6-23.7c2.5-12.2,12.8-21,24.5-21
				c11.7,0,22,8.8,24.5,21l0,0c1.7,8.4-0.3,17.3-5.6,23.7C268.9,350,262.2,353.2,254.7,353.2z M254.7,304.6c-9.3,0-17.5,7.2-19.5,17
				c-1.4,7,0.3,14.2,4.5,19.5c3.7,4.6,9.1,7.1,15,7.1c5.9,0,11.3-2.5,15-7.1c4.3-5.2,6-12.5,4.5-19.5v0
				C272.2,311.7,264,304.6,254.7,304.6z"/>
		</g>
		<g>
			<g>
				<g>
					<path class="st24" d="M421.2,292.5c14.7,6.6,24.4,22,17.6,32.6c-6.8,10.6-24.9,8.1-37-2.6c-9.5-8.4-12.2-19.5-7.8-26.3
						C398.4,289.4,409.6,287.3,421.2,292.5z"/>
				</g>
				<g>
					<path class="st1" d="M424.7,332.3c-7.7,0-16.4-3.6-23.2-9.5c-9.3-8.3-12.6-19.5-7.9-26.8c4.7-7.3,16.4-8.9,27.7-3.8
						c9.3,4.2,16.9,12.1,19.3,20.1c1.4,4.8,0.9,9.4-1.5,13.1c-2.4,3.7-6.3,6.1-11.3,6.8C426.8,332.2,425.8,332.3,424.7,332.3z
						 M408.3,290c-6.1,0-11.3,2.2-14,6.4c-4.5,7-1.2,17.8,7.7,25.8c7.5,6.6,17.5,10.2,25.6,9.1c4.7-0.6,8.5-2.9,10.7-6.4
						c2.3-3.5,2.8-7.8,1.4-12.4c-2.3-7.8-9.7-15.5-18.8-19.6l0,0C416.7,290.9,412.3,290,408.3,290z"/>
				</g>
			</g>
			<g>
				<path class="st1" d="M424.8,334.4c-8.2,0-17.5-3.7-24.6-10.1c-10.1-8.9-13.6-21.4-8.3-29.6c5.3-8.2,18.1-10.1,30.4-4.6h0
					c9.9,4.4,17.9,12.8,20.5,21.4c1.6,5.4,1,10.6-1.8,14.9c-2.8,4.3-7.2,7-12.8,7.7C427,334.3,425.9,334.4,424.8,334.4z
					 M408.4,292.1c-5.4,0-10,1.9-12.3,5.4c-3.9,6-0.7,15.9,7.4,23c7,6.2,16.4,9.6,23.9,8.6c2.9-0.4,6.8-1.7,9.3-5.5
					c2.5-3.8,2-7.9,1.2-10.7c-2.1-7.2-9.1-14.4-17.7-18.3h0C416.2,293,412.1,292.1,408.4,292.1z"/>
			</g>
		</g>
		<g>
			<g>
				<path class="st6" d="M421.2,292.5c14.7,6.6,24.4,22,17.6,32.6c-6.8,10.6-24.9,8.1-37-2.6c-9.5-8.4-12.2-19.5-7.8-26.3
					C398.4,289.4,409.6,287.3,421.2,292.5z"/>
			</g>
			<g>
				<path class="st1" d="M424.7,332.3c-7.7,0-16.4-3.6-23.2-9.5c-9.3-8.3-12.6-19.5-7.9-26.8c4.7-7.3,16.4-8.9,27.7-3.8
					c9.3,4.2,16.9,12.1,19.3,20.1c1.4,4.8,0.9,9.4-1.5,13.1c-2.4,3.7-6.3,6.1-11.3,6.8C426.8,332.2,425.8,332.3,424.7,332.3z
					 M408.3,290c-6.1,0-11.3,2.2-14,6.4c-4.5,7-1.2,17.8,7.7,25.8c7.5,6.6,17.5,10.2,25.6,9.1c4.7-0.6,8.5-2.9,10.7-6.4
					c2.3-3.5,2.8-7.8,1.4-12.4c-2.3-7.8-9.7-15.5-18.8-19.6l0,0C416.7,290.9,412.3,290,408.3,290z"/>
			</g>
		</g>
		<g class="st7">
			<path class="st5" d="M440.8,314.5c-3.2-6.7-9.7-12.9-17.8-16.6c-11.6-5.2-22.8-3.1-27.2,3.7c-1.9,2.9-2.5,6.7-1.7,10.6
				c-2.8-5.9-2.8-11.9-0.1-16.1c4.4-6.8,15.6-8.9,27.2-3.7C431.5,297.1,439.3,306,440.8,314.5z"/>
		</g>
		<g class="st3">
			<path class="st1" d="M438.8,325.1c-6.8,10.6-24.9,8.1-37-2.6c-5.5-4.9-8.7-10.6-9.6-15.9c1.5,2.3,3.4,4.5,5.8,6.6
				c12.1,10.7,30.1,13.2,37,2.6c2-3.1,2.6-6.6,2-10.2C441.3,312,442.6,319.3,438.8,325.1z"/>
		</g>
		<g>
			<path class="st1" d="M424.8,334.4c-8.2,0-17.5-3.7-24.6-10.1c-10.1-8.9-13.6-21.4-8.3-29.6c5.3-8.2,18.1-10.1,30.4-4.6h0
				c9.9,4.4,17.9,12.8,20.5,21.4c1.6,5.4,1,10.6-1.8,14.9c-2.8,4.3-7.2,7-12.8,7.7C427,334.3,425.9,334.4,424.8,334.4z M408.4,292.1
				c-5.4,0-10,1.9-12.3,5.4c-3.9,6-0.7,15.9,7.4,23c7,6.2,16.4,9.6,23.9,8.6c2.9-0.4,6.8-1.7,9.3-5.5c2.5-3.8,2-7.9,1.2-10.7
				c-2.1-7.2-9.1-14.4-17.7-18.3h0C416.2,293,412.1,292.1,408.4,292.1z"/>
		</g>
		<g>
			<g>
				<path class="st6" d="M88.6,292.5c-14.7,6.6-24.4,22-17.6,32.6s24.9,8.1,37-2.6c9.5-8.4,12.2-19.5,7.8-26.3
					C111.4,289.4,100.2,287.3,88.6,292.5z"/>
			</g>
			<g>
				<path class="st1" d="M85.1,332.3c-1.1,0-2.1-0.1-3.1-0.2c-5-0.7-8.9-3-11.3-6.8c-2.4-3.7-2.9-8.3-1.5-13.1
					c2.4-8,10-15.9,19.3-20.1l0,0c11.3-5.1,23-3.5,27.7,3.8c4.7,7.3,1.4,18.6-7.9,26.8C101.5,328.7,92.8,332.3,85.1,332.3z
					 M101.5,290c-4,0-8.4,0.9-12.7,2.9l0,0c-9.1,4.1-16.5,11.8-18.8,19.6c-1.4,4.6-0.9,8.9,1.4,12.4c2.3,3.5,6,5.8,10.7,6.4
					c8.1,1.1,18.1-2.5,25.6-9.1c9-8,12.2-18.8,7.7-25.8C112.7,292.2,107.6,290,101.5,290z"/>
			</g>
		</g>
		<g class="st7">
			<path class="st5" d="M69,314.5c3.2-6.7,9.7-12.9,17.8-16.6c11.6-5.2,22.8-3.1,27.2,3.7c1.9,2.9,2.5,6.7,1.7,10.6
				c2.8-5.9,2.8-11.9,0.1-16.1c-4.4-6.8-15.6-8.9-27.2-3.7C78.4,297.1,70.5,306,69,314.5z"/>
		</g>
		<g class="st3">
			<path class="st1" d="M71,325.1c6.8,10.6,24.9,8.1,37-2.6c5.5-4.9,8.7-10.6,9.6-15.9c-1.5,2.3-3.4,4.5-5.8,6.6
				c-12.1,10.7-30.1,13.2-37,2.6c-2-3.1-2.6-6.6-2-10.2C68.5,312,67.3,319.3,71,325.1z"/>
		</g>
		<g>
			<path class="st1" d="M85.1,334.4c-1.1,0-2.3-0.1-3.3-0.2c-5.6-0.8-10.1-3.4-12.8-7.7c-2.8-4.3-3.4-9.4-1.8-14.9
				c2.5-8.6,10.6-17,20.5-21.4c12.3-5.5,25.1-3.6,30.4,4.6c5.3,8.2,1.8,20.6-8.3,29.6C102.6,330.7,93.2,334.4,85.1,334.4z
				 M101.4,292.1c-3.7,0-7.8,0.9-11.8,2.7h0c-8.6,3.9-15.5,11-17.7,18.3c-0.8,2.8-1.3,6.9,1.2,10.7c2.5,3.8,6.4,5.1,9.3,5.5
				c7.5,1,16.9-2.4,23.9-8.6c8.1-7.2,11.2-17.1,7.4-23C111.4,294,106.8,292.1,101.4,292.1z M88.6,292.5L88.6,292.5L88.6,292.5z"/>
		</g>
		<g class="st3">
			<g>
				<path class="st5" d="M176.1,292.6c0.1,1.6,0,3.1-0.1,4.6c-0.1,1.5-0.3,2.9-0.5,4.4c-0.4,2.9-1.1,5.6-1.8,8.3
					c-1.5,5.4-3.6,10.6-6,15.5c-2.5,4.9-5.3,9.7-8.6,14.2c-1.7,2.3-3.5,4.5-5.4,6.6c-2,2.1-4.1,4.2-6.6,6l-1.4-0.7
					c-0.1-3.1,0.3-6,0.7-8.9c0.5-2.8,1.1-5.6,1.8-8.3c1.5-5.4,3.5-10.6,5.9-15.6c2.4-5,5.2-9.8,8.5-14.3c1.7-2.3,3.5-4.5,5.4-6.6
					c1-1,2-2.1,3.1-3.1c1.1-1,2.2-2,3.6-2.9L176.1,292.6z"/>
			</g>
		</g>
		<g class="st3">
			<g>
				<path class="st5" d="M334.3,291.9c1.3,0.9,2.4,1.9,3.5,2.9c1.1,1,2.1,2,3.1,3.1c2,2.1,3.8,4.3,5.4,6.6c3.3,4.5,6.1,9.3,8.6,14.3
					c2.4,5,4.4,10.1,6,15.6c0.8,2.7,1.4,5.5,1.8,8.3c0.2,1.4,0.4,2.9,0.5,4.4c0.1,1.5,0.2,3,0.1,4.6l-1.4,0.7
					c-1.3-0.9-2.4-1.9-3.5-2.9c-1.1-1-2.1-2-3.1-3.1c-2-2.1-3.8-4.3-5.4-6.6c-3.3-4.5-6.1-9.3-8.6-14.3c-2.4-5-4.5-10.1-6-15.5
					c-0.8-2.7-1.4-5.5-1.8-8.3c-0.2-1.4-0.4-2.9-0.5-4.4c-0.1-1.5-0.2-3-0.1-4.6L334.3,291.9z"/>
			</g>
		</g>
	</g>
</g>
</svg>
