<?xml version="1.0" encoding="utf-8"?>
<!-- Generator: Adobe Illustrator 23.0.5, SVG Export Plug-In . SVG Version: 6.00 Build 0)  -->
<svg version="1.1" id="Layer_1" xmlns="http://www.w3.org/2000/svg" xmlns:xlink="http://www.w3.org/1999/xlink" x="0px" y="0px"
	 viewBox="0 0 512 512" style="enable-background:new 0 0 512 512;" xml:space="preserve">
<style type="text/css">
	.st0{fill:#00A4FF;}
	.st1{opacity:0.3;}
	.st2{fill:#000072;}
	.st3{fill:#37CEF7;}
	.st4{fill:#F962BB;}
	.st5{fill:#FFB531;}
	.st6{fill:#390176;}
	.st7{fill:#FFFFFF;}
	.st8{fill:#FE6DCB;}
	.st9{fill:#FFC2DE;}
	.st10{fill:#390075;}
	.st11{fill:#33AEF1;}
	.st12{opacity:0.6;}
	.st13{fill:#FDD800;}
	.st14{fill:#B177EA;}
	.st15{opacity:0.7;}
</style>
<g>
	<g>
		<g>
			<path class="st0" d="M451,417.7c0,0-26.7,58.3-159.6,15.1c0,0-45.7-154.7,40.1-178.1c0,0,23.8-3.3,44.7,36.8
				c20.2,38.7,9.9,26.2,31.3,69.6c0.7,1.5,1.5,3.1,2.3,4.7c0,0,2.7,6.4,7.4,14.9c2.3,4.1,5.2,8.7,8.5,13.3
				c6.4,8.9,14.5,17.8,23.8,22.8C450.1,417.2,450.5,417.4,451,417.7z"/>
		</g>
		<g class="st1">
			<path class="st2" d="M451,417.7c0,0-26.7,58.3-159.6,15.1c0,0-45.7-154.7,40.1-178.1c0,0,23.8-3.3,44.7,36.8
				c20.2,38.7,9.9,26.2,31.3,69.6c-1.5,1.3-2.3,2-2.3,2s-20.8-20.7-33.5-46.8c-12-24.6-41.1-34.8-56.9,6.5c-2.5,6.6-2.1,14,1.5,20
				c1.1,1.9,2.6,3.8,4.4,5.3c2.1,1.7,4.2,4.5,6.2,7.5c9.8,15.2,24.7,26.3,42.3,30.4c14.7,3.4,32.1,3.8,48.2-5.2
				c4.5-2.5,8.8-5.7,13-9.8c39.1-38.2,0,19.2,0,19.2s-1.6,1.6-4.5,3.9c-10.7,8.4-39.2,25.8-72.2,6c-2.2-1.3-5-1.8-7.4-0.9
				c-3.2,1.1-6.1,4.2-2.4,12.6c5.8,13.4,53.2,43.5,105.9,5.2C450.1,417.2,450.5,417.4,451,417.7z"/>
		</g>
		<g class="st1">
			<g>
				<path class="st2" d="M402.9,430c-2.4-1.5-4.6-3.4-6.6-5.3c-2.1-2-4-4-5.9-6.2c-3.7-4.4-7-9-10.1-13.9c-3-4.9-5.8-9.9-8.3-15
					c-0.6-1.3-1.3-2.6-1.9-3.9c-0.6-1.3-1.2-2.6-1.8-3.9c-0.6-1.3-1.2-2.6-1.7-4c-0.6-1.3-1.1-2.6-1.6-4c-0.5-1.4-0.8-2.8-1.2-4.1
					l-1.2-4c-0.8-2.7-1.6-5.4-2.5-8c-1.7-5.4-3.6-10.7-5.4-16c-1.9-5.3-3.8-10.6-5.9-15.9c-2-5.3-4.1-10.5-6.3-15.8
					c5.7,9.8,10.9,19.9,15.8,30.1c2.4,5.1,4.8,10.3,7,15.6c1.1,2.6,2.2,5.3,3.3,7.9l1.6,4c0.5,1.3,1,2.6,1.5,3.9
					c3.2,10.7,6.8,21.3,11.8,31.3c2.5,5,5.2,9.9,8.4,14.5c1.6,2.3,3.2,4.6,5,6.7C398.7,426.1,400.6,428.2,402.9,430z"/>
			</g>
		</g>
		<g class="st1">
			<g>
				<path class="st2" d="M352.4,431c-2.4-1.5-4.6-3.4-6.6-5.3c-2.1-2-4-4-5.9-6.2c-3.7-4.4-7-9-10.1-13.9c-3-4.9-5.8-9.9-8.3-15
					c-0.6-1.3-1.3-2.6-1.9-3.9c-0.6-1.3-1.2-2.6-1.8-3.9c-0.6-1.3-1.2-2.6-1.7-4c-0.6-1.3-1.1-2.6-1.6-4c-0.5-1.4-0.8-2.8-1.2-4.1
					l-1.2-4c-0.8-2.7-1.6-5.4-2.5-8c-1.7-5.4-3.6-10.7-5.4-16c-1.9-5.3-3.8-10.6-5.9-15.9c-2-5.3-4.1-10.5-6.3-15.8
					c5.7,9.8,10.9,19.9,15.8,30.1c2.4,5.1,4.8,10.3,7,15.6c1.1,2.6,2.2,5.3,3.3,7.9l1.6,4c0.5,1.3,1,2.6,1.5,3.9
					c3.2,10.7,6.8,21.3,11.8,31.3c2.5,5,5.2,9.9,8.4,14.5c1.6,2.3,3.2,4.6,5,6.7C348.3,427.2,350.2,429.3,352.4,431z"/>
			</g>
		</g>
		<g>
			<path class="st2" d="M377.4,451.5c-24.7,0-53.8-5.4-86.8-16.1c-0.9-0.3-1.5-1-1.8-1.8c-0.1-0.2-7.1-24.4-10.5-54.6
				c-4.5-40.8-0.6-72.8,11.8-95c9.1-16.3,22.8-27.1,40.6-31.9c0.1,0,0.2-0.1,0.3-0.1c1-0.1,25.9-3.1,47.5,38.2
				c10.4,20,12.8,26.5,15.6,33.9c2.7,7.4,5.8,15.9,18.1,40.5c0,0.1,0.1,0.1,0.1,0.2c0.2,0.4,16.2,38.8,39.9,50.4
				c1.3,0.6,1.9,2.2,1.3,3.6c-0.3,0.6-7.4,15.7-31.5,25.1C409.2,449,394.3,451.5,377.4,451.5z M293.6,430.7
				c66.6,21.4,105.2,16.4,125.9,8.4c16.9-6.5,24.9-16.1,27.7-20.4c-23.7-13.6-38.8-49.2-39.9-51.8c-12.4-24.8-15.5-33.4-18.3-40.9
				c-2.7-7.3-5-13.6-15.3-33.3c-18.8-36-39.9-35.5-41.8-35.3c-16.3,4.5-28.8,14.3-37.1,29.3C268.5,334,290.4,418.9,293.6,430.7z"/>
		</g>
	</g>
	<g>
		<g>
			<path class="st0" d="M342.6,268.8c0,0,15.3,3.1,31.6,37.6c16.3,34.5,35.6,59.4,35.6,59.4s-20.3-53-26.3-75.5
				C377.6,267.8,355.2,239,342.6,268.8z"/>
		</g>
		<g>
			<path class="st2" d="M409.8,368.5c-0.8,0-1.6-0.4-2.1-1.1c-0.2-0.3-19.6-25.6-35.9-59.9c-15.3-32.4-29.6-36.1-29.7-36.1
				c-0.8-0.2-1.5-0.7-1.8-1.4c-0.4-0.7-0.4-1.6-0.1-2.3c5.3-12.5,12.1-14.8,17-14.4c12.2,0.9,24.6,19.5,29.1,36.3
				c5.9,22.1,26,74.7,26.2,75.2c0.5,1.3,0,2.7-1.2,3.3C410.7,368.4,410.3,368.5,409.8,368.5z M346.3,267.3
				c5.6,2.7,17.9,11.3,30.4,37.9c7.7,16.4,16.2,30.6,22.9,41c-6.4-17.4-15.1-41.7-18.7-55.3c-3.9-14.7-15.1-31.6-24.2-32.2
				C352.8,258.5,349.3,261.4,346.3,267.3z"/>
		</g>
	</g>
	<g>
		<g>
			<path class="st0" d="M181.6,430.2c-90.1,36.6-96.2,3.5-96.5,0.3c0,0,0-0.1,0-0.1c0-0.1,0-0.1,0-0.1
				c23.6-29.5,30.4-56.2,32.3-71.2c1-8,0.6-12.7,0.6-12.7l21.3-12.9l28.3-17.1c0,0,17.3,12,32.1,28.9
				C221.9,370.7,238.4,407.1,181.6,430.2z"/>
		</g>
		<g class="st1">
			<path class="st2" d="M181.6,430.2c-90.1,36.6-96.2,3.5-96.5,0.3c0,0,0-0.1,0-0.1c0-0.1,0-0.1,0-0.1s11.8,8.5,28.3,7.4
				c8.9-0.6,15.6-8.4,14.9-17.3c-0.7-9.7,0.1-23.7,7.6-37.2c4.1-7.3,0.7-16.4-7.2-19.2c-3.9-1.4-7.8-3-11.3-4.9
				c1-8,0.6-12.7,0.6-12.7l21.3-12.9c16.8-3.7,34.6-5.2,38.7-2.1c2.8,2.1,11.5,7.5,21.7,14C221.9,370.7,238.4,407.1,181.6,430.2z"/>
		</g>
		<g>
			<path class="st2" d="M114.5,450c-9.4,0-17-1.8-22.7-5.4c-9-5.7-9.5-13.9-9.5-14.3c0-0.7,0.2-1.3,0.6-1.8
				c35-43.8,32.4-81.6,32.3-82c-0.1-1,0.4-2,1.3-2.5l49.6-30c0.9-0.6,2.1-0.5,3,0.1c2.4,1.6,57.9,40.6,53.7,78.1
				c-1.9,16.8-15.4,30.4-40.2,40.5C154.1,444.2,131.4,450,114.5,450z M87.9,430.9c0.4,1.8,1.9,6,7,9.2c9.9,6.2,32.8,9,85.6-12.5
				c22.8-9.3,35.2-21.4,36.8-36.1c3.5-31.1-41.4-65.7-50-72l-46.7,28.2C120.9,355.9,119.7,390.6,87.9,430.9z"/>
		</g>
	</g>
	<g>
		<g>
			<path class="st3" d="M426.9,304.4c-13.2,77.4-57.8,57-91.7,50.4c-11.2-2.2-21.3-2.9-28.6,2c-0.7-7-0.9-14.2-0.5-21.6
				c4.5-6.6,9.1-11.6,13.7-15.3C359.4,287.6,401.4,350.8,426.9,304.4z"/>
		</g>
		<g>
			<path class="st4" d="M446.3,343.1c3.7,52.6-65.2,102-113.8,76.8c-13.1-16.3-21.5-34.8-24.9-55.7c-0.4-2.5-0.7-5-1-7.5
				c7.3-4.9,17.4-4.2,28.6-2c33.9,6.7,78.5,27.1,91.7-50.4c0.2-0.4,0.4-0.8,0.6-1.2c0.2,0.2,0.3,0.3,0.5,0.5
				C439.7,316.3,445.4,329.8,446.3,343.1z"/>
		</g>
		<g>
			<path class="st5" d="M427.3,301.8c0.2,0.6,0.5,1.3,0.7,1.9c22.5,67.8-58.6,112.5-105.7,88.1l-17.8-33.4c0.7-0.6,1.4-1.2,2.1-1.7
				c29.4-19.7,102.8,50.8,120.3-52.4C427,303.5,427.1,302.7,427.3,301.8z"/>
		</g>
		<g>
			<path class="st6" d="M401.7,420.7c-22.2,11.8-48.6,15.4-71.4,3.6c-2.4-1.2-3.3-4.1-2.1-6.5c1.2-2.4,4.1-3.3,6.5-2.1
				c31.9,16.5,72.2-1.9,92.7-29.2c18.7-25,18.9-52.7,0.9-75.2c-3.9,5.8-8.2,9.6-12.7,12c-12.9,6.9-27.6,2.1-41.1-2.3
				c-22.3-7.2-43.4-14.1-64.4,16.7c-1.5,2.2-4.5,2.8-6.7,1.3c-2.2-1.5-2.8-4.5-1.3-6.7c25-36.7,52.9-27.7,75.3-20.4
				c19.9,6.5,34.3,11.1,45.9-11c0.7-1.4,2-2.3,3.6-2.5c1.5-0.2,3.1,0.3,4.1,1.4c13.4,14,20.4,30.5,20.3,47.7
				c-0.1,15.3-5.7,30.7-16.2,44.7C426.5,403.7,414.9,413.6,401.7,420.7z"/>
		</g>
		<g>
			<path class="st6" d="M394.7,392.2c-23.9,12.7-52.8,14.5-74.4,3.3c-2.1-1.1-2.9-3.6-1.8-5.7c1.1-2.1,3.6-2.9,5.7-1.8
				c23.7,12.3,58.7,6.5,81.6-13.5c15.5-13.6,22.9-31.3,21.4-50.5c-5.1,18.3-12.6,30.6-23,37.1c-0.8,0.5-1.6,1-2.4,1.4
				c-15.9,8.5-34.8,3.1-51.5-1.7c-15.7-4.5-29.2-8.4-37.3-1.1c-1.7,1.5-4.4,1.4-5.9-0.3c-1.6-1.7-1.4-4.4,0.3-5.9
				c11.5-10.4,27.9-5.7,45.3-0.7c16.7,4.8,33.9,9.7,47.1,1.3c11.4-7.3,19.1-23.9,23.2-50.6c0.3-1.9,1.8-3.3,3.8-3.5
				c1.9-0.2,3.7,1,4.3,2.8c10.6,29.5,3.4,58-19.7,78.2C406.2,385.3,400.6,389.1,394.7,392.2z"/>
		</g>
		<g class="st1">
			<path class="st6" d="M446.3,343.1c3.7,52.6-65.2,102-113.8,76.8c-13.1-16.3-21.5-34.8-24.9-55.7c-0.4-2.5-0.7-5-1-7.5
				c-0.7-7-0.9-14.2-0.5-21.6c4.5-6.6,9.1-11.6,13.7-15.3c4.9,13.9,10,25.5,15.4,35C366.6,409.7,406.5,392.1,446.3,343.1z"/>
		</g>
	</g>
	<g>
		<g>
			<path class="st7" d="M145.3,97.1l-49.2,92.3l-1.7,3.2c-46-39.1-33.3-98.6-26.9-119.4c1-3.4,3.9-5.8,7.3-6.4
				c1.1-0.2,2.2-0.2,3.3,0c1.8,0.3,3.5,0.7,5.3,1.1c30.6,7.2,55.9,24.8,61,28.4C145,96.9,145.3,97.1,145.3,97.1z"/>
		</g>
		<g>
			<path class="st8" d="M144.4,96.4c-6.5,5.8-15,9.3-24.4,9.3c-20.2,0-36.6-16.4-36.6-36.6c0-0.4,0-0.7,0-1.1
				C114,75.2,139.3,92.7,144.4,96.4z"/>
		</g>
		<g class="st1">
			<path class="st2" d="M145.3,97.1l-49.2,92.3c-16.1-43.4,8.5-65.2,7-90.6c-0.9-15.4-15.7-25.9-28.3-32c1.1-0.2,2.2-0.2,3.3,0
				c1.8,0.3,3.5,0.7,5.3,1.1c30.6,7.2,55.9,24.8,61,28.4C145,96.9,145.3,97.1,145.3,97.1z"/>
		</g>
		<g>
			<path class="st2" d="M94.4,195.3c-0.6,0-1.3-0.2-1.8-0.6c-20.4-17.3-31.8-40.3-34.1-68.4c-1.8-23,3.2-43.6,6.3-53.9
				c1.8-5.8,7.7-9.4,13.7-8.2c36.9,7,67.1,29.8,68.3,30.8c1.1,0.8,1.4,2.3,0.7,3.4l-50.9,95.5c-0.4,0.7-1.1,1.2-1.9,1.4
				C94.8,195.3,94.6,195.3,94.4,195.3z M76.4,69.4c-2.8,0-5.4,1.8-6.2,4.6c-6.8,22.1-17.7,76.8,23.5,114.3l48.2-90.4
				c-7.1-5-33.7-22.6-64.2-28.4C77.2,69.4,76.8,69.4,76.4,69.4z"/>
		</g>
	</g>
	<g>
		<path class="st7" d="M298.8,218.3c0,0-7.6,23.9-37.2,27.6c0,0-26.6,35.6-76.1,36.9c-49.5,1.3-62.1-19.3-62.1-19.3
			s-16.4,0.4-27.1-11.8c0,0,0,0,0,0s3.7-5.5,6.9-7.6c0,0-8.7-2.2-11.8-5.7c0,0,3.7-12,2.9-27.9c-0.8-15-10.5-62.2,22.8-93.7
			c2.2-2,4.5-4,7-5.9c13.3-5.4,26.5-10.9,39.8-16.3c0,0-4.5-3.6-5.8-12c-0.8-5.3,5-9.1,9.5-6.1c6.5,4.3,15.6,9.7,24,12.5
			c0,0,28.4-41.4,54.3-64.6c10-8.9,25.6-6.7,32.7,4.7c13.4,21.6,28.6,64.5,9.7,135.7c0,0,2.3,9.6,2.2,22.3c0,0,3.1,2.8,14.3,3.9
			c0,0-1.1,18.7-13.2,22.6C291.4,213.3,292.3,215,298.8,218.3z"/>
	</g>
	<g>
		<path class="st8" d="M288.2,164.6c18.8-71.2,3.6-114-9.7-135.7c-7-11.4-22.7-13.6-32.7-4.7c-22.9,20.5-47.7,55.1-53.2,63
			l95.9,78.7C288.3,165,288.2,164.6,288.2,164.6z"/>
	</g>
	<g>
		<path class="st8" d="M286.6,157.2c-10.5,7.3-23.2,11.6-37,11.6c-35.6,0-64.5-28.9-64.5-64.5c0-5.9,0.8-11.6,2.3-17.1l4.1,1.5
			C261.8,92.7,281.5,139,286.6,157.2z"/>
	</g>
	<g class="st1">
		<path class="st2" d="M143.1,235c0.5,1.3,1.8,4.3,5,5.9c0.3,0.2,0.7-0.1,0.6-0.5l-0.5-2.2c-0.1-0.3,0.1-0.5,0.4-0.5l3.2-0.1
			c0.3,0,0.5,0.2,0.5,0.4c0,1.5,0.3,6.5,1.7,9.2l0,0c1.1,1.7,3.7,1.4,4.2-0.6l1.7-5.9c0-0.1,0.1-0.2,0.2-0.3
			c0.7-0.4,3.4-1.9,4.7-4.7c0.3-0.7,1.1-1,1.8-0.8c1.7,0.6,4.7,1.4,8.3,1.3c1.1,0,2.1,0.1,3.1,0.5l10.4,3.4c0.4,0.1,0.7-0.2,0.6-0.6
			c-0.4-0.9-1.6-1.9-2.7-3.2c-0.7-0.9-0.4-2.2,0.7-2.5c2.5-0.9,6.6-3.4,9.2-11.2c0.1-0.4-0.3-0.7-0.7-0.5c-2.5,1.6-9.7,5.6-16.1,4.6
			c-7.1-1.1-12.5-6.3-13.6-7.5c-0.1-0.1-0.3-0.2-0.5-0.1l-7.5,3.7c-0.1,0.1-0.2,0.2-0.2,0.3c-0.3,1.4-2.1,9.3-5.4,10.7
			c-2.9,1.2-7,0.8-8.6,0.6C143.2,234.4,143,234.7,143.1,235z"/>
	</g>
	<g class="st1">
		<path class="st2" d="M298.8,218.3c0,0-7.6,23.9-37.2,27.6c0,0-26.6,35.6-76.1,36.9c-49.5,1.3-62.1-19.3-62.1-19.3
			s-16.4,0.4-27.1-11.8c0.1,0.1,4.2,1.8,12.8,2.8c2.8,0.3,5.2-1.7,5.4-4.5c0-0.7,0.1-1.4,0.2-2.2c0.1-0.9,1.2-1.2,1.8-0.6
			c4,4.8,16.2,17.5,34.9,22.7c1.1,0.3,2.3,0.1,3.2-0.5c2.5-1.6,8.1-4.4,15.2-3.5c1.1,0.1,2.2-0.1,3.1-0.8c3.1-2.5,11.3-8,21.3-6
			c1.2,0.2,2.5,0,3.4-0.8c5.2-4.3,23.9-18.6,53.7-27.9c9.4-2.9,14.5-13.3,10.7-22.4c-1.2-2.9-2.9-6.1-5.4-9.4c-0.9-1.3,0-3,1.5-3
			c2.2,0,5.2,0.4,8.6,1.6c1.9,0.7,3.8-1.1,3.2-3c-1-3.6-3.1-8.8-7.3-14.1c-4.9-6.3-7.2-14.2-6.4-22.1c1.8-17.6-1.1-48.4-37.6-65
			c0,0,59.7,8.8,69.3,71.8c0,0,2.3,9.6,2.2,22.3c0,0,3.1,2.8,14.3,3.9c0,0-1.1,18.7-13.2,22.6C291.4,213.3,292.3,215,298.8,218.3z"
			/>
	</g>
	<g>
		<path class="st6" d="M137.6,277.5c-5.1-2.7-10.5-6.3-15.7-11.4c-4.5-0.2-18.1-1.8-27.7-12.8c-0.8-0.9-0.9-2.3-0.2-3.3
			c0.3-0.4,1.9-2.7,3.9-4.9c-3-1.1-6.6-2.8-8.6-5.1c-0.6-0.7-0.9-1.7-0.6-2.6c0-0.1,3.6-11.7,2.7-27c-0.1-1.7-0.3-4-0.6-6.6
			c-2.1-21.2-6.5-64.9,29.1-93.5c12.5-6.7,25.1-13.3,37.6-20c-0.9-2-1.8-4.5-2.3-7.5c-0.6-3.5,1-7,4-8.9c3-1.9,6.7-1.9,9.7,0.1
			c5.6,3.8,13.8,8.7,21.5,11.5c5.7-8.1,30.7-42.9,53.6-63.4c5.4-4.8,12.5-7,19.7-5.9c7.1,1,13.4,5.1,17.1,11.2
			c8.8,14.3,14.6,31.2,17.3,50.3c3.6,25.9,1.2,55.1-7.1,86.8c0.5,2.3,2.1,10.4,2.1,20.7c1.5,0.7,5,2,11.8,2.7
			c1.5,0.1,2.5,1.4,2.4,2.9c0,0.7-1.1,16.4-10.9,23c0.9,0.5,2.1,1.2,3.6,2c1.2,0.6,1.8,2,1.4,3.3c-0.3,1-8.3,25-38.4,29.3
			C255.8,253.8,187.9,303.7,137.6,277.5z M185.4,280c22.9-5.6,68.2-28,74-35.8c0.4-0.6,1.1-1,1.8-1.1c22.7-2.8,31.6-18,34.1-23.6
			c-4.4-2.4-5.9-4-6.4-5c-0.4-0.7-0.4-1.5-0.1-2.3c0.3-0.7,0.9-1.3,1.7-1.5c7.7-2.5,10.3-12.8,11-17.6c-9.4-1.3-12.5-3.8-13.1-4.3
			c-0.6-0.5-0.9-1.3-0.9-2c0.2-12.1-2.1-21.5-2.1-21.6c-0.1-0.4-0.1-0.9,0-1.3c18.1-68.5,4.9-110.4-9.4-133.6
			c-2.9-4.7-7.8-7.9-13.3-8.7c-5.5-0.8-11.1,0.9-15.3,4.6c-25.4,22.7-53.6,63.7-53.9,64.1c-0.7,1-1.9,1.4-3.1,1
			c-8.9-2.9-18.3-8.5-24.7-12.8c-1.2-0.8-2.6-0.8-3.7,0c-1.2,0.8-1.8,2.1-1.6,3.5c1.1,7.1,4.7,10.2,4.8,10.3c0.9,0.8,1.2,2,0.8,3.1
			c-0.5,1.2-2.3,1.6-2.7,1.7c-5.2,1.1-34.7,14.3-37.9,15.8c-29.6,13.9-30.7,76.3-29.3,90.4c0.3,2.7,0.5,5,0.6,6.9
			c0.7,12.9-1.5,23.2-2.5,27.2c2.4,1.7,6.8,3.3,9.5,4c1,0.3,1.8,1.1,2,2.2c0.2,1.1-0.3,2.1-1.1,2.7c-1.6,1.1-3.5,3.4-4.9,5.2
			C146.7,287.9,178,281.8,185.4,280z M293.7,211.8L293.7,211.8L293.7,211.8z"/>
	</g>
	<g>
		<path class="st6" d="M121.2,265.2c-0.6-0.9-1-1.8-1.4-2.7c-0.4-0.9-0.7-1.8-1-2.7c-0.3-0.9-0.5-1.9-0.7-2.8
			c-0.2-0.9-0.2-1.9-0.2-2.9c1.4,1.4,2.5,2.8,3.8,4.1c0.6,0.6,1.2,1.3,1.8,1.9l0.9,0.9c0.3,0.3,0.6,0.6,0.9,0.8L121.2,265.2z"/>
	</g>
	<g>
		<path class="st6" d="M290.5,215.9c-1.2-0.5-2.2-1.1-3.2-1.7c-1-0.6-2-1.3-3-2c-1.9-1.5-3.8-3.1-5.3-5.1c2.4,0.7,4.6,1.3,6.8,1.9
			l3.3,0.9c1.1,0.3,2.2,0.6,3.2,0.9L290.5,215.9z"/>
	</g>
	<g>
		<path class="st6" d="M289.4,189.4c-1.6-0.7-3.1-1.5-4.6-2.4c-1.5-0.9-2.9-1.8-4.3-2.8c-1.4-1-2.8-2-4-3.2
			c-1.3-1.2-2.5-2.4-3.4-3.9c1.5,0.8,3,1.5,4.5,2.2c1.5,0.7,3,1.2,4.6,1.8c1.5,0.6,3.1,1.1,4.6,1.7l4.6,1.6L289.4,189.4z"/>
	</g>
	<g>
		<path class="st6" d="M285.5,165.1c-3.1-17.3-10.1-28.9-10.1-29l4.6-2.8c0.3,0.5,7.5,12.6,10.8,30.8L285.5,165.1z"/>
	</g>
	<g>
		<path class="st6" d="M221.2,94.3c-0.5,0.7-1.1,1.4-1.7,2c-0.6,0.6-1.3,1.3-2,1.9c-1.4,1.2-2.8,2.4-4.4,3.4
			c0.3-1.9,0.9-3.6,1.4-5.4c0.3-0.9,0.6-1.7,0.9-2.5c0.3-0.8,0.7-1.6,1.2-2.4L221.2,94.3z"/>
	</g>
	<g>
		
			<ellipse transform="matrix(0.9431 -0.3325 0.3325 0.9431 -47.6404 80.9364)" class="st7" cx="212.7" cy="179.7" rx="5.4" ry="7.2"/>
	</g>
	<g>
		<path class="st6" d="M138.3,187.5c-1.8-1.5-3.6-2.8-5.4-4c-1.8-1.2-3.7-2.3-5.6-3.1c-0.9-0.5-1.9-0.8-2.9-1.2c-1-0.3-2-0.7-3-0.9
			c-2.1-0.7-4.2-0.9-6.5-1.5c2.2-0.9,4.6-1.4,7-1.2c1.2,0,2.4,0.3,3.6,0.6c1.1,0.4,2.3,0.8,3.4,1.3c2.2,1.1,4.1,2.5,5.8,4.2
			c0.8,0.9,1.6,1.8,2.2,2.8C137.4,185.3,137.9,186.4,138.3,187.5z"/>
	</g>
	<g>
		<path class="st6" d="M181,161.1c0-3.5,1.1-6.9,2.6-10c1.6-3.1,3.7-6,6.4-8.4c2.7-2.4,5.9-4.2,9.4-5.2c3.4-1,7.1-1,10.4,0
			c-3.3,1.2-6.3,2.3-9,3.8c-2.7,1.5-5.2,3.2-7.4,5.2c-2.3,2-4.4,4.3-6.4,6.7C185,155.7,183.1,158.3,181,161.1z"/>
	</g>
	<g>
		<path class="st6" d="M164.7,225.4c-3,1.3-6.3,1.6-9.1,0c0,0-0.1,0-0.1-0.1c-4.1-2.4-10.1-10.5,4.3-14.7
			C173.4,206.6,177.2,220,164.7,225.4z"/>
	</g>
	<g>
		<path class="st6" d="M165,223.2c-0.1,0.8-0.1,1.4-0.2,2.1c-0.1,0.7-0.2,1.3-0.4,2c-0.3,1.3-0.7,2.6-1.2,3.9
			c-0.5,1.3-1.1,2.6-1.9,3.8c-0.8,1.2-1.8,2.4-3.1,3.4c-1.3,1-2.9,1.7-4.5,1.9c-1.7,0.2-3.2-0.1-4.6-0.6c-1.4-0.5-2.6-1.3-3.6-2.2
			c-0.5-0.5-1-1-1.4-1.5c-0.4-0.6-0.8-1.1-1.1-1.8c0.7,0.1,1.3,0.3,2,0.5c0.6,0.2,1.2,0.3,1.8,0.5c1.2,0.3,2.3,0.6,3.3,0.8
			c1,0.2,2,0.2,2.9-0.1c0.8-0.3,1.6-0.7,2.2-1.3c0.6-0.6,1.2-1.5,1.7-2.4c0.5-0.9,0.9-1.9,1.3-3c0.4-1.1,0.7-2.2,0.9-3.3
			c0.1-0.6,0.3-1.1,0.4-1.7c0.1-0.6,0.2-1.2,0.3-1.6L165,223.2z"/>
	</g>
	<g>
		<path class="st6" d="M164.3,221.6c0.2,0.2,0.5,0.5,0.7,0.8l0.8,0.8c0.6,0.5,1.2,1,1.8,1.5c1.2,1,2.5,1.8,3.8,2.6
			c2.6,1.5,5.5,2.4,8.4,2.5c1.5,0,2.9-0.2,4.4-0.6c0.7-0.2,1.4-0.5,2.1-0.8c0.7-0.3,1.4-0.6,2.1-1.1c2.8-1.5,5.4-3.6,8-5.9
			c-1.4,3.2-3.4,6.1-6.2,8.5c-0.7,0.6-1.5,1.1-2.2,1.6c-0.8,0.5-1.6,0.9-2.5,1.3c-1.7,0.7-3.6,1.3-5.5,1.4c-1.9,0.2-3.9,0-5.7-0.4
			c-1.9-0.4-3.6-1.1-5.3-1.9c-1.7-0.8-3.2-1.8-4.7-2.9c-0.7-0.6-1.4-1.1-2.1-1.8c-0.3-0.3-0.7-0.6-1-1c-0.3-0.3-0.6-0.6-1-1.1
			L164.3,221.6z"/>
	</g>
	<g>
		<path class="st6" d="M154.3,249.1c-0.3,0-0.6-0.1-0.8-0.2c-6.3-3.9-7.4-11.1-7.5-11.4c-0.1-0.5,0.1-1,0.5-1.4
			c0.4-0.3,0.9-0.5,1.4-0.3c6.4,1.8,8.2-0.9,8.3-1c0.4-0.7,1.3-1,2.1-0.6c0.7,0.4,1,1.3,0.6,2.1c-1.2,2.3-2.6,9.1-3.1,11.6
			c-0.1,0.5-0.4,0.9-0.9,1.1C154.8,249,154.5,249.1,154.3,249.1z M149.7,239.3c0.6,1.6,1.7,3.8,3.6,5.5c0.3-1.6,0.8-3.7,1.4-5.7
			C153.4,239.4,151.8,239.6,149.7,239.3z"/>
	</g>
	<g>
		<path class="st6" d="M189.7,241.9c-0.2,0-0.4,0-0.5-0.1c-8.7-3.2-11.2-9-11.3-9.3c-0.2-0.5-0.1-1.1,0.2-1.5
			c0.3-0.4,0.8-0.7,1.4-0.6c5.9,0.4,9.6-3.5,9.7-3.5c0.4-0.4,0.9-0.6,1.5-0.5c0.5,0.1,1,0.5,1.1,1c2.8,8.7-0.6,13.6-0.8,13.8
			C190.7,241.7,190.2,241.9,189.7,241.9z M182.1,233.4c1.2,1.5,3.3,3.4,6.9,5c0.5-1.3,1.2-3.9,0.4-7.7
			C187.8,231.8,185.3,233.1,182.1,233.4z"/>
	</g>
	<g>
		<path class="st6" d="M193.8,90.2c-0.7,1-1.5,2-2.3,3c-0.8,1-1.6,1.9-2.4,2.9c-0.8,0.9-1.7,1.9-2.6,2.8c-0.9,0.9-1.8,1.8-2.7,2.7
			c0.3-1.3,0.7-2.5,1.1-3.7c0.4-1.2,0.8-2.4,1.3-3.6c0.4-1.2,0.9-2.4,1.4-3.5c0.5-1.2,1-2.3,1.5-3.4L193.8,90.2z"/>
	</g>
	<g>
		<g>
			
				<ellipse transform="matrix(0.9711 -0.2386 0.2386 0.9711 -38.0345 55.4933)" class="st6" cx="210.2" cy="184.9" rx="14.3" ry="19.6"/>
		</g>
		<g>
			
				<ellipse transform="matrix(0.9711 -0.2386 0.2386 0.9711 -36.1338 54.8848)" class="st7" cx="208.7" cy="176.7" rx="5.5" ry="6.2"/>
		</g>
		<g class="st1">
			<path class="st7" d="M215.7,189.1c2.1-0.5,4.3,0.8,4.8,2.9c0.5,2.1-0.8,4.3-2.9,4.8c-2.1,0.5-4.3-0.8-4.8-2.9
				C212.3,191.8,213.6,189.6,215.7,189.1z"/>
		</g>
	</g>
	<g>
		<g>
			
				<ellipse transform="matrix(0.9711 -0.2386 0.2386 0.9711 -45.5969 36.7182)" class="st6" cx="128.9" cy="206.7" rx="13.3" ry="18.1"/>
		</g>
		<g>
			
				<ellipse transform="matrix(0.9711 -0.2386 0.2386 0.9711 -43.8389 36.1554)" class="st7" cx="127.5" cy="199.2" rx="5.1" ry="5.7"/>
		</g>
		<g class="st1">
			<path class="st7" d="M134,210.6c2-0.5,4,0.7,4.5,2.7c0.5,2-0.7,4-2.7,4.5c-2,0.5-4-0.7-4.5-2.7C130.8,213.1,132,211.1,134,210.6z
				"/>
		</g>
	</g>
	<g>
		<path class="st9" d="M218.9,92.8c0,0,20.9-32.4,36.1-50.3c3.4-4.1,9.9-3.4,12.4,1.3c7.2,13.5,21.7,50.7,14.2,98.7
			C281.6,142.5,267.6,103.6,218.9,92.8z"/>
	</g>
	<g>
		<path class="st6" d="M279,143.4c-0.2-0.6-0.6-1.4-0.9-2.2c-0.3-0.7-0.7-1.5-1.1-2.2c-0.8-1.5-1.6-2.9-2.4-4.4
			c-1.7-2.9-3.7-5.6-5.7-8.2c-4.2-5.3-8.9-10-14.2-14.1c-1.3-1.1-2.7-2-4-3c-1.4-0.9-2.8-1.9-4.2-2.7c-2.9-1.8-5.8-3.3-8.9-4.7
			c-6.1-2.8-12.5-4.9-19.1-6.4l0,0c-1.5-0.3-2.4-1.8-2.1-3.2c0.1-0.3,0.2-0.6,0.3-0.8l0.1-0.1c4.8-8.1,9.9-15.9,15.3-23.7
			c2.6-3.9,5.4-7.7,8.2-11.5c2.8-3.8,5.6-7.5,8.6-11.2c0.7-0.9,1.5-1.8,2.3-2.7l1.1-1.4c0.3-0.4,1-1.1,1.6-1.6
			c1.3-1.1,2.8-1.9,4.4-2.3c1.6-0.4,3.3-0.4,4.9,0c1.6,0.4,3.1,1.1,4.4,2.2c0.6,0.5,1.2,1.1,1.7,1.8c0.3,0.3,0.5,0.7,0.7,1l0.3,0.5
			l0.2,0.4c1.1,2.2,2.1,4.4,3,6.6c1.8,4.4,3.3,9,4.3,13.6c1,4.6,1.7,9.4,1.7,14.2c-2.1-4.3-3.9-8.6-5.7-12.9
			c-1.8-4.2-3.6-8.5-5.6-12.6c-1-2.1-2-4.1-3.1-6.1l-0.2-0.4l-0.2-0.2c-0.1-0.1-0.2-0.3-0.3-0.4c-0.2-0.3-0.5-0.5-0.7-0.7
			c-0.5-0.4-1.2-0.7-1.9-0.8c-1.4-0.3-2.8,0.2-3.8,1.1c-0.4,0.3-1.2,1.4-1.9,2.3c-0.7,0.9-1.4,1.8-2.1,2.7l-2.1,2.7l-2.1,2.8
			c-1.4,1.8-2.8,3.7-4.2,5.6l-8.2,11.3l-16.1,22.8l-1.7-4.1l0,0c6.9,1.6,13.7,3.8,20.2,6.7c3.2,1.5,6.4,3.1,9.4,5
			c1.5,0.9,3,1.9,4.5,2.9c1.4,1,2.9,2.1,4.3,3.2c5.6,4.4,10.7,9.5,15.2,15.1c2.2,2.8,4.3,5.7,6.1,8.8c0.9,1.5,1.8,3.1,2.6,4.7
			c0.4,0.8,0.8,1.6,1.2,2.4c0.4,0.8,0.7,1.6,1.1,2.6L279,143.4z"/>
	</g>
	<g>
		<g>
			<path class="st8" d="M161.4,124.4c-1.8,1-3.9,2-6.4,2.7c-12.6,3.8-19.5-1.4-21.6-6.1C137.6,122.6,148.8,126.1,161.4,124.4z"/>
		</g>
	</g>
	<g>
		<g>
			<path class="st10" d="M161.6,127.8c-13.1,1.7-24.9-1.9-29.3-3.6c-0.8-0.3-1.4-0.9-1.8-1.6c-0.1-0.3-0.3-0.5-0.4-0.8l0-0.1
				c-1.4-3.5-2.7-8.5-3.8-14.5c-0.2-1.3,0.3-2.5,1.3-3.3c1-0.8,2.4-0.9,3.5-0.3c0.2,0.1,17.4,8.7,37.7,2.9c0.9-0.3,1.9-0.1,2.7,0.4
				c0.8,0.5,1.4,1.3,1.5,2.2c0.9,5-0.8,12.2-8.5,17.3c-0.5,0.4-1,0.7-1.5,0.9c-0.4,0.2-0.8,0.3-1.2,0.4
				C161.8,127.8,161.7,127.8,161.6,127.8z M161.4,124.4L161.4,124.4L161.4,124.4z M136,118.4c4.7,1.6,14,4,24.3,2.8
				c0.2-0.1,0.3-0.2,0.5-0.3c0,0,0,0,0,0c3.1-2.1,4.7-4.5,5.4-6.8c-13.5,2.7-25.3,0.2-32-2C134.7,114.5,135.3,116.7,136,118.4z"/>
		</g>
	</g>
	<g>
		<g>
			<path class="st11" d="M166.1,120.7c-0.9,1-2.1,2-3.4,2.9c-0.4,0.3-0.8,0.5-1.2,0.8c-12.6,1.7-23.8-1.8-28-3.3
				c-0.1-0.2-0.2-0.4-0.3-0.6c-1.3-3.3-2.5-8.2-3.6-13.8c0,0,14.7,7.6,33.6,4.6c2.1-0.3,4.3-0.8,6.6-1.4
				C170.2,112.7,169.5,117,166.1,120.7z"/>
		</g>
		<g>
			<path class="st10" d="M161.2,124.9c-12.5,1.6-23.7-1.8-28-3.4l-0.2-0.1l-0.1-0.2c-0.1-0.2-0.2-0.4-0.2-0.5l-0.1-0.1
				c-1.3-3.3-2.5-8.2-3.6-13.9l-0.2-0.9l0.8,0.4c0.1,0.1,14.8,7.5,33.3,4.6c2.3-0.4,4.4-0.8,6.5-1.4l0.5-0.1l0.1,0.5
				c0.7,3.8-0.7,8.1-3.7,11.4c-1,1.1-2.2,2.1-3.5,3c-0.5,0.3-0.9,0.6-1.3,0.8l-0.2,0.1C161.4,124.9,161.3,124.9,161.2,124.9z
				 M133.7,120.7c4.3,1.6,15.2,4.9,27.4,3.3c0.1,0,0.1,0,0.2,0c0.4-0.2,0.7-0.4,1.1-0.7c1.3-0.9,2.4-1.8,3.4-2.8l0,0
				c3.8-4.1,3.8-8.3,3.6-10.1c-2,0.5-4,1-6.1,1.3c-16.3,2.6-29.7-2.8-33-4.3c1,5.3,2.2,9.8,3.4,12.9l0.1,0.1
				C133.6,120.5,133.7,120.6,133.7,120.7z"/>
		</g>
	</g>
	<g class="st12">
		<g>
			<path class="st7" d="M166.1,120.7c-0.9-3.3-1.9-6.5-3-9.5c2.1-0.3,4.3-0.8,6.6-1.4C170.2,112.7,169.5,117,166.1,120.7z"/>
		</g>
	</g>
	<g>
		<g>
			<path class="st13" d="M169.7,109.7c-2.2,0.6-4.4,1.1-6.6,1.4c-18.9,3-33.6-4.6-33.6-4.6c-1.1-5.7-1.9-12.1-2.5-18.5
				c0,0,9.8,7.8,30.2,8.7c2.5,0.1,5.2,0.1,8.1,0c2,4.9,3.5,9.4,4.3,12.7C169.7,109.5,169.7,109.6,169.7,109.7z"/>
		</g>
	</g>
	<g class="st12">
		<g>
			<path class="st7" d="M169.7,109.7c-2.2,0.6-4.4,1.1-6.6,1.4c-1.8-5.1-3.8-9.9-5.9-14.4c2.5,0.1,5.2,0.1,8.1,0
				c2,4.9,3.5,9.4,4.3,12.7C169.7,109.5,169.7,109.6,169.7,109.7z"/>
		</g>
	</g>
	<g>
		<g>
			<path class="st14" d="M165.4,96.8c-2.9,0.1-5.6,0.1-8.1,0c-20.4-0.9-30.2-8.7-30.2-8.7c-0.6-6.9-0.7-13.7-0.1-19.4
				c0,0,8.2,7.2,20.1,9.9c3.1,0.7,6.5,1.1,10.1,1C160.2,85.3,163.1,91.3,165.4,96.8z"/>
		</g>
		<g>
			<path class="st10" d="M166,97.2l-0.6,0c-2.7,0.1-5.5,0.1-8.2,0c-20.3-0.9-30.3-8.8-30.4-8.8l-0.2-0.1l0-0.2
				c-0.6-7.4-0.6-14.1-0.1-19.5l0.1-0.9l0.7,0.6c0.1,0.1,8.2,7.2,19.9,9.8c3.3,0.8,6.7,1.1,9.9,0.9l0.3,0l0.1,0.2
				c3.1,5.7,6,11.7,8.3,17.3L166,97.2z M127.5,87.8c1.3,1,11.1,7.7,29.8,8.5c2.4,0.1,4.9,0.1,7.4,0c-2.2-5.3-4.9-11-7.9-16.4
				c-3.2,0.1-6.6-0.2-9.9-1c-10-2.2-17.4-7.7-19.6-9.4C126.9,74.7,127,81,127.5,87.8z"/>
		</g>
	</g>
	<g class="st12">
		<g>
			<path class="st7" d="M165.4,96.8c-2.9,0.1-5.6,0.1-8.1,0c-3.2-6.9-6.8-13-10.2-18.3c3.1,0.7,6.5,1.1,10.1,1
				C160.2,85.3,163.1,91.3,165.4,96.8z"/>
		</g>
	</g>
	<g>
		<g>
			<path class="st8" d="M157,79c-3.6,0.1-6.9-0.3-10.1-1c-11.9-2.7-20.1-9.9-20.1-9.9c0.4-4.7,1.3-8.6,2.7-11.3
				c0.9-1.7,2.1-2.9,3.5-3.3C139.4,51.7,149.1,64.6,157,79z"/>
		</g>
	</g>
	<g class="st12">
		<g>
			<path class="st7" d="M158,79.4c-3.6,0.1-6.9-0.3-10.1-1c-6.5-9.8-12.9-16.9-17.4-21.2c0.9-1.7,2.1-2.9,3.5-3.3
				C140.3,52.1,150.1,64.9,158,79.4z"/>
		</g>
	</g>
	<g>
		<g>
			<g>
				<path class="st10" d="M157.4,82.2c-0.1,0-0.2,0-0.2,0c-18,0.7-31.5-11-32.1-11.5c-0.6-0.6-1-1.4-0.9-2.3
					c0.9-10,3.6-15.5,8.1-16.9c8.9-2.7,19.6,13.1,27.1,26.7c0.5,0.8,0.4,1.8,0,2.6C159,81.6,158.3,82.1,157.4,82.2z M129.8,67.4
					c2.9,2.2,11.6,8.1,22.5,9.2c-9.3-15.8-16-20.7-18.4-19.9C132.4,57.1,130.6,60.2,129.8,67.4z"/>
			</g>
		</g>
		<g>
			<g>
				<path class="st10" d="M165.7,99.5c-0.1,0-0.2,0-0.2,0c-26.7,1.2-39.6-8.9-40.1-9.3c-0.6-0.5-0.9-1.2-1-1.9
					c-0.6-7.5-0.7-14.4-0.2-19.9c0.1-1,0.8-1.9,1.7-2.3c1-0.4,2-0.2,2.8,0.5c0.1,0.1,12.5,10.8,28.2,10.2c1,0,2,0.5,2.5,1.4
					c3.2,5.8,6.1,11.9,8.4,17.6c0.3,0.8,0.3,1.8-0.2,2.5C167.2,98.9,166.5,99.4,165.7,99.5z M129.7,86.6c3,1.9,13.4,7.6,31.6,7.6
					c-1.7-3.9-3.7-8-5.8-11.9c-11.5,0-21-5-26.1-8.4C129.2,77.7,129.3,82,129.7,86.6z"/>
			</g>
		</g>
		<g>
			<g>
				<path class="st10" d="M161.9,114.1c-18.7,2.4-33-4.8-33.7-5.1c-0.7-0.4-1.3-1.1-1.4-1.9c-1.1-5.9-2-12.4-2.5-18.8
					c-0.1-1.1,0.5-2.1,1.4-2.6c1-0.5,2.1-0.4,3,0.3c0.1,0.1,12,9.2,36.5,8.1c1.1-0.1,2.2,0.6,2.6,1.7c2.1,5.2,3.7,9.7,4.4,13.1
					c0,0.2,0.1,0.4,0.1,0.5c0.2,1.3-0.7,2.6-2,2.9C167.5,113.2,164.7,113.8,161.9,114.1z M169.7,109.7L169.7,109.7L169.7,109.7z
					 M131.9,104.7c4,1.7,18,6.9,34.5,3.1c-0.7-2.3-1.6-5.2-2.8-8.2c-16.5,0.4-27.5-3.5-33.3-6.4C130.7,97.1,131.3,101,131.9,104.7z"
					/>
			</g>
		</g>
		<g>
			<g>
				<path class="st10" d="M161.5,127.1c-13,1.7-24.6-1.9-29-3.5c-0.6-0.2-1.2-0.7-1.5-1.3c-0.1-0.2-0.2-0.5-0.3-0.7l0-0.1
					c-1.3-3.5-2.6-8.4-3.8-14.4c-0.2-1,0.2-2.1,1-2.7c0.8-0.6,1.9-0.7,2.9-0.2c0.2,0.1,17.6,8.8,38.2,3c0.7-0.2,1.5-0.1,2.2,0.3
					c0.7,0.4,1.1,1.1,1.2,1.8c0.9,4.8-0.8,11.7-8.2,16.7c-0.5,0.3-1,0.6-1.4,0.9c-0.3,0.2-0.6,0.3-0.9,0.3
					C161.7,127.1,161.6,127.1,161.5,127.1z M161.4,124.4L161.4,124.4L161.4,124.4z M135.5,118.9c4.6,1.6,14.3,4.2,25,2.9
					c0.2-0.1,0.4-0.2,0.6-0.4c0,0,0,0,0,0c3.7-2.5,5.4-5.5,5.9-8.2c-14.6,3.2-27.2,0.2-33.8-2.2
					C133.9,114.2,134.7,116.8,135.5,118.9z"/>
			</g>
		</g>
		<g>
			<g>
				<path class="st10" d="M150.3,130.9c-10.5,1.4-17-3.5-19.4-8.7c-0.5-1-0.3-2.2,0.5-3c0.7-0.8,1.9-1.1,2.9-0.7
					c4,1.5,14.6,4.8,26.4,3.2c0.1,0,0.2,0,0.3,0c1.3-0.2,2.5,0.6,2.9,1.8c0.4,1.2-0.1,2.6-1.2,3.2c-2,1.2-4.4,2.2-7,3
					C153.9,130.3,152,130.7,150.3,130.9z"/>
			</g>
		</g>
	</g>
	<g>
		<g>
			<path class="st10" d="M150.6,131.5c-10.3,1.4-17.5-3.2-20.2-9c-0.1-0.2-0.2-0.5-0.3-0.7l0-0.1c-0.8-2.1-1.6-4.8-2.4-7.9
				c-0.4-1.6-0.8-3.3-1.1-5.2l-0.1-0.3c-0.1-0.4-0.2-0.8-0.2-1.1c-1.1-6-2-12.5-2.5-18.9c-0.6-7.5-0.7-14.5-0.2-20
				c0.9-10.3,3.7-16,8.6-17.5c9.3-2.8,20.3,13.2,27.9,27c3.2,5.8,6.1,11.9,8.5,17.6c2.1,5.2,3.7,9.8,4.4,13.2c0,0.2,0.1,0.4,0.1,0.6
				c0,0,0,0,0,0c0,0.2,0.1,0.5,0.1,0.7c0,0.1,0,0.2,0,0.3c0,0.2,0,0.4,0,0.6c0,0.1,0,0.3,0,0.4c0,0.2,0,0.4,0,0.6c0,0.2,0,0.3,0,0.4
				c0,0.3,0,0.6-0.1,1c0,0.1,0,0.2,0,0.2c0,0.3-0.1,0.5-0.1,0.8l-0.1,0.3c0,0,0,0.1,0,0.1c0,0.2-0.1,0.5-0.2,0.7l-0.1,0.4
				c-0.1,0.3-0.2,0.6-0.3,0.9c0,0.1,0,0.1-0.1,0.2c-0.1,0.3-0.2,0.6-0.4,1c0,0-0.1,0.1-0.1,0.2c-0.1,0.3-0.3,0.6-0.4,0.9l-0.1,0.2
				c0,0,0,0,0,0c-0.2,0.3-0.3,0.6-0.5,0.9l-0.1,0.2c-0.5,0.7-1,1.4-1.5,2.1c0,0-0.1,0.1-0.1,0.1l-0.1,0.1c-0.1,0.1-0.2,0.3-0.4,0.4
				c-0.1,0.1-0.2,0.2-0.2,0.2l-0.3,0.3c-0.2,0.2-0.5,0.5-0.7,0.7c-0.1,0.1-0.2,0.2-0.3,0.3c-0.2,0.2-0.5,0.4-0.8,0.6l-0.1,0.1
				c-0.1,0.1-0.2,0.2-0.3,0.3c-0.3,0.2-0.6,0.5-0.9,0.7c-0.1,0.1-0.2,0.1-0.3,0.2c-0.5,0.3-1,0.6-1.5,0.9c-2,1.2-4.4,2.2-7,3
				C154.1,130.9,152.3,131.3,150.6,131.5z M134.3,57.3c-0.1,0-0.1,0-0.2,0c-1.1,0.3-3.1,3.1-3.8,11.6c-0.5,5.2-0.4,11.7,0.2,18.9
				c0.5,6.2,1.3,12.4,2.4,18.2c0.1,0.4,0.1,0.7,0.2,1.1l0.1,0.3c0.3,1.7,0.7,3.4,1.1,4.9c0.7,2.8,1.4,5.2,2.1,7l0,0
				c0,0.1,0.1,0.2,0.1,0.3c0,0,0,0.1,0.1,0.1c1.8,3.9,7.5,7.3,17.6,4.3c2.1-0.6,4-1.4,5.6-2.4c0.4-0.2,0.7-0.4,1.1-0.6l0.2-0.1
				c0.3-0.2,0.5-0.3,0.7-0.5l0.3-0.2c0.2-0.2,0.4-0.3,0.5-0.4l0.2-0.2c0.2-0.2,0.4-0.4,0.6-0.5l0.3-0.4c0.1-0.1,0.2-0.2,0.2-0.3
				l0.1-0.1c0,0,0.1-0.1,0.1-0.1c0.4-0.4,0.7-0.9,1-1.4c0,0,0.1-0.1,0.1-0.1c0.1-0.2,0.2-0.4,0.3-0.5c0,0,0,0,0,0l0.1-0.1
				c0.1-0.2,0.2-0.4,0.3-0.6c0,0,0-0.1,0-0.1c0.1-0.2,0.2-0.4,0.2-0.6l0-0.1c0-0.1,0.1-0.3,0.1-0.5l0-0.2c0-0.2,0.1-0.3,0.1-0.5
				l0-0.2c0-0.1,0-0.3,0.1-0.4c0,0,0-0.1,0-0.2c0-0.2,0-0.4,0-0.5c0,0,0-0.2,0-0.2c0-0.1,0-0.2,0-0.3l0-0.2c0-0.1,0-0.2,0-0.3l0-0.2
				c0-0.1,0-0.2-0.1-0.4c0,0,0-0.1,0-0.2c0,0,0-0.1,0-0.1c-0.7-3-2.1-7.4-4.1-12.1c-2.2-5.5-5.1-11.3-8.1-17
				C144.2,62.9,136.8,56.9,134.3,57.3z M168.3,117.6L168.3,117.6L168.3,117.6z M166.4,110.2C166.4,110.2,166.4,110.2,166.4,110.2
				C166.4,110.2,166.4,110.2,166.4,110.2z"/>
		</g>
	</g>
	<g class="st1">
		<path class="st2" d="M288.2,164.6c0,0,4.3-31.2-21.9-55.7c-0.8-0.7-1.1-1.9-0.8-2.9c1-3.9,2.3-14.2-7.9-26.8
			c-0.5-0.6-0.7-1.3-0.7-2c0.1-2.2-0.2-7.1-4.8-10c-1.4-0.9-1.7-2.7-0.8-4.1l7.7-11.6c1.2-1.8,3.7-1.8,4.9,0
			c3.3,4.9,9.3,14.3,15.4,25.8c0,0-7.8-38.2-17.7-37.4c-9.8,0.9-25.8,28-25.8,28s14.7,0.4,13.2,15.9c0,0,12.6,5.8,7.3,26.6
			C256.4,110.3,282.7,131.4,288.2,164.6z"/>
	</g>
	<g>
		<path class="st7" d="M256.4,110.3c0,0-0.5-0.5-1.4-1.3c-4-3.5-16.8-13.3-36.1-16.2l16-23.7c0,0,1.4-0.1,3.4,0.1
			c4.7,0.6,12.6,3.3,10.7,14.5C249.1,83.7,261.9,90.3,256.4,110.3z"/>
	</g>
	<g class="st1">
		<path class="st2" d="M255,109c-4-3.5-16.8-13.3-36.1-16.2l16-23.7c0,0,1.4-0.1,3.4,0.1l-5.7,11.1c-1,1.9-0.3,4.2,1.6,5.1
			c1.7,0.8,3.6,2.3,4,4.9c0.3,1.5,1.4,2.7,2.8,3.1C245.3,94.9,253.2,98.9,255,109z"/>
	</g>
	<g>
		<path class="st6" d="M256.4,113c-0.7,0-1.4-0.3-1.9-0.8c-0.1-0.1-13.5-13.3-36-16.7c-0.9-0.1-1.7-0.7-2.1-1.6
			c-0.4-0.9-0.3-1.8,0.2-2.6l16-23.7c0.5-0.7,1.2-1.1,2.1-1.2c0.4,0,9-0.6,14,4.9c2.6,2.8,3.6,6.5,3.2,11.2
			c3.7,2.8,11.8,11.3,7,28.6c-0.3,0.9-1,1.7-1.9,1.9C256.8,113,256.6,113,256.4,113z M223.5,90.9c15.3,3.2,26,10.3,31.2,14.4
			c2.2-14.1-6.5-18.9-6.9-19.2c-1-0.5-1.6-1.7-1.4-2.8c0.6-3.7,0.1-6.5-1.6-8.4c-2.3-2.5-6.3-3-8.4-3.1L223.5,90.9z"/>
	</g>
	<g>
		<g>
			<path class="st7" d="M349.2,487.6c-19.4,12.5-35.4,1.3-59.2-5c-23.8-6.3-18.8-25.8-18.8-25.8s14.3-17.5,57.8-13.7
				c1.3,0.1,2.6,0.3,3.8,0.4c16.6,2.2,25.5,8.2,28.8,15.3C366.1,468.7,360.1,480.6,349.2,487.6z"/>
		</g>
		<g class="st1">
			<path class="st2" d="M349.2,487.6c-19.4,12.5-35.4,1.3-59.2-5c-23.8-6.3-18.8-25.8-18.8-25.8s14.3-17.5,57.8-13.7
				c1.3,0.1,2.6,0.3,3.8,0.4c-3.7,9.8-14.1,24.2-42.5,19.8c-1.9-0.3-3.5,1.2-3.5,3c0.1,2.1,0.8,4.6,3.6,6
				c5.5,2.7,29.9,9.4,33.9,12.9c4,3.5,11.9-2.1,1.3-12.9c0,0,8.3,0.7,13,5.8c2.3,2.5,6,3.5,9.1,2.1c3.8-1.7,7.2-5.1,4.5-12.4
				c0,0,8.6-1.1,9.2-9.1C366.1,468.7,360.1,480.6,349.2,487.6z"/>
		</g>
		<g>
			<path class="st6" d="M330.7,496c-8.5,0-17-2.9-26.2-6c-4.8-1.6-9.8-3.3-15.2-4.8c-26.1-6.9-20.8-28.9-20.7-29.1
				c0.1-0.4,0.3-0.7,0.5-1c0.6-0.8,15.7-18.6,60.2-14.7c27.5,2.5,34.3,14,36,20.7c2.5,10-3.4,21.5-14.6,28.7
				C343.7,494.4,337.2,496,330.7,496z M273.7,458.1c-0.5,3.2-1.8,16.9,17,21.9c5.6,1.5,10.7,3.2,15.6,4.9c16,5.4,27.6,9.3,41.4,0.5
				c9.3-5.9,14.2-15.1,12.3-22.9c-2.2-9.1-13.3-15-31.2-16.6C291.4,442.5,276.3,455.5,273.7,458.1z"/>
		</g>
		<g>
			<path class="st6" d="M334,491.8l0.1-0.2c0-0.1,0.1-0.2,0.1-0.3c0.1-0.2,0.1-0.4,0.2-0.6c0.1-0.4,0.2-0.9,0.3-1.3
				c0.1-0.4,0.1-0.9,0.1-1.3c0-0.4,0.1-0.9,0-1.3c0-1.8-0.4-3.5-1.2-5.2c-0.4-0.8-0.8-1.7-1.4-2.4c-0.5-0.8-1.2-1.5-1.8-2.3
				c-0.7-0.8-1.5-1.4-2.2-2.2c-0.8-0.7-1.6-1.3-2.4-2.1c1.1,0.2,2.1,0.5,3.2,0.9c0.5,0.2,1,0.4,1.5,0.7c0.5,0.2,1,0.4,1.5,0.8
				c0.5,0.3,1,0.6,1.4,0.9l0.4,0.2l0.3,0.3l0.7,0.6c0.9,0.7,1.6,1.7,2.4,2.7c1.4,2,2.3,4.3,2.7,6.8c0.2,1.2,0.2,2.5,0.1,3.7
				c-0.1,0.6-0.1,1.2-0.3,1.9c-0.1,0.3-0.1,0.6-0.2,0.9c0,0.2-0.1,0.3-0.1,0.5c-0.1,0.2-0.1,0.3-0.2,0.6L334,491.8z"/>
		</g>
		<g>
			<path class="st6" d="M355.1,480l-0.2-1.4l-0.3-1.5c-0.2-1-0.4-1.9-0.7-2.9c-0.2-1-0.5-1.9-0.8-2.8c-0.3-0.9-0.6-1.9-1-2.7
				c-0.7-1.8-1.7-3.4-2.9-4.9c-0.6-0.8-1.2-1.5-2-2.2c-0.7-0.7-1.6-1.4-2.5-2.1c1.1-0.2,2.3-0.1,3.5,0.2c1.1,0.3,2.3,0.8,3.3,1.5
				c2,1.4,3.6,3.2,4.9,5.2c0.6,1,1.2,2,1.7,3.1c0.5,1.1,0.9,2.1,1.2,3.2c0.3,1.1,0.6,2.2,0.8,3.3c0.1,0.6,0.2,1.1,0.3,1.7
				c0.1,0.6,0.1,1.1,0.2,1.8L355.1,480z"/>
		</g>
	</g>
	<g>
		<g>
			<path class="st7" d="M151.8,346.7c-1,1.8-2.2,3.5-3.5,5.1c-10.1,12.4-28.5,9.4-42.1,4.7c-9.8-3.4-17.2-7.7-17.2-7.7
				c-1-0.1-2-0.4-3-0.7c0,0,0,0,0,0c-15.1-5.4-21.4-36-10-46.9c12.4-11.9,17.6,0.4,17.6,0.4c19.1-3.7,17.5,12.6,17.5,12.6
				c2.3,0.6,4.4,1.2,6.1,1.8c3.3,1.1,5.3,2.1,5.5,2.1c0,0,0,0,0,0c0-2.4,0.2-4.8,0.6-7.1c1.2-8,3.9-15.1,5.1-18.1
				c0.4-0.9,0.6-1.5,0.6-1.5C155.6,289,164.4,324.5,151.8,346.7z"/>
		</g>
		<g>
			<path class="st8" d="M151.8,346.7c-1,1.8-2.2,3.5-3.5,5.1c-10.1,12.4-28.5,9.4-42.1,4.7c5-9.7,15.2-16.3,26.9-16.3
				C140.1,340.2,146.6,342.7,151.8,346.7z"/>
		</g>
		<g class="st1">
			<path class="st2" d="M151.8,346.7c-1,1.8-2.2,3.5-3.5,5.1c-10.1,12.4-28.5,9.4-42.1,4.7c-9.8-3.4-17.2-7.7-17.2-7.7
				c13.2,3.8,25.1,3.8,34.2,2.7c9.4-1.1,16.2-9.7,15.2-19.2c-0.9-9.1-0.6-16.5-0.2-21.1c0.3-3.2-0.7-6.3-2.8-8.7
				c-3.7-4.3-5.8-7.4-7-9.6c0.4-0.9,0.6-1.5,0.6-1.5C155.6,289,164.4,324.5,151.8,346.7z"/>
		</g>
		<g class="st1">
			<path class="st2" d="M133,327c-3.9-6.7-10.3-8.7-10.3-8.7c0-2.4,0.2-4.8,0.6-7.1C131.1,316.7,133,327,133,327z"/>
		</g>
		<g class="st1">
			<path class="st2" d="M117.2,316.1c0.2,9.4-5,13.1-7.9,14.4c-1.2,0.5-2,1.6-2.3,2.8c-3.1,12.2-17.9,6.8-17.9,6.8
				c19.2-0.5,10.5-13.3,10.5-13.3c12.1,0.5,11.6-12.7,11.6-12.7C113.4,314.9,115.5,315.6,117.2,316.1z"/>
		</g>
		<g>
			<path class="st6" d="M127.3,363.4c-17.3,0-36-10-39.3-11.9c-8-1.3-14.8-8.4-18.4-19.2c-3.5-10.5-3.6-25.3,4.4-33
				c4.9-4.7,9.6-6.6,13.8-5.7c3.6,0.7,5.9,3.3,7.1,5.1c6.2-0.8,11,0.3,14.3,3.3c3.5,3.2,4.3,7.5,4.5,10.2c2.5,0.7,4.7,1.5,6.3,2.1
				c1-12.2,6.1-23.3,6.4-23.8c0.4-0.9,1.2-1.5,2.2-1.6c11.5-1.2,20.9,4,26.5,14.5c8.2,15.1,6.1,36.7-4.9,50.1
				C144.4,360.9,136,363.4,127.3,363.4z M85.9,298.8c-2.2,0-5,1.5-8,4.4c-5.3,5.1-6.6,16.6-3,27.3c3,9,8.4,14.9,14.4,15.6
				c0.4,0,0.7,0.2,1,0.3c0.4,0.2,40.1,22.9,55.9,3.6c9.5-11.6,11.3-31,4.3-44.1c-4.3-8-11.2-12.1-19.6-11.8
				c-1.5,3.7-5.4,14.1-5.4,24.1c0,0.9-0.5,1.8-1.3,2.3c-0.8,0.5-1.8,0.6-2.6,0.2c0,0-4.5-2.1-11.1-3.8c-1.3-0.3-2.1-1.6-2-2.9
				c0,0,0.4-5.2-2.8-8c-2.4-2.1-6.2-2.7-11.5-1.7c-1.3,0.2-2.5-0.4-3-1.6c0,0-1.5-3.3-4.3-3.8C86.5,298.8,86.2,298.8,85.9,298.8z"/>
		</g>
		<g>
			<path class="st6" d="M123.9,315.9c1.1,0.8,1.9,1.6,2.8,2.5c0.9,0.8,1.7,1.7,2.5,2.6c0.8,0.9,1.5,1.9,2.2,2.9
				c0.6,1,1.2,2.1,1.6,3.1c-1.6-1.7-3.5-2.9-5.5-3.9c-1-0.5-2-0.9-3-1.4c-1-0.4-2.1-0.8-3-1L123.9,315.9z"/>
		</g>
		<g>
			<path class="st6" d="M95.9,301.2c0.1,0.5,0.2,0.7,0.2,1.1c0.1,0.4,0.1,0.7,0.1,1.1c0,0.7,0,1.5-0.2,2.4c-0.1,0.4-0.2,0.9-0.4,1.3
				c-0.1,0.2-0.2,0.4-0.4,0.7l-0.1,0.2l0,0.1c0,0,0.1-0.1,0.1-0.1c0.1-0.2,0.2-0.4,0.2-0.6c0.1-0.4,0.1-0.9-0.1-1.3
				c-0.2-0.4-0.6-0.8-1-1c-0.7-0.2-0.2-0.1-0.1-0.1l0.5,0.1c1.3,0.3,2.7,0.7,4,1.4c1.3,0.7,2.5,1.7,3.5,2.9c1,1.3,1.7,2.8,1.9,4.3
				c0.1,0.8,0.2,1.5,0.2,2.2c0,0.7,0,1.3-0.1,2c-0.1,1.3-0.3,2.8-0.9,4.1c-0.5,1.4-1.3,2.8-2.5,3.9c-0.3,0.3-0.6,0.6-0.9,0.8l-0.1,0
				l0.1-0.1c0,0,0.1-0.1,0.1-0.1c0.1-0.1,0.2-0.2,0.2-0.3c0.1-0.2,0.2-0.5,0.2-0.7c0.1-0.5-0.2-1.1-0.6-1.5c-0.1,0-0.1-0.1-0.2-0.1
				l-0.1-0.1c0,0,0,0,0,0l0.2,0.1c0.2,0.1,0.3,0.2,0.4,0.3c1.2,0.9,2.3,2,3.1,3.4c0.8,1.4,1.1,3.2,0.9,4.8c-0.2,1.6-0.7,2.9-1.3,4.2
				c-0.7,1.3-1.6,2.4-2.8,3.3c-1.2,0.9-2.5,1.4-3.9,1.6c-2.7,0.4-5.3-0.1-7.4-1.4c2.4-0.3,4.6-0.8,6.4-1.8c1.8-0.9,2.9-2.2,3.6-3.8
				c0.4-0.8,0.6-1.7,0.6-2.4c0-0.7-0.2-1.3-0.5-1.9c-0.4-0.6-0.9-1.1-1.7-1.6c-0.1-0.1-0.2-0.1-0.3-0.2l-0.1-0.1l-0.2-0.1
				c-0.1-0.1-0.2-0.2-0.3-0.3c-0.9-0.7-1.3-1.9-1.2-3c0-0.6,0.2-1.1,0.5-1.6c0.1-0.2,0.3-0.5,0.5-0.7c0.1-0.1,0.2-0.2,0.3-0.3
				l0.2-0.2c0.1-0.1,0.2-0.2,0.4-0.3c0.9-1,1.5-2.7,1.6-4.6c0-0.5,0-1,0-1.5c0-0.4-0.1-0.8-0.1-1.2c-0.2-0.8-0.4-1.4-0.8-2
				c-0.8-1.1-2.4-2.1-4.2-2.6l-0.3-0.1l-0.2,0c0.1,0-0.4-0.1-0.8-0.2c-0.7-0.3-1.3-0.9-1.6-1.6c-0.3-0.7-0.4-1.4-0.2-2.1
				c0.1-0.3,0.2-0.7,0.4-1l0.2-0.2l0,0c0,0,0,0,0.1-0.1c0.1-0.1,0.1-0.2,0.2-0.3c0.1-0.3,0.2-0.7,0.2-1.1c0-0.2,0-0.4,0-0.7l0-0.6
				L95.9,301.2z"/>
		</g>
		<g>
			<path class="st6" d="M100.2,330.2l-0.3-5.4c3.1-0.2,5.4-1.1,6.8-2.8c2.4-2.9,1.8-7.2,1.8-7.2l5.4-0.8c0,0.3,1,6.6-2.9,11.4
				C108.5,328.3,104.9,329.9,100.2,330.2z"/>
		</g>
	</g>
	<g>
		<g>
			<path class="st7" d="M387.2,239.5c-0.2,4-1.1,7.5-2.3,9.7c-6.2,11.6-15.3,1.6-15.3,1.6c-2.7,5.3-9.1,3.8-9.1,3.8
				c0.3,1.9,0.2,3.5-0.1,4.7c-1,4.1-4.7,5-7.3,5.2c-0.2,0-0.5,0-0.7,0.1c-1.8,0.2-3.6,0.7-5.2,1.5c-0.3,0.2-0.7,0.3-1,0.5
				c-1.7,1-3.4,2.1-5,3.2c-29.9,20.7-39,56.1-39,56.1c0.7,4.4,1.8,8.5,3.1,12.4c7,20.5,21.5,36,26.1,68.3c1,7,1.8,12.9,2.3,17.9
				c1.5,13-6.5,25.1-18.8,28.8c-1,0.3-2,0.5-3,0.7c-59.5,10.9-102.1-12.8-102.1-12.8c2.5,16.1-12.1,25.8-23.9,28.6
				c-11.8,2.8-46.7,22.3-55.8,1.5c-2.2-4.9-2.3-9.1-1.2-12.7c1.5-4.9,5.4-8.5,9.3-11.1c5.1-3.3,10.2-4.7,10.2-4.7
				c-21.2-30-9.6-54.5-1.6-65.8c3.1-4.3,5.6-6.7,5.6-6.7s0,0,0,0c-7.8-29.4-8.7-49.6-7.8-62.1c0.7-11,2.8-15.9,2.8-15.9l91-33.1
				l60.1-35c0.1,0,0.2-0.1,0.2-0.1l30.1-17.6c10-5.8,21.9-7.6,33-4.4C382.6,208.1,388,226.8,387.2,239.5z"/>
		</g>
		<g>
			<path class="st8" d="M315,453.5c-24.1-9.2-41.3-32.5-41.3-59.9c0-23.5,12.7-44.1,31.6-55.2c7,20.5,21.5,36,26.1,68.3
				c1,7,1.8,12.9,2.3,17.9C335.2,437.6,327.2,449.7,315,453.5z"/>
		</g>
		<g class="st1">
			<path class="st2" d="M387.2,239.5c-0.2,4-1.1,7.5-2.3,9.7c-6.2,11.6-15.3,1.6-15.3,1.6c-2.7,5.3-9.1,3.8-9.1,3.8
				c0.3,1.9,0.2,3.5-0.1,4.7c-6.7,0.6-10.7-1.2-12.9-3.1c-1.8-1.5-4.3-2.1-6.6-1.5c-6,1.5-12.8-1.1-12.8-1.1
				c2.1,10.5,19.4,12.1,19.4,12.1l-0.3,0.3c-0.3,0.2-0.7,0.3-1,0.5c-1.7,1-3.4,2.1-5,3.2c-28.5-5.2-18.5-25.4-18.5-25.4
				c2.1-8.1-2.2-14.6-2.2-14.6c9.2-2.9,13.4,2.8,15.1,7c1.7,4.2,6.7,6,10.6,3.7c1.7-1,2.7-2.1,2.7-2.1c1.1-4.3-0.6-7.5-0.6-7.5
				c9,2.8-0.1,14.5,11.7,17.9c6.8,2,10.7-10.5,10.7-10.5c0.3,2.5,0,5.2,0,5.2C383.3,252.2,387.1,240.1,387.2,239.5z"/>
		</g>
		<g class="st1">
			<path class="st2" d="M352.4,264.6c-1.8,0.2-3.6,0.7-5.2,1.5c-0.3,0.2-0.7,0.3-1,0.5c-1.7,1-3.4,2.1-5,3.2
				c-29.9,20.7-39,56.1-39,56.1c0.7,4.4,1.8,8.5,3.1,12.4c7,20.5,21.5,36,26.1,68.3c1,7,1.8,12.9,2.3,17.9
				c1.5,13-6.5,25.1-18.8,28.8c-1,0.3-2,0.5-3,0.7c-59.5,10.9-102.1-12.8-102.1-12.8s-13.6-6.8-19.7-11.2c0,0,76.5,31.5,105.4,6.9
				c35.3-30-26.3-79.7,0.6-147.9c0.3-0.8,1.5-0.7,1.7,0.1c0.3,1.2,0.6,2.7,1,4.2c0.3,1.1,1.8,1.3,2.3,0.3
				C306.2,284.7,323.8,257.4,352.4,264.6z"/>
		</g>
		<g class="st1">
			<path class="st2" d="M237.1,295.9c6.5,4.7,23.2,10.5,23.2,10.5c-20.4,52.7-49.1,41.6-57.6,36.7c-1.3-0.7-2.9-0.1-3.5,1.2
				c-0.8,2-2.1,4.8-3.9,7.2c-3.2,4.2-3.1,17.7-3.1,17.7c-41.3-9.9-39.7-40.7-37.7-52c0.4-2.3-0.8-4.6-3-5.6
				c-2.2-0.9-4.5-2.1-6.8-3.4c0.7-11,2.8-15.9,2.8-15.9l91-33.1l60.1-35c-18.2,10.6-48.9,40.5-64.6,56.3c-4.1,4.2-3.5,11.2,1.5,14.3
				C236,295.2,236.6,295.6,237.1,295.9z"/>
		</g>
		<g class="st1">
			<path class="st2" d="M178,447.3c0,0-19.2,10.4-39.7,0.5c5.1-3.3,10.2-4.7,10.2-4.7S157.2,451.3,178,447.3z"/>
		</g>
		<g class="st1">
			<path class="st2" d="M159.8,392.7c-0.3-0.2-8.8-6-12.9-15.4c3.1-4.3,5.6-6.7,5.6-6.7S156.5,385.8,159.8,392.7z"/>
		</g>
		<g class="st1">
			<path class="st2" d="M186,470c-11.8,2.8-46.7,22.3-55.8,1.5c-2.2-4.9-2.3-9.1-1.2-12.7c1.9,0.4,3.3,1.9,3.3,5.2
				c0.1,5.3,3.5,7.6,7,8.5c3.7,1,7.4-0.7,9.3-4c3.2-5.4,8.5-6.5,8.5-6.5s-4.1,7.2,5,5.6c9.1-1.6,11.2-3.2,25.3-9.3
				c14.1-6.1,9.4-15.3,9.4-15.3c-5.1-6.6-6.6-12.8-6.6-12.8c6.4,4.8,19.7,11.2,19.7,11.2C212.4,457.6,197.8,467.2,186,470z"/>
		</g>
		<g>
			<path class="st6" d="M146.4,483.7c-8,0-15.1-2.8-18.7-11.1c-2.7-6.1-2.8-11.8-0.4-16.9c3.7-7.7,12.2-12.1,17-14.1
				c-13.6-21.1-11.6-39.5-7.3-51.4c3.8-10.6,10-17.9,12.6-20.6c-14.1-54.3-4.9-77.4-4.5-78.3c0.3-0.7,0.9-1.2,1.6-1.5l90.8-33
				l90.2-52.6c10.7-6.3,23.5-8,35.1-4.7c14.3,4.1,20.9,13.6,24,20.9c4.8,11.3,3.9,23.9,0.6,30c-2.3,4.2-5.2,6.5-8.7,7
				c-3.5,0.4-6.6-1.2-8.6-2.7c-2,1.9-4.5,2.6-6.7,2.8c-0.1,2.5-0.8,4.5-2.2,6.2c-1.8,2.1-4.5,3.4-7.9,3.5c-2,0.1-3.9,0.7-5.7,1.7
				c-30.4,17.9-41.2,52.5-42.6,57.1c2,11.8,6.9,21.4,12.1,31.6c6.5,12.7,13.9,27.1,17,48.6c0.9,6.5,1.7,12.6,2.4,18
				c1.8,15.5-8.8,29.8-24,32.6c-11.5,2.1-22.3,3-32.3,3c-33.4,0-57.8-9.5-67.3-13.9c-0.6,14.1-13.4,23.6-26.3,26.7
				c-2.3,0.5-5.6,1.8-9.5,3.3C168.5,479.2,156.6,483.7,146.4,483.7z M149.7,294.5c-1.5,5.1-7,28.3,5.5,75.3c0.3,1,0,2-0.8,2.7
				c-0.1,0.1-8,7.6-12.4,19.9c-5.8,16.2-2.9,32.8,8.7,49.1c0.5,0.7,0.6,1.6,0.3,2.5c-0.3,0.8-1,1.5-1.8,1.7c-0.1,0-13,3.8-17.1,12.4
				c-1.8,3.7-1.6,7.8,0.4,12.4c5.7,13.1,24.2,7.4,42.6,0.4c4-1.5,7.5-2.8,10.1-3.5c8.6-2.1,24.3-10.1,21.9-25.5
				c-0.2-1,0.3-2,1.1-2.6c0.9-0.6,2-0.6,2.9-0.1c0.4,0.2,42.5,23.1,100.3,12.5c12.4-2.3,21-14,19.5-26.6c-0.6-5.4-1.4-11.4-2.3-17.8
				c-3-20.6-9.8-34-16.5-46.9c-5.5-10.7-10.7-20.9-12.8-33.8c-0.1-0.4,0-0.7,0.1-1.1c0.4-1.7,10.8-40.7,45.2-61
				c2.5-1.5,5.3-2.3,8.2-2.5c1.3-0.1,3-0.4,4-1.6c0.9-1.1,1.2-2.8,0.8-5.2c-0.1-0.9,0.2-1.8,0.9-2.4c0.7-0.6,1.6-0.8,2.4-0.6
				c0.4,0.1,4.4,0.8,6.1-2.4c0.4-0.8,1.2-1.3,2.1-1.5c0.9-0.1,1.8,0.2,2.4,0.9c0.9,1,3.8,3.4,6.3,3.1c1.7-0.2,3.2-1.6,4.6-4.1
				c2.2-4.1,3.5-15.1-0.8-25.3c-2.6-6.2-8.3-14.3-20.5-17.8c-10.1-2.9-21.4-1.4-30.8,4.1L240,261.6c-0.1,0.1-0.3,0.2-0.4,0.2
				L149.7,294.5z"/>
		</g>
		<g>
			<g>
				<path class="st2" d="M155.2,369.9c0.3,1.8,0.6,3.7,1,5.6c0.4,1.9,0.7,3.8,1.1,5.7c0.4,1.9,0.8,3.8,1.2,5.7
					c0.4,1.9,0.9,3.8,1.2,5.8c-2.3-3.2-4.2-6.8-5.8-10.4c-0.8-1.8-1.6-3.6-2.3-5.5c-0.7-1.9-1.3-3.7-1.9-5.7L155.2,369.9z"/>
			</g>
			<g>
				<path class="st2" d="M208.7,443.9c-1.7-0.9-3.3-1.9-4.9-3c-1.6-1-3.2-2.1-4.8-3.2c-1.6-1.1-3.1-2.2-4.6-3.5
					c-1.5-1.2-2.9-2.6-4.2-4.1c1.8,0.8,3.5,1.5,5.3,2.3c1.7,0.7,3.5,1.5,5.2,2.2l10.4,4.3L208.7,443.9z"/>
			</g>
			<g>
				<path class="st2" d="M150.5,441.2c0,0,0.1,0.1,0.2,0.2c0.1,0.1,0.2,0.2,0.3,0.3c0.2,0.2,0.4,0.4,0.6,0.5c0.4,0.4,0.9,0.7,1.3,1
					c0.5,0.3,1,0.7,1.5,0.9c0.5,0.3,1,0.6,1.6,0.8c2.1,1.1,4.5,1.8,6.9,2.3l1.8,0.3c0.6,0.1,1.2,0.1,1.9,0.2
					c1.3,0.2,2.5,0.1,3.8,0.1c1.3,0,2.5-0.1,3.8-0.2c1.3-0.1,2.6-0.3,3.9-0.5c-1.2,0.5-2.4,0.9-3.7,1.4l-1.9,0.5
					c-0.6,0.2-1.3,0.4-1.9,0.5c-1.3,0.3-2.6,0.5-4,0.6c-0.7,0.1-1.3,0.2-2,0.2l-2,0c-2.7-0.1-5.5-0.5-8.2-1.4
					c-0.7-0.2-1.3-0.4-2-0.7c-0.7-0.3-1.3-0.6-2-0.9c-0.6-0.3-1.3-0.7-1.9-1.1c-0.3-0.2-0.6-0.4-0.9-0.7c-0.2-0.1-0.3-0.2-0.5-0.4
					c-0.2-0.1-0.3-0.2-0.5-0.5L150.5,441.2z"/>
			</g>
			<g>
				<path class="st2" d="M149.6,481.2c-0.2-0.5-0.3-1-0.3-1.4c-0.1-0.5-0.2-0.9-0.2-1.4c-0.1-0.9-0.2-1.9-0.2-2.8
					c0-1.9,0.1-3.8,0.6-5.7c0.2-1,0.6-1.9,1-2.8c0.4-0.9,0.9-1.8,1.6-2.6c0.7-0.8,1.5-1.4,2.4-1.9c0.9-0.4,1.9-0.6,2.9-0.6
					c-1.2,1.5-2,2.8-2.4,4.2c-0.2,0.7-0.4,1.4-0.6,2.1c-0.1,0.7-0.2,1.5-0.2,2.2c-0.1,1.5,0,3.1,0.2,4.6c0.1,0.8,0.2,1.6,0.3,2.4
					l0.4,2.3L149.6,481.2z"/>
			</g>
			<g>
				<path class="st2" d="M127.7,472.1c0-0.9,0.1-1.6,0.2-2.4c0.1-0.8,0.2-1.5,0.4-2.3c0.4-1.5,0.9-3,1.6-4.5c0.7-1.4,1.6-2.9,2.9-4
					c1.3-1.1,3.1-1.7,4.6-1.3c-1.2,1.1-2,2.1-2.5,3.2c-0.3,0.6-0.5,1.1-0.7,1.7c-0.2,0.6-0.3,1.2-0.5,1.8c-0.3,1.3-0.4,2.6-0.5,3.9
					c0,0.7-0.1,1.3-0.1,2l0,1.9L127.7,472.1z"/>
			</g>
			<g>
				<path class="st2" d="M367,250.1c0.1-0.4,0.4-0.9,0.5-1.3c0.2-0.5,0.4-0.9,0.5-1.4c0.3-0.9,0.7-1.9,1-2.9c0.3-1,0.6-2,0.9-3
					c0.3-1,0.6-2.1,0.9-3.1c0.4,1,0.7,2.1,0.9,3.2c0.3,1.1,0.4,2.2,0.5,3.3c0.1,1.1,0.2,2.2,0.2,3.3c0,0.6,0,1.1-0.1,1.7
					c-0.1,0.6-0.1,1.1-0.2,1.8L367,250.1z"/>
			</g>
			<g>
				<path class="st2" d="M360.9,257.3c-0.6,0.1-1,0.1-1.4,0.1c-0.4,0-0.9,0-1.3,0c-0.9,0-1.7-0.2-2.6-0.3c-1.7-0.3-3.4-1-4.9-1.9
					c-0.8-0.5-1.5-1.1-2.2-1.7c-0.6-0.7-1.3-1.3-1.8-2.1c-0.6-0.7-0.9-1.5-1.3-2.3c-0.4-0.8-0.6-1.6-0.9-2.4
					c-0.2-0.6-0.2-1.3,0.1-1.8l0.2-0.4c0.1-0.1,0.2-0.4,0.4-0.6c0.1-0.2,0.3-0.5,0.4-0.7c0.3-0.5,0.5-1,0.8-1.5
					c0.5-1,0.9-2.1,1.2-3.3c0.3-1.1,0.6-2.3,0.7-3.6c0.2-1.2,0.2-2.5,0.1-3.9c0.8,1.1,1.6,2.3,2,3.6c0.3,0.7,0.4,1.4,0.6,2.1
					c0.1,0.7,0.3,1.4,0.3,2.1c0.1,1.4,0,2.9-0.3,4.3c-0.1,0.7-0.3,1.4-0.6,2.1c-0.1,0.3-0.2,0.7-0.4,1.1c-0.2,0.4-0.3,0.7-0.6,1.1
					l0,0l0.3-2.2c0.2,0.5,0.4,1.1,0.6,1.7c0.3,0.5,0.5,1,0.9,1.5c0.6,0.9,1.4,1.7,2.3,2.2c0.9,0.6,2,1,3.1,1.2
					c0.6,0.1,1.2,0.2,1.8,0.2c0.3,0,0.6,0,0.9,0c0.3,0,0.6,0,0.8,0L360.9,257.3z"/>
			</g>
			<g>
				<path class="st2" d="M348.9,247.9l-0.3,0.3c-0.1,0.1-0.2,0.2-0.3,0.3c-0.2,0.2-0.4,0.3-0.6,0.5c-0.4,0.3-0.8,0.6-1.2,0.8
					c-0.8,0.5-1.7,1-2.6,1.3c-0.9,0.4-1.8,0.6-2.8,0.8c-1,0.2-1.9,0.3-3,0.3c-1.1,0-2.2-0.2-3.3-0.5c-1-0.4-2.1-0.8-3-1.5
					c-1.8-1.3-3.2-3-4-5c-0.4-1-0.7-2-0.8-3.1c-0.1-0.6-0.1-0.9-0.1-1.3c0-0.4-0.1-0.7-0.1-1.1c-0.2-1.4-0.4-2.9-0.9-4.1
					c-0.2-0.6-0.5-1.2-0.8-1.8c-0.3-0.5-0.6-1.1-1-1.5c-0.7-1-1.9-1.8-3.7-2.5c1.5-1.1,3.7-1.3,5.6-0.5c1,0.4,1.8,1.1,2.6,1.8
					c0.7,0.7,1.3,1.6,1.7,2.4c0.9,1.7,1.5,3.5,1.8,5.2c0.1,0.4,0.2,0.9,0.3,1.3c0.1,0.4,0.1,0.9,0.2,1.1c0.1,0.5,0.3,1.1,0.5,1.5
					c0.5,1,1.2,1.8,2.1,2.4c0.9,0.6,1.9,0.9,2.9,0.9c0.5,0,1.2-0.1,1.8-0.2c0.6-0.1,1.3-0.2,1.9-0.4c0.6-0.2,1.2-0.4,1.8-0.7
					c0.3-0.1,0.6-0.3,0.9-0.4l0.4-0.2l0.2-0.1c0.1,0,0.1-0.1,0.1-0.1L348.9,247.9z"/>
			</g>
			<g>
				<path class="st2" d="M347.6,268.5c-0.7,0-16.1-0.9-21.1-9.9c-2.5-4.5-2-10,1.4-16.3l4.8,2.6c-2.5,4.6-3,8.3-1.4,11
					c3,5.3,13,7,16.7,7.2L347.6,268.5z"/>
			</g>
			<g>
				<path class="st2" d="M299.7,327.1c-0.2-0.5-0.2-0.5-0.3-0.7l-0.1-0.4c-0.1-0.3-0.1-0.6-0.2-0.8c-0.1-0.5-0.2-1-0.3-1.6
					c-0.2-1-0.3-2-0.4-3c-0.2-2-0.3-4-0.4-6c-0.1-4-0.2-8,0.5-12c0.8,1.9,1.3,3.8,1.9,5.7c0.5,1.9,0.9,3.8,1.4,5.7l1.4,5.7l0.7,2.8
					c0.1,0.5,0.2,0.9,0.4,1.3l0.2,0.6l0.1,0.3c0,0,0.1,0.2,0,0L299.7,327.1z"/>
			</g>
		</g>
	</g>
	<g>
		<g>
			<g>
				<path class="st0" d="M192,368.9c0.1,0.2,0.2,0.3,0.2,0.3s-23.4-3.2-30.9-31.6c-3.2-12.1-0.8-21,3.1-27.3
					c5.2-8.5,12.9-12.1,12.9-12.1c29.2,3.2,21.5,31.1,13.7,43.6C184,353.2,190.8,366.6,192,368.9z"/>
			</g>
			<g class="st1">
				<path class="st2" d="M192,368.9c-15.7-9.3-10-27.6-6-36.4c1.4-3.1,1.2-6.6-0.4-9.5c0,0-0.1-0.1-0.1-0.1c-1.6-3-4.7-5.1-8.1-5.3
					c-7.4-0.5-11.2-4.2-13.1-7.2c5.2-8.5,12.9-12.1,12.9-12.1c29.2,3.2,21.5,31.1,13.7,43.6C184,353.2,190.8,366.6,192,368.9z"/>
			</g>
			<g class="st15">
				<path class="st7" d="M191.3,367.4c-7.5-3.5-18.3-11.4-23-29.1c-3.2-12.1-0.8-21,3.1-27.3c4.2-6.8,10-10.5,12.1-11.7
					c-1.8-0.5-3.9-0.9-6.2-1.2c0,0-7.7,3.6-12.9,12.1c-3.8,6.3-6.2,15.2-3.1,27.3c7.5,28.4,30.9,31.6,30.9,31.6s-0.1-0.1-0.2-0.3
					C191.9,368.6,191.6,368.1,191.3,367.4z"/>
			</g>
			<g>
				<path class="st2" d="M192.2,371.9c-0.1,0-0.2,0-0.4,0c-1-0.1-25.3-3.8-33.2-33.6c-8-30.2,17.2-42.4,17.4-42.5
					c0.5-0.2,1-0.3,1.5-0.2c10.4,1.2,17.4,5.3,20.9,12.4c5.8,11.8-0.5,27.8-5.2,35.3c-6.8,11,1.2,24.5,1.2,24.6
					c0.5,0.9,0.5,2-0.1,2.9C194,371.5,193.1,371.9,192.2,371.9z M177.8,301c-3.6,2-20,12.4-13.8,35.9c4.8,18.2,16.5,25.4,23.4,28.1
					c-2.2-6-4.1-15.7,1.4-24.6c5.3-8.5,9-21.6,4.9-30.1C191.1,305.2,185.7,302,177.8,301z"/>
			</g>
			<g>
				<path class="st2" d="M183.9,300.2c-0.3,0.5-0.6,1.2-0.8,1.8c-0.3,0.6-0.6,1.3-0.8,1.9l-0.8,2c-0.2,0.7-0.5,1.3-0.7,2
					c-0.9,2.7-1.7,5.4-2.3,8.3c-0.2,0.7-0.3,1.4-0.4,2.1l-0.4,2.1c-0.2,1.4-0.4,2.9-0.5,4.3c-0.4,2.9-0.4,5.8-0.6,8.9
					c-1.2-2.8-2-5.8-2.3-8.9c-0.2-1.5-0.3-3.1-0.3-4.6c0-0.8,0-1.5,0.1-2.3c0-0.8,0.1-1.5,0.1-2.3c0.3-3.1,0.8-6.2,1.6-9.2
					c0.4-1.5,0.9-3,1.5-4.5c0.3-0.7,0.6-1.5,0.9-2.2c0.3-0.7,0.7-1.4,1.1-2.2L183.9,300.2z"/>
			</g>
		</g>
		<g>
			<g>
				<path class="st0" d="M260.3,306.4c0,0-21.4,39.9-50.1,29.4c-28.7-10.5-17.9-37.6-17.9-37.6c5.7-5.5,11-6.6,17.2-5.2
					c5.3,1.2,11.3,4.4,18.7,8.3c12.2,6.5,24.7,6,29.9,5.5C259.4,306.6,260.3,306.4,260.3,306.4z"/>
			</g>
			<g class="st1">
				<path class="st2" d="M260.3,306.4c0,0-21.4,39.9-50.1,29.4c-28.7-10.5-17.9-37.6-17.9-37.6c5.7-5.5,11-6.6,17.2-5.2
					c-0.5,3.1-1.6,6.8-4,10.3c-6.5,9.8-0.1,23.1,11.7,23.5c2.6,0.1,5.6-0.2,9.1-0.9c13.8-2.8,24.5-11.4,31.7-19.2
					C259.4,306.6,260.3,306.4,260.3,306.4z"/>
			</g>
			<g>
				<path class="st2" d="M219.8,340.3c-3.5,0-7.1-0.6-10.6-1.9c-9.4-3.4-15.8-8.9-19.2-16.3c-5.4-11.9-0.6-24.3-0.4-24.8
					c0.1-0.4,0.4-0.7,0.6-1c12.1-11.6,22.7-6,38.8,2.5l0.1,0.1c14.7,7.8,30.3,4.9,30.5,4.9c1-0.2,2.1,0.2,2.7,1.1
					c0.6,0.8,0.7,2,0.2,2.9c-0.2,0.4-5.7,10.4-14.8,19.3C238.8,335.8,229.2,340.3,219.8,340.3z M194.6,299.7
					c-0.8,2.3-3.4,11.6,0.5,20.1c2.7,6,8.1,10.5,16.1,13.4c20.5,7.5,37.5-13.9,44-23.6c-6.5,0.3-17.5-0.3-28.3-6l-0.1-0.1
					C210.4,294.9,203.3,291.7,194.6,299.7z"/>
			</g>
			<g>
				<path class="st2" d="M192.9,300.7c3.4,2.8,7,5.7,10.7,8.1c1.8,1.3,3.7,2.4,5.6,3.5l1.4,0.8l1.5,0.7c1,0.4,2,0.9,3.1,1.3
					c2.1,0.8,4.2,1.4,6.4,1.9c2.2,0.5,4.4,0.8,6.6,0.9c1.1,0,2.2,0,3.3-0.1c1.1-0.1,2.2-0.2,3.3-0.4c2.2-0.4,4.4-1.1,6.5-2.3
					c-1.6,1.7-3.8,3-6,3.9c-2.2,1-4.6,1.6-7,1.9c-2.4,0.3-4.9,0.4-7.4,0.2c-2.5-0.2-4.9-0.6-7.3-1.2c-1.2-0.3-2.4-0.6-3.5-1
					l-1.8-0.7l-1.7-0.7c-2.3-1-4.4-2.3-6.4-3.6c-2-1.3-4-2.8-5.8-4.3c-1.9-1.6-3.6-3.1-5.3-5L192.9,300.7z"/>
			</g>
		</g>
		<g>
			<g>
				<path class="st0" d="M186.5,296.2c0,0-13.3,19.1-42.2,5c-21.3-10.4-20.8-17.1-19-19.9c0.6-1,1.4-1.5,1.4-1.5
					c-4.8-6.8-1.1-13.7-1.1-13.7c6.4,7.1,19.8,11.9,27.3,14.2c3.3,1,5.5,1.5,5.5,1.5L186.5,296.2z"/>
			</g>
			<g class="st1">
				<path class="st2" d="M186.5,296.2c0,0-13.3,19.1-42.2,5c-21.3-10.4-20.8-17.1-19-19.9c2.4,3.5,7.9,8.5,19.7,11.2
					c4.5,1,8.7-2.7,8.2-7.4c-0.2-1.5-0.3-3.1-0.2-4.8c3.3,1,5.5,1.5,5.5,1.5L186.5,296.2z"/>
			</g>
			<g>
				<path class="st2" d="M164.1,309.1c-5.9,0-12.9-1.5-21.1-5.4c-14-6.8-20.9-13.1-21.3-19.2c-0.1-2.1,0.6-3.8,1.5-5.1
					c-3.9-7.4-0.2-14.3-0.1-14.6c0.4-0.8,1.2-1.3,2.1-1.4c0.9-0.1,1.7,0.2,2.3,0.9c8.6,9.4,31.2,14.9,31.4,14.9
					c0.2,0,0.4,0.1,0.6,0.2l28.1,14.3c0.7,0.4,1.2,1,1.4,1.8c0.2,0.8,0,1.6-0.4,2.2C188.6,297.9,180.6,309.1,164.1,309.1z
					 M127,271.1c-0.2,2,0.1,4.6,1.9,7.2c0.4,0.6,0.6,1.4,0.5,2.1c-0.1,0.7-0.6,1.4-1.2,1.8c-0.1,0-1,0.8-0.9,2.2
					c0.2,1.8,2.2,6.8,18.3,14.5c20.3,9.9,32.1,2.4,36.6-1.8l-24.7-12.5C154.7,283.8,137.2,279.3,127,271.1z"/>
			</g>
			<g>
				<path class="st2" d="M187.1,298.8c-1.3,0.2-2.4,0.3-3.6,0.4c-1.2,0.1-2.3,0.1-3.5,0.2c-1.2,0-2.3,0-3.5,0
					c-1.2-0.1-2.3-0.1-3.5-0.2c-4.6-0.4-9.1-1.2-13.5-2.6l-1.6-0.5c-0.5-0.2-1.1-0.4-1.6-0.6c-1.1-0.4-2.1-0.8-3.2-1.2
					c-2.1-1-4.2-1.8-6.1-3c-4-2.1-7.5-5-10.9-7.9c3.7,2.6,7.4,5,11.5,6.6c2,1,4.1,1.6,6.2,2.3c1.1,0.3,2.1,0.6,3.2,0.9
					c0.5,0.1,1.1,0.3,1.6,0.4l1.6,0.3c4.3,0.8,8.7,1.2,13,1.1c1.1,0,2.2-0.1,3.2-0.1c1.1-0.1,2.2-0.2,3.2-0.3
					c1.1-0.1,2.1-0.3,3.2-0.5c1-0.2,2.1-0.4,3-0.6L187.1,298.8z"/>
			</g>
		</g>
		<g>
			<g>
				<path class="st0" d="M291.2,228.7C291.2,228.7,291.2,228.7,291.2,228.7c-40.4,25.9-89,68.4-89,68.4l-10-18.9
					c3.5-3.3,7.1-6.5,10.6-9.4C247.4,232.5,291.2,228.7,291.2,228.7z"/>
			</g>
			<g class="st1">
				<path class="st2" d="M291.2,228.7c-40.4,25.9-89,68.4-89,68.4l-10-18.9c3.5-3.3,7.1-6.5,10.6-9.4c0,0,0,0.1,0.1,0.1
					c3.2,4.3,9.2,5.3,13.5,2.1C230.8,260.5,261,239.7,291.2,228.7z"/>
			</g>
			<g>
				<path class="st2" d="M202.2,299.8c-0.2,0-0.3,0-0.5,0c-0.8-0.2-1.5-0.7-1.9-1.4l-10-18.9c-0.6-1.1-0.4-2.4,0.5-3.2
					c48-45.2,98.5-50.1,100.6-50.3c1.2-0.1,2.4,0.6,2.8,1.8c0.4,1.2-0.1,2.5-1.1,3.2c-39.7,25.5-88.2,67.8-88.6,68.2
					C203.5,299.6,202.9,299.8,202.2,299.8z M195.6,278.8l7.4,14c9.5-8.2,43.7-37.1,75.7-59.1C261,237.9,227.6,249.3,195.6,278.8z"/>
			</g>
			<g>
				<path class="st2" d="M194.8,284.6c4-3.2,8-6,12.1-8.8c4.1-2.8,8.2-5.5,12.5-8c4.2-2.6,8.5-5,12.9-7.3c4.3-2.3,8.8-4.4,13.2-6.5
					c-4.3,2.5-8.5,5-12.5,7.7c-4.1,2.7-8.1,5.5-12,8.4c-3.9,2.9-7.8,5.9-11.5,9c-3.7,3.1-7.5,6.3-10.9,9.6L194.8,284.6z"/>
			</g>
		</g>
		<g>
			<g>
				<path class="st0" d="M188,306.2c-13.2,12.2-30-7.5-30-20.9c0-6.8,3.9-9,7.7-9.6c3.8-0.6,7.5,0.5,7.5,0.5
					c0.2-0.3,0.4-0.6,0.7-0.9c9.2-12.1,28.7-6.1,29.8,9.1C205.4,308.2,188,306.2,188,306.2z"/>
			</g>
			<g class="st1">
				<path class="st2" d="M203.6,284.4c-0.5-7.4-5.4-12.6-11.3-14.6c1.1,2,1.3,4.4,2,6.8c6.8,24-10.6,22.6-14.8,22
					c-0.5-0.1-0.9,0.2-1,0.7c-1.8,7.1-10,3.7-14.5,1.7c6.1,8,15.7,12.8,24,5.2C188,306.2,205.4,308.2,203.6,284.4z"/>
			</g>
			<g class="st1">
				<path class="st2" d="M181.6,290.7c0,0-14.9-0.6-15.9-15c3.8-0.6,7.5,0.5,7.5,0.5S170.6,284.7,181.6,290.7z"/>
			</g>
			<g class="st15">
				<path class="st7" d="M161.9,290c0-6.8,3.9-9,7.7-9.6c1.9-0.3,3.5,0,4.5,0.3c1,0.3,2.2,0.2,3.1-0.4c0.2-0.2,0.4-0.3,0.5-0.4
					c6.2-8.2,17.1-8.1,23.9-2.5c-5.4-9.8-20.1-12.2-27.7-2.1c-0.2,0.3-0.4,0.6-0.7,0.9c0,0-3.7-1-7.5-0.5c-3.8,0.6-7.7,2.8-7.7,9.6
					c0,6.2,3.6,13.8,8.9,18.9C163.8,299.8,161.9,294.5,161.9,290z"/>
			</g>
			<g>
				<path class="st2" d="M178.9,312.7c-2.2,0-4.4-0.5-6.7-1.5c-9.2-4-17-15.9-17-25.9c0-4.5,1.5-7.8,4.3-10c4-3.1,9.6-2.7,12.5-2.2
					c4.9-6.1,12.7-8.5,20.3-6.2c7.9,2.3,13.4,9.1,14,17.2c0.7,9.2-1.2,16-5.7,20.3c-4.2,4-9.3,4.5-11.7,4.5c0,0,0,0,0,0
					C185.9,311.4,182.5,312.7,178.9,312.7z M168.1,278.2c-1.9,0-3.9,0.3-5.3,1.4c-1.5,1.1-2.2,3-2.2,5.7c0,7.8,6.5,17.8,13.7,21
					c4.3,1.9,8.2,1.2,11.7-2.1c0.6-0.5,1.4-0.8,2.2-0.7c0,0,5,0.5,8.6-3c3.2-3.1,4.6-8.5,4-15.9c-0.5-7.1-5.6-11.1-10.1-12.4
					c-4.4-1.3-10.6-0.7-14.8,4.8c-0.2,0.3-0.4,0.5-0.6,0.8c-0.7,0.9-1.8,1.4-2.9,1.1C171.6,278.6,169.9,278.2,168.1,278.2z"/>
			</g>
			<g>
				<path class="st2" d="M175.8,276.8l-0.1,0.8c0,0.3-0.1,0.6-0.1,0.9c-0.1,0.6-0.1,1.3,0,1.9c0,1.3,0.2,2.5,0.6,3.7
					c0.4,1.2,1,2.4,2,3.5c0.4,0.6,1,1,1.5,1.6c0.6,0.5,1.2,0.9,1.8,1.5c-0.8-0.1-1.6-0.1-2.4-0.3c-0.8-0.2-1.6-0.4-2.4-0.9
					c-1.6-0.7-3-1.9-4.1-3.4c-1.1-1.5-1.8-3.2-2.2-5c-0.1-0.4-0.2-0.9-0.2-1.3c0-0.5-0.1-0.9-0.1-1.4c0-0.5,0-0.9,0.1-1.4
					c0.1-0.5,0.1-0.9,0.2-1.5L175.8,276.8z"/>
			</g>
			<g>
				<path class="st2" d="M187.1,308.7c-0.5-0.2-0.8-0.4-1.2-0.6c-0.4-0.2-0.7-0.5-1-0.7c-0.7-0.5-1.3-1.1-1.8-1.7
					c-0.6-0.6-1-1.3-1.4-2.1c-0.4-0.7-0.7-1.6-0.8-2.4c0.8,0.3,1.5,0.6,2.2,0.9c0.7,0.2,1.4,0.5,2,0.6c0.7,0.2,1.3,0.3,2,0.5l1,0.2
					c0.3,0.1,0.7,0.1,0.8,0.2L187.1,308.7z"/>
			</g>
		</g>
	</g>
</g>
</svg>
