<svg height="146.485" viewBox="0 0 163.485 146.485" width="163.485" xmlns="http://www.w3.org/2000/svg" xmlns:xlink="http://www.w3.org/1999/xlink"><clipPath id="a"><path d="m0 0h163.485v146.485h-163.485z"/></clipPath><g clip-path="url(#a)" fill="#b548f2"><path d="m0 0h6v6h-6z" transform="matrix(.70710678 .70710678 -.70710678 .70710678 4.243 0)"/><path d="m0 0h6v6h-6z" transform="matrix(.70710678 .70710678 -.70710678 .70710678 23.243 0)"/><path d="m0 0h6v6h-6z" transform="matrix(.70710678 .70710678 -.70710678 .70710678 42.243 0)"/><path d="m0 0h6v6h-6z" transform="matrix(.70710678 .70710678 -.70710678 .70710678 61.243 0)"/><path d="m0 0h6v6h-6z" transform="matrix(.70710678 .70710678 -.70710678 .70710678 80.243 0)"/><path d="m0 0h6v6h-6z" transform="matrix(.70710678 .70710678 -.70710678 .70710678 99.243 0)"/><path d="m0 0h6v6h-6z" transform="matrix(.70710678 .70710678 -.70710678 .70710678 118.243 0)"/><path d="m0 0h6v6h-6z" transform="matrix(.70710678 .70710678 -.70710678 .70710678 137.243 0)"/><path d="m0 0h6v6h-6z" transform="matrix(.70710678 .70710678 -.70710678 .70710678 156.243 0)"/><path d="m0 0h6v6h-6z" transform="matrix(.70710678 .70710678 -.70710678 .70710678 4.243 19)"/><path d="m0 0h6v6h-6z" transform="matrix(.70710678 .70710678 -.70710678 .70710678 23.243 19)"/><path d="m0 0h6v6h-6z" transform="matrix(.70710678 .70710678 -.70710678 .70710678 42.243 19)"/><path d="m0 0h6v6h-6z" transform="matrix(.70710678 .70710678 -.70710678 .70710678 61.243 19)"/><path d="m0 0h6v6h-6z" transform="matrix(.70710678 .70710678 -.70710678 .70710678 80.243 19)"/><path d="m0 0h6v6h-6z" transform="matrix(.70710678 .70710678 -.70710678 .70710678 99.243 19)"/><path d="m0 0h6v6h-6z" transform="matrix(.70710678 .70710678 -.70710678 .70710678 118.243 19)"/><path d="m0 0h6v6h-6z" transform="matrix(.70710678 .70710678 -.70710678 .70710678 137.243 19)"/><path d="m0 0h6v6h-6z" transform="matrix(.70710678 .70710678 -.70710678 .70710678 156.243 19)"/><path d="m0 0h6v6h-6z" transform="matrix(.70710678 .70710678 -.70710678 .70710678 4.243 38)"/><path d="m0 0h6v6h-6z" transform="matrix(.70710678 .70710678 -.70710678 .70710678 23.243 38)"/><path d="m0 0h6v6h-6z" transform="matrix(.70710678 .70710678 -.70710678 .70710678 42.243 38)"/><path d="m0 0h6v6h-6z" transform="matrix(.70710678 .70710678 -.70710678 .70710678 61.243 38)"/><path d="m0 0h6v6h-6z" transform="matrix(.70710678 .70710678 -.70710678 .70710678 80.243 38)"/><path d="m0 0h6v6h-6z" transform="matrix(.70710678 .70710678 -.70710678 .70710678 99.243 38)"/><path d="m0 0h6v6h-6z" transform="matrix(.70710678 .70710678 -.70710678 .70710678 118.243 38)"/><path d="m0 0h6v6h-6z" transform="matrix(.70710678 .70710678 -.70710678 .70710678 137.243 38)"/><path d="m0 0h6v6h-6z" transform="matrix(.70710678 .70710678 -.70710678 .70710678 156.243 38)"/><path d="m0 0h6v6h-6z" transform="matrix(.70710678 .70710678 -.70710678 .70710678 4.243 57)"/><path d="m0 0h6v6h-6z" transform="matrix(.70710678 .70710678 -.70710678 .70710678 23.243 57)"/><path d="m0 0h6v6h-6z" transform="matrix(.70710678 .70710678 -.70710678 .70710678 42.243 57)"/><path d="m0 0h6v6h-6z" transform="matrix(.70710678 .70710678 -.70710678 .70710678 61.243 57)"/><path d="m0 0h6v6h-6z" transform="matrix(.70710678 .70710678 -.70710678 .70710678 80.243 57)"/><path d="m0 0h6v6h-6z" transform="matrix(.70710678 .70710678 -.70710678 .70710678 99.243 57)"/><path d="m0 0h6v6h-6z" transform="matrix(.70710678 .70710678 -.70710678 .70710678 118.243 57)"/><path d="m0 0h6v6h-6z" transform="matrix(.70710678 .70710678 -.70710678 .70710678 137.243 57)"/><path d="m0 0h6v6h-6z" transform="matrix(.70710678 .70710678 -.70710678 .70710678 156.243 57)"/><path d="m0 0h6v6h-6z" transform="matrix(.70710678 .70710678 -.70710678 .70710678 4.243 76)"/><path d="m0 0h6v6h-6z" transform="matrix(.70710678 .70710678 -.70710678 .70710678 23.243 76)"/><path d="m0 0h6v6h-6z" transform="matrix(.70710678 .70710678 -.70710678 .70710678 42.243 76)"/><path d="m0 0h6v6h-6z" transform="matrix(.70710678 .70710678 -.70710678 .70710678 61.243 76)"/><path d="m0 0h6v6h-6z" transform="matrix(.70710678 .70710678 -.70710678 .70710678 80.243 76)"/><path d="m0 0h6v6h-6z" transform="matrix(.70710678 .70710678 -.70710678 .70710678 99.243 76)"/><path d="m0 0h6v6h-6z" transform="matrix(.70710678 .70710678 -.70710678 .70710678 118.243 76)"/><path d="m0 0h6v6h-6z" transform="matrix(.70710678 .70710678 -.70710678 .70710678 137.243 76)"/><path d="m0 0h6v6h-6z" transform="matrix(.70710678 .70710678 -.70710678 .70710678 156.243 76)"/><path d="m0 0h6v6h-6z" transform="matrix(.70710678 .70710678 -.70710678 .70710678 4.243 95)"/><path d="m0 0h6v6h-6z" transform="matrix(.70710678 .70710678 -.70710678 .70710678 23.243 95)"/><path d="m0 0h6v6h-6z" transform="matrix(.70710678 .70710678 -.70710678 .70710678 42.243 95)"/><path d="m0 0h6v6h-6z" transform="matrix(.70710678 .70710678 -.70710678 .70710678 61.243 95)"/><path d="m0 0h6v6h-6z" transform="matrix(.70710678 .70710678 -.70710678 .70710678 80.243 95)"/><path d="m0 0h6v6h-6z" transform="matrix(.70710678 .70710678 -.70710678 .70710678 99.243 95)"/><path d="m0 0h6v6h-6z" transform="matrix(.70710678 .70710678 -.70710678 .70710678 118.243 95)"/><path d="m0 0h6v6h-6z" transform="matrix(.70710678 .70710678 -.70710678 .70710678 137.243 95)"/><path d="m0 0h6v6h-6z" transform="matrix(.70710678 .70710678 -.70710678 .70710678 156.243 95)"/><path d="m0 0h6v6h-6z" transform="matrix(.70710678 .70710678 -.70710678 .70710678 4.243 114)"/><path d="m0 0h6v6h-6z" transform="matrix(.70710678 .70710678 -.70710678 .70710678 23.243 114)"/><path d="m0 0h6v6h-6z" transform="matrix(.70710678 .70710678 -.70710678 .70710678 42.243 114)"/><path d="m0 0h6v6h-6z" transform="matrix(.70710678 .70710678 -.70710678 .70710678 61.243 114)"/><path d="m0 0h6v6h-6z" transform="matrix(.70710678 .70710678 -.70710678 .70710678 80.243 114)"/><path d="m0 0h6v6h-6z" transform="matrix(.70710678 .70710678 -.70710678 .70710678 99.243 114)"/><path d="m0 0h6v6h-6z" transform="matrix(.70710678 .70710678 -.70710678 .70710678 118.243 114)"/><path d="m0 0h6v6h-6z" transform="matrix(.70710678 .70710678 -.70710678 .70710678 137.243 114)"/><path d="m0 0h6v6h-6z" transform="matrix(.70710678 .70710678 -.70710678 .70710678 156.243 114)"/><path d="m0 0h6v6h-6z" transform="matrix(.70710678 .70710678 -.70710678 .70710678 4.243 133)"/><path d="m0 0h6v6h-6z" transform="matrix(.70710678 .70710678 -.70710678 .70710678 23.243 133)"/><path d="m0 0h6v6h-6z" transform="matrix(.70710678 .70710678 -.70710678 .70710678 42.243 133)"/><path d="m0 0h6v6h-6z" transform="matrix(.70710678 .70710678 -.70710678 .70710678 61.243 133)"/><path d="m0 0h6v6h-6z" transform="matrix(.70710678 .70710678 -.70710678 .70710678 80.243 133)"/><path d="m0 0h6v6h-6z" transform="matrix(.70710678 .70710678 -.70710678 .70710678 99.243 133)"/><path d="m0 0h6v6h-6z" transform="matrix(.70710678 .70710678 -.70710678 .70710678 118.243 133)"/><path d="m0 0h6v6h-6z" transform="matrix(.70710678 .70710678 -.70710678 .70710678 137.243 133)"/><path d="m0 0h6v6h-6z" transform="matrix(.70710678 .70710678 -.70710678 .70710678 156.243 133)"/></g></svg>