<svg id="Layer_1" data-name="Layer 1" xmlns="http://www.w3.org/2000/svg" width="264.4" height="49.92" viewBox="0 0 264.4 49.92">
  <title>logo-2</title>
  <g>
    <path d="M61.13,36.85c-.2,11.2-12.4,17.7-27.2,17.4s-26.7-7.2-26.5-18.4,12.4-22.2,27.3-22S61.33,25.75,61.13,36.85Z" transform="translate(-2.23 -5.04)" fill="#fff"/>
    <g opacity="0.2">
      <path d="M34.23,54.25C19.33,54,7.43,47,7.73,35.85v-.2c2.2,9,13,14.4,26.1,14.7,14.8.3,26.9-6.2,27.2-17.3a17.22,17.22,0,0,1,.4,3.9C61.13,48,49,54.55,34.23,54.25Z" transform="translate(-2.23 -5.04)" fill="#390075"/>
    </g>
    <path d="M25.23,54.05a30.66,30.66,0,0,1-10.6-4.3c-5.3-3.5-8-8.3-7.9-13.9s3.2-11.4,8.4-15.8a29.73,29.73,0,0,1,19.6-6.9A29.24,29.24,0,0,1,54,20.75c5.1,4.6,7.9,10.5,7.8,16.1s-3,10.3-8.5,13.6c-5,3.1-11.9,4.7-19.5,4.5A40.47,40.47,0,0,1,25.23,54.05Zm15-38.8a25.73,25.73,0,0,0-5.5-.6c-14.9-.3-26.3,11-26.5,21.2-.2,8.1,6.6,14.4,17.2,16.7a45,45,0,0,0,8.5,1c15.4.3,26.3-6.6,26.4-16.7.1-5.2-2.6-10.7-7.3-15A28.06,28.06,0,0,0,40.23,15.25Z" transform="translate(-2.23 -5.04)" fill="#390075"/>
    <path d="M25.23,54.05a30.66,30.66,0,0,1-10.6-4.3c-5.3-3.5-8-8.3-7.9-13.9s3.2-11.4,8.4-15.8a29.73,29.73,0,0,1,19.6-6.9A29.24,29.24,0,0,1,54,20.75c5.1,4.6,7.9,10.5,7.8,16.1s-3,10.3-8.5,13.6c-5,3.1-11.9,4.7-19.5,4.5A40.47,40.47,0,0,1,25.23,54.05Zm15-38.8a25.73,25.73,0,0,0-5.5-.6c-14.9-.3-26.3,11-26.5,21.2-.2,8.1,6.6,14.4,17.2,16.7a45,45,0,0,0,8.5,1c15.4.3,26.3-6.6,26.4-16.7.1-5.2-2.6-10.7-7.3-15A28.06,28.06,0,0,0,40.23,15.25Z" transform="translate(-2.23 -5.04)" fill="#390075"/>
    <path d="M36.43,22.05a6.62,6.62,0,0,1-1.5.1c-2.8-.1-3.8-1.7-3.9-2.8A13.84,13.84,0,0,0,36.43,22.05Z" transform="translate(-2.23 -5.04)" fill="#fe6dcb"/>
    <path d="M36.23,22.75a13.32,13.32,0,0,1-5.7-2.9,2.19,2.19,0,0,1-.3-.5v-.2h0a22.29,22.29,0,0,1,.3-3.2.63.63,0,0,1,.5-.6.57.57,0,0,1,.7.2,12.28,12.28,0,0,0,7.4,3.3.55.55,0,0,1,.5.3.66.66,0,0,1,.1.6,3.69,3.69,0,0,1-3,2.9c-.1,0-.3.1-.4.1Zm.2-.7ZM31.73,19a11.31,11.31,0,0,0,4.7,2.3h.1a2.77,2.77,0,0,0,1.6-1,13.78,13.78,0,0,1-6.3-2.7C31.83,18.15,31.73,18.55,31.73,19Z" transform="translate(-2.23 -5.04)" fill="#390075"/>
    <g>
      <path d="M37.73,21.65a3.18,3.18,0,0,1-.9.3.37.37,0,0,0-.3.1,13.1,13.1,0,0,1-5.4-2.7v-.2a20,20,0,0,1,.3-3.1,12.84,12.84,0,0,0,6.5,3.4,6.75,6.75,0,0,0,1.4.2A3.36,3.36,0,0,1,37.73,21.65Z" transform="translate(-2.23 -5.04)" fill="#33aef1"/>
      <path d="M36.43,22.15a13.1,13.1,0,0,1-5.4-2.7h0v-.1h0a21.12,21.12,0,0,1,.3-3.1v-.2l.1.1a13.44,13.44,0,0,0,6.4,3.4,7.84,7.84,0,0,0,1.4.2h.1v.1a2.66,2.66,0,0,1-1.6,2,3.18,3.18,0,0,1-.9.3Zm-5.3-2.9a14,14,0,0,0,5.3,2.7h0a.37.37,0,0,0,.3-.1l.9-.3h0a2.81,2.81,0,0,0,1.5-1.8,5.85,5.85,0,0,1-1.3-.2,13.17,13.17,0,0,1-6.4-3.3,10.29,10.29,0,0,0-.2,2.9l-.1.1Z" transform="translate(-2.23 -5.04)" fill="#390075"/>
    </g>
    <g opacity="0.6">
      <path d="M37.73,21.65a16.2,16.2,0,0,0,.1-2.2,6.75,6.75,0,0,0,1.4.2A2.86,2.86,0,0,1,37.73,21.65Z" transform="translate(-2.23 -5.04)" fill="#fff"/>
    </g>
    <path d="M39.23,19.65a5.9,5.9,0,0,1-1.4-.2,13.45,13.45,0,0,1-6.5-3.4c.2-1.2.5-2.6.8-3.9,0,0,1.4,2.3,5.5,4,.5.2,1.1.4,1.6.6a14,14,0,0,1,0,2.9Z" transform="translate(-2.23 -5.04)" fill="#fdd800"/>
    <g opacity="0.6">
      <path d="M39.23,19.65a5.9,5.9,0,0,1-1.4-.2c0-1.2,0-2.3-.1-3.3.5.2,1.1.4,1.6.6a25.32,25.32,0,0,1-.1,2.9Z" transform="translate(-2.23 -5.04)" fill="#fff"/>
    </g>
    <g>
      <path d="M39.33,16.75c-.6-.2-1.1-.4-1.6-.6-4.1-1.7-5.5-4-5.5-4a37.31,37.31,0,0,1,1.4-4,10.06,10.06,0,0,0,3.4,3.5,6.11,6.11,0,0,0,2,.9Q39.18,14.8,39.33,16.75Z" transform="translate(-2.23 -5.04)" fill="#b177ea"/>
      <path d="M39.43,16.85h-.1c-.6-.2-1.1-.4-1.7-.6-4.1-1.7-5.5-4-5.5-4h0a26.37,26.37,0,0,1,1.4-4l.1-.2.1.2a9.59,9.59,0,0,0,3.3,3.4,8.18,8.18,0,0,0,1.9.9H39v.1a29.9,29.9,0,0,1,.4,4.1Zm-7.2-4.7a11.83,11.83,0,0,0,5.4,3.9,8.8,8.8,0,0,0,1.5.5c-.1-1.2-.2-2.6-.4-3.9a6.63,6.63,0,0,1-1.9-.9,10.77,10.77,0,0,1-3.3-3.3A38.49,38.49,0,0,0,32.23,12.15Z" transform="translate(-2.23 -5.04)" fill="#390075"/>
    </g>
    <g opacity="0.6">
      <path d="M39.33,16.75c-.6-.2-1.1-.4-1.6-.6-.2-1.6-.4-3.1-.7-4.5a6.11,6.11,0,0,0,2,.9Q39.18,14.8,39.33,16.75Z" transform="translate(-2.23 -5.04)" fill="#fff"/>
    </g>
    <path d="M38.93,12.55a12.15,12.15,0,0,1-2-.9,11.32,11.32,0,0,1-3.4-3.5,7.59,7.59,0,0,1,1.4-2.1,1.22,1.22,0,0,1,.9-.4C37.33,5.75,38.33,9.05,38.93,12.55Z" transform="translate(-2.23 -5.04)" fill="#fe6dcb"/>
    <g opacity="0.6">
      <path d="M39,12.65a12.15,12.15,0,0,1-2-.9,26.4,26.4,0,0,0-2-5.6,1.22,1.22,0,0,1,.9-.4C37.43,5.85,38.53,9.15,39,12.65Z" transform="translate(-2.23 -5.04)" fill="#fff"/>
    </g>
    <g>
      <path d="M38.73,13.25h0A10.43,10.43,0,0,1,33,8.55a.45.45,0,0,1,0-.5c.9-2,1.9-2.9,2.9-2.8,2,.1,3,4.1,3.6,7.4,0,.2,0,.4-.2.5S38.93,13.25,38.73,13.25Zm-4.5-5.1a9.78,9.78,0,0,0,3.9,3.5c-.7-3.9-1.7-5.4-2.3-5.4C35.53,6.35,34.93,6.75,34.23,8.15Z" transform="translate(-2.23 -5.04)" fill="#390075"/>
      <path d="M39.13,17.35h0c-5.5-1.7-7.4-4.7-7.5-4.8a.75.75,0,0,1-.1-.5,20.33,20.33,0,0,1,1.4-4,.57.57,0,0,1,1,0,9.45,9.45,0,0,0,5,4.1c.2.1.4.2.4.5a31.31,31.31,0,0,1,.4,4.2.76.76,0,0,1-.2.5Zm-6.3-5.3a13.07,13.07,0,0,0,5.9,3.8c-.1-.9-.2-1.9-.3-2.8a10.21,10.21,0,0,1-4.7-3.6A11.42,11.42,0,0,0,32.83,12.05Z" transform="translate(-2.23 -5.04)" fill="#390075"/>
      <path d="M37.33,20.05a14.46,14.46,0,0,1-6.5-3.5.44.44,0,0,1-.1-.5,28.75,28.75,0,0,1,.9-4,.66.66,0,0,1,.5-.4.71.71,0,0,1,.6.3s1.8,2.7,6.8,4.3a.66.66,0,0,1,.4.5,14,14,0,0,1-.1,3v.1a.63.63,0,0,1-.6.5C38.53,20.25,37.93,20.15,37.33,20.05Zm1.9-.4ZM31.93,16a12.85,12.85,0,0,0,6.8,3.1v-1.9a15.24,15.24,0,0,1-6.3-3.7A22.11,22.11,0,0,0,31.93,16Z" transform="translate(-2.23 -5.04)" fill="#390075"/>
      <path d="M36.33,22.65a13.4,13.4,0,0,1-5.6-2.8.52.52,0,0,1-.2-.4v-.2h0a22.29,22.29,0,0,1,.3-3.2.66.66,0,0,1,.4-.5c.2-.1.4,0,.6.2a12.17,12.17,0,0,0,7.5,3.4.52.52,0,0,1,.4.2.75.75,0,0,1,.1.5,3.73,3.73,0,0,1-2.9,2.8c-.1,0-.2.1-.4.1,0-.1-.1-.1-.2-.1Zm.1-.6Zm-4.8-3a11.63,11.63,0,0,0,4.9,2.4h.2a2.75,2.75,0,0,0,1.8-1.2,13.12,13.12,0,0,1-6.7-2.9A5.24,5.24,0,0,0,31.63,19.05Z" transform="translate(-2.23 -5.04)" fill="#390075"/>
      <path d="M33.73,22.55c-2.2-.5-3.2-1.9-3.3-3.2a.71.71,0,0,1,.3-.6c.2-.1.5-.1.6.1a12.94,12.94,0,0,0,5.1,2.6h.1a.61.61,0,0,1,0,1.2,8.08,8.08,0,0,1-1.6.1A5,5,0,0,1,33.73,22.55Z" transform="translate(-2.23 -5.04)" fill="#390075"/>
    </g>
    <path d="M33.73,22.75c-2.2-.5-3.3-1.9-3.4-3.3v-.2h0a12.13,12.13,0,0,1,.1-1.8c0-.4.1-.7.1-1.1v-.3a28.75,28.75,0,0,1,.9-4A24.33,24.33,0,0,1,32.83,8c.9-2,1.9-3,3-2.9,2.1.1,3.2,4.1,3.7,7.5a31.31,31.31,0,0,1,.4,4.2,14,14,0,0,1-.1,3v.1h0v.6c0,.1-.1.1-.1.2h0a.1.1,0,0,1-.1.1v.1h0l-.1.1v.1c0,.1-.1.1-.1.2h0c0,.1-.1.1-.2.2h0l-.2.2h0c-.1,0-.1.1-.2.1h0a2.19,2.19,0,0,1-.5.3h0a.1.1,0,0,0-.1.1H38c-.1,0-.1.1-.2.1h-.1c-.1,0-.1,0-.2.1h-.1c-.1,0-.2,0-.2.1h-.1c-.1,0-.2.1-.4.1a8.6,8.6,0,0,1-1.6.1A3.53,3.53,0,0,1,33.73,22.75Zm2.1-16.3h0c-.3,0-.9.4-1.7,2.1a20.87,20.87,0,0,0-1.3,3.8c-.3,1.3-.6,2.6-.8,3.9v.3a4.1,4.1,0,0,0-.1,1.1,9.74,9.74,0,0,0-.1,1.6h0v.1h0c.1.9,1,2,3.3,2.1a5.28,5.28,0,0,0,1.3-.1.37.37,0,0,0,.3-.1h.1c.1,0,.1,0,.2-.1h.1c.1,0,.1,0,.1-.1h.1c.1,0,.1,0,.1-.1h.2c.1-.1.2-.1.3-.2h0l.1-.1h0l.1-.1h0l.1-.1h0a.1.1,0,0,1,.1-.1h0a.1.1,0,0,1,.1-.1h0v-.1h0v-.1h0V20h0v-.1h0v-.1h0a21.85,21.85,0,0,0,.1-2.8c-.1-1.3-.2-2.7-.4-4C37.43,8.35,36.43,6.55,35.83,6.45Zm2.5,14.7Zm.2-1.6Z" transform="translate(-2.23 -5.04)" fill="#390075"/>
    <path d="M45,20s2.4-9.3,6.3-9,5.9,13.6,5.5,16.8C56.73,27.65,50.93,27.75,45,20Z" transform="translate(-2.23 -5.04)" fill="#fff"/>
    <path d="M44.83,20a3.38,3.38,0,0,1,.1-2,13.36,13.36,0,0,1,.7-1.8c.3-.6.5-1.2.8-1.7a15.05,15.05,0,0,1,1-1.7,6.58,6.58,0,0,1,1.4-1.5,3.12,3.12,0,0,1,2.1-.9h.7a.37.37,0,0,1,.3.1c.1,0,.2.1.3.1a3.59,3.59,0,0,1,1,.7,6.57,6.57,0,0,1,1.2,1.7,27.49,27.49,0,0,1,1.5,3.6,24.91,24.91,0,0,1,.9,3.7c.2,1.2.4,2.5.6,3.8,0,.3.1.6.1,1s.1.6.1,1v1a2.35,2.35,0,0,1-.5,1,.3.3,0,0,1-.4,0h0a3.55,3.55,0,0,1-.4-.9,2.78,2.78,0,0,1-.3-1.3V25c0-.3-.1-.6-.1-.9a25.83,25.83,0,0,0-.6-3.7,23.69,23.69,0,0,0-.9-3.6,25.21,25.21,0,0,0-1.3-3.3,4.49,4.49,0,0,0-1-1.3,2.09,2.09,0,0,0-.6-.4.1.1,0,0,1-.1-.1h-.5a2.55,2.55,0,0,0-1.3.6,4.73,4.73,0,0,0-1.1,1.3l-.9,1.5a8.65,8.65,0,0,0-.7,1.7c-.2.6-.4,1.2-.6,1.7a3.91,3.91,0,0,1-1,1.6h0a.3.3,0,0,1-.4,0Z" transform="translate(-2.23 -5.04)" fill="#390075"/>
    <g>
      <g>
        <path d="M48.43,19.35s.9-4.6,2.5-4.4,2.8,6.9,2.7,8.5C53.53,23.45,51,23.35,48.43,19.35Z" transform="translate(-2.23 -5.04)" fill="#fe6dcb"/>
        <path d="M53.23,23.55c-.8-.2-2.8-.9-4.9-4.1h0c0-.2.9-4.7,2.6-4.5s2.9,7.1,2.7,8.6v.1h-.1C53.53,23.55,53.43,23.55,53.23,23.55Zm-4.7-4.2c2.3,3.4,4.5,3.9,5,4,.1-1.8-1.1-8-2.5-8.3h-.1C49.43,14.85,48.53,19,48.53,19.35Z" transform="translate(-2.23 -5.04)" fill="#390075"/>
      </g>
      <path d="M53.13,24.15c-.9-.2-3.1-1-5.3-4.4a.9.9,0,0,1-.1-.5c.2-1.2,1.2-5.3,3.3-5,.7.1,1.7.6,2.6,4.3a17.38,17.38,0,0,1,.7,5,.77.77,0,0,1-.8.7C53.53,24.15,53.33,24.15,53.13,24.15Zm-4-4.9a8.84,8.84,0,0,0,3.6,3.3,32.21,32.21,0,0,0-.6-3.5c-.6-2.6-1.2-3.3-1.4-3.4S49.53,17.25,49.13,19.25Z" transform="translate(-2.23 -5.04)" fill="#390075"/>
    </g>
    <path d="M24.53,18.85s-1.5-9.5-5.3-9.6S12,22.15,12,25.35C12,25.35,17.93,26,24.53,18.85Z" transform="translate(-2.23 -5.04)" fill="#fff"/>
    <path d="M24.33,19a4,4,0,0,1-.9-1.7c-.2-.6-.3-1.2-.5-1.8a4.92,4.92,0,0,0-.6-1.7c-.2-.6-.5-1.1-.7-1.6a7.1,7.1,0,0,0-1-1.4,2.52,2.52,0,0,0-1.2-.7h-.6l-.6.3a4.26,4.26,0,0,0-1.1,1.2,19.62,19.62,0,0,0-1.7,3.2,36.16,36.16,0,0,0-1.3,3.5,23.69,23.69,0,0,0-.9,3.6c-.1.3-.1.6-.2.9v.8a2.92,2.92,0,0,1-.2.9,2,2,0,0,1-.5.9h0a.3.3,0,0,1-.4,0h0a1.43,1.43,0,0,1-.4-1,3.4,3.4,0,0,1,.1-1,2.92,2.92,0,0,0,.2-.9c.1-.3.1-.6.2-.9.3-1.2.6-2.5,1-3.7s.8-2.4,1.3-3.6a22.11,22.11,0,0,1,1.8-3.4,6.58,6.58,0,0,1,1.4-1.5,5.42,5.42,0,0,1,1.1-.6c.1,0,.2-.1.3-.1h1a4.33,4.33,0,0,1,2,1.1,6.57,6.57,0,0,1,1.2,1.7,14.17,14.17,0,0,1,.8,1.8,13.36,13.36,0,0,0,.7,1.8,10.55,10.55,0,0,1,.5,1.9,4.58,4.58,0,0,1-.1,2,.52.52,0,0,1-.4.2c-.2-.2-.3-.2-.3-.2Z" transform="translate(-2.23 -5.04)" fill="#390075"/>
    <g>
      <g>
        <path d="M21.43,18.05s-.5-4.8-2.3-4.8-3.6,6.6-3.6,8.2C15.43,21.45,18.23,21.75,21.43,18.05Z" transform="translate(-2.23 -5.04)" fill="#fe6dcb"/>
        <path d="M15.33,21.55h0c0-1.5,1.4-6.5,2.8-8a1.22,1.22,0,0,1,.9-.4c1.9,0,2.4,4.7,2.4,4.9h0c-3.2,3.7-5.9,3.5-6.1,3.5Zm3.9-8.2H19a.87.87,0,0,0-.7.4c-1.4,1.4-2.7,6.1-2.8,7.7.5,0,2.9-.2,5.7-3.4C21.23,17.55,20.73,13.65,19.23,13.35Z" transform="translate(-2.23 -5.04)" fill="#390075"/>
      </g>
      <path d="M15.33,22.15a.86.86,0,0,1-.6-.7c0-1.5,1.4-6.7,3-8.3a1.94,1.94,0,0,1,1.3-.6c2.3,0,2.9,4.5,3,5.4a.73.73,0,0,1-.2.6c-3.3,3.9-6.3,3.7-6.5,3.6Zm3.8-8.2h0c-.2,0-.9.5-1.9,3a25.38,25.38,0,0,0-1,3.6,9.27,9.27,0,0,0,4.4-2.9C20.43,16.05,19.73,14.15,19.13,14Z" transform="translate(-2.23 -5.04)" fill="#390075"/>
    </g>
    <path d="M14.73,32.65a23.94,23.94,0,0,0-2.8-1.3c-.9-.4-1.9-.7-2.8-1s-1.9-.5-2.9-.7a7.72,7.72,0,0,0-1.5-.2,2.2,2.2,0,0,0-.8-.1c-.3,0-.5-.1-.8-.1a2.2,2.2,0,0,1,.8-.1c.3,0,.5-.1.8-.1a8.53,8.53,0,0,1,1.6,0,11.15,11.15,0,0,1,3.1.5,14.76,14.76,0,0,1,2.9,1.2A7.49,7.49,0,0,1,14.73,32.65Z" transform="translate(-2.23 -5.04)" fill="#390075"/>
    <path d="M14.33,35.15c-1-.2-2-.4-3-.5s-2-.2-3-.2-2,0-3,.1a7.72,7.72,0,0,0-1.5.2c-.3,0-.5.1-.8.1s-.5.1-.8.1c.2-.1.5-.2.7-.3s.5-.2.7-.3a8.33,8.33,0,0,1,1.5-.4,16.28,16.28,0,0,1,3.1-.3,16.45,16.45,0,0,1,3.1.4A8.16,8.16,0,0,1,14.33,35.15Z" transform="translate(-2.23 -5.04)" fill="#390075"/>
    <path d="M14.53,38.55c-1,0-2,.1-3,.2a13.52,13.52,0,0,0-2.9.5,15.68,15.68,0,0,0-2.9.8,7.84,7.84,0,0,0-1.4.5c-.2.1-.5.2-.7.3s-.5.2-.7.3c.2-.2.4-.3.6-.5a2.09,2.09,0,0,1,.6-.4,6.11,6.11,0,0,1,1.4-.7,9.64,9.64,0,0,1,3-1,16.28,16.28,0,0,1,3.1-.3A5,5,0,0,1,14.53,38.55Z" transform="translate(-2.23 -5.04)" fill="#390075"/>
    <path d="M55.43,33.25a14.52,14.52,0,0,1,2.6-1.7,17.1,17.1,0,0,1,3-.9,10.8,10.8,0,0,1,3.1-.2,7.72,7.72,0,0,1,1.5.2,2.35,2.35,0,0,1,.8.2,6.37,6.37,0,0,1,.7.2h-1.6a7.57,7.57,0,0,0-1.5.1c-1,.1-2,.2-3,.4s-1.9.4-2.9.7A18.08,18.08,0,0,0,55.43,33.25Z" transform="translate(-2.23 -5.04)" fill="#390075"/>
    <path d="M55.53,35.85a7.5,7.5,0,0,1,3-.9,10.75,10.75,0,0,1,3.1-.1,17,17,0,0,1,3.1.6,5.91,5.91,0,0,1,1.4.6,2.51,2.51,0,0,1,.7.4,4.35,4.35,0,0,0,.7.4,2.35,2.35,0,0,1-.8-.2c-.2-.1-.5-.1-.7-.2l-1.5-.3c-1-.2-2-.3-3-.4s-2-.1-3-.1A16.17,16.17,0,0,0,55.53,35.85Z" transform="translate(-2.23 -5.04)" fill="#390075"/>
    <path d="M55.13,39.15a8.13,8.13,0,0,1,3.1-.2,17,17,0,0,1,3.1.6,10.76,10.76,0,0,1,2.9,1.3,14.63,14.63,0,0,1,1.3.9c.2.2.4.3.6.5a2.65,2.65,0,0,0,.6.5c-.2-.1-.5-.2-.7-.3a4.88,4.88,0,0,0-.7-.3c-.5-.2-.9-.4-1.4-.6-.9-.4-1.9-.7-2.8-1a24.6,24.6,0,0,0-2.9-.7A9.2,9.2,0,0,0,55.13,39.15Z" transform="translate(-2.23 -5.04)" fill="#390075"/>
    <g>
      <g opacity="0.2">
        <path d="M42.53,40.85a4.26,4.26,0,0,1-3.7,1.9,7.05,7.05,0,0,1-4.2-2.2c-1.6,1.6-3,2.2-4.1,2.2a4.75,4.75,0,0,1-3.8-1.8c4.7.7,6.8-1.8,6.8-1.8h2.1C37.73,42.45,42.33,41,42.53,40.85Z" transform="translate(-2.23 -5.04)" fill="#390075"/>
      </g>
      <path d="M38.83,42.85a11.55,11.55,0,0,1-1.5,3.2,3.42,3.42,0,0,1-2.6,1.9,3.87,3.87,0,0,1-2.7-1.8,13.69,13.69,0,0,1-1.6-3.2,6.68,6.68,0,0,0,4.1-2.2C34.63,40.65,36.53,42.75,38.83,42.85Z" transform="translate(-2.23 -5.04)" fill="#390075"/>
      <g>
        <path d="M37.33,46.05a3.42,3.42,0,0,1-2.6,1.9,3.87,3.87,0,0,1-2.7-1.8,2.85,2.85,0,0,1,2.6-1.8A2.55,2.55,0,0,1,37.33,46.05Z" transform="translate(-2.23 -5.04)" fill="#fb64c0"/>
        <path d="M34.33,48a4.2,4.2,0,0,1-2.3-1.8h0a3,3,0,0,1,5.5-.1h0a3.63,3.63,0,0,1-2.7,1.9C34.63,48.05,34.43,48,34.33,48Zm-2.2-1.9c.6.8,1.5,1.8,2.6,1.7s1.9-1,2.5-1.8a2.54,2.54,0,0,0-2.6-1.6A2.72,2.72,0,0,0,32.13,46.05Z" transform="translate(-2.23 -5.04)" fill="#390075"/>
      </g>
      <g>
        <path d="M32.23,37.35c.5-.6,3.9-.8,4.5-.1s-1.1,2.6-2.2,2.6S31.73,38.05,32.23,37.35Z" transform="translate(-2.23 -5.04)" fill="#390075"/>
        <path d="M34.13,40.55a3.7,3.7,0,0,1-2.4-2,1.44,1.44,0,0,1,0-1.6h0c.5-.7,2-.8,2.8-.8,1,0,2.3.1,2.8.7a1.52,1.52,0,0,1,.1,1.7,3.74,3.74,0,0,1-2.8,2.1A4.33,4.33,0,0,1,34.13,40.55Zm-1.2-2.8a2.51,2.51,0,0,0,.5.8,2,2,0,0,0,1.1.6,3.15,3.15,0,0,0,1.2-.7,1.26,1.26,0,0,0,.4-.7A5.8,5.8,0,0,0,32.93,37.75Zm3.3,0Z" transform="translate(-2.23 -5.04)" fill="#390075"/>
        <g>
          <ellipse cx="34.53" cy="37.34" rx="1.9" ry="0.5" transform="translate(-2.92 -4.39) rotate(-1.07)" fill="#fff"/>
          <path d="M33.33,37.75c-.4-.1-.7-.2-.7-.4s.2-.3.6-.4a5.07,5.07,0,0,1,1.3-.2,4.89,4.89,0,0,1,1.3.1c.4.1.6.2.6.4h0c0,.4-1,.6-1.9.6A4.48,4.48,0,0,1,33.33,37.75Zm2.4-.7a4.48,4.48,0,0,0-1.2-.1,5.07,5.07,0,0,0-1.3.2c-.4.1-.5.2-.5.3s.6.4,1.8.4,1.8-.3,1.8-.4-.1-.3-.6-.4Z" transform="translate(-2.23 -5.04)" fill="#390075"/>
        </g>
      </g>
      <path d="M29.23,43.45a5.37,5.37,0,0,1-3-1.9h0a1.73,1.73,0,0,1-.3-.4.65.65,0,0,1,1.1-.7h0l.2.2h0a4,4,0,0,0,3.2,1.5,6.51,6.51,0,0,0,3.7-2,.76.76,0,0,1,.5-.2c.2,0,.3.1.5.2a5.87,5.87,0,0,0,3.7,1.9,3.82,3.82,0,0,0,3.1-1.7h0c.1-.1.2-.2.2-.3a.64.64,0,0,1,1,.8c-.1.1-.2.3-.3.4h0a5.22,5.22,0,0,1-4.2,2.2,7.17,7.17,0,0,1-4.2-1.9,7.16,7.16,0,0,1-4.1,2A4.48,4.48,0,0,1,29.23,43.45Z" transform="translate(-2.23 -5.04)" fill="#390075"/>
      <path d="M34.13,48.55a4.73,4.73,0,0,1-2.6-2,12,12,0,0,1-1.7-3.4.66.66,0,0,1,.1-.6.55.55,0,0,1,.5-.3,6.51,6.51,0,0,0,3.7-2,.76.76,0,0,1,.5-.2c.2,0,.3.1.5.2a5.87,5.87,0,0,0,3.7,1.9.55.55,0,0,1,.5.3.66.66,0,0,1,.1.6,11.86,11.86,0,0,1-1.6,3.4c-.9,1.4-2,2.2-3.1,2.2A1.27,1.27,0,0,0,34.13,48.55Zm-2.8-5.1a12.4,12.4,0,0,0,1.2,2.3c.7,1,1.5,1.6,2.1,1.5a3.19,3.19,0,0,0,2.1-1.6,9.86,9.86,0,0,0,1.1-2.3h0a6.81,6.81,0,0,1-3.3-1.8A7.17,7.17,0,0,1,31.33,43.45Z" transform="translate(-2.23 -5.04)" fill="#390075"/>
    </g>
    <path d="M47.43,30.65c-.5.2-1.1.4-1.6.6a6.38,6.38,0,0,0-1.4.8c-.2.2-.4.3-.6.5l-.3.3-.1.1-.1.1a6,6,0,0,0-.9,1.3l-.9-.9a.1.1,0,0,0,.1-.1h.1c.1,0,.1-.1.2-.1s.2-.1.4-.1.5-.1.7-.2a3.79,3.79,0,0,1,1.5,0,8.33,8.33,0,0,1,1.5.4,5.39,5.39,0,0,1,1.3.7.19.19,0,0,1,0,.3.31.31,0,0,1-.2.1h0c-.2-.1-.4-.1-.6-.2s-.4-.1-.6-.1a5.28,5.28,0,0,0-1.3-.1,5,5,0,0,0-1.2.2c-.2.1-.4.1-.6.2s-.2.1-.3.1a.1.1,0,0,0-.1.1h-.1a.69.69,0,0,1-.9-.3.64.64,0,0,1,0-.6,5.72,5.72,0,0,1,1.1-1.6c.2-.3.5-.4.7-.7A3.51,3.51,0,0,1,44,31a6.7,6.7,0,0,1,1.8-.7,11.08,11.08,0,0,1,1.9-.2c.1,0,.2.1.2.3-.4.2-.4.2-.5.3Z" transform="translate(-2.23 -5.04)" fill="#390075"/>
    <g>
      <g>
        <ellipse cx="24.88" cy="32.86" rx="4.1" ry="2.9" transform="translate(-11.7 50.6) rotate(-86.42)" fill="#390075"/>
        <path d="M24.23,37.05c-1.5-.3-2.5-2.2-2.4-4.4s1.6-4.1,3.3-4a2.86,2.86,0,0,1,2.1,1.4,5,5,0,0,1,.7,3h0c-.1,2.3-1.6,4.1-3.3,4Zm1.2-8.2h-.3c-1.6-.1-2.9,1.6-3.1,3.9s1,4.1,2.6,4.2,2.9-1.6,3.1-3.9h0a4.66,4.66,0,0,0-.7-2.9A2.22,2.22,0,0,0,25.43,28.85Z" transform="translate(-2.23 -5.04)" fill="#390075"/>
      </g>
      <g>
        <ellipse cx="25.7" cy="31.96" rx="1.4" ry="0.9" transform="translate(-10.03 50.57) rotate(-86.42)" fill="#fff"/>
        <path d="M25.53,33.35c-.5-.1-.8-.8-.8-1.5a1.69,1.69,0,0,1,.3-1,.87.87,0,0,1,.7-.4c.3,0,.5.2.7.5a1.8,1.8,0,0,1,.2,1c0,.8-.5,1.5-1.1,1.4Zm.3-2.7h0a.6.6,0,0,0-.6.3,1.4,1.4,0,0,0-.3.9c0,.7.3,1.3.7,1.4s.8-.5.9-1.3h0a1.64,1.64,0,0,0-.2-1C26.13,30.75,26,30.65,25.83,30.65Z" transform="translate(-2.23 -5.04)" fill="#390075"/>
      </g>
    </g>
  </g>
  <g>
    <path d="M92.13,41.75h-5.6L77.63,32v9.8h-4.3V19.55h4.3v9.9l9.1-9.9h5.1l-10,10.9Z" transform="translate(-2.23 -5.04)" fill="#241438"/>
    <path d="M98.33,23h-4.2v-4.2h4.2Zm-.1,18.8h-4v-16h4Z" transform="translate(-2.23 -5.04)" fill="#241438"/>
    <path d="M111.53,41.45a3.51,3.51,0,0,1-1.4.6,8.13,8.13,0,0,1-4-.1,3.55,3.55,0,0,1-1.6-1.1,3.7,3.7,0,0,1-.8-1.8,9.78,9.78,0,0,1-.3-2.6v-7h-2.1v-1.8a6.71,6.71,0,0,0,3.1-2.4,8.43,8.43,0,0,0,1.6-4.1h1.3v4.7h4v3.6h-4v7.3a3,3,0,0,0,.2,1,.92.92,0,0,0,.4.6l.6.3a1.48,1.48,0,0,0,.7.1,5.16,5.16,0,0,0,1.1-.2,2.38,2.38,0,0,0,1.1-.6v3.5Z" transform="translate(-2.23 -5.04)" fill="#241438"/>
    <path d="M123.53,41.45a3.51,3.51,0,0,1-1.4.6,8.13,8.13,0,0,1-4-.1,3.55,3.55,0,0,1-1.6-1.1,3.7,3.7,0,0,1-.8-1.8,9.78,9.78,0,0,1-.3-2.6v-7h-2.1v-1.8a6.71,6.71,0,0,0,3.1-2.4,8.43,8.43,0,0,0,1.6-4.1h1.3v4.7h4v3.6h-4v7.3a3,3,0,0,0,.2,1,.92.92,0,0,0,.4.6l.6.3a1.48,1.48,0,0,0,.7.1,5.16,5.16,0,0,0,1.1-.2,2.38,2.38,0,0,0,1.1-.6v3.5Z" transform="translate(-2.23 -5.04)" fill="#241438"/>
    <path d="M141.13,25.75l-7.2,19a6.56,6.56,0,0,1-2.1,3.1,4.73,4.73,0,0,1-3.1.9h-.6c-.2,0-.4-.1-.6-.1l-1.3-3.7a2.93,2.93,0,0,0,1,.3,2.77,2.77,0,0,0,.9.1,3.29,3.29,0,0,0,1.7-.4,3,3,0,0,0,1.2-1.6l.6-1.6-6.2-16h4.4l3.7,10.3,3.5-10.3Z" transform="translate(-2.23 -5.04)" fill="#241438"/>
    <path d="M159.43,23.45h-6.1v18.3h-4.4V23.45h-6.1v-3.8h16.6Z" transform="translate(-2.23 -5.04)" fill="#241438"/>
    <path d="M176.23,33.75a7.25,7.25,0,0,1-.7,3.3,9.8,9.8,0,0,1-1.8,2.7,12.71,12.71,0,0,1-2.7,1.8,9.28,9.28,0,0,1-3.3.7,7.25,7.25,0,0,1-3.3-.7,8,8,0,0,1-2.7-1.8,7.12,7.12,0,0,1-1.8-2.7,8.84,8.84,0,0,1-.7-3.3,7.25,7.25,0,0,1,.7-3.3,12.71,12.71,0,0,1,1.8-2.7,8,8,0,0,1,2.7-1.8,8.84,8.84,0,0,1,3.3-.7,7.25,7.25,0,0,1,3.3.7,7.12,7.12,0,0,1,2.7,1.8,6.43,6.43,0,0,1,1.8,2.7A7.25,7.25,0,0,1,176.23,33.75Zm-4,0a4.06,4.06,0,0,0-.4-1.9,5.37,5.37,0,0,0-1-1.6,4,4,0,0,0-1.5-1,5.26,5.26,0,0,0-1.8-.4,3.92,3.92,0,0,0-1.8.4,4.92,4.92,0,0,0-1.5,1,6.24,6.24,0,0,0-1,1.6,5.85,5.85,0,0,0-.4,1.9,4.06,4.06,0,0,0,.4,1.9,5.37,5.37,0,0,0,1,1.6,4,4,0,0,0,1.5,1,5.26,5.26,0,0,0,1.8.4,3.92,3.92,0,0,0,1.8-.4,4.92,4.92,0,0,0,1.5-1,6.24,6.24,0,0,0,1-1.6A4.06,4.06,0,0,0,172.23,33.75Z" transform="translate(-2.23 -5.04)" fill="#241438"/>
    <path d="M194.73,41.75H190l-6.4-7.2v7.2h-4.1v-23h4.1v13.8l5.6-6.8h4.7l-6.6,7.8Z" transform="translate(-2.23 -5.04)" fill="#241438"/>
    <path d="M212.43,33.75v.8c0,.3-.1.6-.1.9h-12.8a5.17,5.17,0,0,0,.6,1.3,5.24,5.24,0,0,0,1,1.1,5.39,5.39,0,0,0,1.3.7,4.15,4.15,0,0,0,1.6.3,6,6,0,0,0,2.2-.4,5.24,5.24,0,0,0,1.8-1l2.5,2.5a13.46,13.46,0,0,1-3.3,1.8,9.67,9.67,0,0,1-3.4.5,8,8,0,0,1-3.4-.7,8.27,8.27,0,0,1-4.5-4.5,8.84,8.84,0,0,1-.7-3.3,7.25,7.25,0,0,1,.7-3.3,9.8,9.8,0,0,1,1.8-2.7,8,8,0,0,1,2.7-1.8,8.84,8.84,0,0,1,3.3-.7,8.66,8.66,0,0,1,3.2.6,9.48,9.48,0,0,1,2.7,1.7,8.32,8.32,0,0,1,1.9,2.6A6.66,6.66,0,0,1,212.43,33.75Zm-4.2-1.6a5.34,5.34,0,0,0-1.7-2.5,4.5,4.5,0,0,0-5.4,0,5.08,5.08,0,0,0-1.7,2.5Z" transform="translate(-2.23 -5.04)" fill="#241438"/>
    <path d="M230.23,41.75h-4v-9.5a3.34,3.34,0,0,0-.3-1.5,4.13,4.13,0,0,0-.7-1.1,2.07,2.07,0,0,0-1-.6,5,5,0,0,0-1.2-.2,5.66,5.66,0,0,0-1.8.3,3.91,3.91,0,0,0-1.6,1v11.7h-4v-16h4v1.2a3.51,3.51,0,0,1,.9-.7,5.36,5.36,0,0,1,1.1-.5l1.2-.3a4.87,4.87,0,0,1,1.2-.1,5.87,5.87,0,0,1,2.3.4,8.17,8.17,0,0,1,2,1.2,5.52,5.52,0,0,1,1.4,2.1,7.29,7.29,0,0,1,.5,3v9.6Z" transform="translate(-2.23 -5.04)" fill="#241438"/>
    <path d="M238.23,41.75H234v-4.2h4.2Z" transform="translate(-2.23 -5.04)" fill="#241438"/>
    <path d="M245.83,23h-4.2v-4.2h4.2Zm-.1,18.8h-4v-16h4Z" transform="translate(-2.23 -5.04)" fill="#241438"/>
    <path d="M266.63,33.75a7.25,7.25,0,0,1-.7,3.3,9.8,9.8,0,0,1-1.8,2.7,12.71,12.71,0,0,1-2.7,1.8,9.28,9.28,0,0,1-3.3.7,7.25,7.25,0,0,1-3.3-.7,8,8,0,0,1-2.7-1.8,7.12,7.12,0,0,1-1.8-2.7,8.84,8.84,0,0,1-.7-3.3,7.25,7.25,0,0,1,.7-3.3,12.71,12.71,0,0,1,1.8-2.7,8,8,0,0,1,2.7-1.8,8.84,8.84,0,0,1,3.3-.7,7.25,7.25,0,0,1,3.3.7,7.12,7.12,0,0,1,2.7,1.8,6.43,6.43,0,0,1,1.8,2.7A7.25,7.25,0,0,1,266.63,33.75Zm-4,0a4.06,4.06,0,0,0-.4-1.9,5.37,5.37,0,0,0-1-1.6,4,4,0,0,0-1.5-1,5.26,5.26,0,0,0-1.8-.4,3.92,3.92,0,0,0-1.8.4,4.92,4.92,0,0,0-1.5,1,6.24,6.24,0,0,0-1,1.6,5.85,5.85,0,0,0-.4,1.9,4.06,4.06,0,0,0,.4,1.9,5.37,5.37,0,0,0,1,1.6,4,4,0,0,0,1.5,1,5.26,5.26,0,0,0,1.8.4,3.92,3.92,0,0,0,1.8-.4,4.92,4.92,0,0,0,1.5-1,6.24,6.24,0,0,0,1-1.6A4.06,4.06,0,0,0,262.63,33.75Z" transform="translate(-2.23 -5.04)" fill="#241438"/>
  </g>
</svg>
